<?xml version="1.0" encoding="UTF-8" standalone="no"?>
<svg width="24px" height="24px" viewBox="0 0 24 24" version="1.1" xmlns="http://www.w3.org/2000/svg" xmlns:xlink="http://www.w3.org/1999/xlink">
    <g id="Template" stroke="none" stroke-width="1" fill="none" fill-rule="evenodd">
        <g id="Confirmation-abonnement" transform="translate(-1045.000000, -19.000000)" fill="#D2D6DB">
            <g id="HEADER">
                <g id="Votre-compte" transform="translate(1042.000000, 12.000000)">
                    <g id="Profil" transform="translate(0.000000, 1.000000)">
                        <path d="M27.404076,28.5840402 C26.7728405,23.3794556 23.7904612,24.6046292 18.5042326,21.5542559 L18.5042326,20.1896978 C19.5198488,19.4777155 19.7781106,18.2097333 20.1124412,16.869976 C20.1277574,16.80948 20.1430096,16.7491762 20.1579414,16.6892568 C20.3098865,16.6754786 20.4338265,16.4411204 20.4338265,16.1379992 L20.4338265,16.0691721 C20.5302101,15.9037051 20.6403078,15.669411 20.7372041,15.3111769 C20.8473018,14.9389082 21.2883976,13.7814082 20.8748582,13.4920011 C20.7096476,13.3816471 20.5714807,13.4229177 20.4750971,13.6159412 C20.4750971,13.6159412 20.9987983,10.7494272 20.5990372,9.52277966 C19.70358,6.38063688 12.2749959,5.51247984 12.2749959,7.46930979 C9.10529666,8.36527965 9.68404666,11.3695119 10.1389207,13.6572759 C10.1389207,13.6572759 9.91840485,13.3678688 9.6289978,13.6434976 C9.2845419,14.001924 9.67026843,14.8976375 9.79446481,15.3111769 C9.87707014,15.6418546 9.97345371,15.8624345 10.0700936,16.0276452 C10.0563154,16.055458 10.0563154,16.0967286 10.0563154,16.1380633 C10.0563154,16.4412486 10.1939696,16.6893209 10.3594366,16.6893209 L10.3732148,16.6893209 C10.7314489,18.0949574 10.965743,19.4458013 12.0269236,20.1897619 L12.0269236,21.55432 C6.03204506,25.0136185 3,22.9739269 3,31.0496395 L27.5452548,31.0496395 C27.5452548,30.0933018 27.4976398,29.2809626 27.404076,28.5840402" id="Imported-Layers"></path>
                    </g>
                </g>
            </g>
        </g>
    </g>
</svg>
