<?xml version="1.0" encoding="utf-8"?>
<!-- Generator: Adobe Illustrator 19.1.0, SVG Export Plug-In . SVG Version: 6.00 Build 0)  -->
<svg version="1.1" id="Calque_1" xmlns:sketch="http://www.bohemiancoding.com/sketch/ns"
	 xmlns="http://www.w3.org/2000/svg" xmlns:xlink="http://www.w3.org/1999/xlink" x="0px" y="0px" viewBox="-277 400.9 40 40"
	 style="enable-background:new -277 400.9 40 40;" xml:space="preserve">
<style type="text/css">
	.st0{fill:#00B2FF;}
</style>
<g>
	<g>
		<path class="st0" d="M-241,408.9v28h-32v-28H-241 M-239,404.9h-36c-1.1,0-2,0.9-2,2v32c0,1.1,0.9,2,2,2h36c1.1,0,2-0.9,2-2v-32
			C-237,405.8-237.9,404.9-239,404.9L-239,404.9z"/>
	</g>
	<rect x="-269" y="416.9" class="st0" width="6" height="4"/>
	<rect x="-269" y="422.9" class="st0" width="6" height="4"/>
	<rect x="-269" y="428.9" class="st0" width="6" height="4"/>
	<rect x="-260" y="416.9" class="st0" width="6" height="4"/>
	<rect x="-260" y="422.9" class="st0" width="6" height="4"/>
	<rect x="-260" y="428.9" class="st0" width="6" height="4"/>
	<rect x="-251" y="416.9" class="st0" width="6" height="4"/>
	<rect x="-251" y="422.9" class="st0" width="6" height="4"/>
	<rect x="-251" y="428.9" class="st0" width="6" height="4"/>
	<g>
		<path class="st0" d="M-265,411.9c0,0.5-0.5,1-1,1h-2c-0.5,0-1-0.5-1-1v-10c0-0.5,0.5-1,1-1h2c0.5,0,1,0.5,1,1V411.9z"/>
	</g>
	<g>
		<path class="st0" d="M-255,411.9c0,0.5-0.5,1-1,1h-2c-0.5,0-1-0.5-1-1v-10c0-0.5,0.5-1,1-1h2c0.5,0,1,0.5,1,1V411.9z"/>
	</g>
	<g>
		<path class="st0" d="M-245,411.9c0,0.5-0.5,1-1,1h-2c-0.5,0-1-0.5-1-1v-10c0-0.5,0.5-1,1-1h2c0.5,0,1,0.5,1,1V411.9z"/>
	</g>
</g>
</svg>
