<?xml version="1.0" encoding="UTF-8" standalone="no"?>
<svg width="80px" height="80px" viewBox="0 0 80 80" version="1.1" xmlns="http://www.w3.org/2000/svg" xmlns:xlink="http://www.w3.org/1999/xlink">
    <!-- Generator: Sketch 3.8.2 (29753) - http://www.bohemiancoding.com/sketch -->
    <title>Group</title>
    <desc>Created with Sketch.</desc>
    <defs></defs>
    <g id="Template" stroke="none" stroke-width="1" fill="none" fill-rule="evenodd">
        <g id="Landing-page-d'attente" transform="translate(-680.000000, -211.000000)" fill="#129AF0">
            <g id="Bloc-attente" transform="translate(340.000000, 158.000000)">
                <g id="Group" transform="translate(340.000000, 53.000000)">
                    <path d="M47.5086406,42.4205183 L45.0183819,39.9284984 L50.0394056,34.9145194 C58.6197028,26.3465502 58.6197028,26.3395056 59.7239406,26.8114924 C63.6530545,28.2767648 67.881563,27.4648771 70.680022,24.6699404 L72.8973032,22.4526591 C75.449202,19.9007604 76.3156852,16.0984489 75.327683,12.4528793 L67.3056687,20.4748936 L58.7183269,11.8875518 L66.7068795,3.89723812 C63.0894882,2.95150339 59.3206384,3.8215089 56.7933957,6.34699046 L54.5761145,8.56427169 C51.7794166,11.3627307 50.96929,15.5894781 52.4645019,19.5996047 C52.83082,20.6915144 52.83082,20.6915144 45.5678591,27.9615199 L39.2929004,34.2417621 L36.8008806,31.7532645 L43.0740782,25.4712612 C45.4216841,23.1218941 47.6689048,20.8729123 48.7995597,19.7404962 C47.3395707,14.7846349 48.547716,9.61215282 52.0858558,6.07401302 L54.3013759,3.85673179 C58.4664832,-0.306614383 65.0425977,-1.19247019 70.6641717,1.65530086 L72.833902,2.75249404 L63.6988442,11.8875518 L67.3056687,15.4943763 L76.4477711,6.35051275 L77.5520088,8.50087048 C80.4490919,14.1435782 79.5808476,20.7513933 75.3875619,24.9429178 L73.1702807,27.160199 C69.6444689,30.687772 64.4931205,31.8994396 59.5055586,30.4429728 C58.1758943,31.7655926 55.2964227,34.6415419 52.5296643,37.4083003 L47.5086406,42.4205183 L47.5086406,42.4205183 Z M8.54859659,78.0097312 C6.73990094,78.0097312 4.96114474,77.3898083 3.58921299,76.1341121 C2.05349477,74.7287186 1.18348927,72.810832 1.1376995,70.7344423 C1.09190974,68.6580527 1.87561915,66.7049431 3.34441387,65.2379096 L31.2673638,37.2938259 L33.7593836,39.7823234 L5.83643368,67.7281682 C5.05272427,68.5101165 4.63533297,69.550953 4.65822785,70.6569519 C4.68464502,71.7629508 5.14782609,72.7861759 5.96851954,73.5364236 C7.52713264,74.9629508 10.1371491,74.7885975 11.7838195,73.1419272 C11.7838195,73.1419272 31.4822234,53.4488066 39.9727023,44.9706558 L42.4611998,47.4626757 C33.9724821,55.9408265 14.2740782,75.6321858 14.2740782,75.6321858 C12.6996147,77.2084104 10.6038525,78.0079701 8.54859659,78.0097312 L8.54859659,78.0097312 Z" id="Fill-12"></path>
                    <path d="M67.6455696,75.073903 C68.5102917,75.2341671 70.2820033,75.5546955 71.3598239,75.7501825 C72.395377,74.7234351 74.4717666,72.6470455 75.5002752,71.6097312 L74.8380848,67.9254164 C73.5119428,66.5922299 68.8924601,61.9674638 65.0285085,58.0999899 C59.0318107,52.0962475 59.0318107,52.0962475 58.8962025,51.7704357 L58.7958173,51.4428628 C58.4717666,49.8437433 57.9927353,47.5014208 57.7179967,46.1805623 C56.7986791,45.94633 55.5623555,45.6310851 54.7275729,45.4197478 L51.7195377,48.427783 L23.2418272,19.9500725 C22.9424326,19.6506779 22.9336269,19.6436333 20.3588332,11.7308099 C18.4973032,10.6794065 12.4372042,7.27159145 7.72438085,4.6245909 L4.37644469,7.97252706 L11.449202,20.5823234 C13.3512383,21.209291 18.96929,23.0408815 18.96929,23.0408815 C19.4007705,23.1941011 19.4007705,23.1941011 46.9327463,50.7243157 L48.1778756,51.9694451 L45.1733627,54.9757191 C45.3917446,55.8351578 45.724601,57.1190323 45.9588332,58.0048881 C51.7318657,59.1619602 51.7512383,59.1813328 52.1157953,59.5441286 L67.6455696,75.073903 L67.6455696,75.073903 Z M71.9181068,79.406319 L71.909301,79.406319 L71.7807375,79.3992744 C71.7279031,79.393991 66.3317556,78.7423675 65.5374794,77.9498523 L49.9988993,62.40775 C48.510732,62.1083553 44.2012108,61.2453944 44.2012108,61.2453944 L43.8912493,61.1538149 C43.181508,60.8685094 42.7095212,60.680067 41.5048982,54.8084104 L41.3129334,53.8802871 L43.1973583,51.9694451 C38.229169,46.9994946 19.9925151,28.7681242 17.4776004,26.2602541 C9.12977435,23.5375243 9.12449092,23.5287186 8.78106769,23.0127032 L0,7.36845441 L7.1203082,0.246385067 L8.28618602,0.899769767 C23.3087507,9.33741424 23.312273,9.33917538 23.5165658,10.0542001 C23.5165658,10.052439 25.5013759,16.1530444 26.0279582,17.753925 L51.7195377,43.4472656 L53.450743,41.7160604 L54.1780958,41.7142992 C54.4352229,41.7160604 54.4898184,41.7142992 59.6482113,43.0422023 C60.6925702,43.1971831 60.7172262,43.2024665 62.1437534,50.2259118 C62.9679692,51.0518886 65.095432,53.1828738 67.5205283,55.6114924 C78.1173363,66.2188672 78.1173363,66.2188672 78.2124381,66.7841946 L79.2761695,72.701641 L78.7266924,73.3409365 C78.6756192,73.4025766 73.4608696,79.406319 71.9181068,79.406319 L71.9181068,79.406319 Z" id="Fill-13"></path>
                </g>
            </g>
        </g>
    </g>
</svg>