<?xml version="1.0" encoding="utf-8"?>
<!-- Generator: Adobe Illustrator 19.2.1, SVG Export Plug-In . SVG Version: 6.00 Build 0)  -->
<svg version="1.1" id="Calque_1" xmlns="http://www.w3.org/2000/svg" xmlns:xlink="http://www.w3.org/1999/xlink" x="0px" y="0px"
	 viewBox="0 0 195.3 20.4" style="enable-background:new 0 0 195.3 20.4;" xml:space="preserve">
<style type="text/css">
	.st0{fill:#FFFFFF;}
	.st1{fill:#8F98A9;}
</style>
<title>logo_lmde_compte</title>
<g id="Template">
	<g id="Formulaire-">
		<g id="HEADER">
			<g id="Logo">
				<path id="Votre-compte" class="st0" d="M97.6,16.7h1.5l4.1-14.1h-1.5l-2.1,7.6c-0.4,1.6-0.8,2.8-1.1,4.2l0,0
					c-0.3-1.4-0.7-2.7-1.1-4.3l-2.1-7.6h-1.6L97.6,16.7z M108.3,16.8c2.2,0,4-1.8,4-5.2s-1.7-5.2-4-5.2s-4,1.8-4,5.2
					S106.1,16.8,108.3,16.8L108.3,16.8z M108.3,15.5c-1.7,0-2.4-1.8-2.4-3.9c0-2.3,0.8-3.9,2.4-3.9s2.4,1.7,2.4,3.9
					C110.7,14,109.9,15.5,108.3,15.5L108.3,15.5z M117.3,16.7c0.4,0,0.8,0,1.2-0.1v-1.2c-0.3,0.1-0.6,0.1-0.9,0.1
					c-1.1,0-1.3-0.5-1.3-1.5V7.9h2.2V6.6h-2.2V3h-1.5v3.6h-1.5v1.3h1.5v6.5C114.8,16.1,115.5,16.7,117.3,16.7
					C117.3,16.7,117.3,16.7,117.3,16.7z M120.4,16.6h1.5V9.9c0.5-1.2,1.7-2,3-2.1h0.4l0.1-1.4h-0.2c-1.3,0-2.6,0.8-3.2,2l0,0V6.6
					h-1.5L120.4,16.6L120.4,16.6z M130.3,16.8c1.5,0,2.9-0.9,3.5-2.4l-1.1-0.7c-0.3,1-1.3,1.7-2.4,1.8c-1.4,0-2.4-1.2-2.4-3.6h5.9
					v-0.4c0-3.4-1.4-5.2-3.6-5.2c-2,0-3.9,1.6-3.9,5.2S128.2,16.8,130.3,16.8L130.3,16.8L130.3,16.8z M128,10.8
					c0.2-2.1,1.2-3.1,2.3-3.1c1.4,0,2,1.2,2.1,3.1H128z M143,16.8c1.8,0,3-1.1,3.5-3l-1.4-0.4c-0.4,1.4-1,2.1-2.1,2.1
					c-1.5,0-2.3-1.5-2.3-3.9c0-2.7,1.1-3.9,2.3-3.9c1.1,0,1.6,0.8,2,2l1.4-0.4c-0.5-1.6-1.3-3-3.4-3s-3.9,1.7-3.9,5.3
					C139.2,15,140.9,16.8,143,16.8L143,16.8L143,16.8z M151.8,16.8c2.2,0,4-1.8,4-5.2s-1.7-5.2-4-5.2s-4,1.8-4,5.2
					S149.6,16.8,151.8,16.8L151.8,16.8z M151.8,15.5c-1.7,0-2.4-1.8-2.4-3.9c0-2.3,0.8-3.9,2.4-3.9s2.4,1.7,2.4,3.9
					C154.2,14,153.4,15.5,151.8,15.5L151.8,15.5z M157.7,16.6h1.5V9.2c0.6-0.8,1.6-1.3,2.6-1.4c1,0,1.4,0.6,1.4,1.8v7.1h1.5V9.1
					c0.6-0.8,1.5-1.2,2.5-1.4c1,0,1.4,0.6,1.4,1.8v7.1h1.5V9.2c0-1.8-0.8-2.8-2.4-2.8c-1.2,0.1-2.4,0.7-3.1,1.6
					c-0.2-1.1-1.2-1.8-2.3-1.6c-1.2,0.1-2.3,0.7-3.1,1.6V6.6h-1.5L157.7,16.6L157.7,16.6z M172.5,20.4h1.5v-5
					c0.6,0.9,1.6,1.4,2.7,1.4c2,0,3.5-1.6,3.5-5.2s-1.4-5.2-3.4-5.2c-1.1,0-2.1,0.6-2.8,1.5V6.6h-1.5L172.5,20.4L172.5,20.4z
					 M176.4,15.5c-1-0.1-1.8-0.6-2.4-1.4v-5c0.6-0.8,1.4-1.3,2.4-1.4c1.3,0,2.3,1.2,2.3,3.9S177.8,15.5,176.4,15.5L176.4,15.5
					L176.4,15.5z M185.3,16.7c0.4,0,0.8,0,1.2-0.1v-1.2c-0.3,0.1-0.6,0.1-0.9,0.1c-1.1,0-1.3-0.5-1.3-1.5V7.9h2.2V6.6h-2.2V3h-1.5
					v3.6h-1.5v1.3h1.5v6.5C182.8,16.1,183.5,16.7,185.3,16.7L185.3,16.7L185.3,16.7z M191.7,16.8c1.5,0,2.9-0.9,3.5-2.4l-1.1-0.7
					c-0.3,1-1.3,1.7-2.4,1.8c-1.4,0-2.4-1.2-2.4-3.6h5.9v-0.4c0-3.4-1.4-5.2-3.6-5.2c-2,0-3.9,1.6-3.9,5.2S189.6,16.8,191.7,16.8
					L191.7,16.8L191.7,16.8z M189.4,10.8c0.2-2.1,1.2-3.1,2.3-3.1c1.4,0,2,1.2,2.1,3.1H189.4L189.4,10.8z"/>
			</g>
		</g>
	</g>
</g>
<g id="Style-Guide">
	<g id="Styleguide">
		<g id="Header-2">
			<g id="Desktop---Header">
				<g id="NORMAL">
					<g id="Logo-Le-Monde">
						<path id="Fill-1" class="st1" d="M10,3.1C9.8,2.6,9.4,2.2,8.8,2C8.7,2,8.6,2,8.4,2c0.6,0.3,1,0.7,1.2,1.3L10,3.1L10,3.1
							L10,3.1"/>
						<path id="Fill-2" class="st1" d="M14.2,17.8l-2.4-1.6c-0.4-0.3-0.6-0.7-0.6-1.2V9.4L11,9.5h-0.1v5.6c0,0.5,0.2,0.9,0.6,1.2
							l2.4,1.7L14.2,17.8"/>
						<path id="Fill-3" class="st1" d="M4.2,12.1C4.2,11,4,9.9,3.8,8.8C3.6,7.7,3.4,6.6,3.4,5.5c0-0.6,0.1-1.2,0.4-1.8
							C3.4,4.3,3.1,5.1,3.1,5.9C3,7.9,4,10.5,3.9,12.6c0,0.3,0,0.6-0.1,0.8l0,0C4,13,4.1,12.6,4.2,12.1"/>
						<path id="Fill-4" class="st1" d="M7.3,17.7c-0.4-0.8-1.3-1.2-2.2-1.2c-0.1,0-0.2,0-0.3,0c0.9,0.1,1.7,0.7,2.1,1.5L7.3,17.7"/>
						<path id="Fill-5" class="st1" d="M15.6,9.4l-0.8-0.9v0.6l0.4,0.5L15.6,9.4"/>
						<path id="Fill-6" class="st1" d="M37.9,4.5L36,3.3l0.3-0.2l1.8,1.1C38,4.3,37.9,4.4,37.9,4.5"/>
						<path id="Fill-7" class="st1" d="M38.4,17.9l-0.8-0.6c-0.5-0.4-0.9-1-0.8-1.7V7.7c-0.1-0.8,0.2-1.7,0.6-2.4
							C37.1,6,37,6.6,37,7.3v8.1c-0.1,0.7,0.3,1.4,0.9,1.9l0.8,0.5L38.4,17.9"/>
						<path id="Fill-8" class="st1" d="M31.7,17.8l-0.1,0.1h-0.2V4.7C31.5,4.4,31.3,4,31,3.8l-0.6-0.4l0.3-0.2
							c0.3,0.2,0.7,0.6,0.7,0.6c0.2,0.2,0.3,0.4,0.2,0.6L31.7,17.8"/>
						<path id="Fill-9" class="st1" d="M22.1,1.7c-0.2,0.5-0.2,1,0.1,1.5c0.2,0.4,0.6,0.6,1,0.8C21.8,4.1,21.2,3,22.1,1.7"/>
						<path id="Fill-10" class="st1" d="M25.8,13.1c0.1-0.4,0.2-0.8,0.2-1.3V5c0.1-0.4,0-0.9-0.3-1.2l0,0c0.4-0.1,0.6,0,0.6,0.7v6.9
							C26.3,12,26.2,12.6,25.8,13.1"/>
						<path id="Fill-11" class="st1" d="M26.2,17.9c-0.3-0.7-1-1.2-1.7-1.3c0.1,0,0.3,0,0.4,0c0.7-0.1,1.4,0.3,1.6,1v0.1L26.2,17.9"
							/>
						<path id="Fill-12" class="st1" d="M61,17.8l-0.7-0.4c-0.7-0.4-1-1.1-1-1.9V9.1c0-0.4,0-0.4-0.2-0.5l-0.8-0.7L58,8.1l0.7,0.5
							C59,8.9,59,8.9,59,9.5v6.2c-0.1,0.7,0.3,1.3,0.8,1.7l0.8,0.5L61,17.8"/>
						<path id="Fill-13" class="st1" d="M54.4,17.9V8.3l-0.3-0.4l-0.4,0.2l0.3,0.4v9.4h0.2L54.4,17.9L54.4,17.9"/>
						<path id="Fill-14" class="st1" d="M47,17.8l-2.7-1.6c-0.5-0.3-0.8-0.9-0.8-1.4V9.4l-0.2,0.1h-0.1V15c0,0.6,0.3,1.1,0.8,1.4
							l2.7,1.6L47,17.8"/>
						<path id="Fill-15" class="st1" d="M48.4,14.8V9.4c0-0.2-0.1-0.4-0.3-0.5L47,8.2v0.4l0.6,0.4C48,9,48.2,9.4,48.1,9.7
							c0,0,0,0,0,0v4.8L48.4,14.8"/>
						<path id="Fill-16" class="st1" d="M69.8,5.1L69.8,5.1c0-0.8-0.4-1.4-1-1.8L68.4,3l-0.3,0.2l0.2,0.1c0.8,0.3,1.3,1.1,1.2,1.9
							L69.8,5.1"/>
						<path id="Fill-17" class="st1" d="M78.4,17.8L76,16.2c-0.4-0.3-0.6-0.7-0.6-1.2V9.4l-0.2,0.1h-0.1v5.6c0,0.5,0.2,1,0.6,1.3
							L78,18L78.4,17.8"/>
						<path id="Fill-18" class="st1" d="M68.4,17.8l-2.5-1.6c-0.5-0.3-0.8-0.8-0.7-1.4V9.7l-0.2,0.1l-0.1,0.1v5
							c-0.1,0.6,0.2,1.1,0.7,1.4l2.6,1.7L68.4,17.8"/>
						<path id="Fill-19" class="st1" d="M79.7,9.4l-0.8-0.9v0.6l0.5,0.5L79.7,9.4"/>
						<path id="Fill-20" class="st1" d="M69.8,14.7V7.2l-0.3,0.2v7.1L69.8,14.7"/>
						<path id="Fill-21" class="st0" d="M16.4,9.5l-2.1,1.3V7.4l0.2-0.1L16.4,9.5L16.4,9.5z M18.9,9l-3.1-3.5l-4.9,2.9V9l1-0.6V15
							c0,0.3,0.1,0.6,0.4,0.8l2.6,1.7l3.7-2.1l-0.3-0.7l-1.9,1l-1.7-1.2c-0.2-0.1-0.3-0.4-0.2-0.6v-2.1L18.9,9L18.9,9z M12.9,2.7
							C12,1.4,10.5,0.7,9,0.8c-2.7-0.1-4.9,2-5.1,4.6c-0.1,2,0.9,4.7,0.8,6.7c0,0.6-0.2,1.1-0.5,1.6L4.5,14l1.6-1.2
							c0.8-0.6,1.3-1.6,1.2-2.6c0-1.6-0.8-4-0.8-5.9c0-1.6,0.6-2.8,2-2.8c0.8,0.1,1.6,0.7,1.8,1.5c0.1,0.2,0,0.4-0.2,0.5L9.6,4v0.8
							L12.9,2.7L12.9,2.7L12.9,2.7z M10.6,15.6l-0.3-0.6l-0.7,0.5c-0.8-1-2.1-1.6-3.5-1.4c-2.2,0-4.9,1.7-6.1,3.2l0.2,0.3
							c1.4-1,3.1-1.6,4.9-1.6c1.1-0.1,2.1,0.5,2.7,1.5L10.6,15.6L10.6,15.6L10.6,15.6z"/>
						<path id="Fill-22" class="st0" d="M41.6,3c-0.9,0.5-1.3,1.4-1.2,2.4v9c-0.1,0.4,0.1,0.8,0.4,1l0.3,0.2l0.8-0.5l0.3,0.6
							l-2.9,1.8l-1-0.7c-0.5-0.3-0.7-0.9-0.6-1.4V7.3c-0.1-1.1,0.3-2.1,1.1-2.8l0.4-0.3l-2.8-1.6l-1.2,0.8v11.8
							c0.1,0.7-0.3,1.4-1,1.6c0,0-0.7,0.3-1.6,0.8h-0.2v-13c0.1-0.4-0.1-0.8-0.4-1.1l-1-0.8l-1.2,0.7V10c0.2,1-0.3,2-1.1,2.6
							l-2.4,1.5l-0.2-0.4c0.7-0.6,1-1.4,0.9-2.3V4.5c0-1-0.1-1.4-1.2-1.2c-0.4,0.1-1,0.2-1.4,0.2c-1.5,0.2-2.2-0.9-1.1-2.3
							c0,0,0.3-0.4,0.9-1.2l0.5,0.3l-0.4,0.5C23.6,1.6,24,2,24.8,1.7c0.4-0.1,1.1-0.4,1.6-0.6c2.2-0.9,3,0.6,3.2,1.4l2.8-1.7
							l2.4,1.8l3-1.8L40,2.1c0.5,0.4,1.2,0.4,1.7,0l0.5-0.2l0.3,0.6L41.6,3L41.6,3L41.6,3z M27.1,17.5c-0.3-0.9-1.2-1.4-2.1-1.4
							c-1.5,0-3,0.5-4.2,1.5l-0.3-0.3c1.5-1.6,3.5-2.7,5.7-2.9c1-0.1,2.1,0.4,2.8,1.1l1.1-0.6l0.3,0.6L27.1,17.5L27.1,17.5
							L27.1,17.5z"/>
						<path id="Fill-23" class="st0" d="M48.9,15.6h-0.1l-1.9-1.1c-0.3-0.2-0.5-0.5-0.4-0.8V7.4h0.1l1.9,1.1C48.8,8.6,49,9,48.9,9.3
							L48.9,15.6L48.9,15.6L48.9,15.6z M64.1,15.9l-0.2-0.5L63,15.9l-0.3-0.2c-0.3-0.2-0.5-0.6-0.4-1V7.9c0.1-0.4-0.1-0.8-0.5-1
							L60,5.6l-2.8,1.6l-1.5-1.6l-3,1.8l0.4,0.5l1-0.6L54.9,8v9.4h0.2l1.5-0.7c0.5-0.1,0.8-0.6,0.7-1.1V7.8l1-0.6l1.1,0.9
							c0.3,0.2,0.4,0.5,0.3,0.9v6.4c-0.1,0.6,0.2,1.1,0.7,1.4l1,0.6L64.1,15.9L64.1,15.9L64.1,15.9z M52.4,14.6l-0.2-0.5l-0.8,0.4
							V8.1c0-0.3-0.1-0.6-0.4-0.8l-3-1.8l-5,2.9v0.7l1-0.6v6.2c-0.1,0.4,0.1,0.8,0.5,1l3,1.8L52.4,14.6L52.4,14.6L52.4,14.6z"/>
						<path id="Fill-24" class="st0" d="M80.4,9.5l-2.1,1.3V7.4l0.2-0.1L80.4,9.5L80.4,9.5z M82.9,9l-3.2-3.5l-4.9,2.9V9l1-0.6V15
							c0,0.3,0.1,0.6,0.4,0.8l2.6,1.7l3.7-2.1l-0.3-0.7l-1.9,1l-1.7-1.2c-0.2-0.1-0.3-0.4-0.3-0.6v-2.1L82.9,9L82.9,9z M73.8,14.6
							l-0.2-0.5l-0.8,0.4v-10c0.1-1.3-0.6-2.5-1.8-3.1l-1-0.7l-3.3,1.9L67.3,3l1.1-0.6l0.7,0.4c0.8,0.5,1.3,1.3,1.2,2.2v0.4
							l-5.7,3.3v0.6l1-0.5v6c-0.1,0.4,0.1,0.8,0.5,0.9l2.8,1.8L73.8,14.6L73.8,14.6L73.8,14.6z M70.3,15.6h-0.1l-1.7-1.1
							c-0.3-0.1-0.5-0.5-0.4-0.8v-6l2.1-1.3l0.2,0.1L70.3,15.6L70.3,15.6L70.3,15.6z"/>
					</g>
				</g>
			</g>
		</g>
	</g>
</g>
</svg>
