<?xml version="1.0" encoding="UTF-8" standalone="no"?>
<svg width="105px" height="23px" viewBox="0 0 105 23" version="1.1" xmlns="http://www.w3.org/2000/svg" xmlns:xlink="http://www.w3.org/1999/xlink">
    <!-- Generator: Sketch 3.8.2 (29753) - http://www.bohemiancoding.com/sketch -->
    <title>Logo le Monde</title>
    <desc>Created with Sketch.</desc>
    <defs>
        <polygon id="path-1" points="0 1.8 104.988 1.8 104.988 24 0 24"></polygon>
    </defs>
    <g id="Confirmation" stroke="none" stroke-width="1" fill="none" fill-rule="evenodd">
        <g id="Bon-cadeau" transform="translate(-668.000000, -1464.000000)">
            <g id="Facture" transform="translate(184.000000, 222.000000)">
                <g id="Footer" transform="translate(1.000000, 1172.000000)">
                    <g id="Logo-le-Monde" transform="translate(483.000000, 69.000000)">
                        <path d="M13.371,21.507 L13.017,20.796 L12.096,21.387 C11.415,20.556 10.311,19.572 7.698,19.572 C4.935,19.545 1.548,21.744 0,23.646 L0.27,24 C2.376,22.602 4.551,21.981 6.45,21.981 C7.995,21.981 9.273,22.725 9.81,23.823 L13.371,21.507 Z M16.227,5.22 C15.69,4.386 14.265,2.841 11.442,2.841 C8.058,2.811 5.085,5.457 4.962,8.667 C4.875,11.223 6.093,14.523 5.973,17.076 C5.916,17.94 5.733,18.567 5.379,19.038 L5.733,19.455 L7.815,17.94 C8.826,17.196 9.393,16.275 9.363,14.67 C9.33,12.681 8.412,9.618 8.412,7.272 C8.412,5.25 9.183,3.732 10.935,3.732 C12.126,3.732 13.074,4.95 13.224,5.637 C13.287,5.961 13.224,6.111 12.927,6.321 L12.096,6.885 L12.096,7.806 L16.227,5.22 Z M23.883,13.125 L19.902,8.724 L13.686,12.351 L13.686,13.185 L14.967,12.471 L14.967,20.703 C14.967,21.18 15.147,21.477 15.441,21.687 L18.741,23.823 L23.409,21.12 L23.022,20.289 L20.583,21.594 L18.387,20.076 C18.117,19.902 18.087,19.722 18.087,19.335 L18.087,16.662 L23.883,13.125 Z M20.763,13.779 L18.087,15.444 L18.087,11.103 L18.327,10.953 L20.763,13.779 Z" id="Fill-1" fill="#1A171B"></path>
                        <g id="Group-5">
                            <mask id="mask-2" fill="white">
                                <use xlink:href="#path-1"></use>
                            </mask>
                            <g id="Clip-4"></g>
                            <path d="M34.2714,23.7921 C33.9714,22.9611 33.1104,22.1001 31.5654,22.0401 C30.1074,22.0101 28.0284,22.5771 26.3064,23.8851 L25.9764,23.4681 C27.2244,22.1001 30.1374,19.9011 33.2004,19.8711 C34.8054,19.8711 35.9334,20.4051 36.7344,21.2691 L38.0754,20.5251 L38.4594,21.2991 L34.2714,23.7921 Z M52.6044,5.5761 C51.4464,6.2571 51.0594,7.1811 51.0594,8.6061 L51.0594,19.9881 C51.0594,20.7051 51.1464,21.0291 51.5334,21.2361 L51.9204,21.4461 L52.9914,20.8221 L53.3454,21.5361 L49.6344,23.7651 L48.3534,22.9041 C47.7894,22.5171 47.5494,22.0401 47.5494,21.1191 L47.5494,10.9551 C47.5494,9.0561 48.1464,8.0421 48.9774,7.4181 L49.4574,7.0641 L45.9474,5.0091 L44.3724,5.9631 L44.3724,20.7621 C44.3724,22.0101 44.1954,22.1901 43.0914,22.7511 C43.0914,22.7511 42.2304,23.1711 41.0484,23.7921 L40.8084,23.7921 L40.8084,7.3881 C40.8084,6.5871 40.7154,6.4071 40.2714,6.0531 L39.0264,5.0421 L37.5084,5.9031 L37.5084,14.4051 C37.5084,15.8871 37.2714,16.9611 36.0834,17.7021 L33.1104,19.5741 L32.8134,19.0701 C33.7344,18.3561 33.9444,17.3451 33.9444,16.1541 L33.9444,7.4811 C33.9444,6.2001 33.7644,5.6961 32.4264,5.9331 C31.9224,6.0201 31.1484,6.1401 30.6744,6.2001 C28.7094,6.4701 27.8784,5.0721 29.2134,3.3201 C29.2134,3.3201 29.5464,2.8701 30.3744,1.7991 L31.0314,2.2461 L30.5544,2.9331 C29.9334,3.8241 30.4344,4.3011 31.4484,3.9411 C31.9224,3.7611 32.8404,3.4071 33.4974,3.1371 C36.3174,2.0391 37.3584,3.8541 37.5084,4.9221 L41.0154,2.8131 L44.0454,5.1291 L47.7894,2.8131 L50.6724,4.4481 C51.6534,5.0091 52.1274,4.7721 52.8144,4.4181 L53.3784,4.1181 L53.8254,4.8621 L52.6044,5.5761 Z" id="Fill-3" fill="#1A171B" mask="url(#mask-2)"></path>
                        </g>
                        <path d="M66.369,20.1681 L66.099,19.5141 L65.061,20.0481 L65.061,11.9961 C65.061,11.5821 64.914,11.2521 64.5,11.0121 L60.663,8.7231 L54.45,12.3501 L54.45,13.2141 L55.731,12.4731 L55.731,20.3481 C55.731,21.0591 55.908,21.3291 56.355,21.5961 L60.129,23.8251 L66.369,20.1681 Z M81.102,21.8601 L80.805,21.1791 L79.704,21.8031 L79.32,21.5661 C78.906,21.3291 78.813,21.0291 78.813,20.3181 L78.813,11.7891 C78.813,11.1021 78.669,10.8081 78.252,10.5081 L75.96,8.7861 L72.426,10.8081 L70.554,8.7861 L66.807,11.0751 L67.311,11.6661 L68.592,10.8951 L69.513,11.9361 L69.513,23.7651 L69.75,23.7651 C71.235,23.1081 71.712,22.9041 71.712,22.9041 C72.426,22.6011 72.633,22.3671 72.633,21.5361 L72.633,11.6661 L73.854,10.9551 L75.279,12.0861 C75.666,12.4101 75.723,12.6801 75.723,13.1841 L75.753,21.2691 C75.753,22.1571 76.02,22.6641 76.614,23.0211 L77.865,23.7651 L81.102,21.8601 Z M61.938,21.4161 L61.764,21.4461 L59.325,20.0181 C58.911,19.7811 58.818,19.5141 58.818,18.9771 L58.848,11.1621 L59.028,11.1021 L61.377,12.4731 C61.851,12.7371 61.938,12.9771 61.938,13.4781 L61.938,21.4161 Z" id="Fill-6" fill="#1A171B"></path>
                        <path d="M89.0301,21.4161 L88.8501,21.4461 L86.7411,20.0781 C86.3271,19.8111 86.1801,19.6011 86.1801,19.0701 L86.1801,11.4891 L88.8231,9.8811 L89.0301,10.0041 L89.0301,21.4161 Z M93.4281,20.1981 L93.1641,19.5141 L92.0931,20.0781 L92.0931,7.4781 C92.0931,5.6361 91.2591,4.4481 89.8941,3.6141 L88.5591,2.7801 L84.3651,5.2221 L85.1991,5.6031 L86.5671,4.8621 L87.4551,5.3661 C88.4061,5.9031 89.0301,6.9741 89.0301,8.0751 L89.0301,8.5461 L81.8421,12.7101 L81.8421,13.5111 L83.0571,12.8541 L83.0571,20.4051 C83.0571,21.0591 83.2341,21.3291 83.6511,21.5961 L87.2181,23.8251 L93.4281,20.1981 Z M104.9871,13.1241 L100.9761,8.7231 L94.7631,12.3501 L94.7631,13.1841 L96.0441,12.4731 L96.0441,20.7051 C96.0441,21.1791 96.2241,21.4761 96.5181,21.6861 L99.8211,23.8251 L104.4831,21.1191 L104.1261,20.2881 L101.6901,21.5961 L99.4881,20.0781 C99.1941,19.8711 99.1641,19.7241 99.1641,19.3371 L99.1641,16.6611 L104.9871,13.1241 Z M101.8401,13.7781 L99.1641,15.4431 L99.1641,11.1021 L99.4341,10.9551 L101.8401,13.7781 Z" id="Fill-8" fill="#1A171B"></path>
                    </g>
                </g>
            </g>
        </g>
    </g>
</svg>