<?xml version="1.0" encoding="UTF-8" standalone="no"?>
<svg width="84px" height="18px" viewBox="0 0 84 18" version="1.1" xmlns="http://www.w3.org/2000/svg" xmlns:xlink="http://www.w3.org/1999/xlink" xmlns:sketch="http://www.bohemiancoding.com/sketch/ns">
    <!-- Generator: Sketch 3.4.4 (17249) - http://www.bohemiancoding.com/sketch -->
    <title>Logo Le Monde</title>
    <desc>Created with Sketch.</desc>
    <defs></defs>
    <g id="Style-Guide" stroke="none" stroke-width="1" fill="none" fill-rule="evenodd" sketch:type="MSPage">
        <g id="Styleguide" sketch:type="MSArtboardGroup" transform="translate(-92.000000, -4665.000000)">
            <g id="Header" sketch:type="MSLayerGroup" transform="translate(0.000000, 4455.000000)">
                <g id="Desktop---Header" transform="translate(50.000000, 160.000000)" sketch:type="MSShapeGroup">
                    <g id="NORMAL">
                        <g id="Logo-Le-Monde" transform="translate(42.000000, 50.000000)">
                            <path d="M10.208626,3.14846341 C10.1387443,2.8187561 9.57379436,2.06253659 8.9411465,2.06253659 C8.79941765,2.06253659 8.70595086,2.0862439 8.61270246,2.11104878 C9.22242038,2.34702439 9.69171975,2.95880488 9.83344859,3.38487805 L10.1850409,3.17260976 L10.1850409,3.14846341 L10.208626,3.14846341" id="Fill-1" fill="#8F98A9"></path>
                            <path d="M14.3357962,17.7802683 L11.9877707,16.2223902 C11.7054049,16.0349268 11.3771793,15.6808537 11.3771793,15.020122 L11.3771793,9.37821951 L11.1419836,9.52068293 L11.0485168,9.56765854 L11.0485168,15.1845366 C11.0485168,15.6569268 11.3059873,16.1523659 11.6575796,16.3883415 L14.0309372,17.9692683 L14.3357962,17.7802683" id="Fill-2" fill="#8F98A9"></path>
                            <path d="M4.33943585,12.1164146 C4.38616924,11.1488049 4.17630573,9.96870732 3.96469518,8.83514634 C3.75352138,7.67941463 3.56418562,6.49843902 3.58798908,5.46168293 C3.6122293,4.82509756 3.72949955,4.21134146 3.98740673,3.645 C3.54147407,4.32878049 3.26041856,5.10695122 3.23617834,5.93341463 C3.16585987,7.93931707 4.12848044,10.5580976 4.03392175,12.5890244 C4.01077343,12.8954634 3.98740673,13.202122 3.96469518,13.4146098 L4.01077343,13.3671951 C4.19945405,13.1068537 4.31672429,12.7064634 4.33943585,12.1164146" id="Fill-3" fill="#8F98A9"></path>
                            <path d="M7.43803458,17.7339512 C7.08600546,17.001439 6.2421838,16.5540732 5.25575978,16.5540732 C5.16120109,16.5766829 5.06729754,16.5766829 4.97383076,16.5766829 C5.93645132,16.7428537 6.75734304,17.2848293 7.0632939,17.9692683 L7.43803458,17.7339512" id="Fill-4" fill="#8F98A9"></path>
                            <path d="M15.7648772,9.40258537 L14.9658235,8.48239024 L14.9900637,9.0954878 L15.4117561,9.61529268 L15.7648772,9.40258537" id="Fill-5" fill="#8F98A9"></path>
                            <path d="M38.0549591,4.47080488 L36.1764513,3.36029268 L36.4583803,3.17260976 L38.2661328,4.23504878 C38.195596,4.3055122 38.1252775,4.37597561 38.0549591,4.47080488" id="Fill-6" fill="#8F98A9"></path>
                            <path d="M38.5242584,17.9227317 L37.7027116,17.3557317 C37.1624386,16.9783902 36.8811647,16.3407073 36.8811647,15.6332195 L36.8811647,7.75031707 C36.8811647,6.66439024 37.1163603,5.90904878 37.491101,5.39078049 C37.2801456,5.90904878 37.1860237,6.5465122 37.1860237,7.27858537 L37.209172,15.3491707 C37.209172,16.2223902 37.4679527,16.7891707 38.0785441,17.2141463 L38.8299909,17.7339512 L38.5242584,17.9227317" id="Fill-7" fill="#8F98A9"></path>
                            <path d="M31.8573248,17.8509512 C31.8573248,17.8509512 31.786788,17.8985854 31.740273,17.9227317 L31.5522475,17.9227317 L31.5522475,4.75419512 C31.5522475,4.11717073 31.5057325,4.11717073 31.1303367,3.83312195 L30.5900637,3.40858537 L30.9429663,3.22002439 C31.2244586,3.45534146 31.6472429,3.78658537 31.6472429,3.81029268 C31.811465,3.97514634 31.8573248,4.06909756 31.8573248,4.44687805 L31.8573248,17.8742195 L31.8573248,17.8509512" id="Fill-8" fill="#8F98A9"></path>
                            <path d="M22.3018744,1.73282927 C22.1145041,2.27590244 22.1378708,2.79460976 22.3724113,3.22002439 C22.584677,3.59670732 22.9594177,3.85704878 23.4066606,3.97514634 C22.0206005,4.09280488 21.411101,2.98382927 22.3018744,1.73282927" id="Fill-9" fill="#8F98A9"></path>
                            <path d="M25.9649864,13.0842439 C26.0818198,12.7064634 26.1296451,12.2810488 26.1296451,11.8330244 L26.1296451,4.96536585 C26.1296451,4.13934146 26.0818198,4.04626829 25.8001092,3.78658537 L25.8474977,3.78658537 C26.2464786,3.7152439 26.4576524,3.78658537 26.4576524,4.49319512 L26.4576524,11.384561 C26.4576524,12.1873171 26.317889,12.7064634 25.9649864,13.0842439" id="Fill-10" fill="#8F98A9"></path>
                            <path d="M26.3868972,17.9227317 C26.2004004,17.3087561 25.6358872,16.7891707 24.6498999,16.6473659 C24.7916288,16.6247561 24.9320473,16.6247561 25.0735578,16.6247561 C26.2929936,16.6473659 26.6458963,17.4024878 26.7162147,17.639122 L26.7395814,17.7091463 L26.3868972,17.9227317" id="Fill-11" fill="#8F98A9"></path>
                            <path d="M61.1312102,17.7572195 L60.4278071,17.3329024 C59.7936306,16.9538049 59.4645314,16.3652927 59.4645314,15.4679268 L59.4645314,9.07221951 C59.4645314,8.69487805 59.4418198,8.71880488 59.300091,8.6004878 C59.300091,8.6004878 58.8072066,8.199 58.4785441,7.93931707 L58.1269518,8.12919512 L58.8072066,8.64746341 C59.1832575,8.93019512 59.1365241,8.95390244 59.1365241,9.52068293 L59.1365241,15.7271707 C59.1365241,16.5766829 59.4881165,17.1665122 59.9810009,17.4512195 L60.8261328,17.9227317 L61.1312102,17.7572195" id="Fill-12" fill="#8F98A9"></path>
                            <path d="M54.5573066,17.8742195 L54.5573066,8.26946341 L54.2524477,7.91626829 L53.8770519,8.12919512 L54.2286442,8.52958537 L54.2286442,17.9227317 L54.41798,17.9227317 C54.4640582,17.8985854 54.5343767,17.8742195 54.5343767,17.8742195 L54.5573066,17.8742195" id="Fill-13" fill="#8F98A9"></path>
                            <path d="M47.1205823,17.8046341 L44.4207461,16.1751951 C43.8804732,15.8452683 43.6701729,15.4442195 43.6701729,14.7360732 L43.6701729,9.40258537 L43.435414,9.52068293 L43.3402002,9.56765854 L43.3402002,14.9957561 C43.3402002,15.6332195 43.6214741,16.1036341 44.1156688,16.3883415 L46.8144131,17.9692683 L47.1205823,17.8046341" id="Fill-14" fill="#8F98A9"></path>
                            <path d="M48.5765241,14.7837073 L48.5765241,9.40258537 C48.5765241,9.11919512 48.4837125,9.02392683 48.2707916,8.9064878 L47.1673157,8.24619512 L47.1673157,8.6004878 L47.8017106,8.95390244 C48.2707916,9.21314634 48.2707916,9.26078049 48.2707916,9.75709756 L48.2482985,14.5944878 L48.5765241,14.7837073" id="Fill-15" fill="#8F98A9"></path>
                            <path d="M69.9771429,5.06041463 L69.9771429,4.98973171 C69.9771429,4.32878049 69.578162,3.645 68.9664786,3.2904878 C68.7321565,3.14846341 68.5218562,3.03058537 68.5218562,3.03058537 L68.2405823,3.22002439 L68.4037125,3.31309756 C69.2016742,3.76287805 69.6495723,4.32878049 69.6495723,5.24831707 L69.9771429,5.06041463" id="Fill-16" fill="#8F98A9"></path>
                            <path d="M78.5256415,17.7802683 L76.1544677,16.2223902 C75.8736306,16.0349268 75.5438763,15.6808537 75.5438763,15.020122 L75.5438763,9.37821951 L75.308899,9.52068293 L75.2145587,9.56765854 L75.2145587,15.1127561 C75.2145587,15.7271707 75.4504095,16.1523659 75.8487352,16.4120488 L78.1963239,17.9692683 L78.5256415,17.7802683" id="Fill-17" fill="#8F98A9"></path>
                            <path d="M68.5218562,17.7802683 L65.9849318,16.1751951 C65.3763057,15.7989512 65.2579436,15.4442195 65.2579436,14.7584634 L65.2579436,9.68597561 L65.0701365,9.78102439 L64.9292812,9.85104878 L64.9292812,14.877439 C64.9292812,15.6808537 65.1882803,16.0349268 65.586606,16.2939512 L68.215687,17.9692683 L68.5218562,17.7802683" id="Fill-18" fill="#8F98A9"></path>
                            <path d="M79.8136488,9.40258537 L79.015687,8.48239024 L79.0394904,9.0954878 L79.4607461,9.61529268 L79.8136488,9.40258537" id="Fill-19" fill="#8F98A9"></path>
                            <path id="Fill-20" fill="#8F98A9" d="M69.9771429,14.7360732 L69.9771429,7.25421951 L69.6495723,7.46758537 L69.6495723,14.5227073 L69.9771429,14.7360732"></path>
                            <path d="M16.5624022,9.52068293 L14.4495723,10.8421463 L14.4495723,7.39602439 L14.6375978,7.27858537 L16.5624022,9.52068293 L16.5624022,9.52068293 Z M19.0276979,9.00153659 L15.8817106,5.50865854 L10.9740491,8.38712195 L10.9740491,9.04785366 L11.9842766,8.48239024 L11.9842766,15.020122 C11.9842766,15.3968049 12.1251319,15.6332195 12.3596724,15.7989512 L14.9658235,17.4975366 L18.6523021,15.3491707 L18.3472247,14.688439 L16.4217652,15.7271707 L14.6845496,14.5227073 C14.4731574,14.3826585 14.4495723,14.2404146 14.4495723,13.9335366 L14.4495723,11.8093171 L19.0276979,9.00153659 L19.0276979,9.00153659 Z M12.9794359,2.72304878 C12.5564331,2.06253659 11.4298089,0.835902439 9.19927207,0.835902439 C6.52345769,0.812634146 4.17630573,2.91270732 4.08196542,5.46168293 C4.01077343,7.49129268 4.97383076,10.1107317 4.87927207,12.1403415 C4.83319381,12.825439 4.69146497,13.320878 4.41062784,13.6973415 L4.69146497,14.0290244 L6.33543221,12.825439 C7.13404914,12.2336341 7.57976342,11.5026585 7.55595996,10.2290488 C7.53259327,8.64746341 6.80451319,6.21680488 6.80451319,4.35314634 C6.80451319,2.74741463 7.41532302,1.54382927 8.80050955,1.54382927 C9.73976342,1.54382927 10.4909918,2.51121951 10.6076069,3.05429268 C10.6556506,3.31309756 10.6076069,3.43163415 10.3730664,3.59670732 L9.71639672,4.04626829 L9.71639672,4.77702439 L12.9794359,2.72304878 L12.9794359,2.72304878 Z M10.7240036,15.6580244 L10.4429481,15.0912439 L9.71639672,15.5625366 C9.17699727,14.9007073 8.30762511,14.1223171 6.2421838,14.1223171 C4.05859873,14.0992683 1.38147407,15.8452683 0.160946315,17.3557317 L0.37255687,17.639122 C2.03858053,16.5290488 3.75352138,16.0349268 5.25575978,16.0349268 C6.47672429,16.0349268 7.48585987,16.6247561 7.90798908,17.4975366 L10.7240036,15.6580244 L10.7240036,15.6580244 Z" id="Fill-21" fill="#FFFFFF"></path>
                            <path d="M41.7182894,3.00643902 C40.8010919,3.54929268 40.4960146,4.28180488 40.4960146,5.4144878 L40.4960146,14.4520244 C40.4960146,15.020122 40.5669882,15.2780488 40.8718471,15.4442195 L41.1775796,15.6099512 L42.0222748,15.1127561 L42.3046406,15.6808537 L39.3693904,17.4512195 L38.3604732,16.7656829 C37.9130118,16.4592439 37.7245496,16.0812439 37.7245496,15.3491707 L37.7245496,7.27858537 C37.7245496,5.76878049 38.195596,4.96536585 38.8529208,4.47080488 L39.2287534,4.18763415 L36.4583803,2.55819512 L35.2140491,3.31309756 L35.2140491,15.066439 C35.2140491,16.0573171 35.0731938,16.1993415 34.2031665,16.6473659 C34.2031665,16.6473659 33.524222,16.9783902 32.5867152,17.4738293 L32.3980346,17.4738293 L32.3980346,4.44687805 C32.3980346,3.81029268 32.3266242,3.66782927 31.9745951,3.38487805 L30.9894813,2.583 L29.7916652,3.26634146 L29.7916652,10.017 C29.7916652,11.1962195 29.6042948,12.0457317 28.6650409,12.635122 L26.317889,14.1223171 L26.0818198,13.7219268 C26.8105551,13.1544878 26.9743403,12.3512927 26.9743403,11.4078293 L26.9743403,4.51734146 C26.9743403,3.50231707 26.8347953,3.1014878 25.7769609,3.2904878 C25.3784167,3.36029268 24.7678253,3.45534146 24.3922111,3.50231707 C22.8421474,3.7152439 22.1841674,2.60582927 23.2411283,1.21368293 C23.2411283,1.21368293 23.499909,0.859609756 24.1567971,0.00921951219 L24.6745769,0.364170732 L24.2978708,0.906804878 C23.8052047,1.61582927 24.2041856,1.99317073 25.0030209,1.70890244 C25.3784167,1.56731707 26.1056233,1.28502439 26.6223112,1.07143902 C28.8517561,0.198878049 29.6741765,1.63843902 29.7916652,2.48839024 L32.562475,0.812634146 L34.9552684,2.65280488 L37.9130118,0.812634146 L40.1909372,2.11104878 C40.9653139,2.55819512 41.3413649,2.36985366 41.8814195,2.0862439 L42.3277889,1.85070732 L42.6795996,2.44097561 L41.7182894,3.00643902 L41.7182894,3.00643902 Z M27.2329026,17.4738293 C26.9981438,16.812 26.317889,16.1282195 25.0964877,16.0812439 C23.9451865,16.0573171 22.3018744,16.506439 20.9413649,17.5451707 L20.6821474,17.2141463 C21.6690082,16.1282195 23.9696451,14.3826585 26.3868972,14.3580732 C27.6559054,14.3580732 28.5477707,14.7837073 29.1815105,15.4679268 L30.2386897,14.877439 L30.5439854,15.4916341 L27.2329026,17.4738293 L27.2329026,17.4738293 Z" id="Fill-22" fill="#FFFFFF"></path>
                            <path d="M49.0925569,15.5862439 L48.9523567,15.6099512 L47.0260237,14.4763902 C46.6986715,14.2876098 46.626606,14.0753415 46.626606,13.6501463 L46.651283,7.44365854 L46.7914832,7.39602439 L48.6468426,8.48239024 C49.0215833,8.69487805 49.0925569,8.88387805 49.0925569,9.28426829 L49.0925569,15.5862439 L49.0925569,15.5862439 Z M64.2306824,15.9396585 L63.9961419,15.3968049 L63.1265514,15.8933415 L62.8230027,15.7039024 C62.4943403,15.515122 62.4233667,15.2780488 62.4233667,14.7123659 L62.4233667,7.93931707 C62.4233667,7.39602439 62.3063148,7.16092683 61.9765605,6.9245122 L60.1685896,5.55541463 L57.3748499,7.16092683 L55.8961965,5.55541463 L52.937798,7.37363415 L53.337434,7.84404878 L54.3463512,7.23226829 L55.0739945,8.05741463 L55.0739945,17.4512195 L55.26202,17.4512195 C56.4364695,16.9300976 56.811647,16.7656829 56.811647,16.7656829 C57.3748499,16.5290488 57.5399454,16.3407073 57.5399454,15.6808537 C57.5399454,15.7039024 57.5399454,15.0425122 57.5399454,7.84404878 L58.5034395,7.27858537 L59.6300637,8.17573171 C59.9342675,8.4347561 59.9810009,8.64746341 59.9810009,9.04785366 L60.0048044,15.4679268 C60.0048044,16.1751951 60.2161965,16.5766829 60.6850591,16.8600732 L61.6719199,17.4512195 L64.2306824,15.9396585 L64.2306824,15.9396585 Z M52.59101,14.5944878 L52.3793995,14.0753415 L51.5578526,14.4996585 L51.5578526,8.10439024 C51.5578526,7.77534146 51.4414559,7.515 51.1127934,7.32490244 L48.0829845,5.50865854 L43.1759782,8.38712195 L43.1759782,9.07221951 L44.1866424,8.48239024 L44.1866424,14.7360732 C44.1866424,15.3015366 44.3261874,15.515122 44.6797452,15.7271707 L47.6608553,17.4975366 L52.59101,14.5944878 L52.59101,14.5944878 Z" id="Fill-23" fill="#FFFFFF"></path>
                            <path d="M80.6122657,9.52068293 L78.4989991,10.8421463 L78.4989991,7.39602439 L78.710828,7.27858537 L80.6122657,9.52068293 L80.6122657,9.52068293 Z M83.1004914,9.00153659 L79.9307006,5.50865854 L75.0243494,8.38712195 L75.0243494,9.04785366 L76.0337034,8.48239024 L76.0337034,15.020122 C76.0337034,15.3968049 76.1743403,15.6332195 76.4090992,15.7989512 L79.015687,17.4975366 L82.7008553,15.3491707 L82.4202366,14.688439 L80.4945587,15.7271707 L78.7569063,14.5227073 C78.5217106,14.3580732 78.4989991,14.2404146 78.4989991,13.9335366 L78.4989991,11.8093171 L83.1004914,9.00153659 L83.1004914,9.00153659 Z M73.9680437,14.6184146 L73.757525,14.0753415 L72.9117379,14.5227073 L72.9117379,4.51734146 C72.9117379,3.05429268 72.2550682,2.11104878 71.1751774,1.44943902 L70.1190901,0.788268293 L66.8077889,2.72304878 L67.4651137,3.03058537 L68.5463148,2.44097561 L69.2488444,2.84158537 C70.0007279,3.26634146 70.4938308,4.11717073 70.4938308,4.98973171 L70.4938308,5.36641463 L64.8124477,8.67007317 L64.8124477,9.30797561 L65.7746315,8.78882927 L65.7746315,14.7837073 C65.7746315,15.3015366 65.9152684,15.515122 66.2439308,15.7271707 L69.0610373,17.4975366 L73.9680437,14.6184146 L73.9680437,14.6184146 Z M70.4938308,15.5862439 L70.3529754,15.6099512 L68.6856415,14.5227073 C68.358071,14.3110976 68.2405823,14.1453659 68.2405823,13.7219268 L68.2405823,7.704 L70.3293904,6.42797561 L70.4938308,6.52280488 L70.4938308,15.5862439 L70.4938308,15.5862439 Z" id="Fill-24" fill="#FFFFFF"></path>
                        </g>
                    </g>
                </g>
            </g>
        </g>
    </g>
</svg>