<?xml version="1.0" encoding="UTF-8" standalone="no"?>
<svg width="130px" height="49px" viewBox="0 0 130 49" version="1.1" xmlns="http://www.w3.org/2000/svg" xmlns:xlink="http://www.w3.org/1999/xlink">
    <!-- Generator: Sketch 3.7 (28169) - http://www.bohemiancoding.com/sketch -->
    <title>Group</title>
    <desc>Created with Sketch.</desc>
    <defs>
        <polygon id="path-1" points="0 0 18 0 18 30 0 30"></polygon>
        <polygon id="path-3" points="0 0 29 0 29 41 0 41"></polygon>
        <polygon id="path-5" points="0 0 59 0 59 49 0 49"></polygon>
    </defs>
    <g id="Page-1" stroke="none" stroke-width="1" fill="none" fill-rule="evenodd">
        <g id="Group">
            <g id="Mobile" transform="translate(112.000000, 19.000000)">
                <path d="M16,0 L2,0 C0.9,0 0,0.9 0,2 L0,28 C0,29.1 0.9,30 2,30 L16,30 C17.1,30 18,29.1 18,28 L18,2 C18,0.9 17.1,0 16,0 L16,0 Z M16,28 L2,28 L2,2 L16,2 L16,28 Z" id="Fill-1" fill="#129AF0"></path>
                <mask id="mask-2" fill="white">
                    <use xlink:href="#path-1"></use>
                </mask>
                <g id="Clip-4"></g>
                <polygon id="Fill-3" fill="#129AF0" mask="url(#mask-2)" points="18 5 0 5 0 3 18 3"></polygon>
                <polygon id="Fill-5" fill="#129AF0" mask="url(#mask-2)" points="18 25 0 25 0 23 18 23"></polygon>
                <path d="M9.5,25 C8.673,25 8,25.673 8,26.5 C8,27.327 8.673,28 9.5,28 C10.327,28 11,27.327 11,26.5 C11,25.673 10.327,25 9.5,25 M9.5,26 C9.776,26 10,26.224 10,26.5 C10,26.776 9.776,27 9.5,27 C9.224,27 9,26.776 9,26.5 C9,26.224 9.224,26 9.5,26" id="Fill-6" fill="#129AF0" mask="url(#mask-2)"></path>
            </g>
            <g id="Tablet" transform="translate(71.000000, 8.000000)">
                <path d="M27,0 L2,0 C0.9,0 0,0.9 0,2 L0,39 C0,40.1 0.9,41 2,41 L27,41 C28.1,41 29,40.1 29,39 L29,2 C29,0.9 28.1,0 27,0 L27,0 Z M27,39 L2,39 L2,2 L27,2 L27,39 Z" id="Fill-1" fill="#129AF0"></path>
                <mask id="mask-4" fill="white">
                    <use xlink:href="#path-3"></use>
                </mask>
                <g id="Clip-4"></g>
                <polygon id="Fill-3" fill="#129AF0" mask="url(#mask-4)" points="29 6 0 6 0 4 29 4"></polygon>
                <polygon id="Fill-5" fill="#129AF0" mask="url(#mask-4)" points="29 34 0 34 0 32 29 32"></polygon>
                <path d="M14.5,35 C13.673,35 13,35.673 13,36.5 C13,37.327 13.673,38 14.5,38 C15.327,38 16,37.327 16,36.5 C16,35.673 15.327,35 14.5,35 M14.5,36 C14.776,36 15,36.224 15,36.5 C15,36.776 14.776,37 14.5,37 C14.224,37 14,36.776 14,36.5 C14,36.224 14.224,36 14.5,36" id="Fill-6" fill="#129AF0" mask="url(#mask-4)"></path>
            </g>
            <g id="Desktop">
                <path d="M57,0 L2,0 C0.9,0 0,0.9 0,2 L0,41 C0,42.1 0.9,43 2,43 L57,43 C58.1,43 59,42.1 59,41 L59,2 C59,0.9 58.1,0 57,0 L57,0 Z M57,41 L2,41 L2,2 L57,2 L57,41 Z" id="Fill-1" fill="#129AF0"></path>
                <mask id="mask-6" fill="white">
                    <use xlink:href="#path-5"></use>
                </mask>
                <g id="Clip-4"></g>
                <polygon id="Fill-3" fill="#129AF0" mask="url(#mask-6)" points="59 6 0 6 0 4 59 4"></polygon>
                <polygon id="Fill-5" fill="#129AF0" mask="url(#mask-6)" points="59 36 0 36 0 34 59 34"></polygon>
                <polygon id="Stroke-6" stroke="#129AF0" stroke-width="2" stroke-linejoin="round" mask="url(#mask-6)" points="36 48 23 48 23 42 36 42"></polygon>
                <path d="M13,48 L46,48" id="Stroke-7" stroke="#129AF0" stroke-width="2" stroke-linejoin="round" mask="url(#mask-6)"></path>
            </g>
        </g>
    </g>
</svg>