<?xml version="1.0" encoding="UTF-8" standalone="no"?>
<svg width="63px" height="54px" viewBox="0 0 63 54" version="1.1" xmlns="http://www.w3.org/2000/svg" xmlns:xlink="http://www.w3.org/1999/xlink">
    <!-- Generator: Sketch 3.6.1 (26313) - http://www.bohemiancoding.com/sketch -->
    <title>Page 1</title>
    <desc>Created with Sketch.</desc>
    <defs></defs>
    <g id="Template" stroke="none" stroke-width="1" fill="none" fill-rule="evenodd">
        <g id="Création-Compte---Confirmation" transform="translate(-1085.000000, -242.000000)" fill="#129AF0">
            <g id="Numérique" transform="translate(193.000000, 236.000000)">
                <g id="Résidents-à-l'étranger" transform="translate(793.000000, 6.000000)">
                    <g id="Têtière">
                        <g id="Page-1" transform="translate(99.000000, 0.000000)">
                            <path d="M18.6405376,48.7435313 C18.6611296,50.6036739 19.9339473,51.8342716 21.8192147,51.8166583 C23.6420586,51.7995631 24.8779662,50.5337389 24.874599,48.6873243 C24.8711022,46.8256276 23.6024288,45.5734018 21.7292057,45.5827265 C19.8703582,45.5917922 18.6198161,46.8716034 18.6405376,48.7435313 L18.6405376,48.7435313 Z M52.8484858,48.662847 C52.8374775,46.830808 51.5835681,45.5864823 49.7447946,45.5827265 C47.8722191,45.5788412 46.6119638,46.8359883 46.6172737,48.7026064 C46.6225835,50.577254 47.870406,51.8156223 49.7521766,51.8139386 C51.6107651,51.8123845 52.8598826,50.5409914 52.8484858,48.662847 L52.8484858,48.662847 Z M15.01065,16.5964652 C15.4261159,18.3238607 15.8305736,20.0127919 16.2386575,21.7009461 C17.606017,27.3553237 18.9814062,33.0078881 20.332059,38.66641 C20.463511,39.2172132 20.6672292,39.4024115 21.2668574,39.4009869 C31.4105466,39.3771572 41.5542357,39.3841507 51.6979249,39.3842802 L52.5394765,39.3842802 C54.9297008,31.8020267 57.3162988,24.2312995 59.7231003,16.5964652 L15.01065,16.5964652 Z M0,0.651664388 C0.375706581,0.142563192 0.870691259,-0.0067610713 1.50450994,0.000232432794 C4.30825754,0.0309261452 7.11252317,0.0116292543 9.91665929,0.014607969 C10.7474617,0.015385025 11.0487004,0.247854281 11.2402447,1.0388973 C12.0312877,4.30369813 12.8165028,7.56992355 13.6068983,10.8348539 C13.9036042,12.0607893 14.2087282,13.2846525 14.5121685,14.5186174 L15.8163275,14.5186174 C30.7644245,14.5184879 45.7125214,14.5219847 60.6604889,14.5061845 C61.293142,14.505537 61.7900693,14.645148 62.1644808,15.1567099 L62.1644808,15.9337659 C61.7329557,17.2108575 61.279673,18.4809555 60.8736613,19.7659471 C58.6997176,26.6456125 56.5378182,33.5290337 54.3715156,40.4110302 C54.1109428,41.2385949 53.8468733,41.4368737 52.9667278,41.4370032 C42.6963785,41.4384278 32.4258997,41.4377802 22.1555505,41.4377802 L21.0384029,41.4377802 C21.2075421,42.1622555 21.3611402,42.8204219 21.5265236,43.5287085 L24.0024831,43.5287085 C32.5036053,43.5285789 41.0047276,43.5246937 49.5058499,43.5302626 C52.2607724,43.5320757 54.5896093,45.5833741 54.8835955,48.2387039 C55.1551766,50.6922583 53.3020275,53.12276 50.6759667,53.7615 C50.5735248,53.7864953 50.4779469,53.8398532 50.3791313,53.8800011 L49.084038,53.8800011 C48.0632454,53.5893821 47.0945156,53.2083657 46.2986807,52.4625214 C44.3898426,50.673868 44.0378362,48.2365023 45.387453,46.0181369 C45.4524667,45.9111622 45.5167033,45.8035399 45.6203108,45.631681 L25.9632544,45.631681 C26.2340584,46.2647227 26.5953895,46.8839068 26.7678959,47.5519159 C27.449115,50.1904096 25.6472516,53.0227788 22.8928471,53.7291227 C22.7281112,53.7713427 22.5676492,53.8293629 22.405115,53.8800011 L21.1100216,53.8800011 C20.9474874,53.8293629 20.7849532,53.7784657 20.622419,53.7279571 C18.5132299,53.0721218 17.1088307,51.7118853 16.68935,49.52253 C16.2854103,47.414377 17.2116611,45.7968054 18.8380393,44.521786 C19.0552265,44.3516108 19.2937827,44.2086325 19.5313028,44.0470048 C19.5033288,43.9189201 19.4827368,43.8149241 19.457871,43.7119642 C18.4559868,39.5694786 17.4539731,35.4271225 16.4517003,31.2847664 C14.1474702,21.7620745 11.8387073,12.2405482 9.55092493,2.71397104 C9.42543038,2.19114185 9.21575477,2.04622091 8.68826325,2.05321441 C6.31604076,2.08481469 3.9429117,2.04945864 1.57055971,2.07846873 C0.925732726,2.08623929 0.390470645,1.96890383 0,1.4287204 L0,0.651664388 L0,0.651664388 Z" id="Fill-1"></path>
                        </g>
                    </g>
                </g>
            </g>
        </g>
    </g>
</svg>