<?xml version="1.0" encoding="UTF-8" standalone="no"?>
<svg width="31px" height="39px" viewBox="0 0 31 39" version="1.1" xmlns="http://www.w3.org/2000/svg" xmlns:xlink="http://www.w3.org/1999/xlink">
    <!-- Generator: Sketch 3.6.1 (26313) - http://www.bohemiancoding.com/sketch -->
    <title>Page 1</title>
    <desc>Created with Sketch.</desc>
    <defs></defs>
    <g id="Formulaire" stroke="none" stroke-width="1" fill="none" fill-rule="evenodd">
        <g id="Formulaire---numérique-ouvert" transform="translate(-204.000000, -635.000000)">
            <g id="Col-droite" transform="translate(184.000000, 104.000000)">
                <g id="Réassurance" transform="translate(0.000000, 509.000000)">
                    <g id="Sécurité" transform="translate(21.000000, 22.000000)">
                        <g id="Page-1" transform="translate(0.000000, 2.000000)">
                            <path d="M2.06990072,5.83111217 C3.9668217,5.62228033 5.73683836,4.96409845 7.46385686,4.18528469 C9.81711084,3.12405215 12.0366674,1.83542329 14.0901286,0.267507014 C14.1784391,0.20003368 14.2684665,0.134722474 14.3861142,0.0472680851 C14.5280978,0.163277487 14.6685883,0.279585114 14.8104972,0.394028837 C17.6556174,2.68767488 20.7924683,4.43683721 24.3164519,5.45751119 C25.3727438,5.76341516 26.4524009,5.92207069 27.5552741,5.9028352 C27.8008713,5.89851094 28.0466178,5.9021642 28.3043828,5.9021642 C28.3165507,6.02712034 28.3319285,6.11114514 28.3318539,6.19516995 C28.331182,10.3322919 28.3434246,14.4694138 28.3227466,18.6064612 C28.3071449,21.7290973 27.2281596,24.4789526 25.2883897,26.9070979 C23.5751814,29.0516316 21.4416958,30.7137869 19.1433839,32.1719565 C17.6018697,33.1499098 16.020194,34.0649377 14.4492678,34.9961443 C14.3481176,35.0560874 14.1527596,35.0669726 14.0559391,35.0091916 C11.2603862,33.3408482 8.43362981,31.7178349 5.94682769,29.5885852 C3.95502706,27.8831873 2.22539584,25.9673174 1.10677158,23.5629554 C0.406185089,22.0571445 0.0139014421,20.4749879 0.00785482452,18.8123108 C-0.00468630826,15.3341163 0.00188285653,11.8558472 0.000688462932,8.37765274 C0.000389864533,7.57170053 0.000613813332,6.76574833 0.000613813332,5.84274293 C0.733150336,5.84274293 1.40887851,5.90387899 2.06990072,5.83111217 Z" id="Fill-1" stroke="#129AF0" stroke-width="2"></path>
                            <path d="M21.4145,12.276375 C21.0838498,11.907875 20.5478842,11.907875 20.2177217,12.276375 L13.1219089,20.166675 L9.44476601,16.082925 C9.11460345,15.714425 8.57815025,15.714425 8.24798768,16.082925 C7.91733744,16.450325 7.91733744,17.047625 8.24798768,17.415575 L12.3918448,22.018525 C12.4250074,22.076825 12.4625591,22.132375 12.5079138,22.182975 C12.6776281,22.371075 12.9005,22.461825 13.1223966,22.456875 C13.3442931,22.461825 13.5676527,22.371075 13.7368793,22.182975 C13.782234,22.132375 13.8197857,22.076825 13.8529483,22.018525 L21.4145,13.609025 C21.7451502,13.241625 21.7451502,12.644325 21.4145,12.276375" id="Imported-Layers-Copy-6" fill="#129AF0"></path>
                        </g>
                    </g>
                </g>
            </g>
        </g>
    </g>
</svg>