<?xml version="1.0" encoding="UTF-8" standalone="no"?>
<svg width="54px" height="60px" viewBox="0 0 54 60" version="1.1" xmlns="http://www.w3.org/2000/svg" xmlns:xlink="http://www.w3.org/1999/xlink">
    <!-- Generator: Sketch 3.6.1 (26313) - http://www.bohemiancoding.com/sketch -->
    <title>Page 1</title>
    <desc>Created with Sketch.</desc>
    <defs></defs>
    <g id="Gamme" stroke="none" stroke-width="1" fill="none" fill-rule="evenodd">
        <g id="Gamme---Popin" transform="translate(-673.000000, -431.000000)" fill="#129AF0">
            <g id="Popin">
                <g id="Résidents-à-l'étranger-+-Grands-comptes-+-Etudiants" transform="translate(221.000000, 426.000000)">
                    <g id="Typologies">
                        <g id="Grands-comptes" transform="translate(312.000000, 0.000000)">
                            <path d="M189,63 L175,63 L175,35 L189,35 L189,63 Z M161,35 L173,35 L173,63 L161,63 L161,35 Z M145,35 L159,35 L159,63 L145,63 L145,35 Z M142,22 L159,22 L159,33 L143.003,33 L142,33 L142,22 Z M147.886009,10.3646563 C149.07145,8.49205021 151.106892,7.375 153.324709,7.375 C154.536203,7.375 155.721644,7.72021085 156.750764,8.37480879 C158.818772,9.67749126 162.378352,15.2725125 164.377969,19.9947364 C163.283716,20.0403303 161.427394,19.9947364 159.965133,19.9947364 L159.965133,19.9947364 C152.751528,19.9947364 150.510915,19.633242 149.885627,19.2359239 C146.892714,17.3372642 145.99712,13.3608259 147.886009,10.3646563 L147.886009,10.3646563 Z M177.127206,8.36829538 C178.159582,7.72021085 179.341766,7.375 180.553261,7.375 C182.771078,7.375 184.803262,8.49205021 185.988703,10.3646563 C187.877593,13.3640826 186.985255,17.3372642 183.989086,19.2261537 C183.360541,19.6234719 181.113414,19.9947364 173.877013,19.9947364 C172.434292,19.9947364 170.584483,20.0403303 169.5,19.9947364 C171.496361,15.2725125 175.059197,9.67749126 177.127206,8.36829538 L177.127206,8.36829538 Z M173,33 L161,33 L161,22 L173,22 L173,33 Z M192,33 L190.997,33 L175,33 L175,22 L192,22 L192,33 Z M192.311,20 L186.65,20 C189.743,17.009 190.43,13.112 188.042,9.326 C186.326,6.617 183.389,5 180.182,5 C178.427,5 176.711,5.498 175.226,6.44 C171.956,8.507 168.455,16.433 167.003,20 C165.545,16.433 162.044,8.504 158.78,6.443 C157.289,5.501 155.576,5.003 153.818,5.003 C150.614,5.003 147.674,6.617 145.958,9.329 C143.573,13.109 144.26,17 147.347,20 L141.686,20 C140.756,20 140,20.753 140,21.686 L140,33.311 C140,34.247 140.756,35 141.686,35 L143,35 L143,63.314 C143,64.247 143.753,65 144.686,65 L160.823,65 L173.177,65 L189.311,65 C190.247,65 191,64.247 191,63.314 L191,35 L192.311,35 C193.247,35 194,34.247 194,33.311 L194,21.686 C194,20.753 193.247,20 192.311,20 L192.311,20 Z" id="Page-1"></path>
                        </g>
                    </g>
                </g>
            </g>
        </g>
    </g>
</svg>