<?xml version="1.0" encoding="UTF-8" standalone="no"?>
<svg width="104px" height="61px" viewBox="0 0 104 61" version="1.1" xmlns="http://www.w3.org/2000/svg" xmlns:xlink="http://www.w3.org/1999/xlink">
    <!-- Generator: Sketch 3.6.1 (26313) - http://www.bohemiancoding.com/sketch -->
    <title>Icone</title>
    <desc>Created with Sketch.</desc>
    <defs></defs>
    <g id="Home" stroke="none" stroke-width="1" fill="none" fill-rule="evenodd">
        <g id="Home---1280px" transform="translate(-307.000000, -987.000000)">
            <g id="Typologies" transform="translate(-2.000000, 921.000000)">
                <g id="Etudiants" transform="translate(185.000000, 65.000000)">
                    <g id="Icone" transform="translate(126.000000, 2.000000)">
                        <path d="M9.61379114,23.0618165 C9.61379114,25.1826261 9.59132127,27.2031855 9.64663171,29.2237449 C9.65181706,29.434616 10.0787445,29.7025259 10.360482,29.8287028 C11.9973253,30.5563808 13.0706935,32.2053232 12.9963701,33.9458735 C12.9185898,35.7918594 11.6913894,37.4010474 9.94911067,37.9385957 C7.77126219,38.6126917 5.44649536,37.4909269 4.63239486,35.3718458 C3.79928139,33.2026395 4.76202869,30.7724372 6.91567886,29.8909271 C7.59496017,29.6126464 7.72805091,29.2600424 7.71595175,28.6170586 C7.68138273,26.8056417 7.66236976,24.9924965 7.7211371,23.1810796 C7.74360697,22.4672293 7.47915394,22.1803064 6.84481236,21.96425" id="Fill-1" fill="#129AF0"></path>
                        <path d="M25.9829858,46.2731798 C25.9661839,48.1573935 26.5710526,49.7823778 27.7495862,51.2177407 C29.5689926,53.433192 31.9500627,54.8637543 34.5591587,55.8958713 C39.5349231,57.8688951 44.5898965,58.7593962 49.707277,58.7593962 C53.1348658,58.7593962 56.5912579,58.3585507 60.0644519,57.6144663 C64.0513041,56.7599693 67.8125308,55.319806 70.9592877,52.6074983 C72.5602693,51.2249415 73.9116226,49.5615528 73.986031,47.403708 C74.1300474,43.1792288 74.0268357,38.9475488 74.0268357,34.5742527 C73.5611829,34.7446721 73.1771393,34.8790873 72.795496,35.0231036 C65.7002912,37.680205 58.6002858,40.3301056 51.514682,43.0112098 C50.9962232,43.2056318 50.5017671,43.3064433 50.0049108,43.3064433 C49.5200558,43.3064433 49.0352008,43.2104324 48.5287433,43.01361 C45.4779973,41.8278755 42.4032485,40.6997476 39.3357005,39.5500171 C34.9576039,37.9058306 30.577107,36.2664447 25.9949872,34.55025 C25.9949872,38.5731063 26.0213902,42.4231431 25.9829858,46.2731798 Z" id="Path" stroke="#129AF0" stroke-width="2"></path>
                        <path d="M8.002,39 L10,39 L10,45.6816667 L10,48.4816667 C10,49.025 9.59,49.2383333 9.028,49.2383333 C8.464,49.2383333 8.014,49.0033333 8.01,48.48 C7.994,45.5166667 8.002,39 8.002,39" id="Fill-5" fill="#129AF0"></path>
                        <path d="M13.9938571,38 L13.9938571,41.835 C13.9938571,43.1733333 13.9878576,44.5116667 13.9998567,45.85 C14.0058562,46.4383333 13.8258704,46.9233333 13.0119344,46.9266667 C12.2079977,46.9316667 11.9980143,46.46 12.0000141,45.8666667 C12.0080135,43.735 11.9860152,41.605 12.0280119,39.4733333 C12.0320116,39.2233333 12.3039902,38.9183333 12.5559703,38.7416667 C12.9439398,38.4683333 13.4219022,38.2866667 13.9938571,38" id="Fill-8" fill="#129AF0"></path>
                        <path d="M4.0015,38 C4.6215,38.3016667 5.0975,38.4816667 5.4935,38.745 C5.7275,38.9016667 5.9715,39.1883333 5.9755,39.42 C6.0115,41.56 5.9975,43.6983333 5.9955,45.8383333 C5.9935,46.3866667 5.7635,46.8233333 5.0295,46.8583333 C4.3535,46.89 4.0095,46.54 4.0075,45.9983333 C3.9955,43.375 4.0015,40.7533333 4.0015,38" id="Fill-10" fill="#129AF0"></path>
                        <path d="M49.0553,1.06745 C34.5317,6.4795 20.02035,11.9283 5.50655,17.3722 C4.08065,17.9063 2.6621,18.46 1.001,19.09945 C3.3677,19.9839 5.46,20.81445 7.5866,21.5421 L12.73895,23.50455 C24.815,28.03215 36.8886,32.56955 48.97935,37.0604 C49.29295,37.17555 49.6678,37.2368 50.0402,37.2368 C50.40035,37.2368 50.7556,37.18045 51.05695,37.0702 C64.2747,32.1555 77.4753,27.1918 90.67835,22.2379 C93.3954,21.2187 96.11245,20.1946 99.001,19.10925 C98.4914,18.8961 98.1778,18.75155 97.8544,18.62905 C82.17685,12.7466 66.50175,6.8617 50.81195,1.016 C50.58655,0.9327 50.3244,0.8935 50.0549,0.8935 C49.70945,0.8935 49.35175,0.9572 49.0553,1.06745 Z" id="Path" stroke="#129AF0" stroke-width="2"></path>
                    </g>
                </g>
            </g>
        </g>
    </g>
</svg>
