<?xml version="1.0" encoding="UTF-8" standalone="no"?>
<svg width="39px" height="32px" viewBox="0 0 39 32" version="1.1" xmlns="http://www.w3.org/2000/svg" xmlns:xlink="http://www.w3.org/1999/xlink">
    <!-- Generator: Sketch 3.6.1 (26313) - http://www.bohemiancoding.com/sketch -->
    <title>Journal</title>
    <desc>Created with Sketch.</desc>
    <defs></defs>
    <g id="Gamme" stroke="none" stroke-width="1" fill="none" fill-rule="evenodd">
        <g id="Offrir-un-abonnement" transform="translate(-184.000000, -276.000000)">
            <g id="Chevrons" transform="translate(164.000000, 251.000000)">
                <g id="1">
                    <g id="Journal" transform="translate(20.000000, 25.000000)">
                        <path d="M37.2244898,0 L1.30612245,0 C0.587755102,0 0,0.587755102 0,1.30612245 L0,30.6938776 C0,31.4122449 0.587755102,32 1.30612245,32 L37.2244898,32 C37.9428571,32 38.5306122,31.4122449 38.5306122,30.6938776 L38.5306122,1.30612245 C38.5306122,0.587755102 37.9428571,0 37.2244898,0 L37.2244898,0 Z" id="Fill-1" stroke="#FFFFFF" stroke-width="2"></path>
                        <path d="M17,15.5 L4,15.5 L4,14 L17,14 L17,15.5 Z" id="Fill-6" fill="#FFFFFF"></path>
                        <path d="M34,15.5 L21,15.5 L21,14 L34,14 L34,15.5 Z" id="Fill-7" fill="#FFFFFF"></path>
                        <path d="M17,19.5 L4,19.5 L4,18 L17,18 L17,19.5 Z" id="Fill-8" fill="#FFFFFF"></path>
                        <path d="M34,23.5 L4,23.5 L4,22 L34,22 L34,23.5 Z" id="Fill-9" fill="#FFFFFF"></path>
                        <path d="M34,27.5 L4,27.5 L4,26 L34,26 L34,27.5 Z" id="Fill-10" fill="#FFFFFF"></path>
                        <path d="M34,19.5 L21,19.5 L21,18 L34,18 L34,19.5 Z" id="Fill-11" fill="#FFFFFF"></path>
                        <path d="M22.5147429,6.28133878 C22.1882122,6.48313469 22.079151,6.75546122 22.079151,7.17668571 L22.079151,10.5353796 C22.079151,10.7469714 22.1046204,10.8429714 22.2130286,10.9043592 L22.3220898,10.9664 L22.623151,10.7815837 L22.7237224,10.9925224 L21.6781714,11.6508082 L21.3183347,11.3954612 C21.1589878,11.2818286 21.0917224,11.1414204 21.0917224,10.8690939 L21.0917224,7.86958367 C21.0917224,7.30795102 21.2595592,7.00950204 21.4940082,6.82533878 L21.6278857,6.72019592 L20.6411102,6.11480816 L20.1976816,6.39497143 L20.1976816,10.763951 C20.1976816,11.1322776 20.1473959,11.1851755 19.8378449,11.3517061 C19.8378449,11.3517061 19.5955592,11.4744816 19.2611918,11.6586449 L19.1945796,11.6586449 L19.1945796,6.81684898 C19.1945796,6.58044082 19.1691102,6.5268898 19.0437224,6.42174694 L18.6923755,6.12395102 L18.2659265,6.37799184 L18.2659265,8.88705306 C18.2659265,9.32525714 18.1986612,9.64133878 17.8642939,9.86011429 L17.0283755,10.4132571 L16.9441306,10.2643592 C17.2033959,10.0534204 17.2621714,9.75497143 17.2621714,9.40427755 L17.2621714,6.84297143 C17.2621714,6.46550204 17.2125388,6.31660408 16.8357224,6.38713469 C16.6933551,6.41260408 16.4758857,6.44786939 16.3420082,6.46550204 C15.7901714,6.54452245 15.5557224,6.13244082 15.9318857,5.61521633 C15.9318857,5.61521633 16.0246204,5.48329796 16.2584163,5.16721633 L16.4425796,5.29913469 L16.308702,5.50093061 C16.1330286,5.76476735 16.2753959,5.90452245 16.5594776,5.79872653 C16.6933551,5.74648163 16.9526204,5.64133878 17.1367837,5.56231837 C17.9309061,5.23774694 18.2241306,5.77260408 18.2659265,6.08868571 L19.252702,5.46566531 L20.1056,6.15007347 L21.1589878,5.46566531 L21.9707429,5.94827755 C22.2463347,6.11480816 22.3802122,6.04493061 22.5728653,5.93913469 L22.7315592,5.85162449 L22.8569469,6.07105306 L22.5147429,6.28133878 Z M17.3542531,11.6586449 C17.2706612,11.4130939 17.0283755,11.1584 16.5927837,11.1414204 C16.1826612,11.1322776 15.5975184,11.2994612 15.1129469,11.6854204 L15.0202122,11.5626449 C15.3722122,11.1584 16.1918041,10.5099102 17.0525388,10.5007673 C17.5051102,10.5007673 17.822498,10.6588082 18.0484571,10.913502 L18.4252735,10.6940735 L18.5336816,10.9219918 L17.3542531,11.6586449 Z" id="Fill-12" fill="#FFFFFF"></path>
                    </g>
                </g>
            </g>
        </g>
    </g>
</svg>