<?xml version="1.0" encoding="UTF-8"?>
<svg width="56px" height="66px" viewBox="0 0 56 66" version="1.1" xmlns="http://www.w3.org/2000/svg" xmlns:xlink="http://www.w3.org/1999/xlink">
    <g id="Home" stroke="none" stroke-width="1" fill="none" fill-rule="evenodd">
        <g id="Home---1280px" transform="translate(-1061.000000, -982.000000)">
            <g id="Typologies" transform="translate(-2.000000, 921.000000)">
                <g id="Résidents-à-l'étranger" transform="translate(915.000000, 62.000000)">
                    <g id="Page-1" transform="translate(149.000000, 0.000000)">
                        <path d="M44.9938,5.3258 C50.2318,10.5398 53.4888,17.6948 53.4108,25.4298 C53.2528,41.1008 40.2418,54.0048 24.7428,53.8628 C17.0528,53.7928 10.0228,50.5548 4.8968,45.4228" id="Stroke-1" stroke="#129AF0" stroke-width="2" stroke-linecap="round" stroke-linejoin="round"></path>
                        <path d="M44.9938,5.3258 L49.9308,0.3888" id="Stroke-3" stroke="#129AF0" stroke-width="2" stroke-linecap="round" stroke-linejoin="round"></path>
                        <path d="M4.8964,45.4232 L0.0004,50.3192" id="Stroke-5" stroke="#129AF0" stroke-width="2" stroke-linecap="round" stroke-linejoin="round"></path>
                        <path d="M4.0052,63.9811 L45.8602,63.9811" id="Stroke-7" stroke="#129AF0" stroke-width="2" stroke-linecap="round" stroke-linejoin="round"></path>
                        <path d="M24.9237,64 L24.9237,53.787" id="Stroke-9" stroke="#129AF0" stroke-width="2" stroke-linecap="round" stroke-linejoin="round"></path>
                        <path d="M13.6916,43.6883 C16.3106,43.6403 19.4286,42.6933 22.6946,40.9753 C23.7066,42.8683 24.5196,44.8363 25.1336,46.8553 C21.1626,46.8903 17.1856,45.8333 13.6916,43.6883 L13.6916,43.6883 Z M3.4406,25.1603 C5.4426,25.7693 7.3936,26.5733 9.2706,27.5733 C7.5626,30.8223 6.6186,33.9283 6.5656,36.5383 C4.4486,33.0603 3.4056,29.1073 3.4406,25.1603 L3.4406,25.1603 Z M36.1316,6.9733 C33.5226,7.0263 30.4196,7.9683 27.1736,9.6733 C26.1746,7.7983 25.3716,5.8473 24.7616,3.8473 C28.7056,3.8133 32.6556,4.8563 36.1316,6.9733 L36.1316,6.9733 Z M46.4476,25.5333 C44.4306,24.9173 42.4626,24.1063 40.5726,23.0953 C42.2876,19.8323 43.2326,16.7153 43.2816,14.0983 C45.4226,17.5903 46.4816,21.5633 46.4476,25.5333 L46.4476,25.5333 Z M33.5516,32.6353 C36.0256,30.0653 38.0796,27.3703 39.6556,24.7283 C41.8036,25.8793 44.0486,26.7883 46.3486,27.4543 C45.9116,31.9533 44.0616,36.3393 40.8036,39.8883 L33.5516,32.6353 Z M32.2276,33.9593 L39.4806,41.2113 C35.9336,44.4663 31.5526,46.3153 27.0556,46.7543 C26.3876,44.4533 25.4806,42.2073 24.3286,40.0573 C26.9696,38.4833 29.6616,36.4293 32.2276,33.9593 L32.2276,33.9593 Z M18.9696,32.6473 L24.9436,26.6743 L30.8976,32.6283 C28.3876,35.0393 25.8376,36.9773 23.3956,38.4323 C22.1506,36.3863 20.6776,34.4483 18.9696,32.6473 L18.9696,32.6473 Z M10.4936,41.1233 L17.6476,33.9693 C19.2306,35.6453 20.6006,37.4463 21.7606,39.3433 C16.9606,41.8403 12.7716,42.4143 10.4936,41.1233 L10.4936,41.1233 Z M16.3256,32.6463 L9.1556,39.8163 C7.8276,37.5503 8.3916,33.3363 10.9036,28.5043 C12.8186,29.6693 14.6356,31.0503 16.3256,32.6463 L16.3256,32.6463 Z M17.6256,19.3563 L23.6206,25.3513 L17.6466,31.3243 C15.8326,29.6033 13.8766,28.1203 11.8156,26.8703 C13.2696,24.4243 15.2096,21.8693 17.6256,19.3563 L17.6256,19.3563 Z M16.2946,18.0253 C13.8186,20.5963 11.7606,23.2963 10.1856,25.9403 C8.0516,24.8013 5.8236,23.9023 3.5396,23.2403 C3.9786,18.7443 5.8276,14.3603 9.0826,10.8133 L16.2946,18.0253 Z M17.6176,16.7013 L10.4056,9.4903 C13.9526,6.2353 18.3366,4.3863 22.8326,3.9463 C23.4946,6.2313 24.3926,8.4583 25.5336,10.5913 C22.8896,12.1673 20.1906,14.2253 17.6176,16.7013 L17.6176,16.7013 Z M30.9246,18.0473 L24.9436,24.0283 L18.9486,18.0333 C21.4636,15.6153 24.0216,13.6733 26.4686,12.2183 C27.7196,14.2783 29.2036,16.2323 30.9246,18.0473 L30.9246,18.0473 Z M39.4086,9.5633 L32.2466,16.7253 C30.6506,15.0363 29.2706,13.2193 28.1056,11.3053 C32.9346,8.7983 37.1456,8.2353 39.4086,9.5633 L39.4086,9.5633 Z M33.5696,18.0483 L40.7156,10.9013 C42.0066,13.1793 41.4356,17.3633 38.9406,22.1613 C37.0446,21.0013 35.2446,19.6303 33.5696,18.0483 L33.5696,18.0483 Z M32.2456,19.3713 C34.0476,21.0763 35.9856,22.5523 38.0286,23.7943 C36.5746,26.2403 34.6336,28.7933 32.2206,31.3053 L26.2666,25.3503 L32.2456,19.3713 L32.2456,19.3713 Z M41.4826,8.8123 L41.4686,8.7983 L41.4616,8.7913 C41.4556,8.7853 41.4476,8.7803 41.4406,8.7733 C32.3036,-0.3227 17.5256,-0.3087 8.4046,8.8123 C-0.7134,17.9303 -0.7284,32.7103 8.3656,41.8483 C8.3726,41.8553 8.3776,41.8633 8.3836,41.8693 C8.3866,41.8723 8.3886,41.8743 8.3906,41.8763 C8.3956,41.8813 8.3996,41.8853 8.4046,41.8903 C17.5366,51.0223 32.3496,51.0223 41.4826,41.8903 C50.6156,32.7563 50.6146,17.9443 41.4826,8.8123 L41.4826,8.8123 Z" id="Fill-11" fill="#129AF0"></path>
                    </g>
                </g>
            </g>
        </g>
    </g>
</svg>