<?xml version="1.0" encoding="UTF-8" standalone="no"?>
<svg width="33px" height="40px" viewBox="0 0 33 40" version="1.1" xmlns="http://www.w3.org/2000/svg" xmlns:xlink="http://www.w3.org/1999/xlink">
    <!-- Generator: Sketch 3.6.1 (26313) - http://www.bohemiancoding.com/sketch -->
    <title>Téléphone</title>
    <desc>Created with Sketch.</desc>
    <defs></defs>
    <g id="Formulaire" stroke="none" stroke-width="1" fill="none" fill-rule="evenodd">
        <g id="Formulaire---numérique-ouvert" transform="translate(-205.000000, -710.000000)" stroke="#129AF0" stroke-width="2">
            <g id="Col-droite" transform="translate(184.000000, 104.000000)">
                <g id="Réassurance" transform="translate(0.000000, 509.000000)">
                    <g id="Contact" transform="translate(17.000000, 97.000000)">
                        <path d="M27.2304717,25.1483027 C27.9765894,24.7537144 28.7495306,24.654185 29.2189423,24.9407733 C29.9297659,25.3755968 35.898707,29.346185 36.4012953,29.6977144 C36.9038835,30.0499497 37.1460012,31.0558321 36.4549423,32.0412438 C35.766707,33.0266556 32.5916482,36.9231262 31.2462365,36.8814791 C29.898707,36.8377144 24.2961188,36.7148909 13.7311776,26.1471262 C3.1683541,15.5828909 3.04341292,9.97889091 3.0003541,8.6313615 C2.95729528,7.28453797 6.85376586,4.10877326 7.83917763,3.41983209 C8.82600116,2.73159679 9.83329528,2.99065561 10.1834129,3.47489091 C10.5815306,4.02618503 14.5062365,9.97606738 14.9382365,10.6579497 C15.2340012,11.1238321 15.1252953,11.9010086 14.730707,12.6478321 C14.3382365,13.3960674 12.7020012,16.254185 12.7020012,16.254185 C12.7020012,16.254185 13.8554129,18.2214791 17.7561188,22.1214791 C21.6575306,26.022185 23.6241188,27.1777144 23.6241188,27.1777144 C23.6241188,27.1777144 26.4822365,25.5414791 27.2304717,25.1483027 Z" id="Téléphone" transform="translate(21.000000, 21.000000) rotate(9.000000) translate(-21.000000, -21.000000) "></path>
                    </g>
                </g>
            </g>
        </g>
    </g>
</svg>