<?xml version="1.0" encoding="UTF-8" standalone="no"?>
<svg width="32px" height="32px" viewBox="0 0 32 32" version="1.1" xmlns="http://www.w3.org/2000/svg" xmlns:xlink="http://www.w3.org/1999/xlink">
    <!-- Generator: Sketch 3.6.1 (26313) - http://www.bohemiancoding.com/sketch -->
    <title>Print</title>
    <desc>Created with Sketch.</desc>
    <defs>
        <path id="path-1" d="M0,0.31372549 L31.6862745,0.31372549 L31.6862745,32 L0,32 L0,0.31372549 Z"></path>
    </defs>
    <g id="Gamme" stroke="none" stroke-width="1" fill="none" fill-rule="evenodd">
        <g id="Offrir-un-abonnement" transform="translate(-773.000000, -276.000000)">
            <g id="Chevrons" transform="translate(164.000000, 251.000000)">
                <g id="3" transform="translate(588.000000, 0.000000)">
                    <g id="Print" transform="translate(21.000000, 25.000000)">
                        <path d="M27.1372549,12.3921569 C27.8305882,12.3921569 28.3921569,12.9537255 28.3921569,13.6470588 C28.3921569,14.3403922 27.8305882,14.9019608 27.1372549,14.9019608 C26.4439216,14.9019608 25.8823529,14.3403922 25.8823529,13.6470588 C25.8823529,12.9537255 26.4439216,12.3921569 27.1372549,12.3921569" id="Fill-1" fill="#16212c"></path>
                        <path d="M25.254902,10.6666667 C24.8219608,10.6666667 24.4705882,10.3152941 24.4705882,9.88235294 L24.4705882,1.88235294 L7.21568627,1.88235294 L7.21568627,9.88235294 C7.21568627,10.3152941 6.86431373,10.6666667 6.43137255,10.6666667 C5.99843137,10.6666667 5.64705882,10.3152941 5.64705882,9.88235294 L5.64705882,1.7254902 C5.64705882,0.946823529 6.28015686,0.31372549 7.05882353,0.31372549 L24.627451,0.31372549 C25.4054902,0.31372549 26.0392157,0.946823529 26.0392157,1.7254902 L26.0392157,9.88235294 C26.0392157,10.3152941 25.6878431,10.6666667 25.254902,10.6666667" id="Fill-3" fill="#16212c"></path>
                        <mask id="mask-2" fill="white">
                            <use xlink:href="#path-1"></use>
                        </mask>
                        <g id="Clip-6"></g>
                        <path d="M7.21568627,30.4313725 L24.4705882,30.4313725 L24.4705882,19.4509804 L7.21568627,19.4509804 L7.21568627,30.4313725 Z M24.627451,32 L7.05882353,32 C6.28015686,32 5.64705882,31.3662745 5.64705882,30.5882353 L5.64705882,19.2941176 C5.64705882,18.5160784 6.28015686,17.8823529 7.05882353,17.8823529 L24.627451,17.8823529 C25.4054902,17.8823529 26.0392157,18.5160784 26.0392157,19.2941176 L26.0392157,30.5882353 C26.0392157,31.3662745 25.4054902,32 24.627451,32 L24.627451,32 Z" id="Fill-5" fill="#16212c" mask="url(#mask-2)"></path>
                        <path d="M29.6470588,26.3529412 L25.254902,26.3529412 C24.8219608,26.3529412 24.4705882,26.0015686 24.4705882,25.5686275 C24.4705882,25.1356863 24.8219608,24.7843137 25.254902,24.7843137 L29.6470588,24.7843137 C29.9061961,24.7843137 30.1176471,24.5728627 30.1176471,24.3137255 L30.1176471,11.1372549 C30.1176471,10.8774902 29.9061961,10.6666667 29.6470588,10.6666667 L2.03921569,10.6666667 C1.77945098,10.6666667 1.56862745,10.8774902 1.56862745,11.1372549 L1.56862745,24.3137255 C1.56862745,24.5728627 1.77945098,24.7843137 2.03921569,24.7843137 L6.43137255,24.7843137 C6.86431373,24.7843137 7.21568627,25.1356863 7.21568627,25.5686275 C7.21568627,26.0015686 6.86431373,26.3529412 6.43137255,26.3529412 L2.03921569,26.3529412 C0.914823529,26.3529412 0,25.4381176 0,24.3137255 L0,11.1372549 C0,10.0128627 0.914823529,9.09803922 2.03921569,9.09803922 L29.6470588,9.09803922 C30.771451,9.09803922 31.6862745,10.0128627 31.6862745,11.1372549 L31.6862745,24.3137255 C31.6862745,25.4381176 30.771451,26.3529412 29.6470588,26.3529412" id="Fill-7" fill="#16212c" mask="url(#mask-2)"></path>
                        <path d="M22.1176471,23.2156863 L9.56862745,23.2156863 C9.13568627,23.2156863 8.78431373,22.8643137 8.78431373,22.4313725 C8.78431373,21.9984314 9.13568627,21.6470588 9.56862745,21.6470588 L22.1176471,21.6470588 C22.5505882,21.6470588 22.9019608,21.9984314 22.9019608,22.4313725 C22.9019608,22.8643137 22.5505882,23.2156863 22.1176471,23.2156863" id="Fill-8" fill="#16212c" mask="url(#mask-2)"></path>
                        <path d="M19.6078431,25.7254902 L9.56862745,25.7254902 C9.13568627,25.7254902 8.78431373,25.3741176 8.78431373,24.9411765 C8.78431373,24.5082353 9.13568627,24.1568627 9.56862745,24.1568627 L19.6078431,24.1568627 C20.0407843,24.1568627 20.3921569,24.5082353 20.3921569,24.9411765 C20.3921569,25.3741176 20.0407843,25.7254902 19.6078431,25.7254902" id="Fill-9" fill="#16212c" mask="url(#mask-2)"></path>
                        <path d="M22.1176471,28.2352941 L9.56862745,28.2352941 C9.13568627,28.2352941 8.78431373,27.8839216 8.78431373,27.4509804 C8.78431373,27.0180392 9.13568627,26.6666667 9.56862745,26.6666667 L22.1176471,26.6666667 C22.5505882,26.6666667 22.9019608,27.0180392 22.9019608,27.4509804 C22.9019608,27.8839216 22.5505882,28.2352941 22.1176471,28.2352941" id="Fill-10" fill="#16212c" mask="url(#mask-2)"></path>
                    </g>
                </g>
            </g>
        </g>
    </g>
</svg>
