<?xml version="1.0" encoding="UTF-8" standalone="no"?>
<svg width="31px" height="32px" viewBox="0 0 31 32" version="1.1" xmlns="http://www.w3.org/2000/svg" xmlns:xlink="http://www.w3.org/1999/xlink">
    <!-- Generator: Sketch 3.7 (28169) - http://www.bohemiancoding.com/sketch -->
    <title>Page 1</title>
    <desc>Created with Sketch.</desc>
    <defs></defs>
    <g id="Gamme" stroke="none" stroke-width="1" fill="none" fill-rule="evenodd">
        <g id="Gamme---WE" transform="translate(-758.000000, -276.000000)" fill="#003366">
            <g id="Intro" transform="translate(179.000000, 155.000000)">
                <g id="Abo" transform="translate(579.000000, 117.000000)">
                    <g id="Like">
                        <g id="Page-1" transform="translate(0.000000, 4.000000)">
                            <path d="M19.8917537,31.6888494 C17.1026021,31.6888494 14.2921747,31.6864132 11.5088968,31.6777218 C11.1436842,31.6765366 10.6371116,31.5557794 10.3107305,31.2201086 C9.80017684,30.6952033 9.24067579,30.4863473 8.54993053,30.5627259 C8.44302947,30.5745778 8.35570737,30.5645037 8.29194526,30.5571951 C8.27660842,30.5553514 8.25977053,30.5533103 8.24058316,30.5518617 L8.33762947,29.2386107 C8.37593895,29.2415078 8.40961474,29.2453267 8.44022316,29.2487506 C8.44244211,29.249014 8.44466105,29.2492774 8.44681474,29.2496066 C9.51791368,29.1419523 10.4560063,29.4925037 11.2364884,30.2917136 C11.2776695,30.3204872 11.4018,30.3605202 11.5129432,30.3608494 C16.2093453,30.3755325 20.9847811,30.3725695 25.6032589,30.3696724 L25.9009242,30.3694749 C25.9973179,30.3694091 26.13672,30.366051 26.2365726,30.3373432 C26.5980653,30.2332444 26.8896611,29.9447177 27.0367642,29.5456395 C27.2007053,29.1009317 27.1519537,28.6097383 26.9061726,28.2318617 C26.8677979,28.1728 26.8295537,28.1133432 26.7855663,28.0450634 L26.1862547,27.1158782 L27.1439263,26.9337547 C27.9043074,26.7891621 28.3208821,26.4259687 28.4944168,25.7562074 C28.6672989,25.0892774 28.4874989,24.5423802 27.9286505,24.0351868 L27.0627389,23.2492115 L28.1791958,22.9144626 C29.1354968,22.6278453 29.6027811,22.0850963 29.6497705,21.2064132 C29.6987179,20.292372 29.2852758,19.6921416 28.3486189,19.3171621 L27.9814484,19.170265 L27.9420947,18.7919934 C27.9009137,18.5439605 27.9946316,18.3657877 28.0553916,18.2803885 C28.0869137,18.2356807 28.1207853,18.1894584 28.1546568,18.1431704 C28.1734526,18.1174914 28.1923137,18.0918123 28.2109137,18.0660675 C28.6249432,17.4918453 28.6752611,16.9270387 28.3690463,16.2885531 C28.1010105,15.7300016 27.6843053,15.4794008 27.0207095,15.4794008 C27.00968,15.4794008 26.9986505,15.4794667 26.9874905,15.4795984 C25.3316989,15.5002074 23.6512379,15.4901992 22.0260547,15.4806519 L22.0157432,15.480586 C21.3560632,15.4766354 20.7617768,15.2353185 20.3421347,14.8012115 C19.9174674,14.3617053 19.6907432,13.7458041 19.7038611,13.0670222 C19.7156737,12.4563226 19.8674105,11.8946107 20.1678168,11.3496889 C20.9565874,9.91897284 21.8292863,8.20710453 22.3216968,6.35801811 C22.7290042,4.82827325 22.5579495,3.54452016 21.7986126,2.4334749 C21.3928063,1.83969712 20.9461453,1.5059358 20.3929747,1.38293992 C20.0032232,1.29622387 19.9443558,1.36325267 19.8623853,1.68674239 C19.8184632,1.86024033 19.8058674,2.06810864 19.7924232,2.28815802 C19.7835474,2.43367243 19.7744105,2.5841251 19.7557453,2.73997695 C19.7295095,2.95870947 19.7077116,3.1865284 19.6865663,3.406907 C19.6318105,3.97842963 19.5750968,4.56957366 19.4330189,5.15419918 C18.9987579,6.94099753 17.8410547,8.19064362 16.8809684,9.07973004 L16.5250884,9.40894815 C14.6597368,11.1335901 14.6597368,11.1335901 13.7125726,12.9494914 C13.5565284,13.2485531 13.3762716,13.5942321 13.1605768,14.0003556 C12.7379326,14.7963391 12.2074737,15.6008823 11.5838842,16.3917959 C10.7925032,17.3955819 9.73824211,17.9499852 8.53217895,17.9973926 C8.50385474,18.0063473 8.47611789,18.0147753 8.44942526,18.021623 L8.12878737,16.7451128 L8.14170947,16.7407671 C8.20494947,16.7204214 8.31067579,16.6863144 8.44505263,16.682693 C9.28707789,16.6597794 9.99936,16.286051 10.5623853,15.5720428 C11.1372884,14.8428247 11.6243474,14.1048494 12.0099874,13.3785284 C12.22392,12.975763 12.4027411,12.6329152 12.5575453,12.336158 C13.5907263,10.3553185 13.6484189,10.2824955 15.6431874,8.43808395 L15.9983495,8.10959012 C17.2232084,6.97530206 17.8915032,5.96710453 18.1652821,4.84052016 C18.2849747,4.34827325 18.3347053,3.82942551 18.3873726,3.28015802 C18.4092358,3.05207572 18.4318168,2.81635556 18.45988,2.58195226 C18.4739116,2.46455309 18.4815474,2.33964774 18.48964,2.2073679 C18.5053684,1.94847078 18.5232505,1.65500576 18.5977158,1.3608823 C18.8605958,0.322725926 19.6174526,-0.137981893 20.6738021,0.0968823045 C21.5572695,0.293293827 22.2766,0.812997531 22.8731705,1.68588642 C23.8630168,3.13418272 24.0948968,4.77421564 23.5822547,6.6997465 C23.0531011,8.68677531 22.1359579,10.4889152 21.3085516,11.9897547 C21.1144589,12.3418206 21.0164337,12.7025778 21.0088632,13.0926354 C21.0025979,13.4210634 21.0951411,13.6939852 21.2767684,13.8819029 C21.4531747,14.0644214 21.7113558,14.16187 22.0233789,14.1637136 L22.0336905,14.1637794 C23.6530653,14.1733926 25.3275874,14.1832691 26.9714358,14.1628576 C26.9872295,14.1626601 27.0031537,14.1625284 27.0188821,14.1625284 C28.1840253,14.1625284 29.0563326,14.6985613 29.5439137,15.7149235 C29.9904442,16.6457547 29.9791537,17.5798123 29.5168947,18.441442 C30.5135284,19.0732115 31.0184042,20.0579029 30.9530758,21.2774584 C30.8925768,22.409442 30.3722989,23.2690305 29.43512,23.8045366 C29.8596568,24.4867424 29.9715179,25.2625778 29.7572589,26.0893103 C29.5307305,26.9634502 29.0100611,27.5986436 28.2330379,27.9607177 C28.4930463,28.6000593 28.5076,29.3336889 28.2601874,30.0047671 C27.9666989,30.8006189 27.3597516,31.383335 26.5948674,31.6035819 C26.3407326,31.6768 26.09084,31.6862815 25.9015768,31.6863473 L25.6039768,31.6865449 C23.7208737,31.6876642 21.8112084,31.6888494 19.8917537,31.6888494" id="Fill-1"></path>
                            <path d="M6.98315789,15.2098765 L1.30526316,15.2098765 C0.587368421,15.2098765 0,15.8024691 0,16.526749 L0,30.6831276 C0,31.4074074 0.587368421,32 1.30526316,32 L6.98315789,32 C7.70105263,32 8.28842105,31.4074074 8.28842105,30.6831276 L8.28842105,16.526749 C8.28842105,15.8024691 7.70105263,15.2098765 6.98315789,15.2098765 M6.98080842,16.526749 C6.98165684,16.5274074 6.98250526,16.5282634 6.98315789,16.5291193 L6.98315789,30.6807572 C6.98250526,30.6816132 6.98159158,30.6824691 6.98080842,30.6831276 L1.30761263,30.6831276 C1.30676421,30.6824691 1.30591579,30.6816132 1.30526316,30.6807572 L1.30526316,16.5291193 C1.30591579,16.5282634 1.30676421,16.5274074 1.30761263,16.526749 L6.98080842,16.526749" id="Fill-4"></path>
                        </g>
                    </g>
                </g>
            </g>
        </g>
    </g>
</svg>