<?xml version="1.0" encoding="UTF-8" standalone="no"?>
<svg width="97px" height="62px" viewBox="0 0 97 62" version="1.1" xmlns="http://www.w3.org/2000/svg" xmlns:xlink="http://www.w3.org/1999/xlink">
    <!-- Generator: Sketch 3.6.1 (26313) - http://www.bohemiancoding.com/sketch -->
    <title>Group</title>
    <desc>Created with Sketch.</desc>
    <defs></defs>
    <g id="Gamme" stroke="none" stroke-width="1" fill="none" fill-rule="evenodd">
        <g id="Gamme---Popin" transform="translate(-956.000000, -430.000000)" stroke-width="2" stroke="#129AF0">
            <g id="Popin">
                <g id="Résidents-à-l'étranger-+-Grands-comptes-+-Etudiants" transform="translate(221.000000, 426.000000)">
                    <g id="Typologies">
                        <g id="Résidents-à-l'étranger" transform="translate(623.000000, 5.000000)">
                            <g id="Group" transform="translate(110.000000, 0.000000)">
                                <g id="S" transform="translate(38.000000, 0.000000)">
                                    <path d="M37.4167084,0.131913253 C36.6335277,0.131913253 36.1053831,0.657166265 35.795841,1.62208193 C34.9277928,4.32858795 32.6443229,6.01784096 29.8496241,6.02102169 L29.8422506,6.02102169 C27.0943952,6.02102169 24.8023952,4.29938313 23.9308771,1.58015422 C23.6262506,0.629551807 23.0746843,0.148539759 22.2689494,0.148539759 C22.0481783,0.148539759 21.8083229,0.184684337 21.5492386,0.257118072 C19.1755518,0.921166265 16.9114554,1.85499759 14.7677928,3.07350361 C13.6249012,3.72309398 13.3847566,4.56078072 13.9836,5.73981687 C15.2968048,8.32502169 14.9008048,11.0672386 12.9276,13.0549012 C11.7105398,14.2807807 10.209094,14.9094072 8.63434699,14.9094072 C7.64239518,14.9094072 6.62123855,14.6598651 5.62422651,14.1528289 C5.19367229,13.9339373 4.8135759,13.822612 4.47237108,13.822612 C3.84678072,13.822612 3.35203373,14.1970699 2.9175759,14.968106 C1.73131084,17.0741783 0.817575904,19.2934554 0.159889157,21.6187084 C-0.208351807,22.920347 0.207455422,23.705841 1.48509398,24.1274313 C4.26316627,25.0440578 5.87521446,27.220106 5.87853976,30.0580337 C5.88186506,32.893359 4.25275663,35.1036723 1.49622651,36.0039614 C0.199214458,36.4275759 -0.299580723,37.2116241 0.177816867,38.4876723 C1.01839518,40.733841 1.93675663,42.9549976 2.92755181,45.1389976 C3.28899759,45.9359133 3.79820241,46.3069012 4.43593735,46.3069012 C4.79073253,46.3069012 5.18543133,46.1919614 5.61656386,45.9714795 C6.62051566,45.4579373 7.64210602,45.2047807 8.63478072,45.2049253 C10.1972386,45.2049253 11.6874072,45.8325398 12.9203711,47.0601542 C14.9019614,49.0330699 15.3028771,51.7789012 13.9877928,54.3687325 C13.3760819,55.5735036 13.5926602,56.5012627 14.8247566,57.0629494 C16.9637928,58.0382747 19.1355036,58.9521542 21.3362747,59.7776964 C21.7152145,59.9199614 22.0462988,59.9906602 22.3371904,59.9906602 C23.1315036,59.9906602 23.6255277,59.463094 23.9706361,58.4225639 C24.8527084,55.7630458 27.1319855,54.094612 29.8799855,54.094612 L29.9008048,54.094612 C32.6349253,54.1029976 34.9387807,55.8179855 35.7881783,58.4772145 C36.1011904,59.4570217 36.6474072,60.0000578 37.435359,60.0000578 C37.686347,60.0000578 37.9619133,59.9448289 38.262347,59.8311904 C40.5280337,58.9734072 42.766106,58.0324916 44.9719373,57.0301301 C46.1431663,56.4979373 46.2987325,55.5707566 45.7796964,54.3700337 C45.3763229,53.4367807 45.1302506,52.4355759 44.8142024,51.4644434 C44.8666843,51.4434795 44.9191663,51.4225157 44.9715036,51.4014072 C45.0135759,51.0195759 45.0241301,50.6309494 45.1024916,50.2566361 C45.7491904,47.1727807 48.3124193,45.2420819 51.1449976,45.2420819 C52.1287084,45.2420819 53.1453831,45.4751422 54.1249012,45.9735036 C54.5540096,46.1918169 54.948853,46.3051663 55.3049494,46.3051663 C55.9483229,46.3051663 56.4643229,45.9349012 56.8220096,45.1449253 C57.8116482,42.9594795 58.7331904,40.7390458 59.5772386,38.4934554 C60.0527566,37.2285398 59.5451422,36.420347 58.2656241,36.0039614 C55.5187807,35.1103229 53.8542506,32.8735518 53.850347,30.0707566 C53.8464434,27.2595759 55.5044675,25.0204916 58.2474072,24.1324916 C59.5390699,23.7142265 59.9681783,22.9456482 59.6009494,21.6432867 C58.9389253,19.2947566 58.0087084,17.0549494 56.8160819,14.9258892 C56.4030217,14.1883952 55.8935277,13.8255036 55.2659133,13.8255036 C54.928612,13.8255036 54.5571904,13.9303229 54.1483229,14.1380819 C53.1302024,14.655094 52.0931422,14.9099855 51.0900578,14.9099855 C49.5468289,14.9099855 48.083841,14.3066602 46.8946843,13.1270458 C44.8509253,11.0994795 44.4234072,8.35986506 45.7460096,5.7662747 C46.3620578,4.55803373 46.1551663,3.62217831 44.9337687,3.06743133 C42.750347,2.07576867 40.5312145,1.15335904 38.286347,0.310178313 C37.9671181,0.190178313 37.6778169,0.131913253 37.4167084,0.131913253" id="Fill-1"></path>
                                    <path d="M29.8961494,17.2783807 C22.9503181,17.278959 17.1499807,23.0485012 17.1324867,29.9858024 C17.1148482,36.9906217 22.8420289,42.801947 29.7867036,42.8258024 L29.8310892,42.8258024 C36.8583181,42.8258024 42.5898361,37.1207422 42.607041,30.0968386 C42.6243904,23.0933205 36.8954747,17.2990554 29.933306,17.2783807 L29.8961494,17.2783807" id="Fill-3"></path>
                                </g>
                                <g id="XS" transform="translate(19.000000, 29.000000) rotate(-17.000000) translate(-19.000000, -29.000000) translate(4.000000, 14.000000)">
                                    <path d="M18.7083542,0.0659566265 C18.3167639,0.0659566265 18.0526916,0.328583133 17.8979205,0.811040964 C17.4638964,2.16429398 16.3221614,3.00892048 14.924812,3.01051084 L14.9211253,3.01051084 C13.5471976,3.01051084 12.4011976,2.14969157 11.9654386,0.790077108 C11.8131253,0.314775904 11.5373422,0.0742698795 11.1344747,0.0742698795 C11.0240892,0.0742698795 10.9041614,0.0923421687 10.7746193,0.128559036 C9.5877759,0.460583133 8.45572771,0.927498795 7.38389639,1.53675181 C6.8124506,1.86154699 6.69237831,2.28039036 6.9918,2.86990843 C7.64840241,4.16251084 7.45040241,5.53361928 6.4638,6.5274506 C5.85526988,7.14039036 5.10454699,7.45470361 4.31717349,7.45470361 C3.82119759,7.45470361 3.31061928,7.32993253 2.81211325,7.07641446 C2.59683614,6.96696867 2.40678795,6.91130602 2.23618554,6.91130602 C1.92339036,6.91130602 1.67601687,7.09853494 1.45878795,7.48405301 C0.865655422,8.53708916 0.408787952,9.64672771 0.0799445783,10.8093542 C-0.104175904,11.4601735 0.103727711,11.8529205 0.742546988,12.0637157 C2.13158313,12.5220289 2.93760723,13.610053 2.93926988,15.0290169 C2.94093253,16.4466795 2.12637831,17.5518361 0.748113253,18.0019807 C0.0996072289,18.213788 -0.149790361,18.605812 0.0889084337,19.2438361 C0.50919759,20.3669205 0.968378313,21.4774988 1.4637759,22.5694988 C1.6444988,22.9679566 1.8991012,23.1534506 2.21796867,23.1534506 C2.39536627,23.1534506 2.59271566,23.0959807 2.80828193,22.9857398 C3.31025783,22.7289687 3.82105301,22.6023904 4.31739036,22.6024627 C5.09861928,22.6024627 5.84370361,22.9162699 6.46018554,23.5300771 C7.45098072,24.5165349 7.65143855,25.8894506 6.99389639,27.1843663 C6.68804096,27.7867518 6.79633012,28.2506313 7.41237831,28.5314747 C8.48189639,29.0191373 9.56775181,29.4760771 10.6681373,29.8888482 C10.8576072,29.9599807 11.0231494,29.9953301 11.1685952,29.9953301 C11.5657518,29.9953301 11.8127639,29.731547 11.9853181,29.2112819 C12.4263542,27.8815229 13.5659928,27.047306 14.9399928,27.047306 L14.9504024,27.047306 C16.3174627,27.0514988 17.4693904,27.9089928 17.8940892,29.2386072 C18.0505952,29.7285108 18.3237036,30.0000289 18.7176795,30.0000289 C18.8431735,30.0000289 18.9809566,29.9724145 19.1311735,29.9155952 C20.2640169,29.4867036 21.383053,29.0162458 22.4859687,28.5150651 C23.0715831,28.2489687 23.1493663,27.7853783 22.8898482,27.1850169 C22.6881614,26.7183904 22.5651253,26.217788 22.4071012,25.7322217 C22.4333422,25.7217398 22.4595831,25.7112578 22.4857518,25.7007036 C22.506788,25.509788 22.5120651,25.3154747 22.5512458,25.1283181 C22.8745952,23.5863904 24.1562096,22.621041 25.5724988,22.621041 C26.0643542,22.621041 26.5726916,22.7375711 27.0624506,22.9867518 C27.2770048,23.0959084 27.4744265,23.1525831 27.6524747,23.1525831 C27.9741614,23.1525831 28.2321614,22.9674506 28.4110048,22.5724627 C28.9058241,21.4797398 29.3665952,20.3695229 29.7886193,19.2467277 C30.0263783,18.6142699 29.7725711,18.2101735 29.132812,18.0019807 C27.7593904,17.5551614 26.9271253,16.4367759 26.9251735,15.0353783 C26.9232217,13.629788 27.7522337,12.5102458 29.1237036,12.0662458 C29.7695349,11.8571133 29.9840892,11.4728241 29.8004747,10.8216434 C29.4694627,9.64737831 29.0043542,8.5274747 28.408041,7.46294458 C28.2015108,7.09419759 27.9467639,6.91275181 27.6329566,6.91275181 C27.464306,6.91275181 27.2785952,6.96516145 27.0741614,7.06904096 C26.5651012,7.32754699 26.0465711,7.45499277 25.5450289,7.45499277 C24.7734145,7.45499277 24.0419205,7.15333012 23.4473422,6.56352289 C22.4254627,5.54973976 22.2117036,4.17993253 22.8730048,2.88313735 C23.1810289,2.27901687 23.0775831,1.81108916 22.4668843,1.53371566 C21.3751735,1.03788434 20.2656072,0.576679518 19.1431735,0.155089157 C18.983559,0.0950891566 18.8389084,0.0659566265 18.7083542,0.0659566265" id="Fill-1"></path>
                                    <path d="M14.9480747,8.63919036 C11.475159,8.63947952 8.57499036,11.5242506 8.56624337,14.9929012 C8.5574241,18.4953108 11.4210145,21.4009735 14.8933518,21.4129012 L14.9155446,21.4129012 C18.429159,21.4129012 21.2949181,18.5603711 21.3035205,15.0484193 C21.3121952,11.5466602 18.4477373,8.64952771 14.966653,8.63919036 L14.9480747,8.63919036" id="Fill-3"></path>
                                </g>
                            </g>
                        </g>
                    </g>
                </g>
            </g>
        </g>
    </g>
</svg>