<?xml version="1.0" encoding="utf-8"?>
<!-- Generator: Adobe Illustrator 19.2.1, SVG Export Plug-In . SVG Version: 6.00 Build 0)  -->
<svg version="1.1" id="Calque_1" xmlns="http://www.w3.org/2000/svg" xmlns:xlink="http://www.w3.org/1999/xlink" x="0px" y="0px"
	 viewBox="0 0 76 64" style="enable-background:new 0 0 76 64;" xml:space="preserve">
<style type="text/css">
	.st0{fill:#129AF0;}
</style>
<path class="st0" d="M76,25.5L76,25.5l0-7.5c0-3.9-3.1-7-7-7h-9.2H52V6c0-3.3-2.7-6-6-6H29c-3.3,0-6,2.7-6,6v5h-4.6H7
	c-3.9,0-7,3.1-7,7v7.4l-0.1,0v29H0V57c0,3.9,3.1,7,7,7h62c3.9,0,7-3.1,7-7v-3.6h0V25.5z M25,6c0-2.2,1.8-4,4-4h17c2.2,0,4,1.8,4,4v5
	H25V6z M7,13h11.4H23h2h25h2h7.8H69c2.8,0,5,2.2,5,5v7.9c-2.8,0.9-8.4,2.9-14.2,5c-6,2.2-12.2,4.4-14.8,5.2c-0.5,0.2-0.9,0.5-1,0.9
	H32.1c-0.2-0.5-0.5-0.8-1.2-1c-3.9-1.1-17.4-5.9-24.6-8.5C4.2,26.8,2.8,26.3,2,26v-8C2,15.2,4.2,13,7,13z M43.8,43.3
	c0,0.9,0,1.1-2.3,1.1c-0.2,0-0.5,0-0.7,0l-3.3,0l-2.3,0l-0.7,0c-2.3,0-2.4-0.1-2.4-1.1l0-1.5c0-0.9,0-1.9,0-2.8h11.7
	C43.8,40.3,43.8,42,43.8,43.3z M69,62H7c-2.8,0-5-2.2-5-5V28.2c0.9,0.3,2.2,0.8,3.6,1.3c7.1,2.5,20.3,7.2,24.5,8.5c0,1.3,0,2.6,0,4
	l0,1.4c0,3.1,2.5,3,4.4,3l0.6,0l2.3,0l3.3,0c0.2,0,0.5,0,0.7,0c1.8,0,4.3,0,4.3-3c0-1.4,0-3.7,0-5.4c2.9-0.9,8.9-3,14.6-5.1
	C65.7,30.9,71,28.9,74,28v29C74,59.8,71.8,62,69,62z"/>
</svg>
