<?xml version="1.0" encoding="UTF-8" standalone="no"?>
<svg width="117px" height="60px" viewBox="0 0 117 60" version="1.1" xmlns="http://www.w3.org/2000/svg" xmlns:xlink="http://www.w3.org/1999/xlink">
    <!-- Generator: Sketch 3.6.1 (26313) - http://www.bohemiancoding.com/sketch -->
    <title>Devices</title>
    <desc>Created with Sketch.</desc>
    <defs></defs>
    <g id="Gamme" stroke="none" stroke-width="1" fill="none" fill-rule="evenodd">
        <g id="Gamme---Popin" transform="translate(-340.000000, -431.000000)">
            <g id="Popin">
                <g id="Résidents-à-l'étranger-+-Grands-comptes-+-Etudiants" transform="translate(221.000000, 426.000000)">
                    <g id="Typologies">
                        <g id="Etudiants">
                            <g id="Devices" transform="translate(119.000000, 5.000000)">
                                <g id="Desktop" transform="translate(42.000000, 0.000000)">
                                    <path d="M72.4576271,0 L2.54237288,0 C1.1440678,0 0,1.13023256 0,2.51162791 L0,51.4883721 C0,52.8697674 1.1440678,54 2.54237288,54 L72.4576271,54 C73.8559322,54 75,52.8697674 75,51.4883721 L75,2.51162791 C75,1.13023256 73.8559322,0 72.4576271,0 L72.4576271,0 Z M73,52 L2,52 L2,2 L73,2 L73,52 Z" id="Fill-1" fill="#129AF0"></path>
                                    <path d="M74,7 L0,7 L0,5 L74,5 L74,7 Z" id="Fill-3" fill="#129AF0"></path>
                                    <path d="M74,47 L0,47 L0,45 L74,45 L74,47 Z" id="Fill-5" fill="#129AF0"></path>
                                    <path d="M45,59 L32,59 L32,53 L45,53 L45,59 Z" id="Stroke-6" stroke="#129AF0" stroke-width="2" stroke-linejoin="round"></path>
                                    <path d="M22,59 L55,59" id="Stroke-7" stroke="#129AF0" stroke-width="2" stroke-linejoin="round"></path>
                                </g>
                                <g id="Journal" transform="translate(0.000000, 10.000000)">
                                    <path d="M66.2200012,50 L0,50 L0,0 L66.2200012,0 L66.2200012,50 Z" id="Path" fill="#FFFFFF"></path>
                                    <path d="M65.8305085,0 L6.16949153,0 C4.97627119,0 4,0.918367347 4,2.04081633 L4,47.9591837 C4,49.0816327 4.97627119,50 6.16949153,50 L65.8305085,50 C67.0237288,50 68,49.0816327 68,47.9591837 L68,2.04081633 C68,0.918367347 67.0237288,0 65.8305085,0 L65.8305085,0 Z M66,48 L6,48 L6,2 L66,2 L66,48 Z" id="Fill-1" fill="#129AF0"></path>
                                    <path d="M34,26 L12,26 L12,24 L34,24 L34,26 Z" id="Fill-3" fill="#129AF0"></path>
                                    <path d="M60,26 L38,26 L38,24 L60,24 L60,26 Z" id="Fill-5" fill="#129AF0"></path>
                                    <path d="M34,30 L12,30 L12,28 L34,28 L34,30 Z" id="Fill-6" fill="#129AF0"></path>
                                    <path d="M60,30 L38,30 L38,28 L60,28 L60,30 Z" id="Fill-7" fill="#129AF0"></path>
                                    <path d="M34,34 L12,34 L12,32 L34,32 L34,34 Z" id="Fill-8" fill="#129AF0"></path>
                                    <path d="M60,38 L12,38 L12,36 L60,36 L60,38 Z" id="Fill-9" fill="#129AF0"></path>
                                    <path d="M60,42 L12,42 L12,40 L60,40 L60,42 Z" id="Fill-10" fill="#129AF0"></path>
                                    <path d="M60,34 L38,34 L38,32 L60,32 L60,34 Z" id="Fill-11" fill="#129AF0"></path>
                                    <path d="M40.476,9.706 C39.976,10.015 39.809,10.432 39.809,11.077 L39.809,16.22 C39.809,16.544 39.848,16.691 40.014,16.785 L40.181,16.88 L40.642,16.597 L40.796,16.92 L39.195,17.928 L38.644,17.537 C38.4,17.363 38.297,17.148 38.297,16.731 L38.297,12.138 C38.297,11.278 38.554,10.821 38.913,10.539 L39.118,10.378 L37.607,9.451 L36.928,9.88 L36.928,16.57 C36.928,17.134 36.851,17.215 36.377,17.47 C36.377,17.47 36.006,17.658 35.494,17.94 L35.392,17.94 L35.392,10.526 C35.392,10.164 35.353,10.082 35.161,9.921 L34.623,9.465 L33.97,9.854 L33.97,13.696 C33.97,14.367 33.867,14.851 33.355,15.186 L32.075,16.033 L31.946,15.805 C32.343,15.482 32.433,15.025 32.433,14.488 L32.433,10.566 C32.433,9.988 32.357,9.76 31.78,9.868 C31.562,9.907 31.229,9.961 31.024,9.988 C30.179,10.109 29.82,9.478 30.396,8.686 C30.396,8.686 30.538,8.484 30.896,8 L31.178,8.202 L30.973,8.511 C30.704,8.915 30.922,9.129 31.357,8.967 C31.562,8.887 31.959,8.726 32.241,8.605 C33.457,8.108 33.906,8.927 33.97,9.411 L35.481,8.457 L36.787,9.505 L38.4,8.457 L39.643,9.196 C40.065,9.451 40.27,9.344 40.565,9.182 L40.808,9.048 L41,9.384 L40.476,9.706 Z M32.574,17.94 C32.446,17.564 32.075,17.174 31.408,17.148 C30.78,17.134 29.884,17.39 29.142,17.981 L29,17.793 C29.539,17.174 30.794,16.181 32.112,16.167 C32.805,16.167 33.291,16.409 33.637,16.799 L34.214,16.463 L34.38,16.812 L32.574,17.94 Z" id="Fill-12" fill="#129AF0"></path>
                                </g>
                            </g>
                        </g>
                    </g>
                </g>
            </g>
        </g>
    </g>
</svg>