<?xml version="1.0" standalone="no"?>
<!DOCTYPE svg PUBLIC "-//W3C//DTD SVG 1.1//EN" "http://www.w3.org/Graphics/SVG/1.1/DTD/svg11.dtd" >
<svg xmlns="http://www.w3.org/2000/svg">
<metadata>Generated by IcoMoon</metadata>
<defs>
<font id="Espace-client" horiz-adv-x="1024">
<font-face units-per-em="1024" ascent="960" descent="-64" />
<missing-glyph horiz-adv-x="1024" />
<glyph unicode="&#x20;" horiz-adv-x="512" d="" />
<glyph unicode="&#xe800;" glyph-name="Adresse" d="M102.4 819.2h102.4v-51.2h-102.4v51.2zM307.2 819.2h102.4v-51.2h-102.4v51.2zM307.2 665.6h102.4v-51.2h-102.4v51.2zM102.4 665.6h102.4v-51.2h-102.4v51.2zM307.2 512h102.4v-51.2h-102.4v51.2zM102.4 512h102.4v-51.2h-102.4v51.2zM307.2 358.4h102.4v-51.2h-102.4v51.2zM102.4 358.4h102.4v-51.2h-102.4v51.2zM563.2 512h102.4v-51.2h-102.4v51.2zM768 512h102.4v-51.2h-102.4v51.2zM563.2 358.4h102.4v-51.2h-102.4v51.2zM768 358.4h102.4v-51.2h-102.4v51.2zM512 665.6v307.2h-512v-1024h972.8v716.8h-460.8zM450.56 10.24h-389.12v901.12h389.12v-901.12zM768 10.24h-102.4v143.36h102.4v-143.36zM911.36 10.24h-92.16v194.56h-204.8v-194.56h-92.16v593.92h389.12v-593.92zM307.2 204.8h102.4v-51.2h-102.4v51.2zM102.4 204.8h102.4v-51.2h-102.4v51.2z" />
<glyph unicode="&#xe801;" glyph-name="Alerte" d="M896 81.92c-5.12 5.12-10.24 10.24-15.36 15.36s-15.36 5.12-20.48 10.24c-10.24 5.12-20.48 10.24-35.84 15.36-15.36 10.24-20.48 20.48-20.48 40.96 0 40.96 0 76.8 0 117.76 0 10.24 0 20.48 0 25.6 0 25.6 0 51.2-5.12 76.8-15.36 97.28-66.56 168.96-158.72 215.040 0 0-5.12 5.12-5.12 5.12-10.24 61.44-66.56 107.52-128 107.52v0c-61.44 0-117.76-46.080-128-107.52 0-5.12 0-5.12-5.12-5.12-102.4-56.32-158.72-143.36-158.72-256 0-61.44 0-122.88 0-179.2 0-20.48-10.24-35.84-25.6-46.080s-30.72-15.36-40.96-20.48l-5.12-5.12c-10.24-5.12-20.48-10.24-15.36-25.6s15.36-15.36 25.6-15.36h250.88c0 0 0 0 0 0 5.12-46.080 35.84-87.040 81.92-97.28l15.36-5.12h25.6c0 0 0 0 5.12 0 46.080 10.24 81.92 40.96 92.16 87.040 0 5.12 0 5.12 0 10.24v0c0 0 5.12 0 5.12 0h179.2c25.6 0 46.080 0 71.68 0 10.24 0 15.36 5.12 20.48 10.24-5.12 10.24-5.12 15.36-5.12 25.6zM573.44 51.2c0-10.24-5.12-25.6-10.24-35.84-10.24-15.36-30.72-20.48-46.080-20.48-20.48 0-35.84 5.12-46.080 20.48-10.24 10.24-15.36 25.6-15.36 35.84h117.76zM235.52 92.16c25.6 25.6 30.72 56.32 30.72 81.92 0 56.32 0 112.64 0 163.84 0 107.52 51.2 179.2 143.36 225.28 15.36 5.12 20.48 15.36 20.48 30.72 0 46.080 35.84 76.8 81.92 76.8v0c46.080 0 81.92-30.72 81.92-76.8 0-15.36 5.12-25.6 20.48-30.72 66.56-30.72 112.64-76.8 133.12-143.36 10.24-25.6 10.24-51.2 10.24-81.92v-40.96c0-46.080 0-92.16 0-138.24 0-25.6 10.24-51.2 30.72-66.56h-552.96zM1024 619.52c0 5.12 0 10.24 0 15.36 0 10.24-5.12 20.48-5.12 30.72-25.6 112.64-92.16 199.68-189.44 261.12-56.32 35.84-117.76 51.2-184.32 46.080-5.12 0-15.36-5.12-20.48-10.24s-5.12-15.36 0-20.48c5.12-5.12 10.24-10.24 20.48-15.36 5.12 0 10.24 0 15.36 0s15.36 0 20.48 0c117.76-15.36 209.92-76.8 266.24-179.2 25.6-46.080 35.84-97.28 35.84-153.6 0-5.12 0-15.36 10.24-25.6 5.12 0 5.12-5.12 10.24-5.12s15.36 5.12 20.48 10.24v0 46.080zM291.84 916.48c25.6 10.24 56.32 15.36 92.16 15.36 5.12 0 15.36 0 15.36 5.12 5.12 5.12 5.12 10.24 5.12 15.36s0 10.24-5.12 15.36c-5.12 5.12-10.24 5.12-20.48 5.12-5.12 0-15.36 0-20.48 0-20.48 0-40.96 0-61.44-10.24-148.48-40.96-245.76-138.24-286.72-286.72-5.12-15.36-5.12-25.6-10.24-40.96 0-5.12 0-10.24-5.12-20.48v-40.96c0-5.12 10.24-15.36 20.48-15.36 5.12 0 5.12 0 10.24 0 10.24 5.12 15.36 15.36 15.36 25.6v10.24c0 15.36 0 30.72 5.12 51.2 30.72 143.36 112.64 230.4 245.76 271.36zM148.48 568.32c0 0 0 0 0 0 15.36 0 20.48 10.24 25.6 20.48 0 0 0 5.12 0 5.12s0 5.12 0 5.12c5.12 87.040 46.080 148.48 122.88 184.32 25.6 10.24 56.32 20.48 92.16 20.48 10.24 0 20.48 10.24 20.48 20.48s-5.12 20.48-20.48 25.6c0 0-5.12 0-5.12 0s-5.12 0-5.12 0v0c-107.52 0-209.92-81.92-240.64-189.44-5.12-15.36-5.12-35.84-10.24-56.32v-10.24c0-5.12 0-10.24 5.12-15.36s10.24-10.24 15.36-10.24zM645.12 803.84c10.24 0 20.48 0 30.72-5.12 81.92-15.36 153.6-81.92 168.96-163.84 0-10.24 5.12-20.48 5.12-30.72 0-5.12 0-10.24 0-15.36 0-15.36 10.24-20.48 20.48-20.48v0c10.24 0 20.48 10.24 20.48 25.6 0 5.12 0 5.12 0 10.24v5.12c-5.12 46.080-15.36 87.040-40.96 128-51.2 71.68-122.88 112.64-209.92 112.64v0c-15.36 0-25.6-10.24-25.6-20.48 0-15.36 10.24-25.6 30.72-25.6v0z" />
<glyph unicode="&#xe802;" glyph-name="Blogs" d="M931.84 819.2c20.48 0 40.96-15.36 40.96-40.96v-378.88c0-20.48-15.36-40.96-40.96-40.96h-87.040v-87.040l-92.16 76.8-15.36 10.24h-337.92c-20.48 0-40.96 15.36-40.96 40.96v378.88c0 20.48 15.36 40.96 40.96 40.96h532.48zM931.84 870.4h-532.48c-51.2 0-92.16-40.96-92.16-92.16v-378.88c0-51.2 40.96-92.16 92.16-92.16h317.44l174.080-143.36v143.36h35.84c51.2 0 92.16 40.96 92.16 92.16v378.88c5.12 51.2-35.84 92.16-87.040 92.16v0zM5.12 640c10.24 40.96 46.080 76.8 87.040 76.8h215.040v-51.2h-215.040c-30.72 0-40.96-20.48-40.96-51.2v-353.28c0-30.72 10.24-56.32 40.96-56.32h61.44v-97.28l102.4 92.16 30.72 5.12h332.8c30.72 0 46.080 20.48 46.080 51.2v51.2h51.2v-46.080c0-51.2-40.96-107.52-97.28-107.52h-317.44l-194.56-148.48h-5.12v148.48h-10.24c-40.96 0-76.8 40.96-87.040 81.92v404.48z" />
<glyph unicode="&#xe803;" glyph-name="Calendrier" d="M921.6 768v-716.8h-819.2v716.8h819.2zM972.8 870.4h-921.6c-28.16 0-51.2-23.040-51.2-51.2v-819.2c0-28.16 23.040-51.2 51.2-51.2h921.6c28.16 0 51.2 23.040 51.2 51.2v819.2c0 28.16-23.040 51.2-51.2 51.2v0zM204.8 563.2h153.6v-102.4h-153.6v102.4zM204.8 409.6h153.6v-102.4h-153.6v102.4zM204.8 256h153.6v-102.4h-153.6v102.4zM435.2 563.2h153.6v-102.4h-153.6v102.4zM435.2 409.6h153.6v-102.4h-153.6v102.4zM435.2 256h153.6v-102.4h-153.6v102.4zM665.6 563.2h153.6v-102.4h-153.6v102.4zM665.6 409.6h153.6v-102.4h-153.6v102.4zM665.6 256h153.6v-102.4h-153.6v102.4zM307.2 691.2c0-12.8-12.8-25.6-25.6-25.6h-51.2c-12.8 0-25.6 12.8-25.6 25.6v256c0 12.8 12.8 25.6 25.6 25.6h51.2c12.8 0 25.6-12.8 25.6-25.6v-256zM563.2 691.2c0-12.8-12.8-25.6-25.6-25.6h-51.2c-12.8 0-25.6 12.8-25.6 25.6v256c0 12.8 12.8 25.6 25.6 25.6h51.2c12.8 0 25.6-12.8 25.6-25.6v-256zM819.2 691.2c0-12.8-12.8-25.6-25.6-25.6h-51.2c-12.8 0-25.6 12.8-25.6 25.6v256c0 12.8 12.8 25.6 25.6 25.6h51.2c12.8 0 25.6-12.8 25.6-25.6v-256z" />
<glyph unicode="&#xe804;" glyph-name="CB" d="M921.6 819.2h-819.2c-56.32 0-102.4-46.080-102.4-102.4v-563.2c0-56.32 46.080-102.4 102.4-102.4h819.2c56.32 0 102.4 46.080 102.4 102.4v563.2c0 56.32-46.080 102.4-102.4 102.4zM102.4 757.76h819.2c20.48 0 40.96-20.48 40.96-40.96v-51.2h-901.12v51.2c0 20.48 20.48 40.96 40.96 40.96zM921.6 112.64h-819.2c-20.48 0-40.96 20.48-40.96 40.96v409.6h901.12v-409.6c0-20.48-20.48-40.96-40.96-40.96zM819.2 307.2h-102.4c-25.6 0-51.2-25.6-51.2-51.2s25.6-51.2 51.2-51.2h102.4c25.6 0 51.2 25.6 51.2 51.2s-25.6 51.2-51.2 51.2z" />
<glyph unicode="&#xe805;" glyph-name="Check-XL" d="M409.604 102.388c-14.95 0-29.133 6.502-38.861 17.869l-307.2 358.4c-18.432 21.504-15.923 53.811 5.53 72.192 21.402 18.432 53.76 15.974 72.192-5.53l267.776-312.422 473.242 567.859c18.074 21.76 50.381 24.678 72.090 6.554 21.76-18.074 24.678-50.381 6.554-72.090l-512-614.4c-9.626-11.571-23.91-18.33-38.963-18.432h-0.358z" />
<glyph unicode="&#xe806;" glyph-name="Check" d="M435.197 153.603c-11.725 0-22.886 5.12-30.515 14.029l-241.408 281.6c-14.438 16.896-12.493 42.291 4.352 56.73 16.845 14.49 42.291 12.493 56.73-4.352l210.432-245.453 371.814 446.157c14.234 17.050 39.578 19.405 56.627 5.171 17.101-14.234 19.405-39.578 5.171-56.627l-402.278-482.765c-7.578-9.114-18.79-14.438-30.669-14.49h-0.256z" />
<glyph unicode="&#xe807;" glyph-name="Fermer-XL" d="M858.726 751.206c15.565 15.565 15.565 40.755 0 56.32s-40.755 15.565-56.32 0l-290.406-290.406-290.406 290.406c-15.565 15.565-40.755 15.565-56.32 0s-15.565-40.755 0-56.32l290.406-290.406-290.406-290.406c-15.565-15.565-15.565-40.755 0-56.32 7.782-7.782 17.971-11.674 28.16-11.674s20.378 3.891 28.16 11.674l290.406 290.406 290.406-290.406c7.782-7.782 17.971-11.674 28.16-11.674s20.378 3.891 28.16 11.674c15.565 15.565 15.565 40.755 0 56.32l-290.406 290.406 290.406 290.406z" />
<glyph unicode="&#xe808;" glyph-name="Fermer" d="M552.23 460.813l207.411 207.462c11.11 11.11 11.11 29.082 0 40.192s-29.082 11.11-40.192 0l-207.462-207.411-207.462 207.411c-11.11 11.11-29.082 11.11-40.192 0s-11.11-29.082 0-40.192l207.411-207.462-207.411-207.462c-11.11-11.11-11.11-29.082 0-40.192 5.53-5.581 12.8-8.346 20.122-8.346 7.27 0 14.541 2.765 20.070 8.346l207.462 207.411 207.462-207.411c5.53-5.581 12.8-8.346 20.070-8.346 7.322 0 14.592 2.765 20.122 8.346 11.11 11.11 11.11 29.082 0 40.192l-207.411 207.462z" />
<glyph unicode="&#xe809;" glyph-name="Deconnexion" d="M558.080 51.2h-558.080v25.6c5.12 117.76 102.4 158.72 174.080 194.56 40.96 15.36 76.8 35.84 87.040 56.32 0 20.48 0 35.84 0 56.32v5.12c-15.36 20.48-35.84 56.32-40.96 81.92-15.36 10.24-30.72 25.6-35.84 66.56 0 20.48 5.12 35.84 10.24 51.2-20.48 97.28-15.36 168.96 20.48 215.040 30.72 40.96 87.040 66.56 153.6 66.56 46.080 0 81.92-10.24 102.4-35.84 30.72-5.12 56.32-25.6 76.8-51.2 40.96-61.44 20.48-158.72 5.12-194.56 10.24-10.24 15.36-30.72 10.24-51.2-5.12-40.96-20.48-61.44-35.84-66.56-5.12-30.72-20.48-66.56-40.96-81.92v-5.12c0-15.36 0-35.84 0-56.32 5.12-5.12 10.24-15.36 20.48-20.48 10.24-10.24 15.36-25.6 10.24-35.84-10.24-10.24-25.6-15.36-35.84-10.24-20.48 15.36-35.84 30.72-46.080 51.2v5.12c0 25.6 0 40.96 0 61.44v35.84l15.36 10.24c5.12 5.12 25.6 40.96 25.6 71.68v20.48h20.48c0 0 5.12 5.12 10.24 30.72 0 10.24 0 10.24 0 10.24l-20.48 10.24 10.24 20.48c15.36 40.96 30.72 122.88 5.12 168.96-10.24 15.36-25.6 25.6-46.080 30.72h-15.36l-5.12 10.24c-5.12 10.24-25.6 20.48-61.44 20.48-51.2 0-92.16-15.36-112.64-46.080-25.6-35.84-30.72-102.4-10.24-184.32l5.12-20.48-15.36-10.24c0 0 0-5.12 0-10.24 5.12-25.6 10.24-30.72 10.24-30.72h20.48v-20.48c5.12-30.72 20.48-66.56 30.72-71.68l15.36-5.12v-30.72c0-20.48 0-40.96 0-61.44v-5.12c-15.36-46.080-66.56-66.56-117.76-92.16-61.44-25.6-122.88-51.2-138.24-117.76h496.64c15.36 0 25.6-10.24 25.6-25.6s-10.24-35.84-25.6-35.84zM793.6 25.6c-128 0-230.4 102.4-230.4 230.4 0 81.92 46.080 158.72 117.76 199.68 10.24 5.12 25.6 5.12 35.84-10.24 5.12-10.24 5.12-25.6-10.24-35.84-56.32-30.72-92.16-92.16-92.16-153.6 0-97.28 81.92-179.2 179.2-179.2s179.2 81.92 179.2 179.2c0 66.56-35.84 122.88-92.16 158.72-10.24 5.12-15.36 20.48-10.24 35.84 5.12 10.24 20.48 15.36 35.84 10.24 71.68-40.96 117.76-117.76 117.76-199.68 0-133.12-102.4-235.52-230.4-235.52zM768 517.12c0 15.36 10.24 25.6 25.6 25.6h5.12c15.36 0 25.6-10.24 25.6-25.6v-189.44c0-15.36-10.24-25.6-25.6-25.6h-5.12c-15.36 0-25.6 10.24-25.6 25.6v189.44z" />
<glyph unicode="&#xe80a;" glyph-name="Chevron-bas" d="M153.587 614.413c0 10.547 4.045 21.094 12.083 29.133 16.128 16.128 42.189 16.128 58.317 0l288-288 288 288c16.128 16.128 42.189 16.128 58.317 0 16.128-16.077 16.128-42.189 0-58.266l-317.184-317.184c-16.077-16.128-42.189-16.128-58.266 0l-317.184 317.184c-8.038 8.038-12.083 18.586-12.083 29.133z" />
<glyph unicode="&#xe80b;" glyph-name="Chevron-gauche-XL" d="M768.013-51.213c-13.107 0-26.214 5.018-36.198 15.002l-460.8 460.8c-20.019 20.019-20.019 52.378 0 72.397l460.8 460.8c20.019 20.019 52.378 20.019 72.397 0s20.019-52.378 0-72.397l-424.602-424.602 424.602-424.602c20.019-20.019 20.019-52.378 0-72.397-9.984-9.984-23.091-15.002-36.198-15.002z" />
<glyph unicode="&#xe80c;" glyph-name="Chevron-gauche" d="M614.413 102.387c10.547 0 21.094 4.045 29.133 12.083 16.128 16.128 16.128 42.189 0 58.317l-288 288 288 288c16.128 16.128 16.128 42.189 0 58.317-16.077 16.128-42.189 16.128-58.266 0l-317.184-317.184c-16.128-16.077-16.128-42.189 0-58.266l317.184-317.184c8.038-8.038 18.586-12.083 29.133-12.083z" />
<glyph unicode="&#xe80d;" glyph-name="Mot-de-passe" d="M163.84 501.76h696.32v-491.52h-696.32v491.52zM870.4 563.2h-716.8c-28.16 0-51.2-23.040-51.2-51.2v-512c0-28.16 23.040-51.2 51.2-51.2h716.8c28.16 0 51.2 23.040 51.2 51.2v512c0 28.16-23.040 51.2-51.2 51.2v0zM563.2 204.8c0-28.16-23.040-51.2-51.2-51.2s-51.2 23.040-51.2 51.2v102.4c0 28.16 23.040 51.2 51.2 51.2s51.2-23.040 51.2-51.2v-102.4zM512 921.6c112.947 0 204.8-114.842 204.8-256v-102.4h51.2v102.4c0 168.96-115.2 307.2-256 307.2s-256-138.24-256-307.2v-102.4h51.2v102.4c0 141.158 91.853 256 204.8 256z" />
<glyph unicode="&#xe80e;" glyph-name="Loupe" d="M460.8 768c143.36 0 256-112.64 256-256s-112.64-256-256-256-256 112.64-256 256 112.64 256 256 256zM460.8 870.4c-199.68 0-358.4-158.72-358.4-358.4s158.72-358.4 358.4-358.4 358.4 158.72 358.4 358.4-158.72 358.4-358.4 358.4zM870.4 40.96c-15.36 0-30.72 5.12-46.080 20.48l-153.6 153.6c-25.6 25.6-25.6 66.56 0 92.16s66.56 25.6 92.16 0l153.6-153.6c25.6-25.6 25.6-66.56 0-92.16-15.36-15.36-30.72-20.48-46.080-20.48z" />
<glyph unicode="&#xe80f;" glyph-name="Mail" d="M51.2 768h921.6v-614.4h-921.6v614.4zM0 102.4h1024v716.8h-1024v-716.8zM513.69 311.706c-30.874 0-60.262 11.776-80.589 32.256l-400.128 406.067 36.454 35.942 400.077-406.016c10.701-10.803 26.829-17.050 44.186-17.050 17.254 0 33.229 6.144 43.776 16.794l397.056 406.221 36.557-35.84-397.107-406.323c-20.224-20.378-49.459-32.051-80.23-32.051h-0.051zM74.291 104.448l-36.608 35.789 307.2 314.061 36.608-35.84-307.2-314.010zM954.931 99.174l-307.2 314.522 36.659 35.738 307.2-314.522-36.659-35.738z" />
<glyph unicode="&#xe810;" glyph-name="Meteo" d="M819.2 366.080c15.36 28.16 23.040 61.44 23.040 94.72 0 117.76-94.72 215.040-215.040 215.040-69.12 0-135.68-35.84-176.64-92.16-2.56 0-5.12 0-7.68 0-117.76 0-217.6-76.8-248.32-186.88-7.68 2.56-17.92 2.56-25.6 2.56-92.16 0-168.96-74.24-168.96-168.96s74.24-168.96 168.96-168.96h550.4c92.16 0 168.96 74.24 168.96 168.96-2.56 56.32-28.16 104.96-69.12 135.68zM627.2 614.4c84.48 0 153.6-69.12 153.6-153.6 0-23.040-5.12-46.080-15.36-66.56-15.36 5.12-30.72 5.12-46.080 5.12-7.68 0-17.92 0-25.6-2.56-25.6 84.48-89.6 148.48-171.52 174.080 28.16 28.16 64 43.52 104.96 43.52zM719.36 125.44h-550.4c-58.88 0-107.52 48.64-107.52 107.52s48.64 107.52 107.52 107.52c5.12 0 10.24 0 17.92-2.56v-28.16c0-17.92 12.8-30.72 30.72-30.72s30.72 12.8 30.72 30.72v48.64c15.36 94.72 97.28 163.84 194.56 163.84s179.2-69.12 194.56-163.84v-48.64c0-17.92 12.8-30.72 30.72-30.72s30.72 12.8 30.72 30.72v28.16c7.68 2.56 12.8 2.56 17.92 2.56 58.88 0 107.52-48.64 107.52-107.52s-46.080-107.52-104.96-107.52zM627.2 734.72c17.92 0 30.72 12.8 30.72 30.72v61.44c0 17.92-12.8 30.72-30.72 30.72s-30.72-12.8-30.72-30.72v-61.44c0-15.36 12.8-30.72 30.72-30.72zM993.28 491.52h-61.44c-17.92 0-30.72-12.8-30.72-30.72s12.8-30.72 30.72-30.72h61.44c17.92 0 30.72 12.8 30.72 30.72s-12.8 30.72-30.72 30.72zM842.24 645.12c7.68 0 15.36 2.56 20.48 7.68l43.52 43.52c12.8 12.8 12.8 30.72 0 43.52s-30.72 12.8-43.52 0l-43.52-43.52c-12.8-12.8-12.8-30.72 0-43.52 7.68-2.56 15.36-7.68 23.040-7.68zM389.12 655.36c5.12-5.12 12.8-7.68 20.48-7.68s15.36 2.56 20.48 7.68c12.8 12.8 12.8 30.72 0 43.52l-43.52 43.52c-12.8 12.8-30.72 12.8-43.52 0s-12.8-30.72 0-43.52l46.080-43.52z" />
<glyph unicode="&#xe811;" glyph-name="Mobile" d="M716.8 921.6c28.211 0 51.2-22.989 51.2-51.2v-819.2c0-28.211-22.989-51.2-51.2-51.2h-409.6c-28.211 0-51.2 22.989-51.2 51.2v819.2c0 28.211 22.989 51.2 51.2 51.2h409.6zM716.8 972.8h-409.6c-56.32 0-102.4-46.080-102.4-102.4v-819.2c0-56.32 46.080-102.4 102.4-102.4h409.6c56.32 0 102.4 46.080 102.4 102.4v819.2c0 56.32-46.080 102.4-102.4 102.4zM204.8 870.4h614.4v-51.2h-614.4v51.2zM204.8 204.8h614.4v-51.2h-614.4v51.2zM512 102.4c14.131 0 25.6-11.469 25.6-25.6s-11.469-25.6-25.6-25.6c-14.131 0-25.6 11.469-25.6 25.6s11.469 25.6 25.6 25.6zM512 153.6c-42.342 0-76.8-34.458-76.8-76.8s34.458-76.8 76.8-76.8c42.342 0 76.8 34.458 76.8 76.8s-34.458 76.8-76.8 76.8z" />
<glyph unicode="&#xe812;" glyph-name="Newsletter" d="M1008.64 716.8h-629.76c-5.12 0-15.36-5.12-15.36-15.36v-481.28c0-10.24 5.12-15.36 15.36-15.36h629.76c10.24 0 15.36 5.12 15.36 15.36v481.28c0 10.24-5.12 15.36-15.36 15.36zM967.68 680.96l-250.88-256c-5.12-5.12-15.36-10.24-25.6-10.24s-20.48 5.12-25.6 10.24l-245.76 256h547.84zM404.48 650.24l184.32-189.44-184.32-189.44v378.88zM419.84 240.64l184.32 199.68 35.84-35.84c10.24-10.24 30.72-20.48 46.080-20.48 20.48 0 35.84 5.12 46.080 20.48l35.84 35.84 194.56-199.68h-542.72zM988.16 271.36l-179.2 189.44 179.2 189.44v-378.88zM261.12 460.8h-112.64c-25.6 0-46.080-10.24-46.080-25.6s20.48-25.6 46.080-25.6h107.52c30.72 0 51.2 10.24 51.2 25.6s-20.48 25.6-46.080 25.6zM256 358.4h-51.2c-30.72 0-51.2-10.24-51.2-25.6s25.6-25.6 51.2-25.6h51.2c30.72 0 51.2 10.24 51.2 25.6s-25.6 25.6-51.2 25.6zM256 563.2h-204.8c-25.6 0-51.2-10.24-51.2-25.6s25.6-25.6 51.2-25.6h204.8c30.72 0 51.2 10.24 51.2 25.6s-25.6 25.6-51.2 25.6z" />
<glyph unicode="&#xe813;" glyph-name="Panier" d="M363.52 256h517.12l143.36 460.8h-803.84l35.84-46.080-87.040 250.88h-168.96v-51.2h133.12l189.44-573.44-40.96-107.52c-5.12-10.24 0-15.36 0-25.6 5.12-5.12 15.36-10.24 20.48-10.24h10.24c-20.48-20.48-35.84-46.080-35.84-76.8 0-56.32 46.080-102.4 102.4-102.4s102.4 46.080 102.4 102.4c0 30.72-15.36 56.32-35.84 76.8h271.36c-20.48-20.48-35.84-46.080-35.84-76.8 0-56.32 46.080-102.4 102.4-102.4s102.4 46.080 102.4 102.4c0 30.72-15.36 56.32-35.84 76.8h61.44v51.2h-568.32l20.48 51.2zM378.88 25.6c-25.6 0-51.2 20.48-51.2 51.2s20.48 51.2 51.2 51.2 51.2-20.48 51.2-51.2-20.48-51.2-51.2-51.2zM788.48 25.6c-25.6 0-51.2 20.48-51.2 51.2s20.48 51.2 51.2 51.2 51.2-20.48 51.2-51.2-25.6-51.2-51.2-51.2zM957.44 665.6l-112.64-358.4h-471.040l-117.76 358.4h701.44z" />
<glyph unicode="&#xe814;" glyph-name="Telephone" d="M836.985-51.254h-1.178c-174.848 5.632-379.341 174.797-520.192 315.699-140.902 140.902-309.965 345.395-315.597 519.578-1.946 62.054 148.378 171.008 149.862 172.032 39.987 27.955 84.429 17.766 102.707-7.526 12.083-16.742 125.133-188.211 137.421-207.565 13.21-20.838 11.418-51.814-4.966-82.79-8.448-16.077-36.864-66.099-50.79-90.573 15.258-21.658 54.272-72.499 133.12-151.347 78.899-78.899 129.741-117.914 151.45-133.222 24.422 13.978 74.342 42.342 90.47 50.842 30.515 16.128 61.235 18.022 82.432 5.171 20.838-12.749 191.846-126.464 207.565-137.472 12.083-8.448 20.685-22.733 23.603-39.27 3.738-21.197-1.843-43.827-15.821-63.642-0.973-1.485-108.442-149.914-170.086-149.914v0zM200.364 921.598c-5.53 0-12.902-1.741-21.146-7.526-46.336-32.358-125.542-106.547-128.051-128.256 5.069-157.594 166.298-350.822 300.646-485.171s327.526-295.629 484.966-300.698c21.914 2.509 96 81.715 128.358 128.051 11.776 16.794 7.066 29.696 4.71 31.693-13.056 9.165-184.422 123.187-204.8 135.629-3.021 1.843-15.565 1.843-31.795-6.707h-0.051c-21.299-11.264-102.707-57.856-102.707-57.856l-12.902-7.373-12.8 7.526c-2.406 1.382-60.621 36.096-173.619 149.146-112.998 112.998-147.661 171.162-149.094 173.568l-7.475 12.8 7.322 12.902c0.051 0 46.643 81.408 57.805 102.707 9.267 17.51 8.397 29.389 7.014 31.488-11.622 18.381-124.416 189.44-135.68 205.005-1.024 1.178-4.915 3.072-10.701 3.072v0z" />
<glyph unicode="&#xe815;" glyph-name="Puce" d="M716.8 460.8c0-113.101-91.699-204.8-204.8-204.8s-204.8 91.699-204.8 204.8c0 113.101 91.699 204.8 204.8 204.8s204.8-91.699 204.8-204.8z" />
<glyph unicode="&#xe816;" glyph-name="Chevron-droite-XL" d="M255.987 972.813c13.107 0 26.214-5.018 36.198-15.002l460.8-460.8c20.019-20.019 20.019-52.378 0-72.397l-460.8-460.8c-20.019-20.019-52.378-20.019-72.397 0s-20.019 52.378 0 72.397l424.602 424.602-424.602 424.602c-20.019 20.019-20.019 52.378 0 72.397 9.984 9.984 23.091 15.002 36.198 15.002z" />
<glyph unicode="&#xe817;" glyph-name="Chevron-droite" d="M255.987 102.387c-10.547 0-21.094 4.045-29.133 12.083-16.128 16.128-16.128 42.189 0 58.317l288 288-288 288c-16.128 16.128-16.128 42.189 0 58.317 16.077 16.128 42.189 16.128 58.266 0l317.184-317.184c16.128-16.077 16.128-42.189 0-58.266l-317.184-317.184c-8.038-8.038-18.586-12.083-29.133-12.083z" />
<glyph unicode="&#xe818;" glyph-name="Sepa" d="M102.4 691.2h204.8v-51.2h-204.8v51.2zM102.4 537.6h768v-51.2h-768v51.2zM102.4 435.2h768v-51.2h-768v51.2zM716.8 281.6h204.8v-51.2h-204.8v51.2zM0 793.6v-665.6h1024v665.6h-1024zM972.8 179.2h-921.6v563.2h921.6v-563.2z" />
<glyph unicode="&#xe819;" glyph-name="Temps" d="M322.56 271.36c20.48 71.68 76.8 122.88 148.48 143.36v0c0 0 0 0 0 0s0 0 0 0 0 0 0 0 0 0 0 0 0 0 0 0v0 0c0 0 0 0 0 0v0c0 0 0 0 0 0v0 0c0 0 0 0 0 0v0 0c0 0 0 5.12 0 5.12v66.56c0 10.24-10.24 20.48-20.48 25.6-51.2 15.36-112.64 66.56-128 138.24l-66.56 235.52h552.96l-66.56-230.4c-20.48-76.8-76.8-128-148.48-143.36 0 0-5.12 0-5.12 0v0 0c0 0 0 0 0 0v0 0c-5.12-5.12-10.24-10.24-10.24-20.48v-56.32c0 0 0-5.12 0-5.12v0 0c0 0 0 0 0-5.12v0 0c0 0 0 0 0 0s0 0 0 0 0 0 0 0 0 0 0 0 0 0 0 0 0 0 0 0 0 0 0 0 0 0 0 0v0 0c71.68-15.36 128-71.68 148.48-143.36l66.56-230.4h-537.6l66.56 220.16zM788.48 640l66.56 235.52c0 0 0 5.12 0 5.12h10.24c25.6 0 46.080 20.48 46.080 46.080v0c0 25.6-20.48 46.080-46.080 46.080h-675.84c-20.48-5.12-35.84-25.6-35.84-46.080v0c0-25.6 20.48-46.080 46.080-46.080h10.24c0 0 0-5.12 0-5.12l66.56-235.52c20.48-81.92 81.92-148.48 163.84-168.96v-15.36c-81.92-25.6-143.36-87.040-168.96-168.96l-66.56-235.52c0 0 0-5.12 0-5.12h-15.36c-20.48-15.36-35.84-30.72-35.84-51.2v0c0-25.6 20.48-46.080 46.080-46.080h665.6c25.6 0 46.080 20.48 46.080 46.080v0c0 25.6-20.48 46.080-46.080 46.080h-10.24c0 0 0 5.12 0 5.12l-66.56 235.52c-20.48 81.92-87.040 143.36-168.96 168.96v20.48c81.92 20.48 148.48 87.040 168.96 168.96z" />
<glyph unicode="&#xe81a;" glyph-name="Utilisateur" d="M966.349 0c-19.712 128.307-131.379 172.39-223.078 207.309-54.784 20.89-106.598 40.653-121.088 72.755-2.253 26.726-2.048 47.616-1.843 71.629l0.051 9.984c22.528 23.347 43.008 70.246 50.944 109.363 17.203 9.421 37.837 31.744 44.083 84.122 3.123 26.112-4.147 46.49-14.541 60.211 14.131 48.742 41.779 171.315-7.373 250.317-20.685 33.28-51.866 54.374-92.723 62.771-23.245 28.723-66.867 44.339-125.082 44.339-88.269-1.638-152.986-28.774-192.41-80.64-46.643-61.389-55.552-154.163-26.624-275.917-10.701-13.773-18.381-34.406-15.206-61.082 6.298-52.326 26.931-74.701 44.134-84.122 8.346-40.909 30.362-86.579 52.173-109.261l0.051-9.83c0.205-24.115 0.358-45.056-1.894-71.936-14.285-32.154-61.901-50.995-116.838-72.704-88.422-34.97-196.096-79.104-215.398-207.309h-3.686v-51.2h972.8v51.2h-6.451zM238.899 157.235c65.792 26.010 127.898 50.534 148.787 107.11 0.87 2.202 1.382 4.557 1.587 6.912 2.867 31.386 2.662 55.552 2.458 81.152l-0.154 21.862c0 10.035-4.762 18.739-13.619 23.398-10.138 7.373-37.12 54.938-41.472 96.205-1.382 12.902-11.52 22.938-24.422 24.013-2.56 0.614-13.005 9.83-17.050 43.622-2.048 17.152 5.632 23.142 5.581 23.142 10.138 6.195 15.002 18.278 12.032 29.747-28.672 110.95-23.962 195.738 13.568 245.146 28.979 38.093 79.616 58.061 150.016 59.341 43.418 0 75.366-10.598 85.402-28.365 4.147-7.27 11.418-12.237 19.712-13.363 30.669-4.301 52.378-17.357 66.458-39.987 36.096-58.010 15.104-166.246-3.021-221.082-3.686-11.059 1.946-24.371 11.315-31.283 0.102-0.051 7.885-5.99 5.837-23.296-4.045-33.843-14.49-43.008-16.896-43.622-12.902-1.024-23.245-11.11-24.576-24.013-4.454-41.523-30.618-88.986-39.475-95.744-8.858-4.659-14.387-13.875-14.387-23.859l-0.154-22.118c-0.205-25.498-0.41-49.562 2.406-80.896 0.205-2.355 0.768-4.71 1.587-6.912 21.043-56.832 85.453-81.408 153.702-107.366 83.558-31.846 168.858-65.434 187.853-156.979h-853.914c18.432 91.904 100.506 125.44 180.838 157.235v0z" />
<glyph unicode="&#xe81b;" glyph-name="Vacances" d="M819.2 808.96c-87.040 51.2-179.2 81.92-286.72 81.92-5.12 0-10.24 0-15.36 0 20.48-15.36 51.2-35.84 87.040-87.040 40.96-56.32 71.68-128 97.28-215.040 5.12-10.24 5.12-20.48 10.24-30.72 0-5.12 0-5.12 0-10.24s0-5.12 0-5.12v0-15.36l-15.36 5.12c-40.96 10.24-81.92 15.36-122.88 15.36-46.080 0-92.16-5.12-133.12-20.48s-87.040-35.84-128-61.44l-15.36-10.24-5.12 20.48c0 0 0 0 0 0s0 5.12 0 5.12c-5.12 102.4 0 189.44 20.48 266.24 15.36 61.44 35.84 97.28 56.32 112.64-61.44-15.36-112.64-40.96-153.6-71.68-51.2-35.84-97.28-81.92-133.12-133.12-56.32-81.92-81.92-174.080-81.92-271.36 0 0 0-5.12 0-5.12 15.36 15.36 25.6 25.6 40.96 30.72 46.080 25.6 97.28 40.96 148.48 40.96 10.24 0 25.6 0 35.84 0 30.72-10.24 61.44-15.36 87.040-40.96 5.12 10.24 15.36 20.48 30.72 30.72s30.72 20.48 46.080 30.72c61.44 25.6 128 40.96 194.56 40.96 10.24 0 20.48 0 30.72 0 35.84 0 71.68-5.12 102.4-30.72 15.36 30.72 40.96 46.080 56.32 56.32 46.080 20.48 97.28 30.72 148.48 30.72 15.36 0 30.72 0 40.96-5.12 20.48 0 40.96-5.12 61.44-20.48-15.36 51.2-35.84 97.28-66.56 138.24-35.84 51.2-81.92 92.16-138.24 128zM409.6 901.12c0 0 0 0 0 0 15.36 5.12 30.72 5.12 46.080 5.12 5.12 0 10.24 0 10.24 0 0 5.12 0 20.48-5.12 25.6 0 10.24-5.12 15.36-10.24 20.48s-10.24 10.24-15.36 10.24c-5.12 0-10.24 0-15.36-5.12-10.24-5.12-15.36-15.36-15.36-25.6s5.12-20.48 5.12-30.72zM614.4-40.96c-10.24 0-20.48 10.24-25.6 20.48l-102.4 512c-5.12 15.36 5.12 30.72 20.48 30.72 15.36 5.12 25.6-5.12 30.72-20.48l102.4-512c0-15.36-10.24-25.6-25.6-30.72 0 0 0 0 0 0z" />
<glyph unicode="&#xe81c;" glyph-name="Accueil" d="M972.8 409.6c-15.36 0-25.6 5.12-35.84 15.36l-424.96 424.96-424.96-424.96c-20.48-20.48-51.2-20.48-71.68 0s-20.48 51.2 0 71.68l460.8 460.8c20.48 20.48 51.2 20.48 71.68 0l460.8-460.8c20.48-20.48 20.48-51.2 0-71.68-10.24-10.24-20.48-15.36-35.84-15.36zM870.4-51.2h-256l-51.2 51.2v256h-102.4v-256l-51.2-51.2h-256l-51.2 51.2v358.4c0 30.72 20.48 51.2 51.2 51.2s51.2-20.48 51.2-51.2v-307.2h153.6v256l51.2 51.2h204.8l51.2-51.2v-256h153.6v307.2c0 30.72 20.48 51.2 51.2 51.2s51.2-20.48 51.2-51.2v-358.4l-51.2-51.2zM870.4 665.6c-30.72 0-51.2 20.48-51.2 51.2v102.4h-102.4c-30.72 0-51.2 20.48-51.2 51.2s20.48 51.2 51.2 51.2h153.6c30.72 0 51.2-20.48 51.2-51.2v-153.6c0-30.72-20.48-51.2-51.2-51.2z" />
<glyph unicode="&#xe900;" glyph-name="LogoM" d="M977.92 727.040c-40.96-25.6-56.32-56.32-56.32-112.64v-419.84c0-25.6 5.12-35.84 15.36-46.080l15.36-5.12 40.96 20.48 15.36-25.6-138.24-76.8-46.080 30.72c-20.48 15.36-30.72 30.72-30.72 66.56v373.76c0 71.68 20.48 107.52 51.2 128l15.36 15.36-128 76.8-56.32-35.84v-542.72c0-46.080-5.12-51.2-46.080-71.68 0 0-30.72-15.36-76.8-35.84h-10.24v593.92c0 30.72-5.12 35.84-20.48 51.2l-40.96 35.84-56.32-30.72v-312.32c0-56.32-10.24-92.16-51.2-122.88l-107.52-66.56-10.24 20.48c35.84 25.6 40.96 61.44 40.96 107.52v317.44c0 46.080-5.12 66.56-56.32 56.32-20.48-5.12-51.2-10.24-66.56-10.24-71.68-10.24-102.4 40.96-51.2 107.52 0 0 10.24 15.36 40.96 56.32l25.6-15.36-20.48-30.72c-20.48-30.72-5.12-51.2 30.72-35.84 15.36 5.12 51.2 20.48 76.8 30.72 102.4 40.96 143.36-25.6 148.48-66.56l128 76.8 112.64-87.040 138.24 87.040 102.4-61.44c35.84-20.48 51.2-10.24 76.8 0l20.48 10.24 20.48-25.6-46.080-25.6zM307.2 56.32c-10.24 30.72-40.96 61.44-97.28 66.56-51.2 0-128-20.48-194.56-66.56l-15.36 15.36c46.080 51.2 153.6 133.12 266.24 133.12 61.44 0 102.4-20.48 128-51.2l51.2 25.6 15.36-30.72-153.6-92.16z" />
<glyph unicode="&#xe901;" glyph-name="Cadeau" d="M942.080 716.8h-97.28c51.2 51.2 66.56 117.76 25.6 184.32-30.72 46.080-76.8 71.68-133.12 71.68-30.72 0-61.44-10.24-87.040-25.6-51.2-35.84-112.64-168.96-138.24-230.4-25.6 61.44-87.040 194.56-138.24 230.4-25.6 15.36-56.32 25.6-87.040 25.6-56.32 0-102.4-25.6-133.12-71.68-40.96-66.56-30.72-133.12 20.48-184.32h-92.16c-15.36 0-30.72-15.36-30.72-30.72v-199.68c0-10.24 15.36-25.6 30.72-25.6h20.48v-481.28c0-15.36 15.36-30.72 30.72-30.72h762.88c15.36 0 30.72 15.36 30.72 30.72v481.28h20.48c15.36 0 30.72 15.36 30.72 30.72v194.56c-5.12 15.36-20.48 30.72-35.84 30.72zM921.6 512h-256v153.6h256v-153.6zM614.4 665.6v-153.6h-204.8v153.6h204.8zM680.96 901.12c15.36 10.24 35.84 15.36 56.32 15.36 35.84 0 66.56-15.36 87.040-46.080 30.72-46.080 15.36-107.52-30.72-138.24-10.24-10.24-46.080-15.36-163.84-15.36-20.48 0-51.2 0-66.56 0 30.72 76.8 87.040 163.84 117.76 184.32zM199.68 870.4c20.48 30.72 51.2 46.080 87.040 46.080 20.48 0 35.84-5.12 56.32-15.36 30.72-20.48 87.040-112.64 117.76-184.32-15.36 0-46.080 0-71.68 0v0c-112.64 0-148.48 5.12-158.72 10.24-46.080 30.72-56.32 92.16-30.72 143.36zM102.4 665.6h256v-153.6h-256v153.6zM153.6 460.8h204.8v-460.8h-204.8v460.8zM409.6 0v460.8h204.8v-460.8h-204.8zM870.4 0h-204.8v460.8h204.8v-460.8z" />
</font>
</defs>
</svg>
