<?xml version="1.0" standalone="no"?> <!DOCTYPE svg PUBLIC "-//W3C//DTD SVG 1.0//EN" "http://www.w3.org/TR/2001/REC-SVG-20010904/DTD/svg10.dtd" > <svg xmlns="http://www.w3.org/2000/svg" width="100%" height="100%">
<defs >
<font id="TheAntiquaB_700_" horiz-adv-x="471" ><font-face
    font-family="TheAntiqua B7 Bold"
    units-per-em="1000"
    panose-1="2 10 8 3 7 3 2 2 2 4"
    ascent="980"
    descent="-320"
    alphabetic="0" />
<missing-glyph horiz-adv-x="500" />
<glyph unicode=" " glyph-name="space" horiz-adv-x="218" />
<glyph unicode="!" glyph-name="exclam" horiz-adv-x="303" d="M193 182H111L77 714H226L193 182ZM225 62Q225 47 219 34T204 10T180 -5T151 -10Q136 -10 122 -5T98 10T83 33T77 62Q77 76 82 89T98 112T122 127T151 133Q166 133 180 128T203 113T219 90T225 62Z" />
<glyph unicode="&quot;" glyph-name="quotedbl" horiz-adv-x="393" d="M319 499H257L229 746H347L319 499ZM136 499H75L46 746H165L136 499Z" />
<glyph unicode="#" glyph-name="numbersign" horiz-adv-x="702" d="M535 439L515 252H646V180H508L489 0H379L398 180H269L250 0H140L160 180H28V252H167L187 439H56V510H194L211 675H321L304 510H433L450 675H560L543 510H674V439H535ZM296 439L276 252H406L426
439H296Z" />
<glyph unicode="$" glyph-name="dollaroldstyle" horiz-adv-x="510" d="M464 194Q464 155 451 124T414 68T357 28T284 3V-124H206V-6Q166 -5 127 -1T58 11V190H120Q130 167 140 142T156 95Q170 87 189 83T235 79Q253 79 270 83T299 97T319 122T326 159Q326 193
305 213T253 249T185 277T117 310T64 363T43 449Q43 522 91 567T220 625V728H297V629Q331 629 363 626T424 617V453H362Q351 471 341 496T327 543Q314 547 296 549T260 552Q239 552 224 547T198 531T183 509T177 482Q177 449 198 429T251 393T320 364T390 329T443
276T464 194Z" />
<glyph unicode="%" glyph-name="percent" horiz-adv-x="816" d="M774 167Q774 126 759 93T718 37T660 2T592 -11Q556 -11 526 -1T475 29T443 81T431 154Q431 195 446 227T486 283T543 318T609 330Q644 330 674 321T726 293T761 242T774 167ZM154 -26L94 25L652
700L713 649L154 -26ZM377 524Q377 482 362 449T322 393T264 358T196 345Q160 345 130 355T79 386T47 438T35 510Q35 551 50 584T90 639T147 674T213 686Q248 686 278 677T330 649T364 598T377 524ZM671 152Q671 173 667 191T653 223T630 245T598 253Q569 253 552
231T534 170Q534 120 553 93T605 66Q636 66 653 87T671 152ZM274 508Q274 529 270 547T256 579T234 601T202 609Q173 609 156 587T138 526Q138 477 157 450T209 422Q240 422 257 444T274 508Z" />
<glyph unicode="&amp;" glyph-name="ampersand" horiz-adv-x="829" d="M615 0Q593 18 572 34T530 68Q479 31 416 10T277 -11Q218 -11 175 4T103 44T60 103T45 175Q45 210 56 238T87 290T130 334T181 374Q153 403 134 429T103 477T86 520T81 560Q81 597 96 629T142
686T216 723T315 736Q357 736 391 727T450 699T488 657T502 602Q502 570 490 543T456 492T409 446T354 403Q394 361 446 316T560 218Q578 250 589 289T601 376Q586 380 570 390T542 409V457H774V408Q762 399 747 391T715 378Q707 318 686 264T631 163Q654 144 678
125T727 85Q744 78 761 69T790 49V0H615ZM369 578Q369 595 364 611T349 639T325 658T290 665Q258 665 240 644T222 591Q222 564 240 531T298 455Q328 480 348 509T369 578ZM461 121Q396 175 342 224T244 316Q220 293 203 267T186 207Q186 178 197 155T229 115T277
91T337 82Q372 82 403 91T461 121Z" />
<glyph unicode="&apos;" glyph-name="quotesingle" horiz-adv-x="211" d="M136 499H75L46 746H165L136 499Z" />
<glyph unicode="(" glyph-name="parenleft" horiz-adv-x="315" d="M219 -209Q171 -143 138 -80T86 44T58 166T50 284Q50 342 58 402T87 526T139 652T219 780L287 743Q258 696 237 642T202 530T180 411T173 289Q173 229 179 169T200 50T237 -65T290 -171L219 -209Z" />
<glyph unicode=")" glyph-name="parenright" horiz-adv-x="315" d="M265 287Q265 229 257 168T228 45T175 -82T95 -209L28 -172Q56 -125 77 -72T113 40T135 159T142 282Q142 341 135 401T114 520T78 635T25 742L95 779Q144 714 176 651T228 526T256 405T265 287Z" />
<glyph unicode="*" glyph-name="asterisk" horiz-adv-x="381" d="M302 466L205 553L230 424H146L172 553L74 467L33 538L157 580L33 622L75 694L172 608L147 736H230L205 608L303 694L344 622L220 580L344 539L302 466Z" />
<glyph unicode="+" glyph-name="plus.alt1" horiz-adv-x="600" d="M352 222V7H247V222H46V312H247V525H352V312H554V222H352Z" />
<glyph unicode="," glyph-name="comma" horiz-adv-x="249" d="M123 140Q146 140 164 128T191 94T201 43T187 -21T145 -92T68 -165L25 -124Q54 -98 68 -77T85 -37T84 -4T67 25Q54 41 53 61T58 98T82 128T123 140Z" />
<glyph unicode="-" glyph-name="hyphen" horiz-adv-x="318" d="M39 244V338H278V244H39Z" />
<glyph unicode="." glyph-name="period" horiz-adv-x="249" d="M201 66Q201 50 195 36T179 12T154 -5T124 -11Q109 -11 95 -5T70 11T54 36T48 66Q48 81 54 95T70 120T94 136T124 143Q140 143 154 137T178 120T195 96T201 66Z" />
<glyph unicode="/" glyph-name="slash" horiz-adv-x="469" d="M103 -184L0 -152L355 780L458 748L103 -184Z" />
<glyph unicode="0" glyph-name="zerooldstyle" horiz-adv-x="658" d="M615 283Q615 215 591 161T525 69T430 10T317 -11Q257 -11 207 5T121 54T64 140T43 262Q43 329 67 383T133 476T227 534T340 555Q401 555 451 539T538 488T595 403T615 283ZM485 274Q485 315
475 349T444 408T394 446T324 460Q254 460 214 412T174 272Q174 230 184 196T215 137T265 99T336 85Q405 85 445 133T485 274Z" />
<glyph unicode="1" glyph-name="oneoldstyle" horiz-adv-x="396" d="M42 0V51Q65 62 94 73T150 89V441L47 399L27 459L190 547H285V89Q304 83 323 73T364 51V0H42Z" />
<glyph unicode="2" glyph-name="twooldstyle" horiz-adv-x="494" d="M450 0H40V76L154 182Q220 243 255 296T290 392Q290 431 271 454T209 477Q191 477 178 473T152 460Q147 440 138 416T115 371H52L58 523Q132 555 232 555Q285 555 323 544T386 511T422 463T434
403Q434 344 392 290T270 175L177 96V95H357Q362 110 371 131T394 176H456L450 0Z" />
<glyph unicode="3" glyph-name="threeoldstyle" horiz-adv-x="486" d="M447 64Q447 16 423 -27T358 -102T261 -152T142 -170Q110 -170 78 -167T18 -156L34 -56Q63 -68 97 -74T168 -81Q198 -81 223 -74T266 -52T294 -13T304 44Q304 78 289 104T244 145T172 166T78
167V240Q131 239 170 250T235 281T273 325T286 380Q286 425 263 451T194 478Q181 478 171 475T150 467Q144 446 136 422T115 379H52L57 528Q89 540 129 547T218 555Q272 555 311 544T375 511T412 460T424 398Q424 370 414 346T386 300T344 263T293 238V236Q366
228 406 181T447 64Z" />
<glyph unicode="4" glyph-name="fouroldstyle" horiz-adv-x="563" d="M438 21V-76Q458 -83 477 -92T512 -111V-164H226V-111Q244 -99 263 -91T305 -76V21H32L14 112L281 546H438V124H543V21H438ZM306 436H305L115 124H306V436Z" />
<glyph unicode="5" glyph-name="fiveoldstyle" horiz-adv-x="480" d="M437 82Q437 28 414 -18T349 -98T253 -151T134 -171Q110 -171 84 -169T34 -162L46 -60Q73 -69 103 -74T168 -80Q203 -80 228 -71T270 -44T295 -3T304 49Q304 81 292 108T258 154T203 183T126
194Q112 194 97 193T69 190L95 546H394V437H178L165 297Q234 297 284 280T369 234T420 166T437 82Z" />
<glyph unicode="6" glyph-name="sixoldstyle" horiz-adv-x="600" d="M555 229Q555 177 536 133T482 57T400 7T296 -11Q241 -11 197 8T121 64T72 154T55 276Q55 383 82 462T158 595T275 676T426 703Q446 703 465 702T500 697L492 618Q475 622 454 623T411 625Q365
625 330 609T268 565T226 498T200 413Q198 406 197 395T192 373L193 372Q220 405 255 423T343 442Q390 442 429 427T496 384T539 317T555 229ZM420 215Q420 248 412 275T388 322T352 352T304 363Q276 363 256 352T223 321T204 277T197 226Q197 194 204 166T227
115T264 79T316 66Q342 66 362 77T394 107T413 154T420 215Z" />
<glyph unicode="7" glyph-name="sevenoldstyle" horiz-adv-x="492" d="M456 460Q394 327 343 173T250 -164H105Q131 -65 161 19T221 177T284 315T346 439H120Q113 415 104 395T83 356H19L27 546H456V460V460Z" />
<glyph unicode="8" glyph-name="eightoldstyle" horiz-adv-x="569" d="M520 185Q520 138 500 102T447 40T368 2T273 -11Q220 -11 179 1T108 36T64 90T49 162Q49 195 61 222T94 271T141 310T194 343L178 352Q123 382 90 423T57 519Q57 562 75 597T124 657T197 695T291
709Q340 709 380 697T448 663T492 610T508 542Q508 515 499 493T471 453T428 417T371 384Q402 368 429 348T477 303T508 249T520 185ZM379 538Q379 558 373 575T354 606T323 627T280 635Q257 635 240 628T211 607T195 576T190 541Q190 521 196 505T216 475T249
449T294 422L302 418Q325 433 339 447T362 475T375 505T379 538ZM387 164Q387 186 379 204T357 237T323 267T279 296L264 305Q221 276 202 245T182 172Q182 150 189 131T210 97T245 74T295 66Q315 66 332 72T361 92T380 123T387 164Z" />
<glyph unicode="9" glyph-name="nineoldstyle" horiz-adv-x="595" d="M539 262Q539 162 513 82T436 -54T312 -140T146 -170Q132 -170 107 -168T61 -160L76 -69Q96 -77 121 -80T184 -83Q262 -83 314 -30T388 120Q390 128 392 141T397 164L396 165Q372 136 335 118T247
99Q199 99 161 114T96 156T54 222T39 308Q39 361 58 406T111 485T193 536T295 555Q350 555 395 538T472 484T521 392T539 262ZM396 314Q396 350 388 380T365 432T327 466T277 478Q251 478 232 467T199 436T179 389T172 330Q172 263 203 223T290 182Q315 182 335
192T368 220T389 262T396 314Z" />
<glyph unicode=":" glyph-name="colon" horiz-adv-x="299" d="M242 374Q242 358 236 344T219 320T194 303T165 297Q149 297 135 303T111 319T94 344T88 374Q88 390 94 404T110 428T135 445T165 451Q180 451 194 445T218 429T235 404T242 374ZM242 66Q242 50 236
36T219 12T194 -5T165 -11Q149 -11 135 -5T111 11T94 36T88 66Q88 81 94 95T110 120T135 136T165 143Q180 143 194 137T218 120T235 96T242 66Z" />
<glyph unicode=";" glyph-name="semicolon" horiz-adv-x="299" d="M242 374Q242 358 236 344T219 320T194 303T165 297Q149 297 135 303T111 319T94 344T88 374Q88 390 94 404T110 428T135 445T165 451Q180 451 194 445T218 429T235 404T242 374ZM163 140Q186
140 204 128T231 94T241 43T227 -21T184 -91T107 -164L65 -123Q94 -98 108 -77T125 -37T124 -3T107 26Q94 42 92 62T97 99T121 128T163 140Z" />
<glyph unicode="&lt;" glyph-name="less.alt1" horiz-adv-x="600" d="M413 -32L65 266L412 568L486 488L218 267L486 50L413 -32Z" />
<glyph unicode="=" glyph-name="equal.alt1" horiz-adv-x="600" d="M70 319V413H530V319H70ZM70 123V217H530V123H70Z" />
<glyph unicode="&gt;" glyph-name="greater.alt1" horiz-adv-x="600" d="M188 -34L114 45L382 266L114 483L187 566L535 267L188 -34Z" />
<glyph unicode="?" glyph-name="question" horiz-adv-x="429" d="M380 515Q380 481 365 456T329 410T284 369T245 324T224 264T234 182H118Q102 229 105 262T123 321T160 365T202 405T237 447T252 500Q252 523 239 542T200 576T140 599T61 610L77 721Q153 718
209 700T304 653T361 590T380 515ZM254 62Q254 47 249 34T233 10T210 -5T181 -10Q165 -10 152 -5T128 10T113 33T107 62Q107 76 112 89T128 112T151 127T181 133Q196 133 209 128T233 113T248 90T254 62Z" />
<glyph unicode="@" glyph-name="at" horiz-adv-x="1000" d="M930 402Q930 332 906 274T842 175T748 112T637 89Q593 89 570 114T547 196Q538 178 521 159T481 125T432 99T379 89Q338 89 312 122T285 219Q285 279 301 332T352 426T439 490T565 514Q589 514 618
511T675 501L636 286Q625 227 635 198T672 168Q700 168 726 182T773 222T807 285T820 367Q820 422 805 472T755 560T662 620T519 643Q445 643 382 614T273 534T201 415T174 269Q174 191 193 132T253 32T355 -29T503 -50Q552 -50 600 -41T686 -17L712 -72Q658 -102
588 -121T447 -141Q357 -141 286 -117T164 -45T87 72T60 231Q60 338 99 428T207 584T368 687T567 725Q660 725 728 700T842 632T908 529T930 402ZM560 434Q550 439 537 442T509 446Q481 446 460 428T423 382T399 321T390 258Q390 232 392 216T399 190T409 176T424
172Q441 172 459 186T495 226T526 288T548 368L560 434V434Z" />
<glyph unicode="A" glyph-name="A" horiz-adv-x="678" d="M399 0V50Q414 61 431 70T466 86L436 172H210L182 86Q200 79 215 70T244 50V0H14V50Q26 61 41 70T71 86L284 679H407L616 86Q632 78 645 69T668 50V0H399ZM319 528H318L231 247H413L319 528Z" />
<glyph unicode="B" glyph-name="B" horiz-adv-x="632" d="M602 207Q602 163 583 125T526 59T435 14T308 -3Q292 -3 271 -3T224 -2T170 -1T111 0H29V50Q47 61 67 71T110 88V587Q89 594 69 604T29 626V675H109Q128 675 154 675T210 677T273 678T340 679Q459 679
517 640T576 518Q576 492 568 469T545 426T509 393T461 371V370Q492 365 518 351T562 315T591 267T602 207ZM434 498Q434 519 429 538T409 572T370 595T308 604Q289 604 277 603T247 600V385Q258 384 272 384T308 384Q341 384 365 393T404 417T427 453T434 498ZM456
195Q456 225 445 247T414 285T365 307T301 315Q285 315 271 315T247 314V85Q260 82 282 79T327 75Q392 75 424 108T456 195Z" />
<glyph unicode="C" glyph-name="C" horiz-adv-x="605" d="M564 51Q521 25 468 8T348 -10Q195 -10 114 74T33 324Q33 410 60 477T133 590T243 659T381 683Q430 683 470 678T547 664V474H477Q467 496 457 522T443 570Q424 579 400 584T344 589Q272 589 229 527T185
347Q185 229 238 164T405 99Q444 99 479 106T548 128L564 51V51Z" />
<glyph unicode="D" glyph-name="D" horiz-adv-x="724" d="M692 353Q692 265 663 199T582 87T459 19T306 -4Q279 -4 250 -3T195 -2T146 -1T111 0H29V50Q47 61 67 71T110 88V587Q89 594 69 604T29 626V675H109Q129 675 157 675T218 677T284 678T350 679Q432 679
496 661T603 603T669 501T692 353ZM547 339Q547 394 536 442T498 526T428 582T320 603Q300 603 282 602T247 599V92Q265 86 288 83T351 80Q390 80 425 95T488 142T531 223T547 339Z" />
<glyph unicode="E" glyph-name="E" horiz-adv-x="550" d="M29 0V50Q47 61 67 71T110 88V587Q89 594 69 604T29 626V675H492V511H425Q416 529 406 554T391 599H247V382H363Q368 398 377 413T394 441H452V253H394Q386 266 377 281T363 312H247V79H392Q397 102 407
127T427 172H495V0H29Z" />
<glyph unicode="F" glyph-name="F" horiz-adv-x="522" d="M421 510Q411 531 401 554T387 599H247V372H363Q368 389 377 405T394 433H453V240H394Q386 254 377 269T363 302H247V88Q269 82 289 72T330 50V0H29V50Q47 61 67 71T110 88V587Q89 594 69 604T29 626V675H488V510H421Z"
/>
<glyph unicode="G" glyph-name="G" horiz-adv-x="706" d="M682 297Q669 287 655 277T626 260V63Q572 27 507 9T366 -10Q289 -10 227 12T122 77T56 183T32 328Q32 414 60 480T139 592T259 662T411 686Q469 686 518 680T614 663V476H547Q535 498 526 521T511 568Q487
578 453 586T377 595Q331 595 295 578T233 529T194 452T181 349Q181 288 196 240T241 160T314 110T412 93Q451 93 490 107V259Q468 265 449 275T414 299V350H682V297V297Z" />
<glyph unicode="H" glyph-name="H" horiz-adv-x="788" d="M470 0V50Q486 61 503 71T541 87V307H247V87Q267 81 284 71T318 50V0H29V50Q47 61 67 71T110 87V588Q89 594 69 604T29 626V675H318V626Q302 615 284 605T247 588V392H541V588Q523 594 505 604T470 626V675H759V626Q740
615 720 605T678 588V87Q701 81 721 71T759 50V0H470Z" />
<glyph unicode="I" glyph-name="I" horiz-adv-x="356" d="M29 0V50Q47 61 67 71T110 87V588Q89 594 69 604T29 626V675H328V626Q309 615 288 605T247 588V87Q269 81 289 71T328 50V0H29Z" />
<glyph unicode="J" glyph-name="J" horiz-adv-x="338" d="M309 626Q295 615 277 605T242 588V92Q242 36 231 -3T197 -74T143 -128T68 -176L18 -108Q41 -93 57 -77T84 -38T100 20T105 105V588Q85 594 65 604T24 626V675H309V626V626Z" />
<glyph unicode="K" glyph-name="K" horiz-adv-x="715" d="M408 0V50Q419 59 432 69T459 86L247 325V87Q266 81 283 71T315 50V0H29V50Q47 61 67 71T110 87V588Q89 594 69 604T29 626V675H314V626Q298 615 282 605T247 588V356L464 588Q450 595 437 605T409 626V675H677V625Q662
615 643 604T608 588L379 376L643 87Q656 81 671 72T701 50V0H408Z" />
<glyph unicode="L" glyph-name="L" horiz-adv-x="530" d="M29 0V50Q47 61 67 71T110 88V587Q89 594 69 604T29 626V675H328V626Q310 615 289 605T247 588V78L403 86Q408 108 418 138T439 194H506V0H29Z" />
<glyph unicode="M" glyph-name="M" horiz-adv-x="953" d="M664 0V48Q679 60 697 71T732 89L681 517H679L504 0H401L216 513H215L184 87Q204 80 220 70T250 48V0H23V50Q34 60 47 70T74 87L141 586Q122 594 102 604T66 626V675H303L478 198L645 675H881V627Q867
616 847 605T806 586L879 88Q894 80 907 70T931 50V0H664Z" />
<glyph unicode="N" glyph-name="N" horiz-adv-x="737" d="M705 626Q689 614 675 604T644 585V-5H526L189 518L211 90Q230 82 248 72T283 50V0H30V50Q48 62 67 73T106 90L112 587Q91 593 70 603T30 626V675H255L558 210L542 585Q526 592 509 603T476 626V675H705V626V626Z" />
<glyph unicode="O" glyph-name="O" horiz-adv-x="744" d="M712 348Q712 264 683 198T604 85T490 14T354 -11Q278 -11 218 12T117 79T54 186T32 328Q32 412 61 478T140 590T254 661T389 686Q460 686 519 665T621 602T688 497T712 348ZM561 333Q561 390 548 437T508
518T443 570T356 589Q275 589 229 527T183 345Q183 289 196 242T237 160T302 106T389 87Q428 87 460 102T514 147T549 224T561 333Z" />
<glyph unicode="P" glyph-name="P" horiz-adv-x="593" d="M570 483Q570 435 550 394T494 322T408 274T297 256Q282 256 270 256T247 259V87Q268 81 288 71T326 50V0H29V50Q47 61 67 71T110 87V588Q89 594 69 604T29 626V675H102Q114 675 139 675T196 677T262 678T329
679Q386 679 431 668T506 632T553 570T570 483ZM431 467Q431 529 400 566T300 603Q287 603 273 602T247 598V350Q259 345 276 342T320 338Q370 338 400 371T431 467Z" />
<glyph unicode="Q" glyph-name="Q" horiz-adv-x="744" d="M797 -164Q738 -196 690 -201T599 -200T518 -179T438 -157T349 -153T245 -187L195 -142L311 -8Q177 4 105 91T32 328Q32 412 61 478T140 590T254 661T389 686Q460 686 519 665T621 602T688 497T712 348Q712
270 687 208T619 100T519 26T398 -9L317 -92Q363 -69 406 -65T490 -66T569 -84T642 -104T710 -115T774 -103L797 -164V-164ZM561 333Q561 390 548 437T508 518T443 570T356 589Q275 589 229 527T183 345Q183 289 196 242T237 160T302 106T389 87Q428 87 460 102T514
147T549 224T561 333Z" />
<glyph unicode="R" glyph-name="R" horiz-adv-x="628" d="M615 7Q589 -3 562 -6T509 -10Q476 -10 454 12T416 67T388 140T362 213T330 269T283 292H247V87Q265 80 280 70T311 50V0H29V50Q47 61 67 71T110 87V588Q89 594 69 604T29 626V675H103Q112 675 134 675T187
677T253 678T325 679Q381 679 424 669T498 637T544 582T560 504Q560 435 521 392T418 331Q446 327 463 305T494 251T517 186T540 123T567 78T608 66L615 7V7ZM417 484Q417 511 410 532T388 569T350 594T294 603Q280 603 268 602T247 598V368H298Q359 368 388 400T417
484Z" />
<glyph unicode="S" glyph-name="S" horiz-adv-x="526" d="M490 207Q490 159 469 119T411 51T325 6T218 -11Q176 -11 133 -7T53 7V201H120Q130 178 141 151T157 102Q172 95 194 90T243 84Q263 84 281 88T313 103T334 129T342 170Q342 207 320 229T264 268T191 299T118
336T62 393T39 482Q39 525 57 562T109 626T190 669T297 685Q334 685 372 682T447 670V495H381Q375 505 369 517T358 542T349 567T344 589Q332 593 316 595T273 598Q228 598 206 577T184 515Q184 481 206 460T263 422T336 391T410 352T467 295T490 207Z" />
<glyph unicode="T" glyph-name="T" horiz-adv-x="596" d="M516 494Q510 505 504 518T493 545T483 572T475 599H366V87Q387 82 408 72T447 50V0H148V50Q167 61 187 71T229 88V599H120Q118 587 114 573T103 545T91 518T79 494H17V675H579V494H516Z" />
<glyph unicode="U" glyph-name="U" horiz-adv-x="724" d="M696 626Q683 614 666 603T634 586L632 266Q632 200 613 149T558 62T470 8T350 -11Q277 -11 227 9T146 63T102 142T89 237V588Q74 594 58 604T28 626V675H299V626Q283 615 264 605T226 588V252Q226 216
233 185T258 130T307 92T385 78Q460 78 494 123T528 253L525 586Q507 592 488 603T453 626V675H696V626V626Z" />
<glyph unicode="V" glyph-name="V" horiz-adv-x="672" d="M657 626Q646 616 634 606T609 589L398 -4H272L62 590Q48 596 35 606T11 626V675H280V626Q264 615 247 606T211 589L364 142H365L494 589Q477 595 461 605T431 626V675H657V626V626Z" />
<glyph unicode="W" glyph-name="W" horiz-adv-x="957" d="M952 626Q940 614 927 605T901 589L750 -4H616L475 501H474L359 -4H217L62 589Q50 594 37 604T12 626V675H275V626Q259 614 243 604T208 588L314 158H315L432 677H566L712 158H713L787 588Q770 591 753
602T719 626V675H952V626V626Z" />
<glyph unicode="X" glyph-name="X" horiz-adv-x="702" d="M386 0V50Q398 60 413 70T444 87L322 267L198 88Q213 82 226 72T253 50V0H12V50Q25 60 40 70T71 88L277 326L84 589Q70 594 53 604T22 626V675H322V625Q308 614 293 604T262 588L376 424L490 588Q476 595
462 605T434 626V675H673V626Q659 615 645 605T614 588L424 362L627 90Q644 83 659 73T689 52V0H386Z" />
<glyph unicode="Y" glyph-name="Y" horiz-adv-x="607" d="M597 626Q588 616 577 606T552 589L375 272V87Q398 81 418 71T456 50V0H157V50Q176 61 196 71T238 87V272L55 590Q44 596 32 605T8 626V675H268V626Q256 615 242 606T212 590L338 363H339L441 589Q427
595 412 605T383 626V675H597V626V626Z" />
<glyph unicode="Z" glyph-name="Z" horiz-adv-x="548" d="M35 0V80L351 597H152Q145 574 134 546T108 497H43L49 675H507V592L194 81H406Q413 104 424 132T450 185H517V0H35Z" />
<glyph unicode="[" glyph-name="bracketleft" horiz-adv-x="342" d="M72 -203V775H315V726Q287 714 252 704T188 690V-118Q217 -122 252 -131T315 -153V-203H72Z" />
<glyph unicode="\" glyph-name="backslash" horiz-adv-x="423" d="M347 -184L-7 748L95 780L451 -152L347 -184Z" />
<glyph unicode="]" glyph-name="bracketright" horiz-adv-x="342" d="M27 -203V-153Q56 -141 91 -132T154 -118V690Q126 694 91 704T27 726V775H270V-203H27Z" />
<glyph unicode="^" glyph-name="asciicircum" horiz-adv-x="527" d="M392 339L257 591L128 339L50 380L214 675H304L476 381L392 339Z" />
<glyph unicode="_" glyph-name="underscore" horiz-adv-x="520" d="M0 -252V-159H520V-252H0Z" />
<glyph unicode="`" glyph-name="grave" horiz-adv-x="365" d="M273 570L65 660L115 748L299 619L273 570Z" />
<glyph unicode="a" glyph-name="a" horiz-adv-x="534" d="M518 67Q484 42 446 23T357 -13Q346 4 338 28T326 76H325Q316 60 300 44T264 16T221 -3T172 -11Q139 -11 113 0T68 29T39 74T29 131Q29 164 50 194T108 247T197 283T308 297V355Q308 393 287 417T224 441Q202
441 186 435T161 420Q156 402 148 382T128 342H68V483Q109 497 153 505T252 513Q299 513 334 504T394 476T430 432T442 372V167Q442 153 443 138T449 110Q462 111 474 112T500 117L518 67V67ZM308 234Q264 234 236 228T192 210T170 184T163 154Q163 139 167 126T180
104T200 89T226 83Q238 83 252 88T278 105T299 133T308 172V234Z" />
<glyph unicode="b" glyph-name="b" horiz-adv-x="575" d="M544 278Q544 212 524 159T467 69T379 11T265 -9Q213 -9 164 -3T72 16V643Q55 649 35 655T-5 664V717Q36 728 93 732T206 734V508Q206 487 204 464T198 419H200Q208 438 223 455T258 485T301 505T352 513Q397
513 433 496T493 448T531 374T544 278ZM405 258Q405 293 399 323T379 375T348 409T304 421Q283 421 266 410T235 379T214 332T206 275V89Q221 79 241 73T287 66Q341 66 373 114T405 258Z" />
<glyph unicode="c" glyph-name="c" horiz-adv-x="457" d="M437 43Q405 20 362 6T266 -8Q215 -8 172 6T98 50T49 127T31 237Q31 298 47 348T95 435T176 490T291 510Q325 510 359 506T420 494V335H359Q348 352 340 375T328 417Q315 425 299 428T266 431Q243 431
226 419T196 383T177 328T171 258Q171 215 182 183T212 131T258 100T317 90Q343 90 368 95T418 111L437 43V43Z" />
<glyph unicode="d" glyph-name="d" horiz-adv-x="600" d="M573 14Q532 5 484 0T377 -4Q377 17 377 40T382 91L381 92Q372 71 357 53T322 20T276 -2T221 -11Q177 -11 142 6T82 54T44 128T31 225Q31 293 50 346T105 435T191 491T304 510Q320 510 336 510T369 507V643Q352
649 332 654T292 664V718Q333 728 390 732T503 734V89Q518 83 536 77T573 67V14V14ZM369 413Q354 423 334 429T287 436Q233 436 201 387T169 244Q169 208 176 179T196 127T227 93T271 81Q291 81 309 92T340 122T361 169T369 227V413Z" />
<glyph unicode="e" glyph-name="e" horiz-adv-x="516" d="M483 291Q483 280 483 268T481 246H170V235Q170 157 207 121T315 85Q351 85 390 94T457 119Q463 100 467 86T478 51Q435 23 382 7T269 -10Q214 -10 170 6T95 54T47 133T30 243Q30 302 46 351T94 437T169
492T271 512Q378 512 430 453T483 291ZM347 313Q347 339 342 362T327 402T300 429T262 439Q240 439 224 429T196 402T179 362T170 313H347V313Z" />
<glyph unicode="f" glyph-name="f" horiz-adv-x="383" d="M367 581Q359 596 352 616T339 656Q331 661 321 663T300 665Q266 665 254 642T241 575V501H367V428H241V86Q263 80 284 70T325 50V0H27V50Q44 60 65 70T108 86V428H24V501H108V558Q108 599 118 632T153
688T216 723T310 735Q342 735 372 732T426 721V581H367Z" />
<glyph unicode="g" glyph-name="g" horiz-adv-x="550" d="M441 432Q448 425 455 416T467 395T475 371T478 349Q478 302 462 267T416 209T343 174T248 162Q236 162 223 163T198 167Q188 159 182 150T176 131Q176 114 194 105T263 95L355 92Q398 90 430 79T485 49T517
4T528 -51Q528 -92 506 -128T446 -190T356 -232T245 -248Q138 -248 81 -215T23 -118Q23 -98 30 -80T51 -45T83 -16T122 6Q89 16 72 38T55 90Q55 119 75 144T124 186Q90 202 68 236T45 319Q45 361 59 396T102 458T173 499T272 514Q283 514 295 513T319 510T342 506T362
501H523V425L441 432ZM350 329Q350 380 324 411T255 442Q211 442 192 414T173 342Q173 291 199 262T268 233Q311 233 330 260T350 329ZM393 -83Q393 -56 373 -37T308 -16L227 -12Q221 -12 215 -12T203 -11Q178 -24 164 -43T150 -86Q150 -123 184 -145T274 -167Q329
-167 361 -146T393 -83Z" />
<glyph unicode="h" glyph-name="h" horiz-adv-x="646" d="M360 0V47Q373 57 387 67T417 84Q419 121 420 169T422 264Q422 301 418 330T405 380T379 410T340 421Q313 421 293 410T259 378T239 332T232 278V84Q247 77 262 67T289 47V0H26V50Q42 61 60 70T98 86V643Q83
648 65 653T26 663V716Q66 726 122 731T232 734V505Q232 486 231 463T224 420L226 419Q235 439 250 456T286 485T335 505T393 513Q478 513 517 459T557 294Q557 270 557 243T557 188T555 134T552 86Q572 80 589 71T622 50V0H360Z" />
<glyph unicode="i" glyph-name="i" horiz-adv-x="340" d="M258 641Q258 626 252 613T235 589T209 573T179 567Q163 567 149 572T124 588T107 612T100 641Q100 657 106 670T123 694T148 710T179 716Q194 716 209 710T234 694T251 671T258 641ZM32 0V50Q49 61 68
70T109 86V414Q92 421 72 427T32 436V488Q74 499 130 503T243 505V86Q264 80 281 70T315 50V0H32Z" />
<glyph unicode="j" glyph-name="j" horiz-adv-x="316" d="M256 640Q256 625 250 611T233 587T207 572T177 566Q161 566 147 571T122 587T105 611T98 640Q98 655 104 669T121 692T146 708T177 714Q192 714 207 708T233 693T250 669T256 640ZM241 -31Q241 -81 229
-116T193 -177T131 -219T46 -248L27 -187Q51 -179 67 -168T92 -141T104 -104T108 -51V414Q91 421 71 427T30 436V488Q72 499 129 503T241 505V-31V-31Z" />
<glyph unicode="k" glyph-name="k" horiz-adv-x="594" d="M411 0L232 248V85Q248 78 262 69T290 50V0H25V50Q42 61 60 70T98 86V643Q82 649 63 654T25 664V717Q66 728 122 732T232 734V275L365 423Q349 428 334 436T305 453V501H564V452Q549 444 531 436T497 424L360
294L522 81Q537 75 551 67T579 50V0H411Z" />
<glyph unicode="l" glyph-name="l" horiz-adv-x="330" d="M25 0V49Q42 60 60 70T99 86V643Q84 649 65 654T27 664V717Q67 728 123 732T233 734V86Q252 80 272 70T306 49V0H25Z" />
<glyph unicode="m" glyph-name="m" horiz-adv-x="965" d="M687 0V47Q698 57 712 67T741 84Q743 123 744 171T746 265Q746 305 742 334T728 383T704 411T666 421Q640 421 620 409T587 378T566 332T559 278V84Q573 77 587 67T613 47V0H372V47Q383 56 397 66T426
84V319Q426 338 422 356T410 389T386 412T349 421Q323 421 304 409T270 378T249 332T242 278V84Q257 77 270 67T296 47V0H32V50Q49 61 68 70T109 86V414Q92 421 72 427T32 436V488Q53 493 78 497T129 503T183 505T237 505Q237 485 235 458T230 413H232Q241 435
257 453T295 484T343 505T400 513Q430 513 455 506T500 485T531 452T549 411Q560 434 576 452T613 484T660 505T717 513Q797 513 839 461T882 295Q882 270 882 243T880 188T878 134T876 86Q896 80 914 70T946 50V0H687Z" />
<glyph unicode="n" glyph-name="n" horiz-adv-x="645" d="M370 0V47Q382 57 397 67T427 84Q428 103 429 126T431 173T432 220T432 264Q432 301 428 330T415 380T390 410T350 421Q323 421 304 410T270 378T249 332T242 278V84Q257 77 272 67T299 47V0H31V50Q49
61 68 70T109 86V414Q92 421 72 427T31 436V488Q52 493 77 497T129 503T183 505T237 505Q237 485 236 459T231 413H232Q242 435 258 453T296 484T346 505T405 513Q488 513 528 460T568 294Q568 246 567 190T562 86Q581 80 599 70T633 50V0H370Z" />
<glyph unicode="o" glyph-name="o" horiz-adv-x="583" d="M554 261Q554 198 533 148T475 62T386 9T274 -10Q219 -10 174 5T96 51T45 128T27 239Q27 303 48 353T107 439T195 493T306 512Q424 512 489 448T554 261ZM414 246Q414 287 405 320T379 376T338 413T281
426Q227 426 197 384T167 259Q167 176 201 126T299 76Q352 76 383 117T414 246Z" />
<glyph unicode="p" glyph-name="p" horiz-adv-x="614" d="M579 277Q579 207 559 155T502 66T415 12T305 -7Q286 -7 272 -6T240 -2V-156Q263 -162 282 -171T318 -192V-242H29V-192Q46 -181 65 -172T107 -156V414Q90 421 70 427T29 436V488Q71 499 127 503T235 505Q235
495 235 483T234 459T232 435T229 412H230Q240 434 255 452T291 484T336 505T388 513Q432 513 467 496T527 448T565 374T579 277ZM440 258Q440 293 434 323T414 375T382 409T339 421Q318 421 300 410T269 379T248 332T240 275V89Q256 79 276 73T322 66Q376 66 408
114T440 258Z" />
<glyph unicode="q" glyph-name="q" horiz-adv-x="580" d="M292 -242V-192Q309 -181 328 -172T369 -156V-9Q369 11 371 36T379 84H377Q368 64 353 47T317 17T273 -3T222 -11Q177 -11 142 7T81 56T43 132T30 229Q30 294 49 346T105 435T193 490T307 510Q361 510
411 506T503 495V-156Q525 -162 543 -171T578 -192V-242H292ZM369 413Q354 423 334 429T287 436Q233 436 201 387T169 244Q169 208 176 179T196 127T227 93T271 81Q291 81 309 92T340 122T361 169T369 227V413Z" />
<glyph unicode="r" glyph-name="r" horiz-adv-x="432" d="M411 376Q394 383 376 388T338 393Q315 393 298 381T268 348T249 301T242 245V86Q263 80 282 70T319 50V0H31V50Q49 61 68 70T109 86V414Q92 421 72 427T31 436V488Q52 493 77 497T129 503T183 505T237
505Q237 483 235 453T229 391H231Q240 419 252 441T280 480T314 504T356 513Q373 513 392 511T427 503L411 376Z" />
<glyph unicode="s" glyph-name="s" horiz-adv-x="459" d="M423 151Q423 114 406 85T360 35T290 3T204 -9Q163 -9 125 -6T53 7V157H117Q124 142 131 123T144 85Q160 78 181 73T226 67Q254 67 271 80T288 121Q288 148 270 165T225 194T167 218T109 248T64 293T46
365Q46 396 60 423T101 470T167 501T254 512Q291 512 325 509T389 498V356H326Q317 371 310 389T298 427Q288 433 271 437T235 441Q209 441 195 427T181 392Q181 364 198 348T243 319T301 294T360 265T405 220T423 151Z" />
<glyph unicode="t" glyph-name="t" horiz-adv-x="377" d="M352 40Q322 18 287 5T215 -9Q182 -9 158 -2T118 24T94 70T86 140V428H20V501H83L136 653H220V501H342V428H220V164Q220 121 229 105T262 89Q279 89 297 94T333 109L352 40V40Z" />
<glyph unicode="u" glyph-name="u" horiz-adv-x="640" d="M621 14Q581 5 531 -1T423 -4Q423 18 424 44T428 88L426 89Q416 67 400 49T363 17T314 -3T254 -11Q171 -11 133 43T95 207Q95 231 95 259T96 315T98 369T100 415Q84 421 65 426T26 436V488Q68 499 124
503T233 505Q232 473 231 438T228 368T227 300T226 238Q226 200 230 171T243 122T268 92T309 81Q334 81 354 92T388 123T409 169T416 224V415Q401 422 383 427T346 436V488Q388 499 442 503T550 505V89Q567 82 584 77T621 67V14V14Z" />
<glyph unicode="v" glyph-name="v" horiz-adv-x="567" d="M557 452Q545 443 533 435T506 421L355 -4H214L60 423Q46 427 35 435T9 452V501H265V452Q250 443 235 435T204 421L279 210Q287 186 293 166T307 119H308Q314 145 320 165T333 206L397 421Q382 426 367
434T337 452V501H557V452V452Z" />
<glyph unicode="w" glyph-name="w" horiz-adv-x="826" d="M811 452Q798 443 786 436T759 422L637 -2H506L430 254Q424 273 419 293T410 334H409Q405 315 401 294T390 251L316 -2H181L61 424Q47 428 35 435T10 452V501H265V452Q252 443 236 436T203 422L254 227Q259
206 263 182T274 129H275Q280 155 285 180T299 231L377 503H485L567 236Q575 210 582 183T594 130H596Q600 157 604 181T612 228L653 422Q637 425 622 434T593 452V501H811V452V452Z" />
<glyph unicode="x" glyph-name="x" horiz-adv-x="620" d="M313 0V50Q325 57 339 64T369 77L279 197L196 79Q209 74 222 66T246 50V0H17V50Q22 54 29 58T45 66T62 74T79 80L231 243L87 423Q70 429 54 436T24 452V501H308V452Q298 446 283 438T252 425L337 307L420
425Q408 429 394 437T370 452V501H595V452Q583 444 567 436T532 421L387 260L533 81Q551 76 569 68T604 50V0H313Z" />
<glyph unicode="y" glyph-name="y" horiz-adv-x="570" d="M561 452Q550 443 537 435T509 421L341 -28Q319 -89 296 -131T245 -199T184 -237T108 -249Q92 -249 74 -248T35 -243L51 -127Q70 -134 92 -137T135 -140Q154 -140 168 -137T195 -122T218 -90T241 -34L59
423Q45 427 32 435T8 452V501H269V452Q257 444 241 435T207 421L273 230Q283 200 290 177T305 126H306Q312 149 319 176T339 238L399 421Q384 425 369 434T340 452V501H561V452V452Z" />
<glyph unicode="z" glyph-name="z" horiz-adv-x="478" d="M41 0V81L282 432H138Q132 413 123 393T103 355H42L47 501H428V420L189 73H344Q350 92 358 113T377 152H438V0H41Z" />
<glyph unicode="{" glyph-name="braceleft" horiz-adv-x="356" d="M303 -203Q257 -203 223 -193T168 -159T136 -101T125 -15V143Q125 179 121 204T105 245T75 269T28 281V343Q54 346 72 352T103 372T120 407T125 460V567Q125 618 135 657T166 722T222 762T303
775H324V713Q299 712 283 705T258 681T246 641T242 581V470Q242 432 235 405T213 358T179 328T132 313V312Q185 305 213 266T242 151V-7Q242 -42 245 -67T258 -107T283 -131T324 -140V-203H303Z" />
<glyph unicode="|" glyph-name="bar" horiz-adv-x="277" d="M91 -212V788H183V-212H91Z" />
<glyph unicode="}" glyph-name="braceright" horiz-adv-x="353" d="M332 281Q306 279 288 272T258 251T241 216T235 164V5Q235 -50 225 -89T192 -154T137 -191T56 -203H36V-140Q61 -139 77 -132T102 -108T114 -68T118 -9V155Q118 192 125 220T147 267T181 297T228
312V313Q201 316 181 327T146 358T125 406T118 471V580Q118 615 115 639T102 680T77 704T36 713V775H56Q104 775 138 763T193 728T225 669T235 588V483Q235 446 239 421T254 379T284 355T332 343V281V281Z" />
<glyph unicode="~" glyph-name="asciitilde" horiz-adv-x="520" d="M497 282Q468 238 429 215T342 192Q306 192 282 202T238 224T196 245T147 255Q120 255 102 245T70 216L22 266Q50 309 89 331T178 354Q211 354 234 345T279 323T321 301T369 291Q395 291 415
302T449 333L497 282V282Z" />
<glyph unicode="&#x8e;" glyph-name="Zcaron" horiz-adv-x="548" d="M35 0V80L351 597H152Q145 574 134 546T108 497H43L49 675H507V592L194 81H406Q413 104 424 132T450 185H517V0H35ZM281 727L122 825L150 873L283 820L413 873L436 828L281 727Z" />
<glyph unicode="&#x9e;" glyph-name="zcaron" horiz-adv-x="478" d="M41 0V81L282 432H138Q132 413 123 393T103 355H42L47 501H428V420L189 73H344Q350 92 358 113T377 152H438V0H41ZM242 568L93 701L126 746L244 673L359 746L387 703L242 568Z" />
<glyph unicode="&#xa0;" glyph-name="space" horiz-adv-x="218" />
<glyph unicode="&#xa1;" glyph-name="exclamdown" horiz-adv-x="303" d="M225 461Q225 446 220 433T204 410T181 395T151 389Q136 389 123 394T99 409T84 432T78 461Q78 476 83 489T99 511T122 527T151 533Q167 533 180 527T204 512T219 489T225 461ZM76 -191L109
341H191L225 -191H76Z" />
<glyph unicode="&#xa2;" glyph-name="centoldstyle" horiz-adv-x="505" d="M454 70Q428 56 397 47T331 34V-68H257V32Q212 36 175 51T111 96T69 167T54 264Q54 320 67 363T107 438T171 489T257 516V607H331V519Q361 518 390 514T443 502V352H383Q374 371 367 391T358
435Q347 439 332 441T300 443Q272 443 250 433T213 402T191 352T183 286Q183 242 193 210T223 157T270 128T330 118Q358 118 386 123T442 141L454 70V70Z" />
<glyph unicode="&#xa3;" glyph-name="sterling" horiz-adv-x="520" d="M491 87Q464 38 430 14T344 -11Q321 -11 302 -7T263 2T224 11T178 16Q143 16 111 9T55 -11L22 50Q68 83 88 128T108 232Q108 240 108 249T107 266H24V339H93Q90 360 86 379T77 416T71 452T68
487Q68 534 84 571T130 633T205 672T304 686Q336 686 365 682T422 670V512H360Q351 529 344 551T333 593Q319 599 302 602T270 606Q234 606 217 584T200 524Q200 497 203 474T212 428T222 384T232 339H350V266H239Q238 214 218 177T161 116V115Q176 121 193 124T233
128Q255 128 273 124T309 115T346 106T390 102Q406 102 418 109T450 134L491 87V87Z" />
<glyph unicode="&#xa4;" glyph-name="currency.alt1" horiz-adv-x="600" d="M441 -24L379 86Q338 67 289 67Q268 67 250 70T217 80L159 -24L73 28L150 112Q122 136 107 171T92 256Q92 310 110 350T159 417L72 511L158 562L222 450Q262 468 308 468Q329 468 347
465T381 456L440 562L526 511L447 425Q476 401 491 365T507 279Q507 226 490 187T441 120L527 28L441 -24ZM393 263Q393 320 367 356T292 393Q252 393 229 364T206 274Q206 217 231 180T306 143Q347 143 370 172T393 263Z" />
<glyph unicode="&#xa5;" glyph-name="yenoldstyle" horiz-adv-x="628" d="M607 629Q598 620 587 610T562 594L400 323H539V265H385V192H539V135H385V77Q407 71 427 62T466 44V0H167V44Q185 53 205 62T248 77V135H94V192H248V265H94V323H232L65 595Q53 601 41 610T18
629V675H278V629Q266 618 252 610T222 595L343 375H345L451 594Q436 600 421 609T393 629V675H607V629V629Z" />
<glyph unicode="&#xa6;" glyph-name="brokenbar" horiz-adv-x="282" d="M91 401V788H191V401H91ZM91 -212V189H191V-212H91Z" />
<glyph unicode="&#xa7;" glyph-name="section" horiz-adv-x="505" d="M454 257Q454 234 447 213T429 173T404 139T376 111Q398 84 412 55T426 -8Q426 -37 414 -66T375 -119T309 -156T216 -171Q201 -171 185 -170T153 -166T123 -160T99 -153L128 -57Q140 -63 154
-68T182 -78T210 -85T239 -88Q270 -88 286 -71T302 -31Q302 -8 284 15T239 63T181 115T122 173T77 239T59 315Q59 338 66 359T84 400T109 434T139 461Q117 488 103 517T89 580Q89 609 101 638T139 690T204 728T298 743Q312 743 328 742T359 738T386 733T408 728L379
632Q369 637 356 642T330 651T302 657T275 660Q243 660 228 643T213 603Q213 580 231 557T275 509T333 457T391 399T436 333T454 257ZM342 226Q342 249 329 272T295 317T249 363T197 409Q186 399 179 381T171 346Q171 322 184 299T219 254T265 209T316 163Q327
173 334 191T342 226Z" />
<glyph unicode="&#xa8;" glyph-name="dieresis" horiz-adv-x="462" d="M396 639Q396 612 377 593T330 573Q303 573 284 592T264 639Q264 666 283 685T330 705Q358 705 377 686T396 639ZM197 639Q197 612 178 593T131 573Q104 573 85 592T65 639Q65 666 84 685T131
705Q159 705 178 686T197 639Z" />
<glyph unicode="&#xa9;" glyph-name="copyright" horiz-adv-x="760" d="M723 339Q723 269 696 207T621 99T511 25T376 -3Q303 -3 241 22T133 93T61 199T35 334Q35 404 62 466T137 574T247 648T381 676Q455 676 517 650T625 579T697 472T723 339ZM651 336Q651 393
631 444T573 533T487 593T379 615Q321 615 272 594T185 535T128 446T107 337Q107 278 128 227T186 139T272 80T379 58Q436 58 485 79T572 137T630 225T651 336ZM503 184Q450 151 375 151Q288 151 241 197T193 328Q193 375 206 412T246 477T311 518T398 532Q421
532 443 530T486 523V394H436Q428 409 422 426T413 459Q406 463 397 465T376 467Q358 467 345 459T323 434T310 397T306 350Q306 288 336 258T417 228Q435 228 452 231T486 241L503 184V184Z" />
<glyph unicode="&#xaa;" glyph-name="ordfeminine" horiz-adv-x="423" d="M404 365Q380 354 345 342T268 325Q261 337 258 353T254 384H252Q247 372 236 361T211 342T180 328T146 322Q95 322 68 347T41 414Q41 440 55 463T95 502T159 528T244 538V560Q244 570
242 580T234 600T216 615T185 622Q169 622 156 619T133 612Q132 599 126 587T114 563H66V661Q87 670 121 677T193 684Q236 684 264 675T309 651T333 614T340 567V410Q354 408 367 408T392 409L404 365V365ZM59 194V262H363V194H59ZM244 487Q189 487 161 472T133
429Q133 414 143 402T172 390Q190 390 204 397T227 416T240 439T244 462V487Z" />
<glyph unicode="&#xab;" glyph-name="guillemotleft.alt1" horiz-adv-x="535" d="M397 57L255 270L400 486L469 450L381 271L469 94L397 57ZM184 47L46 270L187 496L258 461L172 271L258 83L184 47Z" />
<glyph unicode="&#xac;" glyph-name="logicalnot.alt1" horiz-adv-x="600" d="M419 69V222H55V312H522V69H419Z" />
<glyph unicode="&#xad;" glyph-name="hyphen" horiz-adv-x="318" d="M39 244V338H278V244H39Z" />
<glyph unicode="&#xae;" glyph-name="registered" horiz-adv-x="563" d="M511 533Q511 486 493 445T443 372T369 322T280 304Q232 304 190 321T117 369T69 441T51 530Q51 577 69 619T119 692T193 741T283 759Q331 759 373 742T445 694T493 623T511 533ZM449 530Q449
565 436 596T400 651T347 689T281 703Q247 703 217 689T164 652T128 598T114 532Q114 498 127 467T163 412T216 374T281 360Q316 360 346 373T399 410T435 464T449 530ZM393 419Q383 415 372 413T345 410Q328 410 320 426T305 461T293 497T275 513H262V454Q268
451 273 448T282 440V415H181V439Q189 448 205 454V611Q198 614 192 617T181 624V650H206Q222 650 246 651T294 652Q332 652 355 636T378 589Q378 563 365 549T329 529Q343 527 350 513T362 484T372 456T389 446L393 419V419ZM313 581Q313 596 307 607T282 618H262V542H276Q286
542 293 545T304 554T311 567T313 581Z" />
<glyph unicode="&#xaf;" glyph-name="macron" horiz-adv-x="415" d="M65 607V692H350V607H65Z" />
<glyph unicode="&#xb0;" glyph-name="degree" horiz-adv-x="384" d="M334 606Q334 572 321 547T288 505T240 478T185 468Q120 468 83 504T45 603Q45 636 58 661T91 704T138 731T192 740Q229 740 255 729T299 700T325 658T334 606ZM246 606Q246 617 243 628T234
648T216 664T190 670Q166 670 150 652T133 605Q133 575 148 557T189 539Q215 539 230 558T246 606Z" />
<glyph unicode="&#xb1;" glyph-name="plusminus.alt1" horiz-adv-x="600" d="M350 332V137H246V332H58V425H246V618H350V425H538V332H350ZM68 0V75H528V0H68Z" />
<glyph unicode="&#xb2;" glyph-name="twosuperior" horiz-adv-x="374" d="M320 321H46V372L126 456Q151 480 167 498T192 531T204 556T208 576Q208 600 197 612T163 624Q155 624 148 623T134 619Q130 608 124 595T107 567H54L59 660Q85 670 117 676T186 682Q250
682 281 656T313 588Q313 574 307 559T289 526T257 489T209 444L146 383H249Q253 392 258 405T271 432H325L320 321Z" />
<glyph unicode="&#xb3;" glyph-name="threesuperior" horiz-adv-x="361" d="M313 433Q313 403 297 381T256 344T199 322T132 314Q108 314 85 318T39 328L58 393Q83 382 103 377T150 372Q177 372 192 383T208 420Q208 435 201 446T179 465T139 474T81 474V526Q115
526 138 530T175 543T196 561T202 585Q202 605 192 616T156 628Q151 628 144 627T131 623Q128 612 123 600T109 576H59L63 663Q82 671 109 676T166 681Q195 681 220 676T263 659T291 631T302 594Q302 567 286 547T244 516Q276 510 294 488T313 433Z" />
<glyph unicode="&#xb4;" glyph-name="acute" horiz-adv-x="366" d="M92 570L65 619L250 748L300 660L92 570Z" />
<glyph unicode="&#xb5;" glyph-name="mu" horiz-adv-x="640" d="M622 14Q602 10 579 6T531 0T480 -4T426 -4Q426 18 427 43T431 85L429 86Q420 64 406 47T374 17T333 -1T287 -8Q254 -8 230 9V-242H96V415Q81 421 64 426T26 436V486Q67 497 122 502T230 505V238Q230
200 233 171T246 122T270 92T311 81Q336 81 356 92T389 123T409 169T416 224V414Q401 421 384 426T346 436V486Q388 497 442 502T550 505V87Q567 80 585 75T622 66V14V14Z" />
<glyph unicode="&#xb6;" glyph-name="paragraph" horiz-adv-x="602" d="M571 625Q555 614 537 605T498 589V55Q498 4 486 -36T449 -104T386 -147T297 -162Q270 -162 244 -159T193 -150V-9H252Q261 -27 268 -46T280 -85Q289 -88 298 -89T316 -90Q335 -90 348 -83T371
-60T384 -22T388 35V675H571V625V625ZM326 149Q251 149 197 170T108 227T57 312T41 413Q41 472 61 520T119 602T209 656T326 675V149V149Z" />
<glyph unicode="&#xb7;" glyph-name="periodcentered.alt1" horiz-adv-x="259" d="M207 294Q207 278 201 264T184 239T160 223T129 217Q113 217 99 223T75 239T58 263T52 294Q52 310 58 324T74 348T99 365T129 371Q145 371 159 365T184 349T200 324T207 294Z" />
<glyph unicode="&#xb8;" glyph-name="cedilla" horiz-adv-x="294" d="M182 -49Q219 -68 232 -93T236 -146T198 -200T120 -249L65 -219Q95 -201 109 -184T125 -152T113 -122T74 -96L145 0H218L182 -49Z" />
<glyph unicode="&#xb9;" glyph-name="onesuperior" horiz-adv-x="344" d="M61 321V360Q76 368 95 375T129 385V602L65 581L50 629L159 677H228V385Q239 382 254 375T281 360V321H61Z" />
<glyph unicode="&#xba;" glyph-name="ordmasculine" horiz-adv-x="450" d="M405 512Q405 470 392 435T353 375T292 337T212 323Q174 323 143 332T89 363T54 417T41 496Q41 538 55 573T93 632T153 671T232 685Q268 685 299 676T354 647T391 593T405 512ZM67 194V262H382V194H67ZM300
504Q300 526 296 546T282 583T257 609T222 619Q206 619 193 612T169 591T152 556T146 508Q146 485 150 464T164 427T188 400T225 390Q258 390 279 419T300 504Z" />
<glyph unicode="&#xbb;" glyph-name="guillemotright.alt1" horiz-adv-x="535" d="M347 47L277 82L363 272L276 460L350 496L489 273L347 47ZM134 57L66 93L153 272L66 449L137 486L280 273L134 57Z" />
<glyph unicode="&#xbc;" glyph-name="onequarter" horiz-adv-x="765" d="M654 88V55Q666 52 677 47T700 36V0H507V36Q520 43 532 48T557 56V88H407L402 147L543 354H654V151H713V88H654ZM138 -24L77 24L615 698L676 650L138 -24ZM54 321V360Q69 368 88 375T122
385V602L58 581L43 629L151 677H221V385Q232 382 247 375T274 360V321H54ZM559 286L472 150H559V286Z" />
<glyph unicode="&#xbd;" glyph-name="onehalf" horiz-adv-x="791" d="M731 0H457V51L537 135Q562 159 578 178T603 211T615 235T619 255Q619 279 608 291T574 304Q566 304 559 303T545 298Q541 287 535 274T518 247H466L470 339Q496 349 528 355T597 361Q661 361
692 335T724 267Q724 253 718 238T700 206T668 168T620 124L557 62H660Q664 71 669 84T682 111H736L731 0ZM138 -24L77 24L615 698L676 650L138 -24ZM54 321V360Q69 368 88 375T122 385V602L58 581L43 629L151 677H221V385Q232 382 247 375T274 360V321H54Z" />
<glyph unicode="&#xbe;" glyph-name="threequarters" horiz-adv-x="776" d="M656 88V55Q668 52 680 47T703 36V0H510V36Q523 43 535 48T560 56V88H410L405 147L546 354H656V151H716V88H656ZM151 -24L90 24L628 698L688 650L151 -24ZM313 433Q313 403 297 381T256
344T199 322T132 314Q108 314 85 318T39 328L58 393Q83 382 103 377T150 372Q177 372 192 383T208 420Q208 435 201 446T179 465T139 474T81 474V526Q115 526 138 530T175 543T196 561T202 585Q202 605 192 616T156 628Q151 628 144 627T131 623Q128 612 123 600T109
576H59L63 663Q82 671 109 676T166 681Q195 681 220 676T263 659T291 631T302 594Q302 567 286 547T244 516Q276 510 294 488T313 433ZM562 286L475 150H562V286Z" />
<glyph unicode="&#xbf;" glyph-name="questiondown" horiz-adv-x="429" d="M320 461Q320 446 314 433T298 410T275 395T246 389Q230 389 217 394T193 409T178 432T172 461Q172 476 177 489T193 511T216 527T246 533Q261 533 274 527T298 512T314 489T320 461ZM349
-199Q274 -196 217 -178T122 -131T65 -67T46 7Q46 42 61 66T97 112T142 153T181 199T202 258T192 341H308Q325 294 322 261T303 202T267 157T225 117T190 75T175 22Q175 -1 188 -20T227 -54T287 -77T365 -88L349 -199Z" />
<glyph unicode="&#xc0;" glyph-name="Agrave" horiz-adv-x="678" d="M399 0V50Q414 61 431 70T466 86L436 172H210L182 86Q200 79 215 70T244 50V0H14V50Q26 61 41 70T71 86L284 679H407L616 86Q632 78 645 69T668 50V0H399ZM319 528H318L231 247H413L319 528ZM388
729L168 782L200 871L406 778L388 729Z" />
<glyph unicode="&#xc1;" glyph-name="Aacute" horiz-adv-x="678" d="M399 0V50Q414 61 431 70T466 86L436 172H210L182 86Q200 79 215 70T244 50V0H14V50Q26 61 41 70T71 86L284 679H407L616 86Q632 78 645 69T668 50V0H399ZM319 528H318L231 247H413L319 528ZM299
729L281 778L487 871L519 781L299 729Z" />
<glyph unicode="&#xc2;" glyph-name="Acircumflex" horiz-adv-x="678" d="M399 0V50Q414 61 431 70T466 86L436 172H210L182 86Q200 79 215 70T244 50V0H14V50Q26 61 41 70T71 86L284 679H407L616 86Q632 78 645 69T668 50V0H399ZM319 528H318L231 247H413L319
528ZM474 728L341 781L211 728L187 774L343 874L501 777L474 728Z" />
<glyph unicode="&#xc3;" glyph-name="Atilde" horiz-adv-x="678" d="M399 0V50Q414 61 431 70T466 86L436 172H210L182 86Q200 79 215 70T244 50V0H14V50Q26 61 41 70T71 86L284 679H407L616 86Q632 78 645 69T668 50V0H399ZM319 528H318L231 247H413L319 528ZM522
811Q513 797 501 784T473 761T441 746T407 741Q383 741 365 746T331 759T300 773T264 779Q243 779 228 772T200 752L170 795Q189 824 218 843T283 863Q305 863 323 857T357 844T389 831T424 825Q446 825 462 832T491 855L522 811V811Z" />
<glyph unicode="&#xc4;" glyph-name="Adieresis" horiz-adv-x="678" d="M399 0V50Q414 61 431 70T466 86L436 172H210L182 86Q200 79 215 70T244 50V0H14V50Q26 61 41 70T71 86L284 679H407L616 86Q632 78 645 69T668 50V0H399ZM319 528H318L231 247H413L319 528ZM510
781Q510 755 492 737T447 718Q421 718 403 736T384 781Q384 807 402 825T447 844Q473 844 491 826T510 781ZM293 781Q293 755 275 737T230 718Q205 718 186 736T167 781Q167 807 186 825T230 844Q256 844 274 826T293 781Z" />
<glyph unicode="&#xc5;" glyph-name="Aring" horiz-adv-x="678" d="M468 809Q468 783 458 763T430 728T389 707T342 700Q290 700 259 726T228 802Q228 827 239 847T267 881T306 902T354 909Q408 909 438 884T468 809ZM400 802Q400 830 386 847T345 864Q322 864
310 850T297 808Q297 779 311 762T351 745Q374 745 387 759T400 802ZM399 0V50Q414 61 431 70T466 86L436 172H210L182 86Q200 79 215 70T244 50V0H14V50Q26 61 41 70T71 86L284 679H407L616 86Q632 78 645 69T668 50V0H399ZM319 528H318L231 247H413L319 528Z"
/>
<glyph unicode="&#xc6;" glyph-name="AE" horiz-adv-x="844" d="M336 0V49Q350 59 368 69T406 87V172H209L166 86Q179 80 193 71T222 50V0H-6V50Q6 61 18 70T43 87L318 593Q297 598 277 606T237 626V675H786V511H720Q711 529 701 554T686 599H540V382H658Q663
398 672 413T689 441H745V253H689Q681 266 672 281T658 312H540V78H687Q692 101 702 126T721 171H789V0H336ZM406 589H405L241 247H406V589Z" />
<glyph unicode="&#xc7;" glyph-name="Ccedilla" horiz-adv-x="605" d="M564 51Q521 25 468 8T348 -10Q195 -10 114 74T33 324Q33 410 60 477T133 590T243 659T381 683Q430 683 470 678T547 664V474H477Q467 496 457 522T443 570Q424 579 400 584T344 589Q272 589
229 527T185 347Q185 229 238 164T405 99Q444 99 479 106T548 128L564 51V51ZM351 -49Q388 -68 401 -93T405 -146T367 -200T289 -249L234 -219Q264 -201 278 -184T294 -152T282 -122T243 -96L314 0H387L351 -49Z" />
<glyph unicode="&#xc8;" glyph-name="Egrave" horiz-adv-x="550" d="M29 0V50Q47 61 67 71T110 88V587Q89 594 69 604T29 626V675H492V511H425Q416 529 406 554T391 599H247V382H363Q368 398 377 413T394 441H452V253H394Q386 266 377 281T363 312H247V79H392Q397
102 407 127T427 172H495V0H29ZM323 729L103 782L135 871L341 778L323 729Z" />
<glyph unicode="&#xc9;" glyph-name="Eacute" horiz-adv-x="550" d="M29 0V50Q47 61 67 71T110 88V587Q89 594 69 604T29 626V675H492V511H425Q416 529 406 554T391 599H247V382H363Q368 398 377 413T394 441H452V253H394Q386 266 377 281T363 312H247V79H392Q397
102 407 127T427 172H495V0H29ZM233 729L215 778L421 871L453 781L233 729Z" />
<glyph unicode="&#xca;" glyph-name="Ecircumflex" horiz-adv-x="550" d="M29 0V50Q47 61 67 71T110 88V587Q89 594 69 604T29 626V675H492V511H425Q416 529 406 554T391 599H247V382H363Q368 398 377 413T394 441H452V253H394Q386 266 377 281T363 312H247V79H392Q397
102 407 127T427 172H495V0H29ZM409 728L276 781L146 728L122 774L278 874L436 777L409 728Z" />
<glyph unicode="&#xcb;" glyph-name="Edieresis" horiz-adv-x="550" d="M29 0V50Q47 61 67 71T110 88V587Q89 594 69 604T29 626V675H492V511H425Q416 529 406 554T391 599H247V382H363Q368 398 377 413T394 441H452V253H394Q386 266 377 281T363 312H247V79H392Q397
102 407 127T427 172H495V0H29ZM452 781Q452 755 434 737T389 718Q363 718 345 736T326 781Q326 807 344 825T389 844Q415 844 433 826T452 781ZM235 781Q235 755 217 737T172 718Q147 718 128 736T109 781Q109 807 128 825T172 844Q198 844 216 826T235 781Z"
/>
<glyph unicode="&#xcc;" glyph-name="Igrave" horiz-adv-x="356" d="M29 0V50Q47 61 67 71T110 87V588Q89 594 69 604T29 626V675H328V626Q309 615 288 605T247 588V87Q269 81 289 71T328 50V0H29ZM489 729L269 782L301 871L507 778L489 729Z" />
<glyph unicode="&#xcd;" glyph-name="Iacute" horiz-adv-x="356" d="M29 0V50Q47 61 67 71T110 87V588Q89 594 69 604T29 626V675H328V626Q309 615 288 605T247 588V87Q269 81 289 71T328 50V0H29ZM125 729L107 778L313 871L345 781L125 729Z" />
<glyph unicode="&#xce;" glyph-name="Icircumflex" horiz-adv-x="356" d="M29 0V50Q47 61 67 71T110 87V588Q89 594 69 604T29 626V675H328V626Q309 615 288 605T247 588V87Q269 81 289 71T328 50V0H29ZM567 728L434 781L304 728L280 774L436 874L594 777L567 728Z" />
<glyph unicode="&#xcf;" glyph-name="Idieresis" horiz-adv-x="356" d="M29 0V50Q47 61 67 71T110 87V588Q89 594 69 604T29 626V675H328V626Q309 615 288 605T247 588V87Q269 81 289 71T328 50V0H29ZM608 781Q608 755 590 737T545 718Q519 718 501 736T482 781Q482
807 500 825T545 844Q571 844 589 826T608 781ZM391 781Q391 755 373 737T328 718Q303 718 284 736T265 781Q265 807 284 825T328 844Q354 844 372 826T391 781Z" />
<glyph unicode="&#xd0;" glyph-name="Eth" horiz-adv-x="745" d="M709 350Q709 263 680 197T598 86T476 19T323 -4Q296 -4 267 -3T212 -2T163 -1T128 0H45V50Q64 61 84 71T126 88V311H21V385H126V587Q106 594 85 604T45 626V675H125Q145 675 173 675T234 676T301
677T367 678Q450 678 514 660T621 602T686 500T709 350ZM564 339Q564 396 552 445T514 529T443 584T335 604Q316 604 298 603T264 601V385H410V311H264V89Q282 84 307 82T371 80Q411 80 446 95T507 142T548 223T564 339Z" />
<glyph unicode="&#xd1;" glyph-name="Ntilde" horiz-adv-x="737" d="M705 626Q689 614 675 604T644 585V-5H526L189 518L211 90Q230 82 248 72T283 50V0H30V50Q48 62 67 73T106 90L112 587Q91 593 70 603T30 626V675H255L558 210L542 585Q526 592 509 603T476
626V675H705V626V626ZM554 811Q545 797 533 784T505 761T473 746T439 741Q415 741 397 746T363 759T332 773T296 779Q275 779 260 772T232 752L202 795Q221 824 250 843T315 863Q337 863 355 857T389 844T421 831T456 825Q478 825 494 832T523 855L554 811V811Z"
/>
<glyph unicode="&#xd2;" glyph-name="Ograve" horiz-adv-x="744" d="M712 348Q712 264 683 198T604 85T490 14T354 -11Q278 -11 218 12T117 79T54 186T32 328Q32 412 61 478T140 590T254 661T389 686Q460 686 519 665T621 602T688 497T712 348ZM561 333Q561 390
548 437T508 518T443 570T356 589Q275 589 229 527T183 345Q183 289 196 242T237 160T302 106T389 87Q428 87 460 102T514 147T549 224T561 333ZM418 729L198 782L230 871L436 778L418 729Z" />
<glyph unicode="&#xd3;" glyph-name="Oacute" horiz-adv-x="744" d="M712 348Q712 264 683 198T604 85T490 14T354 -11Q278 -11 218 12T117 79T54 186T32 328Q32 412 61 478T140 590T254 661T389 686Q460 686 519 665T621 602T688 497T712 348ZM561 333Q561 390
548 437T508 518T443 570T356 589Q275 589 229 527T183 345Q183 289 196 242T237 160T302 106T389 87Q428 87 460 102T514 147T549 224T561 333ZM324 729L306 778L512 871L544 781L324 729Z" />
<glyph unicode="&#xd4;" glyph-name="Ocircumflex" horiz-adv-x="744" d="M712 348Q712 264 683 198T604 85T490 14T354 -11Q278 -11 218 12T117 79T54 186T32 328Q32 412 61 478T140 590T254 661T389 686Q460 686 519 665T621 602T688 497T712 348ZM561 333Q561
390 548 437T508 518T443 570T356 589Q275 589 229 527T183 345Q183 289 196 242T237 160T302 106T389 87Q428 87 460 102T514 147T549 224T561 333ZM507 728L374 781L244 728L220 774L376 874L534 777L507 728Z" />
<glyph unicode="&#xd5;" glyph-name="Otilde" horiz-adv-x="744" d="M712 348Q712 264 683 198T604 85T490 14T354 -11Q278 -11 218 12T117 79T54 186T32 328Q32 412 61 478T140 590T254 661T389 686Q460 686 519 665T621 602T688 497T712 348ZM561 333Q561 390
548 437T508 518T443 570T356 589Q275 589 229 527T183 345Q183 289 196 242T237 160T302 106T389 87Q428 87 460 102T514 147T549 224T561 333ZM551 811Q542 797 530 784T502 761T470 746T436 741Q412 741 394 746T360 759T329 773T293 779Q272 779 257 772T229
752L199 795Q218 824 247 843T312 863Q334 863 352 857T386 844T418 831T453 825Q475 825 491 832T520 855L551 811V811Z" />
<glyph unicode="&#xd6;" glyph-name="Odieresis" horiz-adv-x="744" d="M712 348Q712 264 683 198T604 85T490 14T354 -11Q278 -11 218 12T117 79T54 186T32 328Q32 412 61 478T140 590T254 661T389 686Q460 686 519 665T621 602T688 497T712 348ZM561 333Q561
390 548 437T508 518T443 570T356 589Q275 589 229 527T183 345Q183 289 196 242T237 160T302 106T389 87Q428 87 460 102T514 147T549 224T561 333ZM547 781Q547 755 529 737T484 718Q458 718 440 736T421 781Q421 807 439 825T484 844Q510 844 528 826T547 781ZM330
781Q330 755 312 737T267 718Q242 718 223 736T204 781Q204 807 223 825T267 844Q293 844 311 826T330 781Z" />
<glyph unicode="&#xd7;" glyph-name="multiply.alt1" horiz-adv-x="600" d="M453 42L300 196L147 42L75 113L229 267L75 420L147 491L300 338L453 491L524 420L371 267L524 113L453 42Z" />
<glyph unicode="&#xd8;" glyph-name="Oslash" horiz-adv-x="744" d="M711 348Q711 264 682 198T603 85T490 14T354 -11Q289 -11 237 8L172 -113L97 -75L160 41Q97 84 64 156T31 328Q31 412 60 478T139 590T253 661T389 686Q449 686 500 670L560 782L635 744L577
637Q641 598 676 526T711 348ZM565 333Q565 390 552 435T511 513L291 107Q333 82 389 82Q429 82 461 97T517 144T552 222T565 333ZM447 573Q406 594 355 594Q271 594 225 530T178 345Q178 291 190 246T229 168L447 573V573Z" />
<glyph unicode="&#xd9;" glyph-name="Ugrave" horiz-adv-x="724" d="M696 626Q683 614 666 603T634 586L632 266Q632 200 613 149T558 62T470 8T350 -11Q277 -11 227 9T146 63T102 142T89 237V588Q74 594 58 604T28 626V675H299V626Q283 615 264 605T226 588V252Q226
216 233 185T258 130T307 92T385 78Q460 78 494 123T528 253L525 586Q507 592 488 603T453 626V675H696V626V626ZM402 729L182 782L214 871L420 778L402 729Z" />
<glyph unicode="&#xda;" glyph-name="Uacute" horiz-adv-x="724" d="M696 626Q683 614 666 603T634 586L632 266Q632 200 613 149T558 62T470 8T350 -11Q277 -11 227 9T146 63T102 142T89 237V588Q74 594 58 604T28 626V675H299V626Q283 615 264 605T226 588V252Q226
216 233 185T258 130T307 92T385 78Q460 78 494 123T528 253L525 586Q507 592 488 603T453 626V675H696V626V626ZM337 729L319 778L525 871L557 781L337 729Z" />
<glyph unicode="&#xdb;" glyph-name="Ucircumflex" horiz-adv-x="724" d="M696 626Q683 614 666 603T634 586L632 266Q632 200 613 149T558 62T470 8T350 -11Q277 -11 227 9T146 63T102 142T89 237V588Q74 594 58 604T28 626V675H299V626Q283 615 264 605T226
588V252Q226 216 233 185T258 130T307 92T385 78Q460 78 494 123T528 253L525 586Q507 592 488 603T453 626V675H696V626V626ZM507 728L374 781L244 728L220 774L376 874L534 777L507 728Z" />
<glyph unicode="&#xdc;" glyph-name="Udieresis" horiz-adv-x="724" d="M696 626Q683 614 666 603T634 586L632 266Q632 200 613 149T558 62T470 8T350 -11Q277 -11 227 9T146 63T102 142T89 237V588Q74 594 58 604T28 626V675H299V626Q283 615 264 605T226 588V252Q226
216 233 185T258 130T307 92T385 78Q460 78 494 123T528 253L525 586Q507 592 488 603T453 626V675H696V626V626ZM547 781Q547 755 529 737T484 718Q458 718 440 736T421 781Q421 807 439 825T484 844Q510 844 528 826T547 781ZM330 781Q330 755 312 737T267 718Q242
718 223 736T204 781Q204 807 223 825T267 844Q293 844 311 826T330 781Z" />
<glyph unicode="&#xdd;" glyph-name="Yacute" horiz-adv-x="607" d="M597 626Q588 616 577 606T552 589L375 272V87Q398 81 418 71T456 50V0H157V50Q176 61 196 71T238 87V272L55 590Q44 596 32 605T8 626V675H268V626Q256 615 242 606T212 590L338 363H339L441
589Q427 595 412 605T383 626V675H597V626V626ZM294 729L276 778L482 871L514 781L294 729Z" />
<glyph unicode="&#xde;" glyph-name="Thorn" horiz-adv-x="598" d="M575 357Q575 310 555 270T499 199T413 153T303 136Q289 136 275 137T247 140V80Q268 74 288 66T326 47V0H29V50Q47 61 67 71T110 87V588Q89 594 69 604T29 626V675H326V628Q309 618 289 609T247
595V543Q258 544 271 545T297 546T324 547T350 547Q400 547 442 536T513 502T559 442T575 357ZM436 341Q436 401 405 437T305 474Q292 474 277 472T247 467V231Q261 224 280 220T325 215Q375 215 405 247T436 341Z" />
<glyph unicode="&#xdf;" glyph-name="germandbls" horiz-adv-x="683" d="M663 167Q663 133 646 102T600 46T531 7T447 -8Q417 -8 388 -5T333 3V148H387Q395 133 403 114T416 74Q427 70 437 69T462 67Q490 67 509 84T529 134Q529 163 515 182T478 216T431 244T383
275T347 316T332 376Q332 404 340 423T360 456T387 480T414 503T435 530T444 568Q444 608 417 632T340 657Q291 657 267 626T242 542V80Q255 73 266 65T285 50V0H31V50Q48 61 67 70T109 86V413Q92 420 72 426T31 436V489Q48 494 69 497T109 503V517Q109 566 126
606T177 675T261 720T377 736Q423 736 461 726T527 696T570 651T586 594Q586 564 577 545T555 512T526 488T498 466T475 442T466 408Q466 385 480 370T517 341T564 314T612 281T648 235T663 167Z" />
<glyph unicode="&#xe0;" glyph-name="agrave" horiz-adv-x="534" d="M518 67Q484 42 446 23T357 -13Q346 4 338 28T326 76H325Q316 60 300 44T264 16T221 -3T172 -11Q139 -11 113 0T68 29T39 74T29 131Q29 164 50 194T108 247T197 283T308 297V355Q308 393 287
417T224 441Q202 441 186 435T161 420Q156 402 148 382T128 342H68V483Q109 497 153 505T252 513Q299 513 334 504T394 476T430 432T442 372V167Q442 153 443 138T449 110Q462 111 474 112T500 117L518 67V67ZM308 234Q264 234 236 228T192 210T170 184T163 154Q163
139 167 126T180 104T200 89T226 83Q238 83 252 88T278 105T299 133T308 172V234ZM300 570L92 660L142 748L326 619L300 570Z" />
<glyph unicode="&#xe1;" glyph-name="aacute" horiz-adv-x="534" d="M518 67Q484 42 446 23T357 -13Q346 4 338 28T326 76H325Q316 60 300 44T264 16T221 -3T172 -11Q139 -11 113 0T68 29T39 74T29 131Q29 164 50 194T108 247T197 283T308 297V355Q308 393 287
417T224 441Q202 441 186 435T161 420Q156 402 148 382T128 342H68V483Q109 497 153 505T252 513Q299 513 334 504T394 476T430 432T442 372V167Q442 153 443 138T449 110Q462 111 474 112T500 117L518 67V67ZM308 234Q264 234 236 228T192 210T170 184T163 154Q163
139 167 126T180 104T200 89T226 83Q238 83 252 88T278 105T299 133T308 172V234ZM212 570L185 619L370 748L420 660L212 570Z" />
<glyph unicode="&#xe2;" glyph-name="acircumflex" horiz-adv-x="534" d="M518 67Q484 42 446 23T357 -13Q346 4 338 28T326 76H325Q316 60 300 44T264 16T221 -3T172 -11Q139 -11 113 0T68 29T39 74T29 131Q29 164 50 194T108 247T197 283T308 297V355Q308 393
287 417T224 441Q202 441 186 435T161 420Q156 402 148 382T128 342H68V483Q109 497 153 505T252 513Q299 513 334 504T394 476T430 432T442 372V167Q442 153 443 138T449 110Q462 111 474 112T500 117L518 67V67ZM308 234Q264 234 236 228T192 210T170 184T163
154Q163 139 167 126T180 104T200 89T226 83Q238 83 252 88T278 105T299 133T308 172V234ZM373 571L255 645L140 571L111 614L257 749L405 617L373 571Z" />
<glyph unicode="&#xe3;" glyph-name="atilde" horiz-adv-x="534" d="M518 67Q484 42 446 23T357 -13Q346 4 338 28T326 76H325Q316 60 300 44T264 16T221 -3T172 -11Q139 -11 113 0T68 29T39 74T29 131Q29 164 50 194T108 247T197 283T308 297V355Q308 393 287
417T224 441Q202 441 186 435T161 420Q156 402 148 382T128 342H68V483Q109 497 153 505T252 513Q299 513 334 504T394 476T430 432T442 372V167Q442 153 443 138T449 110Q462 111 474 112T500 117L518 67V67ZM308 234Q264 234 236 228T192 210T170 184T163 154Q163
139 167 126T180 104T200 89T226 83Q238 83 252 88T278 105T299 133T308 172V234ZM428 656Q418 641 406 629T378 606T347 591T312 585Q288 585 270 591T237 604T205 618T170 624Q149 624 133 617T106 597L74 642Q93 671 122 690T187 709Q209 709 227 703T261 690T293
677T328 671Q350 671 366 678T395 702L428 656V656Z" />
<glyph unicode="&#xe4;" glyph-name="adieresis" horiz-adv-x="534" d="M518 67Q484 42 446 23T357 -13Q346 4 338 28T326 76H325Q316 60 300 44T264 16T221 -3T172 -11Q139 -11 113 0T68 29T39 74T29 131Q29 164 50 194T108 247T197 283T308 297V355Q308 393
287 417T224 441Q202 441 186 435T161 420Q156 402 148 382T128 342H68V483Q109 497 153 505T252 513Q299 513 334 504T394 476T430 432T442 372V167Q442 153 443 138T449 110Q462 111 474 112T500 117L518 67V67ZM308 234Q264 234 236 228T192 210T170 184T163
154Q163 139 167 126T180 104T200 89T226 83Q238 83 252 88T278 105T299 133T308 172V234ZM415 639Q415 612 396 593T349 573Q322 573 303 592T283 639Q283 666 302 685T349 705Q377 705 396 686T415 639ZM216 639Q216 612 197 593T150 573Q123 573 104 592T84
639Q84 666 103 685T150 705Q178 705 197 686T216 639Z" />
<glyph unicode="&#xe5;" glyph-name="aring" horiz-adv-x="534" d="M518 67Q484 42 446 23T357 -13Q346 4 338 28T326 76H325Q316 60 300 44T264 16T221 -3T172 -11Q139 -11 113 0T68 29T39 74T29 131Q29 164 50 194T108 247T197 283T308 297V355Q308 393 287
417T224 441Q202 441 186 435T161 420Q156 402 148 382T128 342H68V483Q109 497 153 505T252 513Q299 513 334 504T394 476T430 432T442 372V167Q442 153 443 138T449 110Q462 111 474 112T500 117L518 67V67ZM308 234Q264 234 236 228T192 210T170 184T163 154Q163
139 167 126T180 104T200 89T226 83Q238 83 252 88T278 105T299 133T308 172V234ZM385 671Q385 642 374 620T343 582T298 558T246 550Q188 550 154 579T120 663Q120 692 132 714T163 752T207 775T259 783Q319 783 352 755T385 671ZM308 664Q308 694 293 712T249
730Q225 730 212 715T198 670Q198 639 213 621T256 602Q280 602 294 617T308 664Z" />
<glyph unicode="&#xe6;" glyph-name="ae" horiz-adv-x="786" d="M753 291Q753 280 753 268T752 246H440V235Q440 157 477 121T585 85Q622 85 660 94T727 119L749 51Q705 23 653 7T540 -10Q472 -10 422 14T342 88Q330 67 312 49T272 18T224 -3T172 -11Q137 -11
111 0T66 29T39 74T29 131Q29 165 49 195T107 247T195 282T307 294V357Q307 397 287 419T225 441Q203 441 187 435T159 420Q154 402 146 382T125 341H66V483Q108 497 152 505T251 513Q299 513 336 501T397 460Q451 512 539 512Q593 512 633 497T700 453T740 384T753
291ZM617 313Q618 339 613 362T598 402T571 429T533 439Q510 439 494 429T467 402T449 362T441 313H617V313ZM307 234Q263 235 235 229T191 211T168 184T162 154Q162 139 166 126T179 103T199 87T224 81Q236 81 250 87T277 104T298 133T307 172V234Z" />
<glyph unicode="&#xe7;" glyph-name="ccedilla" horiz-adv-x="457" d="M437 43Q405 20 362 6T266 -8Q215 -8 172 6T98 50T49 127T31 237Q31 298 47 348T95 435T176 490T291 510Q325 510 359 506T420 494V335H359Q348 352 340 375T328 417Q315 425 299 428T266
431Q243 431 226 419T196 383T177 328T171 258Q171 215 182 183T212 131T258 100T317 90Q343 90 368 95T418 111L437 43V43ZM274 -49Q311 -68 324 -93T328 -146T290 -200T212 -249L157 -219Q187 -201 201 -184T217 -152T205 -122T166 -96L237 0H310L274 -49Z" />
<glyph unicode="&#xe8;" glyph-name="egrave" horiz-adv-x="516" d="M483 291Q483 280 483 268T481 246H170V235Q170 157 207 121T315 85Q351 85 390 94T457 119Q463 100 467 86T478 51Q435 23 382 7T269 -10Q214 -10 170 6T95 54T47 133T30 243Q30 302 46 351T94
437T169 492T271 512Q378 512 430 453T483 291ZM347 313Q347 339 342 362T327 402T300 429T262 439Q240 439 224 429T196 402T179 362T170 313H347V313ZM308 570L100 660L150 748L334 619L308 570Z" />
<glyph unicode="&#xe9;" glyph-name="eacute" horiz-adv-x="516" d="M483 291Q483 280 483 268T481 246H170V235Q170 157 207 121T315 85Q351 85 390 94T457 119Q463 100 467 86T478 51Q435 23 382 7T269 -10Q214 -10 170 6T95 54T47 133T30 243Q30 302 46 351T94
437T169 492T271 512Q378 512 430 453T483 291ZM347 313Q347 339 342 362T327 402T300 429T262 439Q240 439 224 429T196 402T179 362T170 313H347V313ZM234 570L207 619L392 748L442 660L234 570Z" />
<glyph unicode="&#xea;" glyph-name="ecircumflex" horiz-adv-x="516" d="M483 291Q483 280 483 268T481 246H170V235Q170 157 207 121T315 85Q351 85 390 94T457 119Q463 100 467 86T478 51Q435 23 382 7T269 -10Q214 -10 170 6T95 54T47 133T30 243Q30 302 46
351T94 437T169 492T271 512Q378 512 430 453T483 291ZM347 313Q347 339 342 362T327 402T300 429T262 439Q240 439 224 429T196 402T179 362T170 313H347V313ZM379 571L261 645L146 571L117 614L263 749L411 617L379 571Z" />
<glyph unicode="&#xeb;" glyph-name="edieresis" horiz-adv-x="516" d="M483 291Q483 280 483 268T481 246H170V235Q170 157 207 121T315 85Q351 85 390 94T457 119Q463 100 467 86T478 51Q435 23 382 7T269 -10Q214 -10 170 6T95 54T47 133T30 243Q30 302 46
351T94 437T169 492T271 512Q378 512 430 453T483 291ZM347 313Q347 339 342 362T327 402T300 429T262 439Q240 439 224 429T196 402T179 362T170 313H347V313ZM431 639Q431 612 412 593T365 573Q338 573 319 592T299 639Q299 666 318 685T365 705Q393 705 412
686T431 639ZM232 639Q232 612 213 593T166 573Q139 573 120 592T100 639Q100 666 119 685T166 705Q194 705 213 686T232 639Z" />
<glyph unicode="&#xec;" glyph-name="igrave" horiz-adv-x="340" d="M32 0V50Q49 61 68 70T109 86V414Q92 421 72 427T32 436V488Q74 499 130 503T243 505V86Q264 80 281 70T315 50V0H32ZM470 570L262 660L312 748L496 619L470 570Z" />
<glyph unicode="&#xed;" glyph-name="iacute" horiz-adv-x="340" d="M32 0V50Q49 61 68 70T109 86V414Q92 421 72 427T32 436V488Q74 499 130 503T243 505V86Q264 80 281 70T315 50V0H32ZM112 570L85 619L270 748L320 660L112 570Z" />
<glyph unicode="&#xee;" glyph-name="icircumflex" horiz-adv-x="340" d="M32 0V50Q49 61 68 70T109 86V414Q92 421 72 427T32 436V488Q74 499 130 503T243 505V86Q264 80 281 70T315 50V0H32ZM541 571L423 645L308 571L279 614L425 749L573 617L541 571Z" />
<glyph unicode="&#xef;" glyph-name="idieresis" horiz-adv-x="340" d="M32 0V50Q49 61 68 70T109 86V414Q92 421 72 427T32 436V488Q74 499 130 503T243 505V86Q264 80 281 70T315 50V0H32ZM591 639Q591 612 572 593T525 573Q498 573 479 592T459 639Q459 666
478 685T525 705Q553 705 572 686T591 639ZM392 639Q392 612 373 593T326 573Q299 573 280 592T260 639Q260 666 279 685T326 705Q354 705 373 686T392 639Z" />
<glyph unicode="&#xf0;" glyph-name="eth" horiz-adv-x="556" d="M522 292Q522 212 500 155T440 61T355 7T254 -11Q199 -11 157 6T87 54T44 130T30 231Q30 296 48 346T102 431T186 484T298 502Q304 502 311 502T325 501Q313 522 298 541T262 580L134 520L99 578L194
624Q181 633 168 641T142 656Q125 661 104 664T63 670V721Q78 725 96 728T135 732T181 734T231 735Q255 722 277 709T321 680L433 733L469 675L381 632Q448 565 485 481T522 292ZM382 259Q383 303 377 340T357 411Q343 417 325 420T287 424Q229 424 200 381T170
248Q170 208 177 177T198 123T232 88T278 76Q326 76 354 120T382 259Z" />
<glyph unicode="&#xf1;" glyph-name="ntilde" horiz-adv-x="645" d="M370 0V47Q382 57 397 67T427 84Q428 103 429 126T431 173T432 220T432 264Q432 301 428 330T415 380T390 410T350 421Q323 421 304 410T270 378T249 332T242 278V84Q257 77 272 67T299 47V0H31V50Q49
61 68 70T109 86V414Q92 421 72 427T31 436V488Q52 493 77 497T129 503T183 505T237 505Q237 485 236 459T231 413H232Q242 435 258 453T296 484T346 505T405 513Q488 513 528 460T568 294Q568 246 567 190T562 86Q581 80 599 70T633 50V0H370ZM516 656Q506 641
494 629T466 606T435 591T400 585Q376 585 358 591T325 604T293 618T258 624Q237 624 221 617T194 597L162 642Q181 671 210 690T275 709Q297 709 315 703T349 690T381 677T416 671Q438 671 454 678T483 702L516 656V656Z" />
<glyph unicode="&#xf2;" glyph-name="ograve" horiz-adv-x="583" d="M554 261Q554 198 533 148T475 62T386 9T274 -10Q219 -10 174 5T96 51T45 128T27 239Q27 303 48 353T107 439T195 493T306 512Q424 512 489 448T554 261ZM414 246Q414 287 405 320T379 376T338
413T281 426Q227 426 197 384T167 259Q167 176 201 126T299 76Q352 76 383 117T414 246ZM332 570L124 660L174 748L358 619L332 570Z" />
<glyph unicode="&#xf3;" glyph-name="oacute" horiz-adv-x="583" d="M554 261Q554 198 533 148T475 62T386 9T274 -10Q219 -10 174 5T96 51T45 128T27 239Q27 303 48 353T107 439T195 493T306 512Q424 512 489 448T554 261ZM414 246Q414 287 405 320T379 376T338
413T281 426Q227 426 197 384T167 259Q167 176 201 126T299 76Q352 76 383 117T414 246ZM246 570L219 619L404 748L454 660L246 570Z" />
<glyph unicode="&#xf4;" glyph-name="ocircumflex" horiz-adv-x="583" d="M554 261Q554 198 533 148T475 62T386 9T274 -10Q219 -10 174 5T96 51T45 128T27 239Q27 303 48 353T107 439T195 493T306 512Q424 512 489 448T554 261ZM414 246Q414 287 405 320T379
376T338 413T281 426Q227 426 197 384T167 259Q167 176 201 126T299 76Q352 76 383 117T414 246ZM403 571L285 645L170 571L141 614L287 749L435 617L403 571Z" />
<glyph unicode="&#xf5;" glyph-name="otilde" horiz-adv-x="583" d="M554 261Q554 198 533 148T475 62T386 9T274 -10Q219 -10 174 5T96 51T45 128T27 239Q27 303 48 353T107 439T195 493T306 512Q424 512 489 448T554 261ZM414 246Q414 287 405 320T379 376T338
413T281 426Q227 426 197 384T167 259Q167 176 201 126T299 76Q352 76 383 117T414 246ZM464 656Q454 641 442 629T414 606T383 591T348 585Q324 585 306 591T273 604T241 618T206 624Q185 624 169 617T142 597L110 642Q129 671 158 690T223 709Q245 709 263 703T297
690T329 677T364 671Q386 671 402 678T431 702L464 656V656Z" />
<glyph unicode="&#xf6;" glyph-name="odieresis" horiz-adv-x="583" d="M554 261Q554 198 533 148T475 62T386 9T274 -10Q219 -10 174 5T96 51T45 128T27 239Q27 303 48 353T107 439T195 493T306 512Q424 512 489 448T554 261ZM414 246Q414 287 405 320T379 376T338
413T281 426Q227 426 197 384T167 259Q167 176 201 126T299 76Q352 76 383 117T414 246ZM444 639Q444 612 425 593T378 573Q351 573 332 592T312 639Q312 666 331 685T378 705Q406 705 425 686T444 639ZM245 639Q245 612 226 593T179 573Q152 573 133 592T113 639Q113
666 132 685T179 705Q207 705 226 686T245 639Z" />
<glyph unicode="&#xf7;" glyph-name="divide.alt1" horiz-adv-x="600" d="M373 464Q373 449 367 436T352 412T329 397T300 391Q285 391 272 396T249 412T233 435T227 464Q227 479 233 492T248 515T271 531T300 537Q315 537 328 531T351 516T367 493T373 464ZM48
222V312H552V222H48ZM373 69Q373 54 367 41T352 18T329 2T300 -4Q285 -4 272 2T249 18T233 41T227 69Q227 84 233 97T248 121T271 136T300 142Q315 142 328 137T351 121T367 98T373 69Z" />
<glyph unicode="&#xf8;" glyph-name="oslash" horiz-adv-x="583" d="M554 261Q554 197 534 147T476 61T388 8T274 -10Q233 -10 200 -1L140 -111L71 -74L126 27Q79 57 53 109T27 239Q27 303 47 354T105 440T194 493T306 512Q347 512 383 502L440 608L510 572L457
473Q504 442 529 389T554 261ZM336 417Q324 424 310 427T281 431Q224 431 193 388T162 259Q162 225 169 197T191 148L336 417V417ZM418 246Q418 279 412 305T391 352L246 85Q258 78 271 75T300 72Q355 72 386 114T418 246Z" />
<glyph unicode="&#xf9;" glyph-name="ugrave" horiz-adv-x="640" d="M621 14Q581 5 531 -1T423 -4Q423 18 424 44T428 88L426 89Q416 67 400 49T363 17T314 -3T254 -11Q171 -11 133 43T95 207Q95 231 95 259T96 315T98 369T100 415Q84 421 65 426T26 436V488Q68
499 124 503T233 505Q232 473 231 438T228 368T227 300T226 238Q226 200 230 171T243 122T268 92T309 81Q334 81 354 92T388 123T409 169T416 224V415Q401 422 383 427T346 436V488Q388 499 442 503T550 505V89Q567 82 584 77T621 67V14V14ZM322 570L114 660L164
748L348 619L322 570Z" />
<glyph unicode="&#xfa;" glyph-name="uacute" horiz-adv-x="640" d="M621 14Q581 5 531 -1T423 -4Q423 18 424 44T428 88L426 89Q416 67 400 49T363 17T314 -3T254 -11Q171 -11 133 43T95 207Q95 231 95 259T96 315T98 369T100 415Q84 421 65 426T26 436V488Q68
499 124 503T233 505Q232 473 231 438T228 368T227 300T226 238Q226 200 230 171T243 122T268 92T309 81Q334 81 354 92T388 123T409 169T416 224V415Q401 422 383 427T346 436V488Q388 499 442 503T550 505V89Q567 82 584 77T621 67V14V14ZM290 570L263 619L448
748L498 660L290 570Z" />
<glyph unicode="&#xfb;" glyph-name="ucircumflex" horiz-adv-x="640" d="M621 14Q581 5 531 -1T423 -4Q423 18 424 44T428 88L426 89Q416 67 400 49T363 17T314 -3T254 -11Q171 -11 133 43T95 207Q95 231 95 259T96 315T98 369T100 415Q84 421 65 426T26 436V488Q68
499 124 503T233 505Q232 473 231 438T228 368T227 300T226 238Q226 200 230 171T243 122T268 92T309 81Q334 81 354 92T388 123T409 169T416 224V415Q401 422 383 427T346 436V488Q388 499 442 503T550 505V89Q567 82 584 77T621 67V14V14ZM424 571L306 645L191
571L162 614L308 749L456 617L424 571Z" />
<glyph unicode="&#xfc;" glyph-name="udieresis" horiz-adv-x="640" d="M621 14Q581 5 531 -1T423 -4Q423 18 424 44T428 88L426 89Q416 67 400 49T363 17T314 -3T254 -11Q171 -11 133 43T95 207Q95 231 95 259T96 315T98 369T100 415Q84 421 65 426T26 436V488Q68
499 124 503T233 505Q232 473 231 438T228 368T227 300T226 238Q226 200 230 171T243 122T268 92T309 81Q334 81 354 92T388 123T409 169T416 224V415Q401 422 383 427T346 436V488Q388 499 442 503T550 505V89Q567 82 584 77T621 67V14V14ZM473 639Q473 612 454
593T407 573Q380 573 361 592T341 639Q341 666 360 685T407 705Q435 705 454 686T473 639ZM274 639Q274 612 255 593T208 573Q181 573 162 592T142 639Q142 666 161 685T208 705Q236 705 255 686T274 639Z" />
<glyph unicode="&#xfd;" glyph-name="yacute" horiz-adv-x="570" d="M561 452Q550 443 537 435T509 421L341 -28Q319 -89 296 -131T245 -199T184 -237T108 -249Q92 -249 74 -248T35 -243L51 -127Q70 -134 92 -137T135 -140Q154 -140 168 -137T195 -122T218 -90T241
-34L59 423Q45 427 32 435T8 452V501H269V452Q257 444 241 435T207 421L273 230Q283 200 290 177T305 126H306Q312 149 319 176T339 238L399 421Q384 425 369 434T340 452V501H561V452V452ZM277 570L250 619L435 748L485 660L277 570Z" />
<glyph unicode="&#xfe;" glyph-name="thorn" horiz-adv-x="603" d="M568 277Q568 207 548 155T491 66T404 12T293 -7Q275 -7 261 -6T229 -2V-156Q252 -162 271 -171T307 -192V-242H18V-192Q35 -181 54 -172T95 -156V643Q78 649 59 655T18 664V717Q60 728 117 732T229
734V508Q229 485 227 462T222 419H223Q232 438 246 455T280 485T324 505T376 513Q421 513 457 496T517 448T555 373T568 277ZM429 258Q429 293 423 323T403 375T371 409T327 421Q307 421 289 410T258 379T237 332T229 275V89Q245 79 265 73T311 66Q365 66 397 114T429
258Z" />
<glyph unicode="&#xff;" glyph-name="ydieresis" horiz-adv-x="570" d="M561 452Q550 443 537 435T509 421L341 -28Q319 -89 296 -131T245 -199T184 -237T108 -249Q92 -249 74 -248T35 -243L51 -127Q70 -134 92 -137T135 -140Q154 -140 168 -137T195 -122T218
-90T241 -34L59 423Q45 427 32 435T8 452V501H269V452Q257 444 241 435T207 421L273 230Q283 200 290 177T305 126H306Q312 149 319 176T339 238L399 421Q384 425 369 434T340 452V501H561V452V452ZM473 639Q473 612 454 593T407 573Q380 573 361 592T341 639Q341
666 360 685T407 705Q435 705 454 686T473 639ZM274 639Q274 612 255 593T208 573Q181 573 162 592T142 639Q142 666 161 685T208 705Q236 705 255 686T274 639Z" />
<glyph unicode="&#x131;" glyph-name="dotlessi" horiz-adv-x="340" d="M32 0V50Q49 61 68 70T109 86V414Q92 421 72 427T32 436V488Q74 499 130 503T243 505V86Q264 80 281 70T315 50V0H32Z" />
<glyph unicode="&#x141;" glyph-name="Lslash" horiz-adv-x="550" d="M51 0V50Q69 61 89 71T131 88V308L59 266L29 331L131 388V587Q111 594 91 604T51 626V675H350V626Q331 615 311 605T269 588V461L375 523L405 458L269 380V78L424 84Q429 106 440 133T461 183H527V0H51Z"
/>
<glyph unicode="&#x142;" glyph-name="lslash" horiz-adv-x="360" d="M248 407V86Q267 80 287 70T321 49V0H40V49Q57 60 75 70T114 86V336L46 297L17 361L114 416V643Q99 649 80 654T42 664V717Q82 728 138 732T248 734V486L315 526L345 461L248 407Z" />
<glyph unicode="&#x152;" glyph-name="OE" horiz-adv-x="893" d="M449 0Q402 -11 354 -11Q278 -11 218 12T117 79T54 186T32 328Q32 412 61 478T140 590T254 661T389 686Q415 686 440 683T488 675H835V511H768Q759 529 749 554T734 599H590V382H706Q711 398 720
413T737 441H795V253H737Q729 266 720 281T706 312H590V79H735Q740 102 750 127T770 172H838V0H449ZM453 568Q432 578 407 583T356 589Q275 589 229 527T183 345Q183 289 196 242T237 160T302 106T389 87Q424 87 453 99V568Z" />
<glyph unicode="&#x153;" glyph-name="oe" horiz-adv-x="896" d="M863 291Q863 280 863 268T862 246H550V235Q550 157 587 121T695 85Q731 85 770 94T837 119L859 51Q815 23 762 7T650 -10Q590 -10 546 10T471 74Q435 30 384 10T274 -10Q219 -10 174 5T96 51T45
128T27 239Q27 303 48 353T107 439T195 493T306 512Q364 512 409 494T485 437Q514 474 554 493T648 512Q703 512 743 497T810 453T850 384T863 291ZM727 313Q728 339 723 362T707 402T680 429T642 439Q620 439 604 429T577 402T559 362T551 313H727V313ZM414 246Q414
287 405 320T379 376T338 413T281 426Q227 426 197 384T167 259Q167 176 201 126T299 76Q352 76 383 117T414 246Z" />
<glyph unicode="&#x160;" glyph-name="Scaron" horiz-adv-x="526" d="M490 207Q490 159 469 119T411 51T325 6T218 -11Q176 -11 133 -7T53 7V201H120Q130 178 141 151T157 102Q172 95 194 90T243 84Q263 84 281 88T313 103T334 129T342 170Q342 207 320 229T264
268T191 299T118 336T62 393T39 482Q39 525 57 562T109 626T190 669T297 685Q334 685 372 682T447 670V495H381Q375 505 369 517T358 542T349 567T344 589Q332 593 316 595T273 598Q228 598 206 577T184 515Q184 481 206 460T263 422T336 391T410 352T467 295T490
207ZM278 727L119 825L147 873L280 820L410 873L433 828L278 727Z" />
<glyph unicode="&#x161;" glyph-name="scaron" horiz-adv-x="459" d="M423 151Q423 114 406 85T360 35T290 3T204 -9Q163 -9 125 -6T53 7V157H117Q124 142 131 123T144 85Q160 78 181 73T226 67Q254 67 271 80T288 121Q288 148 270 165T225 194T167 218T109 248T64
293T46 365Q46 396 60 423T101 470T167 501T254 512Q291 512 325 509T389 498V356H326Q317 371 310 389T298 427Q288 433 271 437T235 441Q209 441 195 427T181 392Q181 364 198 348T243 319T301 294T360 265T405 220T423 151ZM230 568L81 701L114 746L232 673L347
746L375 703L230 568Z" />
<glyph unicode="&#x178;" glyph-name="Ydieresis" horiz-adv-x="607" d="M597 626Q588 616 577 606T552 589L375 272V87Q398 81 418 71T456 50V0H157V50Q176 61 196 71T238 87V272L55 590Q44 596 32 605T8 626V675H268V626Q256 615 242 606T212 590L338 363H339L441
589Q427 595 412 605T383 626V675H597V626V626ZM491 781Q491 755 473 737T428 718Q402 718 384 736T365 781Q365 807 383 825T428 844Q454 844 472 826T491 781ZM274 781Q274 755 256 737T211 718Q186 718 167 736T148 781Q148 807 167 825T211 844Q237 844 255
826T274 781Z" />
<glyph unicode="&#x17d;" glyph-name="Zcaron" horiz-adv-x="548" d="M35 0V80L351 597H152Q145 574 134 546T108 497H43L49 675H507V592L194 81H406Q413 104 424 132T450 185H517V0H35ZM281 727L122 825L150 873L283 820L413 873L436 828L281 727Z" />
<glyph unicode="&#x17e;" glyph-name="zcaron" horiz-adv-x="478" d="M41 0V81L282 432H138Q132 413 123 393T103 355H42L47 501H428V420L189 73H344Q350 92 358 113T377 152H438V0H41ZM242 568L93 701L126 746L244 673L359 746L387 703L242 568Z" />
<glyph unicode="&#x192;" glyph-name="florin" horiz-adv-x="535" d="M417 577Q408 593 401 614T389 655Q376 665 351 665Q340 665 332 661T317 646T307 618T299 573L286 412H423V338H283L258 53Q254 8 242 -30T207 -96T149 -139T65 -154Q33 -154 3 -151T-52 -139V3H7Q16
-13 23 -34T36 -75Q48 -85 73 -85Q84 -85 92 -81T107 -66T117 -38T125 7L151 338H40V412H155L166 527Q169 572 181 610T216 676T275 719T360 734Q391 734 421 731T476 719V577H417Z" />
<glyph unicode="&#x2c6;" glyph-name="circumflex" horiz-adv-x="425" d="M327 571L209 645L94 571L65 614L211 749L359 617L327 571Z" />
<glyph unicode="&#x2c7;" glyph-name="caron" horiz-adv-x="425" d="M214 568L65 701L98 746L216 673L331 746L359 703L214 568Z" />
<glyph unicode="&#x2c9;" glyph-name="macron" horiz-adv-x="415" d="M65 607V692H350V607H65Z" />
<glyph unicode="&#x2d8;" glyph-name="breve" horiz-adv-x="406" d="M326 720Q326 692 319 666T295 620T254 587T193 575Q157 575 133 587T94 619T72 666T65 720H136Q136 694 153 677T198 659Q225 659 241 674T257 720H326V720Z" />
<glyph unicode="&#x2d9;" glyph-name="dotaccent" horiz-adv-x="284" d="M219 644Q219 629 213 616T196 593T171 578T142 572Q126 572 113 577T88 592T71 615T65 643Q65 659 71 672T88 695T113 710T143 716Q158 716 172 711T196 696T213 673T219 644Z" />
<glyph unicode="&#x2da;" glyph-name="ring" horiz-adv-x="395" d="M330 671Q330 642 319 620T288 582T243 558T191 550Q133 550 99 579T65 663Q65 692 77 714T108 752T152 775T204 783Q264 783 297 755T330 671ZM253 664Q253 694 238 712T194 730Q170 730 157
715T143 670Q143 639 158 621T201 602Q225 602 239 617T253 664Z" />
<glyph unicode="&#x2db;" glyph-name="ogonek" horiz-adv-x="380" d="M315 -181Q284 -216 249 -232T174 -248Q118 -248 92 -224T65 -154Q65 -119 88 -79T165 0H254Q212 -29 195 -59T178 -116Q178 -137 188 -148T218 -160Q233 -160 249 -153T283 -131L315 -181V-181Z" />
<glyph unicode="&#x2dc;" glyph-name="tilde" horiz-adv-x="484" d="M419 656Q409 641 397 629T369 606T338 591T303 585Q279 585 261 591T228 604T196 618T161 624Q140 624 124 617T97 597L65 642Q84 671 113 690T178 709Q200 709 218 703T252 690T284 677T319
671Q341 671 357 678T386 702L419 656V656Z" />
<glyph unicode="&#x2dd;" glyph-name="hungarumlaut" horiz-adv-x="532" d="M287 570L249 612L401 772L466 698L287 570ZM108 570L65 606L198 782L273 717L108 570Z" />
<glyph unicode="&#x37e;" glyph-name="semicolon" horiz-adv-x="299" d="M242 374Q242 358 236 344T219 320T194 303T165 297Q149 297 135 303T111 319T94 344T88 374Q88 390 94 404T110 428T135 445T165 451Q180 451 194 445T218 429T235 404T242 374ZM163 140Q186
140 204 128T231 94T241 43T227 -21T184 -91T107 -164L65 -123Q94 -98 108 -77T125 -37T124 -3T107 26Q94 42 92 62T97 99T121 128T163 140Z" />
<glyph unicode="&#x394;" glyph-name="Delta" horiz-adv-x="705" d="M28 0L306 691H407L675 0H28ZM323 548L159 89H495L323 548Z" />
<glyph unicode="&#x3a9;" glyph-name="Omega" horiz-adv-x="749" d="M434 0V82Q494 120 528 187T563 350Q563 401 551 446T515 524T456 577T375 596Q331 596 295 578T234 528T194 451T180 353Q180 258 211 193T312 82V0H61V88H194Q132 130 99 197T66 352Q66 424
88 485T152 591T251 661T382 686Q447 686 502 665T597 602T659 501T681 362Q681 317 672 276T645 200T603 137T548 88H684V0H434Z" />
<glyph unicode="&#x3bc;" glyph-name="mu" horiz-adv-x="640" d="M622 14Q602 10 579 6T531 0T480 -4T426 -4Q426 18 427 43T431 85L429 86Q420 64 406 47T374 17T333 -1T287 -8Q254 -8 230 9V-242H96V415Q81 421 64 426T26 436V486Q67 497 122 502T230 505V238Q230
200 233 171T246 122T270 92T311 81Q336 81 356 92T389 123T409 169T416 224V414Q401 421 384 426T346 436V486Q388 497 442 502T550 505V87Q567 80 585 75T622 66V14V14Z" />
<glyph unicode="&#x3c0;" glyph-name="pi" horiz-adv-x="676" d="M634 38Q609 17 578 4T508 -9Q478 -9 456 -2T418 21T395 62T387 124V429H234V0H100V429H20V501H624V429H520V148Q520 116 529 102T556 88Q571 88 584 92T614 106L634 38V38Z" />
<glyph unicode="&#x2013;" glyph-name="endash.alt1" horiz-adv-x="500" d="M0 232V334H500V232H0Z" />
<glyph unicode="&#x2014;" glyph-name="emdash.alt1" horiz-adv-x="1000" d="M90 232V334H910V232H90Z" />
<glyph unicode="&#x2018;" glyph-name="quoteleft" horiz-adv-x="260" d="M222 711Q194 683 180 661T163 621T164 588T180 560Q193 545 195 526T190 489T166 460T126 448Q104 448 87 460T60 493T50 544T64 606T105 677T180 751L222 711V711Z" />
<glyph unicode="&#x2019;" glyph-name="quoteright" horiz-adv-x="260" d="M133 746Q154 746 172 734T199 701T209 650T195 588T153 517T79 443L37 483Q65 511 79 533T96 573T95 606T78 634Q65 649 63 668T68 705T92 734T133 746Z" />
<glyph unicode="&#x201a;" glyph-name="quotesinglbase" horiz-adv-x="249" d="M123 140Q146 140 164 128T191 94T201 43T187 -21T145 -92T68 -165L25 -124Q54 -98 68 -77T85 -37T84 -4T67 25Q54 41 53 61T58 98T82 128T123 140Z" />
<glyph unicode="&#x201c;" glyph-name="quotedblleft" horiz-adv-x="470" d="M432 711Q404 683 390 661T373 621T374 588T391 560Q403 545 405 526T400 489T376 460T336 448Q314 448 297 460T270 493T260 544T274 606T315 677T390 751L432 711V711ZM222 711Q194
683 180 661T163 621T164 588T180 560Q193 545 195 526T190 489T166 460T126 448Q104 448 87 460T60 493T50 544T64 606T105 677T180 751L222 711V711Z" />
<glyph unicode="&#x201d;" glyph-name="quotedblright" horiz-adv-x="470" d="M343 746Q364 746 382 734T409 701T419 650T405 588T363 517T289 443L247 483Q275 511 289 533T306 573T305 606T288 634Q275 649 273 668T278 705T302 734T343 746ZM133 746Q154 746
172 734T199 701T209 650T195 588T153 517T79 443L37 483Q65 511 79 533T96 573T95 606T78 634Q65 649 63 668T68 705T92 734T133 746Z" />
<glyph unicode="&#x201e;" glyph-name="quotedblbase" horiz-adv-x="460" d="M332 138Q354 138 372 126T399 93T408 43T395 -20T353 -91T279 -165L236 -124Q264 -97 278 -75T295 -35T294 -2T278 26Q265 42 263 61T268 98T292 126T332 138ZM122 138Q144 138 161
126T188 93T198 43T185 -20T143 -91T69 -165L26 -124Q54 -97 68 -75T85 -35T84 -2T68 26Q55 42 53 61T58 98T82 126T122 138Z" />
<glyph unicode="&#x2020;" glyph-name="dagger" horiz-adv-x="475" d="M272 477L308 329L274 0H201L167 329L202 477H39V552H202L167 727H308L272 552H436V477H272Z" />
<glyph unicode="&#x2021;" glyph-name="daggerdbl" horiz-adv-x="475" d="M272 254H436V179H272L308 0H167L202 179H39V254H202L167 367L202 484H39V559H202L167 727H308L272 559H436V484H272L308 367L272 254Z" />
<glyph unicode="&#x2022;" glyph-name="bullet.alt1" horiz-adv-x="429" d="M351 294Q351 265 340 240T309 195T265 165T210 154Q181 154 156 165T111 195T81 239T70 294Q70 323 81 348T111 393T155 423T210 434Q239 434 264 423T309 393T339 349T351 294Z" />
<glyph unicode="&#x2026;" glyph-name="ellipsis" horiz-adv-x="725" d="M670 65Q670 49 664 35T647 11T623 -5T594 -11Q578 -11 564 -5T540 11T524 35T518 65Q518 80 524 94T540 118T564 134T594 141Q609 141 623 135T647 118T663 94T670 65ZM435 65Q435 49 429
35T413 11T389 -5T359 -11Q343 -11 330 -5T306 11T289 35T283 65Q283 80 289 94T305 118T329 134T359 141Q375 141 388 135T412 118T429 94T435 65ZM200 65Q200 49 194 35T178 11T154 -5T124 -11Q109 -11 95 -5T71 11T55 35T49 65Q49 80 55 94T71 118T95 134T124
141Q140 141 154 135T178 118T194 94T200 65Z" />
<glyph unicode="&#x2030;" glyph-name="perthousand" horiz-adv-x="1087" d="M1053 163Q1053 123 1039 91T1001 37T947 2T885 -10Q851 -10 824 -1T777 28T746 77T735 147Q735 187 749 218T786 272T840 306T901 318Q933 318 961 309T1009 282T1041 234T1053 163ZM355
538Q355 499 341 467T303 413T249 378T186 365Q153 365 126 375T79 404T48 453T37 523Q37 562 51 593T88 647T142 682T202 694Q235 694 262 685T310 658T343 610T355 538ZM693 163Q693 123 679 91T641 37T587 2T524 -10Q491 -10 464 -1T417 28T386 77T375 147Q375
187 389 218T426 272T480 306T540 318Q573 318 600 309T648 282T681 234T693 163ZM145 -26L85 21L576 701L636 654L145 -26ZM957 146Q957 165 953 183T941 215T919 237T889 245Q861 245 846 224T831 166Q831 119 849 91T898 63Q927 63 942 83T957 146ZM259 521Q259
541 255 559T242 590T221 612T191 620Q164 620 149 599T133 541Q133 494 151 466T200 438Q229 438 244 459T259 521ZM597 146Q597 165 593 183T580 215T559 237T529 245Q501 245 486 224T471 166Q471 119 489 91T537 63Q567 63 582 83T597 146Z" />
<glyph unicode="&#x2039;" glyph-name="guilsinglleft.alt1" horiz-adv-x="328" d="M185 52L46 270L188 491L258 454L172 271L259 90L185 52Z" />
<glyph unicode="&#x203a;" glyph-name="guilsinglright.alt1" horiz-adv-x="328" d="M142 52L72 89L158 272L71 453L145 491L285 273L142 52Z" />
<glyph unicode="&#x2044;" glyph-name="fraction" horiz-adv-x="341" d="M-60 -24L-123 22L387 699L449 653L-60 -24Z" />
<glyph unicode="&#x20ac;" glyph-name="Euro" horiz-adv-x="609" d="M565 48Q529 25 483 8T376 -10Q247 -10 179 52T96 234H21V297H90Q90 304 90 311T90 327Q90 340 90 354T91 378H21V440H99Q123 562 194 623T397 684Q438 684 475 679T543 667V493H480Q470 513
463 534T451 577Q434 585 413 590T367 595Q309 595 280 555T241 440H396V378H235Q235 371 235 364T235 348Q235 335 235 323T237 297H396V234H246Q251 200 264 175T301 132T355 105T427 95Q462 95 494 103T549 122L565 48V48Z" />
<glyph unicode="&#x2122;" glyph-name="trademark" horiz-adv-x="846" d="M642 375V414Q650 420 658 425T676 432L654 587L590 375H530L463 587L448 432Q457 429 465 425T480 414V375H335V415Q344 420 352 425T371 432L410 616Q397 618 384 623T361 633V675H523L575
509L623 675H776V632Q765 626 753 622T729 616L766 433Q776 430 785 426T802 416V375H642ZM285 554Q277 570 272 587T264 621H225V438Q238 434 252 429T277 414V375H86V414Q97 423 111 428T137 438V621H98Q96 604 91 587T77 554H34V675H328V554H285Z" />
<glyph unicode="&#x2126;" glyph-name="Omega" horiz-adv-x="749" d="M434 0V82Q494 120 528 187T563 350Q563 401 551 446T515 524T456 577T375 596Q331 596 295 578T234 528T194 451T180 353Q180 258 211 193T312 82V0H61V88H194Q132 130 99 197T66 352Q66 424
88 485T152 591T251 661T382 686Q447 686 502 665T597 602T659 501T681 362Q681 317 672 276T645 200T603 137T548 88H684V0H434Z" />
<glyph unicode="&#x2206;" glyph-name="Delta" horiz-adv-x="705" d="M28 0L306 691H407L675 0H28ZM323 548L159 89H495L323 548Z" />
<glyph unicode="&#x2215;" glyph-name="fraction" horiz-adv-x="341" d="M-60 -24L-123 22L387 699L449 653L-60 -24Z" />
<glyph unicode="&#x221a;" glyph-name="radical" horiz-adv-x="520" d="M312 0H186L78 362L14 336V424L171 481L242 229Q250 204 255 179T266 128H267Q272 154 278 178T289 224L416 758H524L312 0Z" />
<glyph unicode="&#x221e;" glyph-name="infinity" horiz-adv-x="1000" d="M961 323Q961 286 944 251T896 190T824 147T732 131Q697 131 664 141T599 167T537 204T478 248Q448 226 418 205T358 167T298 141T236 131Q188 131 151 144T90 182T52 237T39 304Q39 341
56 376T103 437T176 480T268 496Q303 496 336 486T401 460T463 422T523 378Q552 401 582 422T643 459T703 486T764 496Q812 496 849 483T910 445T948 390T961 323ZM835 308Q835 327 828 343T806 370T774 388T733 394Q697 394 660 375T582 327Q606 308 628 291T672
262T714 241T756 233Q793 233 814 254T835 308ZM419 299Q395 318 373 335T329 365T286 386T244 394Q207 394 186 373T165 319Q165 300 172 284T194 257T226 239T267 233Q303 233 341 252T419 299Z" />
<glyph unicode="&#x25ca;" glyph-name="lozenge" horiz-adv-x="624" d="M351 -9H278L25 340L275 684H346L598 335L351 -9ZM307 557L154 343L316 118L471 331L307 557Z" />
<glyph unicode="&#xe040;" glyph-name="Circumflex" horiz-adv-x="445" d="M352 728L219 781L89 728L65 774L221 874L379 777L352 728Z" />
<glyph unicode="&#xe041;" glyph-name="Tilde" horiz-adv-x="482" d="M417 811Q408 797 396 784T368 761T336 746T302 741Q278 741 260 746T226 759T195 773T159 779Q138 779 123 772T95 752L65 795Q84 824 113 843T178 863Q200 863 218 857T252 844T284 831T319
825Q341 825 357 832T386 855L417 811V811Z" />
<glyph unicode="&#xf000;" glyph-name="" horiz-adv-x="1043" d="M161 364Q160 350 160 336T161 309L18 296Q15 316 15 336T18 377L161 364ZM141 662Q154 677 168 691T197 717L289 608Q280 600 269 590T250 570L141 662V662ZM550 688Q536 690 522 690T495 688L482
827Q502 829 522 829T561 827L550 688V688ZM846 716Q861 704 875 690T901 660L795 571Q786 580 775 591T756 609L846 716ZM1026 376Q1028 356 1028 336T1026 297L885 309Q886 322 886 336T885 364L1026 376V376ZM774 336Q774 285 756 241T707 166V86L691 82L723
6L692 -2L723 -75L691 -83L701 -107L671 -177H616Q612 -197 586 -210T522 -224Q483 -224 457 -211T428 -177H372L320 -50L351 -41L319 34L354 43L335 88V167Q306 199 288 242T269 336Q269 388 289 434T343 514T423 569T522 589Q574 589 620 569T700 515T754 434T774
336ZM451 192L435 324Q422 321 413 317T397 311Q390 309 386 317T380 335T381 356T389 368Q419 377 453 383T522 389Q558 389 591 383T656 368Q661 367 663 357T664 336T659 317T647 312Q639 315 630 318T607 324L593 192H646Q672 216 691 253T711 336Q711 375
696 410T656 470T596 511T522 526Q482 526 448 511T388 471T347 410T332 336Q332 294 349 257T398 192H451ZM562 331Q550 333 541 333T522 334Q512 334 502 334T480 331L495 192H549L562 331V331ZM398 142V93L413 58L645 117V142H398ZM632 68L396 7L410 -26L646
33L632 68ZM633 -16L396 -77L420 -134H624L636 -106L631 -94L559 -112L546 -74L647 -48L633 -16ZM510 358H508V364H507V357H510V358ZM513 362V359Q513 357 513 357T512 359V362H511V359Q511 357 512 357T514 359V362H513ZM518 358Q516 357 516 359T518 361V362Q516
363 516 360T518 357V358ZM522 355Q519 360 522 365Q520 365 520 360T522 355ZM525 357H526V360Q526 365 522 361Q524 361 525 360Q523 360 522 358T525 358V357ZM525 359Q523 357 523 358T525 359V359ZM528 357Q533 357 531 359T530 361V362Q525 362 528 360T528
358V357V357ZM531 355Q533 355 533 360T531 365Q534 360 531 355V355Z" />
<glyph unicode="&#xf001;" glyph-name="fi" horiz-adv-x="662" d="M375 0V50Q402 70 434 85V428H241V85Q257 78 274 69T304 50V0H27V50Q44 61 65 70T108 86V428H24V501H108V528Q108 579 124 619T172 687T252 728T365 742Q420 742 461 733T529 708T569 674T583
634Q583 620 577 608T560 586T535 572T504 567Q487 567 473 572T448 588T433 611T429 640Q413 655 386 664T329 673Q286 673 264 646T241 552V501H568V86Q589 79 606 70T638 50V0H375Z" />
<glyph unicode="&#xf002;" glyph-name="fl" horiz-adv-x="663" d="M375 0V50Q388 60 403 69T435 86V650Q425 654 414 656T390 661T365 665T341 666Q292 666 267 639T241 550V501H343V428H241V85Q257 79 275 69T307 50V0H27V50Q44 60 65 70T108 86V428H24V501H108V527Q108
580 124 619T173 684T253 722T365 735Q391 735 418 734T471 731T523 726T569 719V86Q589 80 607 70T640 50V0H375Z" />
<glyph unicode="&#xf080;" glyph-name="f_b" horiz-adv-x="939" d="M907 278Q907 212 887 159T830 69T742 11T628 -9Q576 -9 528 -3T435 16V650Q425 654 414 656T390 661T365 665T341 666Q292 666 267 639T241 550V501H343V428H241V85Q257 79 275 69T307 50V0H27V50Q44
60 65 70T108 86V428H24V501H108V527Q108 580 124 619T173 684T253 722T365 735Q391 735 418 734T471 731T523 726T569 719V508Q569 487 567 464T562 419H563Q572 438 587 455T621 485T664 505T715 513Q761 513 797 496T857 448T894 374T907 278ZM769 258Q769 293
763 323T743 375T711 409T667 421Q647 421 629 410T598 379T577 332T569 275V89Q585 79 605 73T651 66Q705 66 737 114T769 258Z" />
<glyph unicode="&#xf081;" glyph-name="f_h" horiz-adv-x="986" d="M697 0V47Q710 57 724 67T754 84Q756 121 757 169T759 264Q759 301 755 330T742 380T717 410T677 421Q650 421 630 410T597 378T576 332T569 278V84Q585 77 599 67T626 47V0H375V50Q389 60 404
69T435 86V650Q425 654 414 656T390 661T365 665T341 666Q292 666 267 639T241 550V501H343V428H241V85Q257 79 275 69T307 50V0H27V50Q44 60 65 70T108 86V428H24V501H108V527Q108 580 124 619T173 684T253 722T365 735Q391 735 418 734T471 731T523 726T569 719V505Q569
486 568 463T562 420L563 419Q572 439 587 456T624 485T672 505T730 513Q815 513 855 459T895 294Q895 270 895 243T894 188T892 134T889 86Q909 80 926 71T959 50V0H697Z" />
<glyph unicode="&#xf082;" glyph-name="f_k" horiz-adv-x="931" d="M749 0L569 248V85Q588 78 602 69T631 49V0H375V49Q390 60 404 69T435 86V650Q425 654 414 656T390 661T365 665T341 666Q292 666 267 639T241 550V501H343V428H241V85Q257 79 275 69T307 49V0H27V49Q44
60 65 70T108 86V428H24V501H108V527Q108 580 124 619T173 684T253 722T365 735Q391 735 418 734T472 731T523 726T569 719V275L702 423Q686 429 671 437T642 455V501H901V454Q886 445 869 437T834 424L697 294L859 81Q875 75 889 67T917 49V0H749Z" />
<glyph unicode="&#xf083;" glyph-name="f_j" horiz-adv-x="647" d="M583 634Q583 620 577 608T560 586T535 572T504 567Q487 567 473 572T448 588T433 611T429 640Q413 655 386 664T329 673Q286 673 264 646T241 552V501H568V-31Q568 -81 556 -116T519 -177T457
-219T372 -248L353 -187Q377 -179 393 -168T418 -141T430 -104T434 -51V428H241V86Q257 79 274 69T305 50V0H27V50Q44 61 65 71T108 87V428H24V501H108V528Q108 579 124 619T172 687T252 728T365 742Q420 742 461 733T529 708T569 674T583 634Z" />
<glyph unicode="&#xf6c9;" glyph-name="Acute" horiz-adv-x="368" d="M83 729L65 778L271 871L303 781L83 729Z" />
<glyph unicode="&#xf6ca;" glyph-name="Caron" horiz-adv-x="445" d="M224 727L65 825L93 873L226 820L356 873L379 828L224 727Z" />
<glyph unicode="&#xf6cb;" glyph-name="Dieresis" horiz-adv-x="473" d="M408 781Q408 755 390 737T345 718Q319 718 301 736T282 781Q282 807 300 825T345 844Q371 844 389 826T408 781ZM191 781Q191 755 173 737T128 718Q103 718 84 736T65 781Q65 807 84 825T128
844Q154 844 172 826T191 781Z" />
<glyph unicode="&#xf6ce;" glyph-name="Grave" horiz-adv-x="368" d="M285 729L65 782L97 871L303 778L285 729Z" />
<glyph unicode="&#xf724;" glyph-name="dollaroldstyle" horiz-adv-x="510" d="M464 194Q464 155 451 124T414 68T357 28T284 3V-124H206V-6Q166 -5 127 -1T58 11V190H120Q130 167 140 142T156 95Q170 87 189 83T235 79Q253 79 270 83T299 97T319 122T326 159Q326
193 305 213T253 249T185 277T117 310T64 363T43 449Q43 522 91 567T220 625V728H297V629Q331 629 363 626T424 617V453H362Q351 471 341 496T327 543Q314 547 296 549T260 552Q239 552 224 547T198 531T183 509T177 482Q177 449 198 429T251 393T320 364T390 329T443
276T464 194Z" />
<glyph unicode="&#xf730;" glyph-name="zerooldstyle" horiz-adv-x="658" d="M615 283Q615 215 591 161T525 69T430 10T317 -11Q257 -11 207 5T121 54T64 140T43 262Q43 329 67 383T133 476T227 534T340 555Q401 555 451 539T538 488T595 403T615 283ZM485 274Q485
315 475 349T444 408T394 446T324 460Q254 460 214 412T174 272Q174 230 184 196T215 137T265 99T336 85Q405 85 445 133T485 274Z" />
<glyph unicode="&#xf731;" glyph-name="oneoldstyle" horiz-adv-x="396" d="M42 0V51Q65 62 94 73T150 89V441L47 399L27 459L190 547H285V89Q304 83 323 73T364 51V0H42Z" />
<glyph unicode="&#xf732;" glyph-name="twooldstyle" horiz-adv-x="494" d="M450 0H40V76L154 182Q220 243 255 296T290 392Q290 431 271 454T209 477Q191 477 178 473T152 460Q147 440 138 416T115 371H52L58 523Q132 555 232 555Q285 555 323 544T386 511T422
463T434 403Q434 344 392 290T270 175L177 96V95H357Q362 110 371 131T394 176H456L450 0Z" />
<glyph unicode="&#xf733;" glyph-name="threeoldstyle" horiz-adv-x="486" d="M447 64Q447 16 423 -27T358 -102T261 -152T142 -170Q110 -170 78 -167T18 -156L34 -56Q63 -68 97 -74T168 -81Q198 -81 223 -74T266 -52T294 -13T304 44Q304 78 289 104T244 145T172
166T78 167V240Q131 239 170 250T235 281T273 325T286 380Q286 425 263 451T194 478Q181 478 171 475T150 467Q144 446 136 422T115 379H52L57 528Q89 540 129 547T218 555Q272 555 311 544T375 511T412 460T424 398Q424 370 414 346T386 300T344 263T293 238V236Q366
228 406 181T447 64Z" />
<glyph unicode="&#xf734;" glyph-name="fouroldstyle" horiz-adv-x="563" d="M438 21V-76Q458 -83 477 -92T512 -111V-164H226V-111Q244 -99 263 -91T305 -76V21H32L14 112L281 546H438V124H543V21H438ZM306 436H305L115 124H306V436Z" />
<glyph unicode="&#xf735;" glyph-name="fiveoldstyle" horiz-adv-x="480" d="M437 82Q437 28 414 -18T349 -98T253 -151T134 -171Q110 -171 84 -169T34 -162L46 -60Q73 -69 103 -74T168 -80Q203 -80 228 -71T270 -44T295 -3T304 49Q304 81 292 108T258 154T203
183T126 194Q112 194 97 193T69 190L95 546H394V437H178L165 297Q234 297 284 280T369 234T420 166T437 82Z" />
<glyph unicode="&#xf736;" glyph-name="sixoldstyle" horiz-adv-x="600" d="M555 229Q555 177 536 133T482 57T400 7T296 -11Q241 -11 197 8T121 64T72 154T55 276Q55 383 82 462T158 595T275 676T426 703Q446 703 465 702T500 697L492 618Q475 622 454 623T411
625Q365 625 330 609T268 565T226 498T200 413Q198 406 197 395T192 373L193 372Q220 405 255 423T343 442Q390 442 429 427T496 384T539 317T555 229ZM420 215Q420 248 412 275T388 322T352 352T304 363Q276 363 256 352T223 321T204 277T197 226Q197 194 204
166T227 115T264 79T316 66Q342 66 362 77T394 107T413 154T420 215Z" />
<glyph unicode="&#xf737;" glyph-name="sevenoldstyle" horiz-adv-x="492" d="M456 460Q394 327 343 173T250 -164H105Q131 -65 161 19T221 177T284 315T346 439H120Q113 415 104 395T83 356H19L27 546H456V460V460Z" />
<glyph unicode="&#xf738;" glyph-name="eightoldstyle" horiz-adv-x="569" d="M520 185Q520 138 500 102T447 40T368 2T273 -11Q220 -11 179 1T108 36T64 90T49 162Q49 195 61 222T94 271T141 310T194 343L178 352Q123 382 90 423T57 519Q57 562 75 597T124 657T197
695T291 709Q340 709 380 697T448 663T492 610T508 542Q508 515 499 493T471 453T428 417T371 384Q402 368 429 348T477 303T508 249T520 185ZM379 538Q379 558 373 575T354 606T323 627T280 635Q257 635 240 628T211 607T195 576T190 541Q190 521 196 505T216
475T249 449T294 422L302 418Q325 433 339 447T362 475T375 505T379 538ZM387 164Q387 186 379 204T357 237T323 267T279 296L264 305Q221 276 202 245T182 172Q182 150 189 131T210 97T245 74T295 66Q315 66 332 72T361 92T380 123T387 164Z" />
<glyph unicode="&#xf739;" glyph-name="nineoldstyle" horiz-adv-x="595" d="M539 262Q539 162 513 82T436 -54T312 -140T146 -170Q132 -170 107 -168T61 -160L76 -69Q96 -77 121 -80T184 -83Q262 -83 314 -30T388 120Q390 128 392 141T397 164L396 165Q372 136
335 118T247 99Q199 99 161 114T96 156T54 222T39 308Q39 361 58 406T111 485T193 536T295 555Q350 555 395 538T472 484T521 392T539 262ZM396 314Q396 350 388 380T365 432T327 466T277 478Q251 478 232 467T199 436T179 389T172 330Q172 263 203 223T290 182Q315
182 335 192T368 220T389 262T396 314Z" />
<glyph unicode="&#xf7a2;" glyph-name="centoldstyle" horiz-adv-x="505" d="M454 70Q428 56 397 47T331 34V-68H257V32Q212 36 175 51T111 96T69 167T54 264Q54 320 67 363T107 438T171 489T257 516V607H331V519Q361 518 390 514T443 502V352H383Q374 371 367
391T358 435Q347 439 332 441T300 443Q272 443 250 433T213 402T191 352T183 286Q183 242 193 210T223 157T270 128T330 118Q358 118 386 123T442 141L454 70V70Z" />
<glyph unicode="&#xf8ff;" glyph-name="" horiz-adv-x="1043" d="M161 364Q160 350 160 336T161 309L18 296Q15 316 15 336T18 377L161 364ZM141 662Q154 677 168 691T197 717L289 608Q280 600 269 590T250 570L141 662V662ZM550 688Q536 690 522 690T495 688L482
827Q502 829 522 829T561 827L550 688V688ZM846 716Q861 704 875 690T901 660L795 571Q786 580 775 591T756 609L846 716ZM1026 376Q1028 356 1028 336T1026 297L885 309Q886 322 886 336T885 364L1026 376V376ZM774 336Q774 285 756 241T707 166V86L691 82L723
6L692 -2L723 -75L691 -83L701 -107L671 -177H616Q612 -197 586 -210T522 -224Q483 -224 457 -211T428 -177H372L320 -50L351 -41L319 34L354 43L335 88V167Q306 199 288 242T269 336Q269 388 289 434T343 514T423 569T522 589Q574 589 620 569T700 515T754 434T774
336ZM451 192L435 324Q422 321 413 317T397 311Q390 309 386 317T380 335T381 356T389 368Q419 377 453 383T522 389Q558 389 591 383T656 368Q661 367 663 357T664 336T659 317T647 312Q639 315 630 318T607 324L593 192H646Q672 216 691 253T711 336Q711 375
696 410T656 470T596 511T522 526Q482 526 448 511T388 471T347 410T332 336Q332 294 349 257T398 192H451ZM562 331Q550 333 541 333T522 334Q512 334 502 334T480 331L495 192H549L562 331V331ZM398 142V93L413 58L645 117V142H398ZM632 68L396 7L410 -26L646
33L632 68ZM633 -16L396 -77L420 -134H624L636 -106L631 -94L559 -112L546 -74L647 -48L633 -16ZM510 358H508V364H507V357H510V358ZM513 362V359Q513 357 513 357T512 359V362H511V359Q511 357 512 357T514 359V362H513ZM518 358Q516 357 516 359T518 361V362Q516
363 516 360T518 357V358ZM522 355Q519 360 522 365Q520 365 520 360T522 355ZM525 357H526V360Q526 365 522 361Q524 361 525 360Q523 360 522 358T525 358V357ZM525 359Q523 357 523 358T525 359V359ZM528 357Q533 357 531 359T530 361V362Q525 362 528 360T528
358V357V357ZM531 355Q533 355 533 360T531 365Q534 360 531 355V355Z" />
<glyph unicode="&#xfb00;" glyph-name="ff" horiz-adv-x="707" d="M692 581Q683 596 676 616T663 656Q655 661 645 663T625 665Q590 665 578 642T565 575V501H691V428H565V86Q587 80 608 71T649 50V0H372V47Q385 58 400 67T432 84V428H241V84Q257 77 274 68T305
47V0H27V50Q44 61 65 70T108 86V428H24V501H108V511Q108 565 123 605T170 673T246 714T350 728Q389 728 426 722T496 703Q519 718 552 726T634 735Q666 735 696 732T750 721V581H692ZM447 627Q422 640 393 649T332 658Q287 658 264 630T241 550V501H432V550Q432
573 435 592T447 627Z" />
<glyph unicode="&#xfb01;" glyph-name="fi" horiz-adv-x="662" d="M375 0V50Q402 70 434 85V428H241V85Q257 78 274 69T304 50V0H27V50Q44 61 65 70T108 86V428H24V501H108V528Q108 579 124 619T172 687T252 728T365 742Q420 742 461 733T529 708T569 674T583
634Q583 620 577 608T560 586T535 572T504 567Q487 567 473 572T448 588T433 611T429 640Q413 655 386 664T329 673Q286 673 264 646T241 552V501H568V86Q589 79 606 70T638 50V0H375Z" />
<glyph unicode="&#xfb02;" glyph-name="fl" horiz-adv-x="663" d="M375 0V50Q388 60 403 69T435 86V650Q425 654 414 656T390 661T365 665T341 666Q292 666 267 639T241 550V501H343V428H241V85Q257 79 275 69T307 50V0H27V50Q44 60 65 70T108 86V428H24V501H108V527Q108
580 124 619T173 684T253 722T365 735Q391 735 418 734T471 731T523 726T569 719V86Q589 80 607 70T640 50V0H375Z" />
<glyph unicode="&#xfb03;" glyph-name="ffi" horiz-adv-x="987" d="M699 0V50Q712 60 726 69T758 85V428H565V85Q582 79 598 69T628 50V0H373V49Q386 59 400 68T432 85V428H241V85Q257 78 274 69T304 50V0H27V50Q44 61 65 70T108 86V428H24V501H108V513Q108 567
124 607T171 675T248 716T352 730Q391 730 433 723T517 702Q548 722 591 732T689 742Q744 742 785 733T853 709T894 674T907 634Q907 620 901 608T884 586T859 572T828 567Q811 567 797 572T773 588T757 611T754 640Q737 655 711 664T653 673Q610 673 588 646T565
552V501H892V86Q913 79 930 70T962 50V0H699ZM454 627Q425 644 396 652T336 660Q289 660 265 632T241 553V501H432V528Q432 557 437 582T454 627Z" />
<glyph unicode="&#xfb04;" glyph-name="ffl" horiz-adv-x="990" d="M701 0V50Q712 60 727 69T761 85V650Q751 655 738 659T712 667T684 671T659 673Q609 673 587 645T565 559V501H667V428H565V85Q583 79 600 69T628 50V0H373V49Q386 59 400 68T432 85V428H241V85Q257
78 274 69T304 50V0H27V50Q44 61 65 70T108 86V428H24V501H108V513Q108 567 124 607T171 675T248 716T352 730Q391 730 431 723T515 701Q547 722 590 732T690 742Q741 742 792 737T894 722V86Q914 79 932 70T965 50V0H701ZM454 627Q425 644 396 652T336 660Q289
660 265 632T241 553V501H432V527Q432 557 437 582T454 627Z" />
</font>
</defs>
</svg>
