<?xml version="1.0" standalone="no"?>
<!DOCTYPE svg PUBLIC "-//W3C//DTD SVG 1.1//EN" "http://www.w3.org/Graphics/SVG/1.1/DTD/svg11.dtd" >
<svg xmlns="http://www.w3.org/2000/svg">
<metadata></metadata>
<defs>
<font id="theantiquabw6_semibold" horiz-adv-x="1126" >
<font-face units-per-em="2048" ascent="1516" descent="-532" />
<missing-glyph horiz-adv-x="446" />
<glyph unicode="&#x2e;&#x2e;&#x2e;" horiz-adv-x="1476" d="M106 125q0 61 41 102t103 41t102.5 -41t40.5 -102q0 -62 -41 -103.5t-102 -41.5t-102.5 41.5t-41.5 103.5zM584 125q0 61 41.5 102t103.5 41q61 0 102 -41t41 -102q0 -62 -41 -103.5t-102 -41.5t-103 42t-42 103zM1063 125q0 62 41 102.5t104 40.5q62 0 103 -41t41 -102 q0 -62 -41.5 -103.5t-102.5 -41.5q-63 0 -104 41.5t-41 103.5z" />
<glyph unicode="&#xfb03;" horiz-adv-x="1964" d="M45 901v123h191v39q0 213 129 327.5t356 114.5q157 0 340 -53q125 84 328 84q184 0 297.5 -55.5t113.5 -147.5q0 -58 -39 -96.5t-102 -38.5t-102 37t-39 96q0 28 10 41q-81 49 -185 49q-117 0 -173 -69t-56 -224v-104h655v-879q35 -11 71 -27.5t54 -27.5l19 -10v-80h-506 v80q65 36 135 65v756h-428v-758q36 -13 69.5 -28.5t49.5 -24.5l16 -10v-80h-491v78q49 36 127 65v758h-422v-758q36 -13 70.5 -28.5t50.5 -24.5l16 -10v-80h-530v80q68 38 166 65v756h-191zM463 1024h422v55q0 146 63 250q-107 55 -252 55q-233 0 -233 -262v-98z" />
<glyph unicode="&#xfb04;" horiz-adv-x="1961" d="M45 901v123h191v55q0 213 121 317.5t350 104.5q179 0 340 -49q122 74 323 74q88 0 187.5 -9t155.5 -19l56 -9v-1344q35 -11 70.5 -27.5t53.5 -27.5l18 -10v-80h-500v76q57 40 129 67v1229q-99 35 -205 35q-115 0 -168 -64.5t-53 -214.5v-104h225v-123h-225v-758 q36 -14 70.5 -30.5t50.5 -26.5l16 -10v-76h-503v76q57 36 137 67v758h-422v-758q36 -14 70.5 -30.5t50.5 -26.5l16 -10v-76h-530v80q68 38 166 65v756h-191zM463 1024h422v80q0 144 55 227q-116 55 -256 55q-114 0 -167.5 -64t-53.5 -208v-90z" />
<glyph horiz-adv-x="1024" />
<glyph horiz-adv-x="1024" />
<glyph horiz-adv-x="682" />
<glyph unicode="&#xd;" horiz-adv-x="1024" />
<glyph unicode=" "  horiz-adv-x="446" />
<glyph unicode="&#x09;" horiz-adv-x="446" />
<glyph unicode="&#xa0;" horiz-adv-x="446" />
<glyph unicode="!" horiz-adv-x="630" d="M172 121q0 62 40 101.5t103 39.5q62 0 102 -40t40 -101q0 -60 -40.5 -99.5t-101.5 -39.5q-63 0 -103 39.5t-40 99.5zM186 1450h258l-61 -1059h-131z" />
<glyph unicode="&#x22;" horiz-adv-x="759" d="M104 1518h203l-51 -478h-102zM453 1518h202l-51 -478h-102z" />
<glyph unicode="#" horiz-adv-x="1415" d="M59 387v115h297l45 418h-284v114h297l37 348h180l-35 -348h293l35 348h182l-35 -348h283v-114h-295l-45 -418h282v-115h-295l-40 -387h-183l41 387h-293l-41 -387h-182l41 387h-285zM539 502h292l46 418h-293z" />
<glyph unicode="$" horiz-adv-x="1028" d="M102 928q0 144 97.5 235t261.5 115v213h127v-207q139 -3 256 -27v-321h-96q-54 93 -72 194q-72 21 -156 21q-91 0 -141.5 -47.5t-50.5 -114.5q0 -53 26 -94.5t68 -67.5t96 -51t110 -45.5t110 -51.5t96 -67.5t68 -96t26 -134.5q0 -152 -102.5 -251t-268.5 -130v-268h-127 v256q-181 0 -301 35v350h98q55 -125 74 -203q66 -39 180 -39q93 0 153 45t60 141q0 63 -32.5 108.5t-85 73.5t-115.5 52.5t-126 53.5t-115.5 67t-85 103t-32.5 153z" />
<glyph unicode="%" horiz-adv-x="1677" d="M98 1026q0 176 97 274.5t239 98.5q140 0 224.5 -87.5t84.5 -269.5q0 -176 -97.5 -274t-239.5 -98q-139 0 -223.5 87t-84.5 269zM252 20l1085 1418l95 -76l-1086 -1417zM272 1047q0 -126 39.5 -193.5t116.5 -67.5q65 0 102 60t37 176q0 126 -38.5 193t-114.5 67 q-65 0 -103.5 -60t-38.5 -175zM936 340q0 176 97 274.5t239 98.5q140 0 224.5 -87.5t84.5 -269.5q0 -176 -98 -274t-240 -98q-139 0 -223 87t-84 269zM1110 360q0 -126 39.5 -193t116.5 -67q65 0 102 60t37 176q0 126 -39 193t-115 67q-65 0 -103 -60.5t-38 -175.5z" />
<glyph unicode="&#x26;" horiz-adv-x="1660" d="M100 360q0 71 22.5 132.5t66.5 113t87.5 89t108.5 83.5q-203 227 -203 387q0 155 116 249.5t320 94.5q158 0 258.5 -75t100.5 -191q0 -51 -18 -101t-43.5 -88t-70.5 -81.5t-80.5 -72.5t-92.5 -71q138 -152 452 -421q90 155 90 378q-57 13 -129 62v76h445v-78 q-57 -40 -125 -58q-18 -266 -166 -473q171 -142 207 -172q86 -32 127 -65v-78h-322q-21 18 -58 48.5t-67.5 55.5t-56.5 48q-213 -172 -508 -172q-217 0 -339 107.5t-122 272.5zM340 418q0 -128 91.5 -203.5t236.5 -75.5q173 0 293 99q-309 264 -476 444q-69 -63 -107 -125.5 t-38 -138.5zM420 1223q0 -122 162 -305q80 66 123 131t43 149q0 79 -45.5 137t-129.5 58q-70 0 -111.5 -48.5t-41.5 -121.5z" />
<glyph unicode="'" horiz-adv-x="411" d="M104 1518h203l-51 -478h-102z" />
<glyph unicode="(" horiz-adv-x="634" d="M123 582q0 542 342 1009l110 -59q-119 -199 -180 -441.5t-61 -498.5q0 -536 248 -952l-117 -62q-188 259 -265 505.5t-77 498.5z" />
<glyph unicode=")" horiz-adv-x="634" d="M53 1530l117 61q187 -259 263.5 -506t76.5 -497q0 -542 -340 -1010l-113 60q120 199 181 441.5t61 498.5q0 535 -246 952z" />
<glyph unicode="*" horiz-adv-x="768" d="M76 1102l243 92l-243 92l71 125l201 -164l-41 256h144l-41 -256l200 164l70 -123l-244 -92l244 -92l-72 -125l-198 164l39 -256h-144l41 256l-201 -164z" />
<glyph unicode="+" d="M66 481v154h409v434h176v-434h410v-154h-410v-436h-176v436h-409z" />
<glyph unicode="," horiz-adv-x="493" d="M47 -242q186 156 84 287q-27 33 -31 72.5t12 72t50 54.5t78 22q81 0 123 -71q51 -84 10 -205q-55 -163 -254 -303z" />
<glyph unicode="-" horiz-adv-x="649" d="M84 506v162h479v-162h-479z" />
<glyph unicode="." horiz-adv-x="499" d="M102 127q0 63 42.5 105t105.5 42t105 -42t42 -105t-42 -105t-105 -42t-105.5 42t-42.5 105z" />
<glyph unicode="/" horiz-adv-x="919" d="M0 -311l723 1898l168 -55l-723 -1897z" />
<glyph unicode="0" horiz-adv-x="1308" d="M92 532q0 108 32 204t88 167.5t129.5 124t160 79t176.5 26.5q118 0 215 -34.5t169 -101.5t112 -173.5t40 -243.5q0 -134 -49 -248.5t-130 -190.5t-186.5 -118.5t-219.5 -42.5q-117 0 -214.5 34.5t-170 101.5t-112.5 173t-40 243zM334 555q0 -123 34.5 -217.5t111 -153.5 t186.5 -59q147 0 227 114t80 318q0 123 -34 217.5t-110 153.5t-186 59q-148 0 -228.5 -114t-80.5 -318z" />
<glyph unicode="1" horiz-adv-x="790" d="M63 940l328 176h158v-964q19 -5 41 -13.5t37 -15t44.5 -21t43.5 -20.5v-82h-619v82q144 59 223 70v780l-221 -90z" />
<glyph unicode="2" horiz-adv-x="1007" d="M92 0v127l275 254q262 246 262 422q0 96 -49 148.5t-150 52.5q-68 0 -127 -41q-27 -105 -80 -187h-98l12 293q149 64 338 64q201 0 299 -84t98 -224q0 -114 -79.5 -223.5t-241.5 -239.5l-223 -194v-2h415q24 84 76 178h101l-15 -344h-813z" />
<glyph unicode="3" horiz-adv-x="985" d="M45 -324l31 177q127 -52 282 -52q134 0 213.5 68.5t79.5 212.5q0 154 -129.5 226t-351.5 48v123q208 -3 325 81.5t117 221.5q0 103 -54.5 162.5t-160.5 59.5q-49 0 -102 -29q-32 -116 -76 -184h-98l8 286q138 56 315 56q201 0 303.5 -89t102.5 -229q0 -114 -80 -204.5 t-203 -133.5v-4q153 -13 241.5 -110t88.5 -244q0 -129 -83 -238t-222.5 -171t-300.5 -62q-142 0 -246 28z" />
<glyph unicode="4" horiz-adv-x="1138" d="M31 197l575 917h264v-895h232v-178h-232v-234q85 -28 152 -65v-84h-541v84q71 43 160 65v234h-582zM203 219h442v705h-2z" />
<glyph unicode="5" horiz-adv-x="980" d="M80 -336l22 180q103 -41 252 -41q143 0 219 81.5t76 209.5q0 145 -97 233.5t-286 88.5q-58 0 -108 -6l55 704h592v-190h-453l-30 -328q139 0 248 -35t176.5 -96t102 -140t34.5 -171q0 -139 -81 -256.5t-221.5 -185.5t-306.5 -68q-113 0 -194 20z" />
<glyph unicode="6" horiz-adv-x="1226" d="M131 565q0 219 55 388t155 275.5t234 161t297 54.5q90 0 150 -14l-14 -134q-80 17 -168 17q-99 0 -179.5 -36.5t-136 -103.5t-92 -154.5t-55.5 -195.5q-3 -34 -17 -90l2 -2q124 174 334 174q192 0 311 -120t119 -316q0 -213 -145.5 -351t-370.5 -138q-226 0 -352.5 155 t-126.5 430zM375 465q0 -145 72.5 -249.5t201.5 -104.5q121 0 183.5 89t62.5 240q0 146 -74.5 236t-195.5 90q-84 0 -142 -44.5t-83 -110.5t-25 -146z" />
<glyph unicode="7" horiz-adv-x="985" d="M41 754l16 360h854v-147q-263 -564 -434 -1309h-246q41 154 94 312t92.5 261.5t111.5 263t98.5 215t105.5 218.5h-516q-23 -90 -76 -174h-100z" />
<glyph unicode="8" horiz-adv-x="1155" d="M113 328q0 67 25.5 125t75 105.5t95 79.5t113.5 71l-23 12q-266 144 -266 354q0 167 128.5 272t330.5 105q190 0 307 -93t117 -241q0 -104 -70.5 -179.5t-220.5 -158.5q317 -166 317 -411q0 -118 -68.5 -208t-178 -135.5t-240.5 -45.5q-208 0 -325 95t-117 253zM342 346 q0 -103 66.5 -169t193.5 -66q91 0 150 60t59 159q0 95 -63 163t-191 140l-20 10q-101 -64 -148 -135t-47 -162zM360 1112q0 -84 56.5 -142.5t181.5 -125.5l12 -6q105 68 144 129t39 143q0 92 -60 153.5t-168 61.5q-99 0 -152 -60.5t-53 -152.5z" />
<glyph unicode="9" horiz-adv-x="1218" d="M90 633q0 217 144.5 358.5t369.5 141.5q226 0 354.5 -149.5t128.5 -446.5q0 -423 -210 -656t-576 -233q-85 0 -166 20l27 156q89 -29 223 -29q169 0 283.5 120.5t160.5 340.5q4 17 19 104h-2q-119 -157 -330 -157q-195 0 -310.5 118t-115.5 312zM319 672 q0 -146 74.5 -235t200.5 -89q114 0 182 83t68 204q0 163 -75.5 266t-203.5 103q-116 0 -181 -93t-65 -239z" />
<glyph unicode=":" horiz-adv-x="616" d="M193 127q0 63 42 105t105 42q62 0 103.5 -42t41.5 -105t-41.5 -105t-103.5 -42q-63 0 -105 42t-42 105zM193 733q0 63 42 105.5t105 42.5q62 0 103.5 -42.5t41.5 -105.5q0 -61 -41.5 -103t-103.5 -42q-63 0 -105 41.5t-42 103.5z" />
<glyph unicode=";" horiz-adv-x="610" d="M135 -242q186 156 84 287q-27 33 -31 72.5t12 72t50 54.5t78 22q81 0 123 -71q51 -84 10 -205q-55 -163 -254 -303zM184 733q0 63 42.5 105.5t105.5 42.5q62 0 103.5 -42.5t41.5 -105.5q0 -61 -41.5 -103t-103.5 -42q-63 0 -105.5 41.5t-42.5 103.5z" />
<glyph unicode="&#x3c;" d="M150 557l647 592l125 -125l-525 -465l527 -453l-125 -133z" />
<glyph unicode="=" d="M106 285v157h914v-157h-914zM106 670v157h914v-157h-914z" />
<glyph unicode="&#x3e;" d="M203 1018l125 133l649 -584l-647 -592l-125 125l524 465z" />
<glyph unicode="?" horiz-adv-x="868" d="M147 1278l29 190q132 -7 242.5 -42.5t183 -89t112.5 -120.5t40 -139q0 -55 -23.5 -103t-58.5 -82t-76.5 -73t-77 -75t-60 -88.5t-25.5 -114t26 -150.5h-197q-25 70 -27.5 129.5t13 102t42 81.5t59.5 68t66.5 61.5t61 61.5t45 69t17.5 83q0 92 -110.5 156t-281.5 75z M227 121q0 62 40.5 101.5t103.5 39.5q61 0 101 -40t40 -101q0 -60 -40 -99.5t-101 -39.5q-63 0 -103.5 39.5t-40.5 99.5z" />
<glyph unicode="@" horiz-adv-x="2048" d="M135 475q0 214 81.5 402.5t220 320t326.5 207.5t396 76q185 0 327.5 -51t230.5 -142t132.5 -209t44.5 -258q0 -138 -48.5 -257.5t-129 -200.5t-186.5 -127t-221 -46q-186 0 -183 220q-46 -81 -144.5 -150.5t-203.5 -69.5q-83 0 -134.5 69.5t-51.5 191.5q0 126 34 233 t101 190t177.5 130t252.5 47q92 0 217 -25l-82 -442q-21 -122 1 -188t81 -66q127 0 226.5 120.5t99.5 303.5q0 97 -19.5 180.5t-66 159t-117.5 128.5t-180.5 84t-249.5 31q-203 0 -370 -105t-262 -286.5t-95 -400.5q0 -666 684 -666q217 0 375 68l43 -94 q-110 -61 -249 -98.5t-273 -37.5q-367 0 -576 200t-209 558zM780 528q0 -106 20 -148t60 -42q85 0 166.5 116.5t114.5 297.5l28 151q-56 29 -120 29q-79 0 -143 -67.5t-95 -158.5t-31 -178z" />
<glyph unicode="A" horiz-adv-x="1374" d="M25 0v80q50 41 114 67l453 1246h190l455 -1248q77 -36 113 -67v-78h-514v78q61 43 147 69l-78 213h-504l-65 -213q67 -25 131 -69v-78h-442zM434 481h430l-231 647h-2z" />
<glyph unicode="B" horiz-adv-x="1265" d="M68 0v80q76 46 161 70v1083q-77 23 -161 72v77h163q39 0 189 4.5t252 4.5q463 0 463 -324q0 -108 -69.5 -194t-178.5 -115v-2q130 -18 218.5 -112t88.5 -226q0 -184 -156 -304t-434 -120q-33 0 -163.5 3t-207.5 3h-165zM463 147q101 -26 188 -26q144 0 218.5 75t74.5 201 q0 134 -96 199.5t-260 65.5q-82 0 -125 -3v-512zM463 778q33 -2 141 -2q142 0 214.5 70t72.5 184q0 53 -13 93t-43.5 74.5t-89.5 52.5t-143 18q-69 0 -139 -11v-479z" />
<glyph unicode="C" horiz-adv-x="1239" d="M76 668q0 139 35.5 258t99.5 205t151 147t191.5 91t220.5 30q186 0 338 -41v-357h-108q-49 96 -68 205q-90 43 -221 43q-176 0 -278.5 -140t-102.5 -396q0 -265 119.5 -414t351.5 -149q165 0 311 73l33 -119q-195 -124 -444 -124q-300 0 -464.5 177t-164.5 511z" />
<glyph unicode="D" horiz-adv-x="1480" d="M68 0v80q88 48 161 70v1083q-82 24 -161 72v77h163q47 0 212 4.5t255 4.5q709 0 709 -668q0 -177 -61 -317.5t-169 -230t-252 -136.5t-315 -47q-79 0 -213 4t-164 4h-165zM463 158q96 -29 246 -29q91 0 170.5 35t142.5 102.5t99 177.5t36 250q0 102 -18 188t-57.5 158 t-100 122t-149 78t-199.5 28q-35 0 -170 -11v-1099z" />
<glyph unicode="E" horiz-adv-x="1114" d="M68 0v80q75 45 161 70v1083q-38 12 -78.5 30t-61.5 30l-21 12v77h913v-317h-104q-45 88 -68 192h-346v-487h278q9 31 24.5 64t26.5 50l11 17h90v-377h-90q-42 59 -62 129h-278v-524h348q10 44 27.5 94.5t29.5 79.5l13 29h106v-332h-919z" />
<glyph unicode="F" horiz-adv-x="1052" d="M68 0v80q102 54 161 70v1083q-70 20 -161 72v77h903v-319h-105q-55 119 -67 194h-336v-503h274q23 71 64 133h92v-383h-92q-52 85 -64 133h-274v-487q73 -20 168 -70v-80h-563z" />
<glyph unicode="G" horiz-adv-x="1445" d="M76 668q0 176 56 316.5t156.5 231.5t238.5 139t304 48q215 0 408 -51v-351h-106q-45 89 -70 197q-142 59 -299 59q-214 0 -323 -142t-109 -402q0 -273 129 -424.5t370 -151.5q105 0 201 35v377q-86 24 -155 74v82h507v-84q-66 -51 -120 -70v-442q-223 -129 -521 -129 q-324 0 -495.5 178.5t-171.5 509.5z" />
<glyph unicode="H" horiz-adv-x="1597" d="M68 0v80q102 54 161 70v1083q-55 16 -161 72v77h542v-77q-90 -54 -147 -72v-447h672v447q-52 16 -150 72v77h543v-77q-98 -54 -162 -72v-1083q69 -19 162 -70v-80h-543v80q85 51 150 70v497h-672v-497q59 -17 147 -70v-80h-542z" />
<glyph unicode="I" horiz-adv-x="692" d="M68 0v80q77 45 161 70v1083q-37 12 -77.5 30t-61.5 30l-22 12v77h557v-77q-76 -45 -162 -72v-1083q38 -11 78.5 -28.5t62.5 -29.5l21 -12v-80h-557z" />
<glyph unicode="J" horiz-adv-x="657" d="M41 -221q51 32 81 61t53 76.5t32.5 115t9.5 169.5v1032q-57 16 -160 72v77h529v-77q-73 -54 -135 -72v-1055q0 -105 -20.5 -183t-66 -136.5t-102 -100.5t-143.5 -88z" />
<glyph unicode="K" horiz-adv-x="1411" d="M68 0v80q102 54 161 70v1083q-55 16 -161 72v77h534v-77q-68 -46 -139 -72v-504l479 504q-41 15 -121 72v77h500v-79q-78 -51 -139 -72l-500 -463l573 -616q65 -31 121 -72v-80h-551v80q68 52 115 70l-477 522v-522q60 -18 141 -70v-80h-536z" />
<glyph unicode="L" horiz-adv-x="1062" d="M68 0v80q102 54 161 70v1083q-55 16 -161 72v77h557v-77q-98 -54 -162 -72v-1104l368 16q22 98 74 224h105v-369h-942z" />
<glyph unicode="M" horiz-adv-x="1918" d="M55 0v80q56 46 109 70l139 1079q-68 23 -156 76v77h422l394 -1038l380 1038h424v-77q-87 -55 -155 -76l145 -1077q50 -25 113 -72v-80h-508v78q89 60 145 76l-110 962h-2l-400 -1116h-157l-414 1106h-4l-68 -956q75 -24 140 -72v-78h-437z" />
<glyph unicode="N" horiz-adv-x="1501" d="M70 0v80q103 61 153 76l13 1077q-69 17 -166 72v77h411l674 -1015l-31 860q-51 17 -143 78v77h440v-77q-85 -61 -127 -78v-1239h-182l-750 1138l44 -970q79 -31 149 -76v-80h-485z" />
<glyph unicode="O" horiz-adv-x="1513" d="M76 666q0 171 56 311.5t153.5 233t227 142.5t278.5 50q306 0 476.5 -180.5t170.5 -505.5q0 -171 -56 -311.5t-153.5 -233t-227 -142.5t-278.5 -50q-306 0 -476.5 180.5t-170.5 505.5zM330 707q0 -260 122.5 -420t333.5 -160q187 0 292.5 143.5t105.5 405.5 q0 260 -123 420.5t-334 160.5q-187 0 -292 -144t-105 -406z" />
<glyph unicode="P" horiz-adv-x="1212" d="M68 0v80q77 45 161 70v1083q-36 11 -76.5 29t-62.5 30l-22 13v77h141q18 0 183.5 4.5t271.5 4.5q232 0 358.5 -105.5t126.5 -308.5q0 -134 -74.5 -242.5t-205 -169.5t-291.5 -61l-115 4v-358q42 -13 83.5 -30.5t61.5 -28.5l21 -11v-80h-561zM463 666q68 -29 174 -29 q123 0 196.5 81.5t73.5 227.5q0 150 -79.5 236t-233.5 86q-58 0 -131 -15v-587z" />
<glyph unicode="Q" horiz-adv-x="1513" d="M76 666q0 171 56 311.5t153.5 233t227 142.5t278.5 50q306 0 476.5 -180.5t170.5 -505.5q0 -259 -123 -435t-328 -235q34 4 68 4q50 0 99 -9q80 -15 141 -44t114 -59t103.5 -52t89.5 -22q23 0 55 8l24 -86q-128 -72 -225 -72q-82 0 -157.5 27.5t-137 66.5t-124 77.5 t-144 66t-170.5 27.5q-306 0 -476.5 180.5t-170.5 505.5zM330 707q0 -260 122.5 -420t333.5 -160q187 0 292.5 143.5t105.5 405.5q0 260 -123 420.5t-334 160.5q-187 0 -292 -144t-105 -406z" />
<glyph unicode="R" horiz-adv-x="1282" d="M68 0v80q77 45 161 70v1083q-37 12 -77.5 30t-61.5 30l-22 12v77h147q9 0 171.5 4.5t277.5 4.5q224 0 347.5 -91t123.5 -264q0 -137 -83 -229.5t-225 -128.5q49 -6 89 -41.5t67 -86.5t50.5 -111t44 -119t42 -107.5t51 -78.5t64.5 -30l22 2l13 -96q-23 -10 -79.5 -21.5 t-109.5 -11.5t-96 35.5t-71.5 92t-53.5 125t-50.5 136.5t-54.5 124.5t-72.5 92t-98.5 35.5h-121v-468q34 -13 68.5 -30.5t52.5 -28.5l18 -11v-80h-534zM463 741h151q139 0 208 71t69 189q0 125 -75.5 196t-219.5 71q-59 0 -133 -11v-516z" />
<glyph unicode="S" horiz-adv-x="1060" d="M94 997q0 170 139.5 288t364.5 118q149 0 285 -31v-340h-103q-57 103 -73 199q-75 22 -162 22q-103 0 -156 -49.5t-53 -144.5q0 -49 21.5 -88t58.5 -66t84.5 -50.5t100.5 -45.5t105.5 -45.5t100 -55.5t84.5 -71t58.5 -96.5t21.5 -128.5q0 -123 -71.5 -222t-194 -154.5 t-269.5 -55.5q-184 0 -319 38v375h104q51 -105 76 -211q92 -39 192 -39q236 0 236 201q0 52 -21.5 93.5t-58 70t-84 52.5t-100 45.5t-104.5 44.5t-99.5 54t-84 69.5t-58 95.5t-21.5 128z" />
<glyph unicode="T" horiz-adv-x="1185" d="M35 1034v348h1116v-348h-98q-55 108 -80 223h-264v-1107q41 -11 85 -28.5t68 -29.5l23 -12v-80h-584v80q84 45 176 70v1107h-264q-11 -51 -31 -107t-34 -86l-15 -30h-98z" />
<glyph unicode="U" horiz-adv-x="1484" d="M68 1305v77h510v-77q-58 -41 -152 -72v-715q0 -67 10 -122t35 -106t65 -85.5t104 -55t148 -20.5q324 0 324 384v7l-12 709q-38 14 -75.5 33t-56.5 31l-18 12v77h467v-77q-53 -47 -127 -76l-8 -684q-2 -269 -147 -418.5t-418 -149.5q-115 0 -205.5 27t-149.5 73t-97.5 111 t-55 137.5t-16.5 155.5v752q-33 13 -64 31t-46 30z" />
<glyph unicode="V" horiz-adv-x="1366" d="M25 1305v77h512v-77q-68 -46 -148 -70l348 -977h2l293 977q-59 20 -131 70v77h440v-77q-59 -48 -110 -70l-451 -1245h-192l-453 1247q-50 19 -110 68z" />
<glyph unicode="W" horiz-adv-x="1943" d="M25 1305v77h503v-77q-67 -47 -145 -72l244 -934h2l276 1090h197l334 -1090h2l184 932q-38 10 -74 28.5t-52 32.5l-17 13v77h446v-77q-44 -43 -110 -74l-326 -1241h-203l-325 1065h-3l-272 -1065h-215l-338 1243q-25 11 -52 29t-41 30z" />
<glyph unicode="X" horiz-adv-x="1384" d="M25 0v80q59 45 127 74l409 530l-379 549q-33 13 -64.5 31t-47.5 30l-15 11v77h561v-77q-57 -39 -139 -72l262 -395l250 391q-36 16 -69.5 35t-49.5 30l-16 11v77h473v-77q-53 -41 -125 -72l-379 -494l406 -589q35 -14 67 -31.5t47 -28.5l15 -10v-80h-557v80q59 43 133 70 l-289 436l-274 -432q35 -12 69 -30.5t51 -31.5l17 -12v-80h-483z" />
<glyph unicode="Y" horiz-adv-x="1220" d="M18 1305v77h494v-77q-10 -13 -45.5 -34t-83.5 -34l289 -514h2l235 510q-43 14 -82.5 37.5t-46.5 34.5v77h422v-77q-8 -13 -34.5 -33.5t-65.5 -38.5l-369 -664v-419q54 -12 106.5 -34.5t69.5 -35.5v-80h-585v80q17 13 69.5 35.5t106.5 34.5v419l-383 668q-34 12 -62 33.5 t-37 34.5z" />
<glyph unicode="Z" horiz-adv-x="1132" d="M78 0v125l702 1128l-497 -12q-28 -117 -84 -209h-103l13 350h940v-125l-701 -1128l531 16q26 96 82 215h104v-360h-987z" />
<glyph unicode="[" horiz-adv-x="681" d="M162 -408v1989h456v-78q-113 -46 -256 -65v-1704q134 -14 256 -64v-78h-456z" />
<glyph unicode="\" horiz-adv-x="858" d="M4 1532l168 55l723 -1898l-168 -54z" />
<glyph unicode="]" horiz-adv-x="681" d="M66 -330q122 50 253 64v1704q-140 19 -253 65v78h454v-1989h-454v78z" />
<glyph unicode="^" d="M143 770l340 612h154l352 -608l-141 -74l-293 539l-279 -539z" />
<glyph unicode="_" d="M0 -362h1126v-154h-1126v154z" />
<glyph unicode="`" horiz-adv-x="731" d="M145 1401l127 168l306 -320l-56 -80z" />
<glyph unicode="a" horiz-adv-x="1060" d="M72 262q0 139 157.5 241.5t413.5 102.5v109q0 98 -48 153.5t-142 55.5q-37 0 -72 -10t-51 -20l-17 -9q-12 -47 -29.5 -91.5t-29.5 -65.5l-12 -21h-95v276q168 61 355 61q368 0 368 -296v-439q0 -37 4 -68.5t8 -44.5l3 -12q49 7 108 21l31 -82q-14 -11 -40 -29t-103 -57.5 t-150 -61.5q-24 37 -38.5 84.5t-17.5 76.5l-3 28h-2q-43 -79 -130.5 -131.5t-181.5 -52.5q-129 0 -207.5 79.5t-78.5 202.5zM303 303q0 -72 41.5 -118t106.5 -46q72 0 132 59.5t60 147.5v146h-17q-323 0 -323 -189z" />
<glyph unicode="b" horiz-adv-x="1177" d="M12 1393v84q18 4 51 9.5t131 13.5q72 6 142 6q26 0 53 -1v-504q0 -91 -12 -165l4 -2q37 90 124.5 150t196.5 60q186 0 290 -131t104 -350q0 -181 -72.5 -313.5t-197.5 -199t-287 -66.5q-198 0 -377 49v1319q-60 25 -150 41zM389 160q76 -51 193 -51q131 0 204.5 105.5 t73.5 305.5q0 165 -63 266t-176 101q-95 0 -163.5 -94.5t-68.5 -227.5v-405z" />
<glyph unicode="c" horiz-adv-x="942" d="M82 483q0 262 131 409.5t383 147.5q149 0 264 -32v-312h-96q-50 95 -66 185q-55 32 -149 32q-107 0 -167 -109t-60 -282q0 -191 85.5 -286t231.5 -95q54 0 109.5 14.5t84.5 28.5l29 15l35 -103q-67 -51 -158 -81.5t-192 -30.5q-99 0 -181 29t-147 87.5t-101 156 t-36 226.5z" />
<glyph unicode="d" horiz-adv-x="1210" d="M82 461q0 139 41 249.5t114 181.5t173.5 108.5t220.5 37.5q36 0 75.5 -2t60.5 -4l21 -2v322q-61 25 -155 41v84q17 4 49 9.5t132 13.5q73 6 147 6q28 0 55 -1v-1360q61 -25 143 -39v-83q-17 -4 -49 -10t-126 -15q-71 -7 -139 -7q-23 0 -46 1v27q0 41 2 79q3 52 7 76l3 25 l-4 2q-37 -95 -127 -158t-209 -63q-180 0 -284.5 132t-104.5 349zM319 502q0 -164 63.5 -264.5t176.5 -100.5q95 0 162 93.5t67 228.5v405q-73 51 -192 51q-131 0 -204 -106t-73 -307z" />
<glyph unicode="e" horiz-adv-x="1054" d="M82 496q0 247 126.5 396.5t348.5 149.5q206 0 311 -116.5t105 -323.5q0 -14 -1 -42t-1 -42h-649v-24q0 -178 81 -266.5t234 -88.5q74 0 155 22.5t138 59.5l37 -104q-183 -135 -414 -135q-224 0 -347.5 131.5t-123.5 382.5zM324 631h411v10q0 122 -49 200q-51 81 -147 81 q-97 0 -151 -81t-64 -210z" />
<glyph unicode="f" horiz-adv-x="731" d="M45 901v123h191v125q0 362 395 362q100 0 205 -24v-279h-93q-47 86 -63 176q-37 13 -74 13q-81 0 -112 -53.5t-31 -165.5v-154h258v-123h-258v-756q44 -12 86.5 -28t62.5 -27l21 -10v-80h-563v80q68 38 166 65v756h-191z" />
<glyph unicode="g" horiz-adv-x="1107" d="M51 -250q0 83 60.5 151t154.5 109q-133 43 -133 164q0 56 38 108t99 87q-73 36 -120.5 109.5t-47.5 168.5q0 178 118 287.5t329 109.5q33 0 73.5 -5t64.5 -10l24 -5h327v-131l-182 16q41 -26 68.5 -85t27.5 -115q0 -189 -122 -287t-332 -98q-66 0 -109 12 q-53 -43 -53 -86q0 -37 41.5 -57t138.5 -23l191 -8q174 -6 263 -84t89 -201q0 -107 -75.5 -197t-205 -142t-280.5 -52q-214 0 -330.5 68t-116.5 196zM270 -193q0 -84 77.5 -134t205.5 -50q126 0 201 52.5t75 146.5q0 66 -48.5 107t-143.5 44l-180 9l-54 4q-61 -30 -97 -77 t-36 -102zM326 694q0 -117 60 -184.5t157 -67.5q94 0 140 60.5t46 163.5q0 119 -59.5 188.5t-155.5 69.5t-142 -61.5t-46 -168.5z" />
<glyph unicode="h" horiz-adv-x="1271" d="M45 1393v84q18 4 50.5 9.5t131.5 13.5q72 6 142 6q26 0 53 -1v-477q0 -46 -3.5 -94t-6.5 -73l-4 -25h4q39 90 131 149t215 59q170 0 252 -111.5t82 -340.5q0 -112 -3 -223.5t-5 -167.5l-3 -56q35 -11 70 -27.5t53 -27.5l17 -10v-80h-496v76q57 38 129 67q8 175 8 394 q0 176 -42.5 264t-147.5 88q-114 0 -182 -96t-68 -224v-426q30 -13 61.5 -29.5t47.5 -27.5l16 -10v-76h-496v80q68 42 144 65v1207q-62 25 -150 41z" />
<glyph unicode="i" horiz-adv-x="649" d="M72 0v80q73 42 155 65v732q-65 27 -155 41v81q17 4 49 10t132 15q75 7 151 7q25 0 51 -1v-885q35 -11 70.5 -27.5t54.5 -27.5l18 -10v-80h-526zM197 1341q0 62 41.5 104t105.5 42q63 0 105.5 -42t42.5 -104q0 -61 -42.5 -102t-105.5 -41q-64 0 -105.5 40.5t-41.5 102.5z " />
<glyph unicode="j" horiz-adv-x="583" d="M29 -414q99 34 132.5 97t33.5 200v994q-58 25 -144 41v81q17 4 47.5 10t127.5 15q73 7 147 7q24 0 49 -1v-1106q0 -194 -87.5 -292t-275.5 -144zM162 1341q0 62 42 104t105 42q64 0 106 -42t42 -104t-42 -102.5t-106 -40.5q-63 0 -105 41t-42 102z" />
<glyph unicode="k" horiz-adv-x="1155" d="M45 1393v84q18 4 50.5 9.5t131.5 13.5q72 6 142 6q26 0 53 -1v-954l293 334q-30 11 -60.5 26t-45.5 24l-15 9v80h498v-80q-60 -36 -140 -61l-305 -283l359 -459q34 -13 65 -28t45 -24l14 -9v-80h-311l-397 528v-383q34 -13 66 -29t48 -26l15 -10v-80h-500v80 q68 42 144 65v1207q-62 25 -150 41z" />
<glyph unicode="l" horiz-adv-x="616" d="M45 1393v84q18 4 50.5 9.5t131.5 13.5q72 6 142 6q26 0 53 -1v-1360q36 -11 71.5 -27.5t53.5 -27.5l18 -10v-80h-514v80q66 40 144 65v1207q-62 25 -150 41z" />
<glyph unicode="m" horiz-adv-x="1953" d="M72 0v80q71 42 155 65v732q-63 25 -155 41v81q18 4 50 10t132 15q75 7 148 7q25 0 49 -1q0 -54 -3.5 -104.5t-7.5 -74.5l-4 -24h4q39 95 132.5 156t211.5 61q130 0 207 -61.5t101 -159.5h2q38 98 131.5 159.5t216.5 61.5q332 0 332 -452q0 -113 -3 -224.5t-5 -167.5 l-3 -55q34 -11 69 -27.5t53 -27.5l18 -10v-80h-492v76q57 38 123 67q10 177 10 394q0 174 -43 263t-145 89q-111 0 -179.5 -97t-68.5 -223v-426q28 -14 70.5 -38t52.5 -29v-76h-473v76q15 6 57.5 30.5t67.5 36.5v494q0 252 -185 252q-72 0 -129 -47.5t-85.5 -120 t-28.5 -152.5v-426q29 -13 60.5 -29.5t48.5 -27.5l16 -10v-76h-508z" />
<glyph unicode="n" horiz-adv-x="1304" d="M72 0v80q69 40 155 65v732q-63 25 -155 41v81q18 4 50 10t132 15q75 7 148 7q25 0 49 -1q0 -53 -3.5 -103.5t-7.5 -74.5l-4 -25h4q38 94 130.5 155.5t222.5 61.5q168 0 249.5 -111.5t81.5 -340.5q0 -111 -2.5 -223t-5.5 -168l-2 -56q35 -11 69.5 -27.5t52.5 -27.5l17 -10 v-80h-495v76q59 38 129 67q8 177 8 394q0 176 -42.5 264t-147.5 88q-76 0 -134 -47t-87 -119t-29 -154v-426q32 -13 64.5 -29.5t48.5 -27.5l16 -10v-76h-512z" />
<glyph unicode="o" horiz-adv-x="1206" d="M82 487q0 172 75.5 299.5t201 191.5t282.5 64q226 0 354.5 -132t128.5 -373q0 -172 -75.5 -300t-201 -192.5t-282.5 -64.5q-226 0 -354.5 132.5t-128.5 374.5zM324 524q0 -186 79.5 -297.5t219.5 -111.5q124 0 192 97.5t68 287.5q0 186 -79.5 297.5t-219.5 111.5 q-124 0 -192 -98t-68 -287z" />
<glyph unicode="p" horiz-adv-x="1210" d="M45 -422q68 41 150 68v1231q-58 25 -144 41v81q124 32 297 32q32 0 66 -1q0 -134 -13 -203l5 -2q40 95 129 157t206 62q179 0 283 -132.5t104 -352.5q0 -184 -72.5 -315t-195 -193.5t-282.5 -62.5q-92 0 -156 12v-354q37 -12 75 -29t57 -28l19 -11v-80h-528v80zM422 160 q76 -51 192 -51q131 0 204 105.5t73 305.5q0 166 -63 266.5t-177 100.5q-95 0 -162 -94t-67 -228v-405z" />
<glyph unicode="q" horiz-adv-x="1179" d="M82 469q0 267 151 418t404 151q196 0 381 -30v-1362q62 -17 151 -68v-80h-536v80q83 48 158 68v368q0 106 16 174l-4 2q-38 -90 -128 -150t-202 -60q-182 0 -286.5 134.5t-104.5 354.5zM319 502q0 -164 63.5 -264.5t176.5 -100.5q96 0 164 94t68 228v405q-76 51 -193 51 q-131 0 -205 -106t-74 -307z" />
<glyph unicode="r" horiz-adv-x="856" d="M72 0v80q88 49 155 65v732q-103 35 -155 41v81q128 32 307 32q33 0 67 -1q0 -130 -16 -237h6q43 123 107.5 187t158.5 64q81 0 142 -22l-31 -223q-92 39 -158 39q-96 0 -148 -94.5t-52 -231.5v-367q68 -18 163 -65v-80h-546z" />
<glyph unicode="s" horiz-adv-x="923" d="M111 754q0 125 108 206.5t285 81.5q138 0 252 -26v-283h-99q-38 68 -57 160q-64 29 -139 29q-59 0 -92 -31t-33 -86q0 -43 21 -77t56 -56t79 -43.5t90.5 -39t90.5 -44t79 -57t56 -79.5t21 -110q0 -91 -58 -164t-153.5 -112t-209.5 -39q-160 0 -289 30v301h100 q39 -80 60 -159q88 -39 180 -39q141 0 141 127q0 49 -27 85.5t-70 60t-95 45t-104.5 47t-95.5 58.5t-70 87.5t-27 126.5z" />
<glyph unicode="t" horiz-adv-x="763" d="M27 901v123h161l93 299h135v-299h272v-123h-272v-573q0 -104 21.5 -145.5t76.5 -41.5q75 0 160 49l33 -100q-134 -108 -285 -108q-118 0 -176 69.5t-58 224.5v625h-161z" />
<glyph unicode="u" horiz-adv-x="1271" d="M51 918v81q16 4 46.5 10t126.5 15q72 7 148 7q25 0 50 -1q-12 -263 -12 -543q0 -176 42.5 -264t147.5 -88q114 0 182 96t68 224v424q-57 23 -145 39v81q16 4 46.5 10t127.5 15q73 7 148 7q25 0 50 -1v-885q56 -23 144 -41v-81q-17 -4 -48 -10t-127 -15q-72 -7 -142 -7 q-24 0 -48 1q0 54 3 105t6 75l3 25h-4q-40 -96 -132.5 -156.5t-217.5 -60.5q-170 0 -252 111.5t-82 340.5q0 113 2.5 224.5t5.5 167.5l2 55q-53 23 -139 39z" />
<glyph unicode="v" horiz-adv-x="1138" d="M20 944v80h494v-80q-65 -39 -137 -59l184 -516q10 -31 55 -183h2q18 72 48 174l151 525q-49 15 -127 59v80h430v-80q-62 -42 -112 -59l-330 -895h-217l-330 895q-34 11 -111 59z" />
<glyph unicode="w" horiz-adv-x="1626" d="M20 944v80h494v-80q-62 -37 -139 -57l123 -463q15 -60 41 -195h2q23 114 49 203l172 596h172l180 -588q37 -130 53 -207h2q5 27 37 197l103 457q-51 8 -135 57v80h428v-80q-56 -38 -115 -57l-258 -893h-207l-174 577q-22 76 -41 158h-2q-8 -66 -37 -162l-166 -573h-215 l-254 895q-54 15 -113 55z" />
<glyph unicode="x" horiz-adv-x="1245" d="M41 0v80q80 46 133 57l320 357l-297 393q-49 11 -142 57v80h547v-80q-71 -37 -127 -51l191 -279l192 277q-39 10 -117 53v80h445v-80q-55 -36 -135 -59l-306 -353l310 -393q69 -16 149 -59v-80h-557v80q69 36 127 51l-203 285l-194 -281q19 -5 38 -14t44 -23t33 -18v-80 h-451z" />
<glyph unicode="y" horiz-adv-x="1142" d="M20 944v80h496v-80q-65 -39 -137 -59l170 -459q58 -153 78 -233h4q14 70 65 260l123 432q-58 15 -129 59v80h430v-80q-70 -46 -110 -59l-271 -750q-89 -246 -183.5 -390t-202 -204.5t-251.5 -60.5q-31 0 -59 4l29 199q63 -13 118 -13q48 0 82 10.5t69.5 41.5t69.5 87 t76 148l-356 930q-56 17 -111 57z" />
<glyph unicode="z" horiz-adv-x="970" d="M92 0v129l514 778h-340q-27 -95 -71 -168h-97l11 285h751v-129l-512 -774h365q30 104 67 176h97v-297h-785z" />
<glyph unicode="{" horiz-adv-x="704" d="M59 594v100q118 9 160.5 61.5t42.5 180.5v248q0 397 338 397h37v-100q-100 -3 -136 -66t-36 -209v-254q0 -269 -219 -305v-2q105 -14 162 -94t57 -217v-365q0 -147 35.5 -209t136.5 -65v-103h-37q-177 0 -257.5 88.5t-80.5 280.5v365q0 140 -42 199.5t-161 68.5z" />
<glyph unicode="|" horiz-adv-x="571" d="M207 -434v2048h153v-2048h-153z" />
<glyph unicode="}" horiz-adv-x="696" d="M78 -305q101 3 136.5 64t35.5 208v371q0 137 57 215t162 92v2q-106 12 -162.5 90.5t-56.5 212.5v254q0 148 -36 211t-136 66v100h37q338 0 338 -371v-239q0 -150 40 -208.5t162 -68.5v-100q-114 -9 -158 -63t-44 -177v-364q0 -206 -80.5 -302t-257.5 -96h-37v103z" />
<glyph unicode="~" d="M41 485q24 231 97.5 333t205.5 102q61 0 119.5 -35t103 -85t85 -100t81 -85t76.5 -35q57 0 96.5 60.5t63.5 223.5l114 -24q-27 -230 -100.5 -333.5t-196.5 -103.5q-58 0 -111 25.5t-90.5 63.5t-75.5 82t-67.5 82t-64.5 63.5t-68 25.5q-59 0 -92.5 -57.5t-58.5 -222.5z " />
<glyph unicode="&#xa1;" horiz-adv-x="630" d="M174 930q0 62 40 101.5t101 39.5q63 0 103.5 -39.5t40.5 -101.5q0 -60 -40.5 -99.5t-103.5 -39.5q-61 0 -101 39.5t-40 99.5zM186 -399l62 1058h131l65 -1058h-258z" />
<glyph unicode="&#xa2;" horiz-adv-x="1021" d="M100 539q0 235 111.5 363t316.5 155v186h123v-182q127 0 234 -35v-285h-92q-47 103 -54 181q-47 18 -133 18q-137 0 -208.5 -95t-71.5 -263q0 -191 87.5 -279t239.5 -88q118 0 234 49l22 -112q-118 -64 -258 -78v-213h-123v211q-93 5 -168.5 34t-135 84t-92 144 t-32.5 205z" />
<glyph unicode="&#xa3;" d="M74 80q198 148 198 391q0 57 -10 145h-172v123h146q-5 21 -15.5 66t-14 61t-9.5 45.5t-7.5 51t-1.5 45.5q0 184 126 289.5t345 105.5q111 0 226 -33v-303h-99q-46 87 -59 174q-71 31 -139 31q-83 0 -127.5 -53.5t-44.5 -143.5q0 -29 2.5 -59.5t5.5 -53t10 -57t11 -51 t14 -58.5t14 -57h275v-123h-254q15 -141 -29 -248.5t-139 -166.5v-2q70 26 166 26q62 0 177.5 -25.5t184.5 -25.5q32 0 59 15t68 51l68 -78q-54 -94 -118 -138t-157 -44q-62 0 -185 25.5t-192 25.5q-72 0 -148 -14t-122 -37z" />
<glyph unicode="&#xa4;" d="M115 1122l143 92l137 -225q82 43 187 43q87 0 157 -31l129 213l142 -92l-162 -176q115 -98 115 -289q0 -199 -127 -313l176 -190l-144 -91l-135 222q-83 -45 -190 -45q-93 0 -158 30l-127 -207l-141 91l157 174q-110 104 -110 288q0 201 129 314zM362 649q0 -126 57 -202 t159 -76q88 0 137 64.5t49 191.5q0 126 -56.5 201t-158.5 75q-89 0 -138 -64.5t-49 -189.5z" />
<glyph unicode="&#xa5;" horiz-adv-x="1255" d="M31 1309v73h495v-73q-45 -37 -127 -66l281 -506h2l244 504q-65 21 -129 68v73h417v-73q-40 -43 -98 -68l-342 -588h295v-100h-324v-174h324v-98h-324v-146q82 -22 162 -63v-72h-557v72q87 43 162 63v146h-324v98h324v174h-324v100h295l-352 592q-51 19 -100 64z" />
<glyph unicode="&#xa6;" horiz-adv-x="577" d="M207 379h164v-813h-164v813zM207 829v785h164v-785h-164z" />
<glyph unicode="&#xa7;" horiz-adv-x="1015" d="M137 659q0 82 48.5 158t115.5 129q-108 138 -108 252q0 58 25.5 113.5t73 101.5t126 74.5t174.5 28.5q139 0 213 -31l-49 -162q-116 55 -209 55q-68 0 -106 -39t-38 -92q0 -42 27.5 -89t71 -93t96.5 -95.5t106 -103.5t96.5 -109t71 -120t27.5 -129q0 -82 -47.5 -158.5 t-114.5 -128.5q109 -135 109 -252q0 -58 -26 -113t-74 -101.5t-127 -74.5t-175 -28q-144 0 -225 35l51 161q125 -59 219 -59q69 0 107.5 38.5t38.5 92.5q0 41 -27.5 88t-71.5 93t-97 95.5t-106 103.5t-97 109t-71.5 120.5t-27.5 129.5zM332 717q0 -33 14.5 -69t34.5 -66.5 t56 -70t63.5 -66.5t73.5 -71t71 -69q25 24 42.5 65.5t17.5 80.5q0 33 -14.5 69t-34 66t-55.5 70t-63.5 66.5t-73.5 70.5t-71 69q-26 -23 -43.5 -64t-17.5 -81z" />
<glyph unicode="&#xa8;" horiz-adv-x="919" d="M133 1343q0 53 35.5 88t89.5 35q53 0 89 -35.5t36 -87.5q0 -54 -36 -89t-89 -35q-54 0 -89.5 35t-35.5 89zM539 1343q0 53 35.5 88t89.5 35q53 0 88.5 -35.5t35.5 -87.5q0 -54 -35.5 -89t-88.5 -35q-54 0 -89.5 35t-35.5 89z" />
<glyph unicode="&#xa9;" horiz-adv-x="1548" d="M63 684q0 144 55.5 275t150.5 225.5t227 150.5t278 56q198 0 359.5 -91.5t253.5 -251t92 -354.5q0 -193 -93.5 -355t-257 -256.5t-360.5 -94.5q-199 0 -360 88.5t-253 248t-92 359.5zM207 690q0 -122 45.5 -230.5t122.5 -184.5t180.5 -120t216.5 -44q241 0 403 165.5 t162 411.5q0 158 -73.5 291t-203.5 211t-288 78q-163 0 -293.5 -79t-201 -210.5t-70.5 -288.5zM403 666q0 195 109.5 303t300.5 108q90 0 172 -16v-256h-80q-40 75 -49 143q-36 19 -90 19q-81 0 -121.5 -70.5t-40.5 -183.5q0 -129 64 -196.5t176 -67.5q79 0 147 26l31 -92 q-107 -68 -256 -68q-171 0 -267 93.5t-96 257.5z" />
<glyph unicode="&#xaa;" horiz-adv-x="839" d="M96 860q0 107 109 175.5t299 68.5v47q0 145 -129 145q-55 0 -117 -24q-9 -58 -39 -109h-78v191q106 45 250 45q275 0 275 -232v-336q67 -7 114 -4l15 -71q-125 -53 -263 -64q-16 43 -12 119h-6q-19 -49 -82 -88t-131 -39q-97 0 -151 50.5t-54 125.5zM125 430v115h584 v-115h-584zM254 895q0 -36 25.5 -63t68.5 -27q72 0 114 51.5t42 104.5v55q-250 0 -250 -121z" />
<glyph unicode="&#xab;" horiz-adv-x="1112" d="M119 547l327 448l109 -57l-203 -389l201 -387l-115 -60zM532 547l312 420l106 -58l-184 -360l180 -356l-110 -62z" />
<glyph unicode="&#xac;" d="M66 479v160h942v-479h-168v319h-774z" />
<glyph unicode="&#xad;" horiz-adv-x="649" d="M84 506v162h479v-162h-479z" />
<glyph unicode="&#xae;" horiz-adv-x="1153" d="M121 1085q0 187 134.5 320t322.5 133q191 0 321.5 -129t130.5 -319q0 -122 -62 -226.5t-167.5 -165.5t-227.5 -61q-192 0 -322 129t-130 319zM236 1090q0 -143 99.5 -249t239.5 -106t240 104t100 246t-100 248.5t-240 106.5t-239.5 -104t-99.5 -246zM373 850v39 q15 18 51 29v344q-42 17 -51 24v45h49q25 0 87 1t91 1q77 0 119.5 -33t42.5 -92q0 -99 -107 -123q29 -4 48 -34.5t27 -64.5t24 -59.5t39 -21.5l8 -47q-43 -16 -94 -16q-30 0 -50.5 33.5t-30 74t-27 74t-40.5 33.5h-29v-139q31 -11 43 -27v-41h-200zM530 1108h31 q43 0 63.5 25t20.5 59q0 80 -70 80h-45v-164z" />
<glyph unicode="&#xaf;" horiz-adv-x="858" d="M152 1243v139h555v-139h-555z" />
<glyph unicode="&#xb0;" horiz-adv-x="772" d="M106 1245q0 120 84.5 193t196.5 73q133 0 202.5 -74.5t69.5 -187.5q0 -119 -85.5 -192.5t-200.5 -73.5q-123 0 -195 71t-72 191zM256 1247q0 -64 34.5 -104.5t90.5 -40.5t91.5 42t35.5 105q0 56 -30.5 101t-94.5 45q-54 0 -90.5 -42.5t-36.5 -105.5z" />
<glyph unicode="&#xb1;" d="M76 692v158h399v410h176v-410h400v-158h-400v-411h-176v411h-399zM100 0v133h926v-133h-926z" />
<glyph unicode="&#xb2;" horiz-adv-x="784" d="M49 715v106l221 230q105 105 149 177t44 146q0 72 -40 113t-112 41q-50 0 -92 -25q-21 -86 -57 -141h-82l8 219q132 51 268 51q150 0 229 -63.5t79 -163.5q0 -97 -57.5 -176.5t-190.5 -196.5l-189 -184v-2h346q14 43 56 119h84l-11 -250h-653z" />
<glyph unicode="&#xb3;" horiz-adv-x="741" d="M45 729l37 131q104 -55 205 -55q81 0 129.5 39t48.5 119q0 93 -85 134.5t-241 26.5v97q151 0 228 48.5t77 135.5q0 62 -36 94.5t-105 32.5q-37 0 -74 -16q-14 -64 -53 -119h-80l8 194q102 41 234 41q144 0 218.5 -58t74.5 -149q0 -76 -52 -131.5t-135 -81.5v-2 q100 -11 161 -68.5t61 -150.5q0 -94 -59.5 -162t-151.5 -99.5t-203 -31.5q-112 0 -207 31z" />
<glyph unicode="&#xb4;" horiz-adv-x="733" d="M154 1249l305 320l127 -168l-377 -232z" />
<glyph unicode="&#xb6;" horiz-adv-x="1224" d="M92 852q0 234 157.5 382t418.5 148v-1069q-146 -1 -258.5 41t-180.5 117.5t-102.5 171.5t-34.5 209zM395 -39h92q48 -91 62 -170q41 -12 82 -12q94 0 132 68.5t38 230.5v1304h350v-79q-81 -47 -152 -66v-1118q0 -224 -102 -340.5t-303 -116.5q-114 0 -199 23v276z" />
<glyph unicode="&#xb7;" horiz-adv-x="512" d="M109 602q0 63 42 105.5t105 42.5q64 0 107 -42.5t43 -105.5t-43 -105t-107 -42q-63 0 -105 42t-42 105z" />
<glyph unicode="&#xb8;" horiz-adv-x="583" d="M143 -463q125 83 125 154q0 56 -108 106l149 203h125l-76 -106q113 -59 113 -148q0 -67 -62.5 -135t-177.5 -127z" />
<glyph unicode="&#xb9;" horiz-adv-x="610" d="M53 1499l236 121h135v-795q32 -7 115 -47v-63h-461v63q88 39 153 47v652l-151 -56z" />
<glyph unicode="&#xba;" horiz-adv-x="894" d="M96 1026q0 174 105.5 274.5t265.5 100.5q153 0 238.5 -89.5t85.5 -254.5q0 -171 -105.5 -272t-267.5 -101q-147 0 -234.5 88t-87.5 254zM145 430v115h600v-115h-600zM274 1051q0 -117 47.5 -187.5t133.5 -70.5q75 0 116 61.5t41 181.5q0 117 -48 187.5t-134 70.5 q-74 0 -115 -62.5t-41 -180.5z" />
<glyph unicode="&#xbb;" horiz-adv-x="1112" d="M162 190l184 361l-182 356l112 60l304 -414l-312 -422zM555 160l203 391l-199 385l113 59l319 -442l-325 -451z" />
<glyph unicode="&#xbc;" horiz-adv-x="1622" d="M94 1499l236 121h135v-795q32 -7 115 -47v-63h-461v63q88 39 153 47v652l-151 -56zM98 -211l1301 1862l102 -68l-1300 -1862zM741 96l414 553h211v-547h170v-127h-170v-118q46 -13 111 -45v-62h-424v62q46 27 127 45v118h-416zM879 102h303v416z" />
<glyph unicode="&#xbd;" horiz-adv-x="1730" d="M94 1499l236 121h135v-795q32 -7 115 -47v-63h-461v63q88 39 153 47v652l-151 -56zM98 -211l1301 1862l102 -68l-1300 -1862zM954 -143l222 229q104 104 148 177t44 147q0 72 -39.5 112.5t-111.5 40.5q-53 0 -93 -24q-21 -88 -57 -142h-82l8 219q135 52 269 52 q150 0 228.5 -63.5t78.5 -164.5q0 -67 -31.5 -129.5t-79 -113t-137.5 -129.5l-188 -185v-2h346q15 48 55 119h84l-10 -250h-654v107z" />
<glyph unicode="&#xbe;" horiz-adv-x="1646" d="M86 729l37 131q104 -55 205 -55q81 0 129.5 39t48.5 119q0 93 -85 134.5t-241 26.5v97q151 0 228 48.5t77 135.5q0 62 -36 94.5t-105 32.5q-37 0 -74 -16q-14 -64 -53 -119h-80l8 194q102 41 234 41q144 0 218.5 -58t74.5 -149q0 -76 -52 -131.5t-135 -81.5v-2 q100 -11 161 -68.5t61 -150.5q0 -94 -59.5 -162t-151.5 -99.5t-203 -31.5q-112 0 -207 31zM123 -211l1300 1862l103 -68l-1301 -1862zM766 96l414 553h211v-547h170v-127h-170v-118q43 -13 110 -45v-62h-424v62q46 27 127 45v118h-416zM903 102h303v416z" />
<glyph unicode="&#xbf;" horiz-adv-x="868" d="M113 -25q0 43 14.5 82t38 69t54 59t61 56.5t60 57.5t51 66t33.5 77.5t8.5 97t-25.5 119.5h196q28 -86 28 -145.5t-22.5 -110.5t-56.5 -86.5t-73.5 -73t-73 -69t-56 -75.5t-22.5 -93q0 -93 109.5 -156.5t281.5 -74.5l-29 -191q-132 7 -242.5 42.5t-182.5 89t-112 120.5 t-40 139zM352 930q0 61 41 101t103 40q63 0 103 -39.5t40 -101.5q0 -60 -40 -99.5t-103 -39.5q-62 0 -103 39.5t-41 99.5z" />
<glyph unicode="&#xc0;" horiz-adv-x="1374" d="M25 0v80q50 41 114 67l453 1246h190l455 -1248q77 -36 113 -67v-78h-514v78q61 43 147 69l-78 213h-504l-65 -213q67 -25 131 -69v-78h-442zM354 1638l78 177l385 -224l-39 -88zM434 481h430l-231 647h-2z" />
<glyph unicode="&#xc1;" horiz-adv-x="1374" d="M25 0v80q50 41 114 67l453 1246h190l455 -1248q77 -36 113 -67v-78h-514v78q61 43 147 69l-78 213h-504l-65 -213q67 -25 131 -69v-78h-442zM434 481h430l-231 647h-2zM569 1591l385 224l78 -177l-424 -135z" />
<glyph unicode="&#xc2;" horiz-adv-x="1374" d="M25 0v80q50 41 114 67l453 1246h190l455 -1248q77 -36 113 -67v-78h-514v78q61 43 147 69l-78 213h-504l-65 -213q67 -25 131 -69v-78h-442zM383 1587l313 234l312 -234l-50 -84l-268 131l-258 -131zM434 481h430l-231 647h-2z" />
<glyph unicode="&#xc3;" horiz-adv-x="1374" d="M25 0v80q50 41 114 67l453 1246h190l455 -1248q77 -36 113 -67v-78h-514v78q61 43 147 69l-78 213h-504l-65 -213q67 -25 131 -69v-78h-442zM350 1622q42 63 102.5 100t127.5 37q54 0 104.5 -21.5t95.5 -43t86 -21.5q64 0 121 60l57 -72q-42 -63 -101.5 -99t-127.5 -36 q-54 0 -104.5 21.5t-96 43t-86.5 21.5q-68 0 -120 -62zM434 481h430l-231 647h-2z" />
<glyph unicode="&#xc4;" horiz-adv-x="1374" d="M25 0v80q50 41 114 67l453 1246h190l455 -1248q77 -36 113 -67v-78h-514v78q61 43 147 69l-78 213h-504l-65 -213q67 -25 131 -69v-78h-442zM360 1618q0 52 35 86.5t86 34.5q53 0 87 -34.5t34 -86.5q0 -51 -34.5 -86t-86.5 -35q-51 0 -86 35t-35 86zM434 481h430 l-231 647h-2zM782 1618q0 52 34 86.5t87 34.5q51 0 86 -34.5t35 -86.5q0 -51 -35 -86t-86 -35q-52 0 -86.5 35t-34.5 86z" />
<glyph unicode="&#xc5;" horiz-adv-x="1374" d="M25 0v80q50 41 114 67l453 1246h190l455 -1248q77 -36 113 -67v-78h-514v78q61 43 147 69l-78 213h-504l-65 -213q67 -25 131 -69v-78h-442zM434 481h430l-231 647h-2zM465 1645q0 98 73 156.5t175 58.5q104 0 164.5 -53t60.5 -150q0 -98 -73.5 -156.5t-174.5 -58.5 q-104 0 -164.5 53t-60.5 150zM590 1657q0 -59 31 -94t88 -35q50 0 77 30t27 87t-31.5 93t-87.5 36q-50 0 -77 -30t-27 -87z" />
<glyph unicode="&#xc6;" horiz-adv-x="1712" d="M-20 0v80q47 43 102 70l604 1091q-40 11 -80.5 27.5t-61.5 27.5l-20 11v75h1053v-317h-104q-45 88 -70 192h-342v-487h278q10 31 25.5 64t25.5 50l11 17h90v-377h-90q-39 59 -62 129h-278v-524h352q10 44 27.5 94.5t29.5 79.5l13 29h106v-332h-905v78q67 42 145 67v215 h-432l-106 -213q32 -12 62.5 -28.5t45.5 -27.5l15 -11v-80h-434zM453 481h376v756h-2z" />
<glyph unicode="&#xc7;" horiz-adv-x="1239" d="M76 668q0 139 35.5 258t99.5 205t151 147t191.5 91t220.5 30q186 0 338 -41v-357h-108q-49 96 -68 205q-90 43 -221 43q-176 0 -278.5 -140t-102.5 -396q0 -265 119.5 -414t351.5 -149q165 0 311 73l33 -119q-169 -109 -383 -120l-66 -90q115 -60 115 -148 q0 -67 -63.5 -135t-178.5 -127l-86 53q123 84 123 154q0 56 -108 106l139 187q-265 15 -415 190t-150 494z" />
<glyph unicode="&#xc8;" horiz-adv-x="1114" d="M68 0v80q75 45 161 70v1083q-38 12 -78.5 30t-61.5 30l-21 12v77h913v-317h-104q-45 88 -68 192h-346v-487h278q9 31 24.5 64t26.5 50l11 17h90v-377h-90q-42 59 -62 129h-278v-524h348q10 44 27.5 94.5t29.5 79.5l13 29h106v-332h-919zM211 1638l78 177l385 -224 l-39 -88z" />
<glyph unicode="&#xc9;" horiz-adv-x="1114" d="M68 0v80q75 45 161 70v1083q-38 12 -78.5 30t-61.5 30l-21 12v77h913v-317h-104q-45 88 -68 192h-346v-487h278q9 31 24.5 64t26.5 50l11 17h90v-377h-90q-42 59 -62 129h-278v-524h348q10 44 27.5 94.5t29.5 79.5l13 29h106v-332h-919zM438 1591l385 224l78 -177 l-424 -135z" />
<glyph unicode="&#xca;" horiz-adv-x="1114" d="M68 0v80q75 45 161 70v1083q-38 12 -78.5 30t-61.5 30l-21 12v77h913v-317h-104q-45 88 -68 192h-346v-487h278q9 31 24.5 64t26.5 50l11 17h90v-377h-90q-42 59 -62 129h-278v-524h348q10 44 27.5 94.5t29.5 79.5l13 29h106v-332h-919zM252 1587l313 234l312 -234 l-50 -84l-268 131l-258 -131z" />
<glyph unicode="&#xcb;" horiz-adv-x="1114" d="M68 0v80q75 45 161 70v1083q-38 12 -78.5 30t-61.5 30l-21 12v77h913v-317h-104q-45 88 -68 192h-346v-487h278q9 31 24.5 64t26.5 50l11 17h90v-377h-90q-42 59 -62 129h-278v-524h348q10 44 27.5 94.5t29.5 79.5l13 29h106v-332h-919zM236 1618q0 52 34.5 86.5 t85.5 34.5q52 0 86.5 -34.5t34.5 -86.5q0 -51 -34.5 -86t-86.5 -35q-51 0 -85.5 35t-34.5 86zM657 1618q0 52 34.5 86.5t86.5 34.5q51 0 86 -34.5t35 -86.5q0 -51 -35 -86t-86 -35q-52 0 -86.5 35t-34.5 86z" />
<glyph unicode="&#xcc;" horiz-adv-x="692" d="M27 1638l77 177l385 -224l-38 -88zM68 0v80q77 45 161 70v1083q-37 12 -77.5 30t-61.5 30l-22 12v77h557v-77q-76 -45 -162 -72v-1083q38 -11 78.5 -28.5t62.5 -29.5l21 -12v-80h-557z" />
<glyph unicode="&#xcd;" horiz-adv-x="692" d="M68 0v80q77 45 161 70v1083q-37 12 -77.5 30t-61.5 30l-22 12v77h557v-77q-76 -45 -162 -72v-1083q38 -11 78.5 -28.5t62.5 -29.5l21 -12v-80h-557zM195 1591l385 224l77 -177l-424 -135z" />
<glyph unicode="&#xce;" horiz-adv-x="692" d="M35 1587l313 234l311 -234l-49 -84l-268 131l-258 -131zM68 0v80q77 45 161 70v1083q-37 12 -77.5 30t-61.5 30l-22 12v77h557v-77q-76 -45 -162 -72v-1083q38 -11 78.5 -28.5t62.5 -29.5l21 -12v-80h-557z" />
<glyph unicode="&#xcf;" horiz-adv-x="692" d="M16 1618q0 52 35 86.5t86 34.5q53 0 87 -34.5t34 -86.5q0 -51 -34.5 -86t-86.5 -35q-51 0 -86 35t-35 86zM68 0v80q77 45 161 70v1083q-37 12 -77.5 30t-61.5 30l-22 12v77h557v-77q-76 -45 -162 -72v-1083q38 -11 78.5 -28.5t62.5 -29.5l21 -12v-80h-557zM438 1618 q0 52 34 86.5t87 34.5q51 0 86 -34.5t35 -86.5q0 -51 -35 -86t-86 -35q-52 0 -86.5 35t-34.5 86z" />
<glyph unicode="&#xd0;" horiz-adv-x="1517" d="M43 653v123h223v457q-81 23 -162 72v77h162q47 0 213 4.5t256 4.5q707 0 707 -668q0 -142 -39.5 -261t-110.5 -205t-170 -146t-219 -89.5t-256 -29.5q-79 0 -213 4t-164 4h-166v80q87 48 162 70v503h-223zM500 158q96 -29 245 -29q91 0 171 35t142.5 102.5t99 177.5 t36.5 250q0 102 -18 188t-57.5 158t-100 122t-149 78t-199.5 28q-35 0 -170 -11v-481h329v-123h-329v-495z" />
<glyph unicode="&#xd1;" horiz-adv-x="1501" d="M70 0v80q103 61 153 76l13 1077q-69 17 -166 72v77h411l674 -1015l-31 860q-51 17 -143 78v77h440v-77q-85 -61 -127 -78v-1239h-182l-750 1138l44 -970q79 -31 149 -76v-80h-485zM424 1622q43 63 102.5 100t126.5 37q54 0 104.5 -21.5t96 -43t86.5 -21.5q64 0 121 60 l57 -72q-42 -63 -101.5 -99t-127.5 -36q-54 0 -104.5 21.5t-96 43t-86.5 21.5q-69 0 -121 -62z" />
<glyph unicode="&#xd2;" horiz-adv-x="1513" d="M76 666q0 171 56 311.5t153.5 233t227 142.5t278.5 50q306 0 476.5 -180.5t170.5 -505.5q0 -171 -56 -311.5t-153.5 -233t-227 -142.5t-278.5 -50q-306 0 -476.5 180.5t-170.5 505.5zM330 707q0 -260 122.5 -420t333.5 -160q187 0 292.5 143.5t105.5 405.5 q0 260 -123 420.5t-334 160.5q-187 0 -292 -144t-105 -406zM408 1638l77 177l385 -224l-39 -88z" />
<glyph unicode="&#xd3;" horiz-adv-x="1513" d="M76 666q0 171 56 311.5t153.5 233t227 142.5t278.5 50q306 0 476.5 -180.5t170.5 -505.5q0 -171 -56 -311.5t-153.5 -233t-227 -142.5t-278.5 -50q-306 0 -476.5 180.5t-170.5 505.5zM330 707q0 -260 122.5 -420t333.5 -160q187 0 292.5 143.5t105.5 405.5 q0 260 -123 420.5t-334 160.5q-187 0 -292 -144t-105 -406zM623 1591l385 224l77 -177l-423 -135z" />
<glyph unicode="&#xd4;" horiz-adv-x="1513" d="M76 666q0 171 56 311.5t153.5 233t227 142.5t278.5 50q306 0 476.5 -180.5t170.5 -505.5q0 -171 -56 -311.5t-153.5 -233t-227 -142.5t-278.5 -50q-306 0 -476.5 180.5t-170.5 505.5zM330 707q0 -260 122.5 -420t333.5 -160q187 0 292.5 143.5t105.5 405.5 q0 260 -123 420.5t-334 160.5q-187 0 -292 -144t-105 -406zM449 1587l313 234l311 -234l-49 -84l-268 131l-258 -131z" />
<glyph unicode="&#xd5;" horiz-adv-x="1513" d="M76 666q0 171 56 311.5t153.5 233t227 142.5t278.5 50q306 0 476.5 -180.5t170.5 -505.5q0 -171 -56 -311.5t-153.5 -233t-227 -142.5t-278.5 -50q-306 0 -476.5 180.5t-170.5 505.5zM330 707q0 -260 122.5 -420t333.5 -160q187 0 292.5 143.5t105.5 405.5 q0 260 -123 420.5t-334 160.5q-187 0 -292 -144t-105 -406zM420 1622q43 63 102.5 100t126.5 37q54 0 104.5 -21.5t96 -43t86.5 -21.5q64 0 121 60l57 -72q-42 -63 -101.5 -99t-127.5 -36q-54 0 -104.5 21.5t-96 43t-86.5 21.5q-69 0 -121 -62z" />
<glyph unicode="&#xd6;" horiz-adv-x="1513" d="M76 666q0 171 56 311.5t153.5 233t227 142.5t278.5 50q306 0 476.5 -180.5t170.5 -505.5q0 -171 -56 -311.5t-153.5 -233t-227 -142.5t-278.5 -50q-306 0 -476.5 180.5t-170.5 505.5zM330 707q0 -260 122.5 -420t333.5 -160q187 0 292.5 143.5t105.5 405.5 q0 260 -123 420.5t-334 160.5q-187 0 -292 -144t-105 -406zM430 1618q0 52 35 86.5t86 34.5q53 0 87 -34.5t34 -86.5q0 -51 -34.5 -86t-86.5 -35q-51 0 -86 35t-35 86zM852 1618q0 52 34 86.5t87 34.5q51 0 86 -34.5t35 -86.5q0 -51 -35 -86t-86 -35q-52 0 -86.5 35 t-34.5 86z" />
<glyph unicode="&#xd7;" d="M121 233l323 324l-323 324l119 118l323 -323l324 323l119 -118l-324 -324l324 -324l-119 -118l-324 323l-323 -323z" />
<glyph unicode="&#xd8;" horiz-adv-x="1513" d="M76 666q0 171 56 311.5t153.5 233t227 142.5t278.5 50q144 0 247 -43l129 235l127 -65l-123 -227q128 -84 197.5 -231.5t69.5 -354.5q0 -171 -56 -311.5t-153.5 -233t-227 -142.5t-278.5 -50q-144 0 -250 40l-127 -233l-127 66l123 229q-129 84 -197.5 233t-68.5 351z M324 707q0 -133 35 -244.5t94 -175.5l499 913q-97 62 -227 62q-189 0 -295 -145t-106 -410zM561 182q92 -59 227 -59q189 0 295.5 144t106.5 409q0 137 -35 248t-94 174z" />
<glyph unicode="&#xd9;" horiz-adv-x="1484" d="M68 1305v77h510v-77q-58 -41 -152 -72v-715q0 -67 10 -122t35 -106t65 -85.5t104 -55t148 -20.5q327 0 324 391l-12 709q-38 14 -75.5 33t-56.5 31l-18 12v77h467v-77q-53 -47 -127 -76l-8 -684q-2 -269 -147 -418.5t-418 -149.5q-115 0 -205.5 27t-149.5 73t-97.5 111 t-55 137.5t-16.5 155.5v752q-33 13 -64 31t-46 30zM389 1638l78 177l385 -224l-39 -88z" />
<glyph unicode="&#xda;" horiz-adv-x="1484" d="M68 1305v77h510v-77q-58 -41 -152 -72v-715q0 -67 10 -122t35 -106t65 -85.5t104 -55t148 -20.5q327 0 324 391l-12 709q-38 14 -75.5 33t-56.5 31l-18 12v77h467v-77q-53 -47 -127 -76l-8 -684q-2 -269 -147 -418.5t-418 -149.5q-115 0 -205.5 27t-149.5 73t-97.5 111 t-55 137.5t-16.5 155.5v752q-33 13 -64 31t-46 30zM653 1591l385 224l78 -177l-424 -135z" />
<glyph unicode="&#xdb;" horiz-adv-x="1484" d="M68 1305v77h510v-77q-58 -41 -152 -72v-715q0 -67 10 -122t35 -106t65 -85.5t104 -55t148 -20.5q327 0 324 391l-12 709q-38 14 -75.5 33t-56.5 31l-18 12v77h467v-77q-53 -47 -127 -76l-8 -684q-2 -269 -147 -418.5t-418 -149.5q-115 0 -205.5 27t-149.5 73t-97.5 111 t-55 137.5t-16.5 155.5v752q-33 13 -64 31t-46 30zM444 1587l314 234l311 -234l-49 -84l-268 131l-258 -131z" />
<glyph unicode="&#xdc;" horiz-adv-x="1484" d="M68 1305v77h510v-77q-58 -41 -152 -72v-715q0 -67 10 -122t35 -106t65 -85.5t104 -55t148 -20.5q327 0 324 391l-12 709q-38 14 -75.5 33t-56.5 31l-18 12v77h467v-77q-53 -47 -127 -76l-8 -684q-2 -269 -147 -418.5t-418 -149.5q-115 0 -205.5 27t-149.5 73t-97.5 111 t-55 137.5t-16.5 155.5v752q-33 13 -64 31t-46 30zM424 1618q0 52 35 86.5t86 34.5q53 0 87 -34.5t34 -86.5q0 -51 -34.5 -86t-86.5 -35q-51 0 -86 35t-35 86zM846 1618q0 52 34 86.5t87 34.5q51 0 85.5 -34.5t34.5 -86.5q0 -51 -34.5 -86t-85.5 -35q-52 0 -86.5 35 t-34.5 86z" />
<glyph unicode="&#xdd;" horiz-adv-x="1220" d="M18 1305v77h494v-77q-10 -13 -45.5 -34t-83.5 -34l289 -514h2l235 510q-43 14 -82.5 37.5t-46.5 34.5v77h422v-77q-8 -13 -34.5 -33.5t-65.5 -38.5l-369 -664v-419q54 -12 106.5 -34.5t69.5 -35.5v-80h-585v80q17 13 69.5 35.5t106.5 34.5v419l-383 668q-34 12 -62 33.5 t-37 34.5zM524 1591l385 224l78 -177l-424 -135z" />
<glyph unicode="&#xde;" horiz-adv-x="1220" d="M68 0v80q79 47 161 70v1083q-36 11 -76.5 29t-62.5 30l-22 13v77h555v-75q-76 -41 -160 -64v-98q106 8 227 8q218 0 341.5 -104.5t123.5 -303.5q0 -133 -74 -240t-203.5 -166.5t-289.5 -59.5q-31 0 -62.5 2t-47.5 4l-15 2v-148q39 -11 80.5 -27t63.5 -26l22 -10v-76h-561 zM463 444q71 -34 180 -34q123 0 196.5 80t73.5 225q0 148 -79 231.5t-234 83.5q-31 0 -65.5 -4t-52.5 -8l-19 -4v-570z" />
<glyph unicode="&#xdf;" horiz-adv-x="1345" d="M72 0v80q76 46 155 65v732q-70 25 -155 41v86q70 20 155 26v35q0 204 138 323t387 119q169 0 281 -79t112 -195q0 -50 -14 -90t-36.5 -65.5t-50 -46.5t-55 -40t-50 -39t-36.5 -49.5t-14 -66.5q0 -43 22.5 -77t59 -59t80 -49t87.5 -52t80.5 -62.5t59 -87.5t22.5 -119 q0 -137 -127 -240.5t-292 -103.5q-112 0 -217 20v285h86q42 -83 61 -156q55 -18 111 -18q66 0 108.5 39t42.5 112q0 51 -22.5 91t-59 67t-80 51.5t-87.5 51t-80.5 58t-59 80t-22.5 109.5q0 47 13.5 85t35 63.5t47.5 47t51.5 42t47 43t35 55t13.5 72.5q0 86 -61.5 138 t-167.5 52t-163.5 -67.5t-57.5 -186.5v-983q45 -18 100 -57v-80h-483z" />
<glyph unicode="&#xe0;" horiz-adv-x="1060" d="M72 262q0 139 157.5 241.5t413.5 102.5v109q0 98 -48 153.5t-142 55.5q-37 0 -72 -10t-51 -20l-17 -9q-12 -47 -29.5 -91.5t-29.5 -65.5l-12 -21h-95v276q168 61 355 61q368 0 368 -296v-439q0 -37 4 -68.5t8 -44.5l3 -12q49 7 108 21l31 -82q-14 -11 -40 -29t-103 -57.5 t-150 -61.5q-24 37 -38.5 84.5t-17.5 76.5l-3 28h-2q-43 -79 -130.5 -131.5t-181.5 -52.5q-129 0 -207.5 79.5t-78.5 202.5zM205 1401l127 168l305 -320l-55 -80zM303 303q0 -72 41.5 -118t106.5 -46q72 0 132 59.5t60 147.5v146q-340 5 -340 -189z" />
<glyph unicode="&#xe1;" horiz-adv-x="1060" d="M72 262q0 139 157.5 241.5t413.5 102.5v109q0 98 -48 153.5t-142 55.5q-37 0 -72 -10t-51 -20l-17 -9q-12 -47 -29.5 -91.5t-29.5 -65.5l-12 -21h-95v276q168 61 355 61q368 0 368 -296v-439q0 -37 4 -68.5t8 -44.5l3 -12q49 7 108 21l31 -82q-14 -11 -40 -29t-103 -57.5 t-150 -61.5q-24 37 -38.5 84.5t-17.5 76.5l-3 28h-2q-43 -79 -130.5 -131.5t-181.5 -52.5q-129 0 -207.5 79.5t-78.5 202.5zM303 303q0 -72 41.5 -118t106.5 -46q72 0 132 59.5t60 147.5v146q-340 5 -340 -189zM381 1249l305 320l127 -168l-377 -232z" />
<glyph unicode="&#xe2;" horiz-adv-x="1060" d="M72 262q0 139 157.5 241.5t413.5 102.5v109q0 98 -48 153.5t-142 55.5q-37 0 -72 -10t-51 -20l-17 -9q-12 -47 -29.5 -91.5t-29.5 -65.5l-12 -21h-95v276q168 61 355 61q368 0 368 -296v-439q0 -37 4 -68.5t8 -44.5l3 -12q49 7 108 21l31 -82q-14 -11 -40 -29t-103 -57.5 t-150 -61.5q-24 37 -38.5 84.5t-17.5 76.5l-3 28h-2q-43 -79 -130.5 -131.5t-181.5 -52.5q-129 0 -207.5 79.5t-78.5 202.5zM211 1243l295 330l295 -330l-64 -76l-239 179l-226 -179zM303 303q0 -72 41.5 -118t106.5 -46q72 0 132 59.5t60 147.5v146q-340 5 -340 -189z" />
<glyph unicode="&#xe3;" horiz-adv-x="1060" d="M72 262q0 139 157.5 241.5t413.5 102.5v109q0 98 -48 153.5t-142 55.5q-37 0 -72 -10t-51 -20l-17 -9q-12 -47 -29.5 -91.5t-29.5 -65.5l-12 -21h-95v276q168 61 355 61q368 0 368 -296v-439q0 -37 4 -68.5t8 -44.5l3 -12q49 7 108 21l31 -82q-14 -11 -40 -29t-103 -57.5 t-150 -61.5q-24 37 -38.5 84.5t-17.5 76.5l-3 28h-2q-43 -79 -130.5 -131.5t-181.5 -52.5q-129 0 -207.5 79.5t-78.5 202.5zM162 1315q42 63 101 100t124 37q43 0 83.5 -14t66.5 -30t59.5 -30t65.5 -14q66 0 124 61l56 -71q-42 -63 -103 -101.5t-125 -38.5q-43 0 -82.5 14 t-65 31.5t-59 31.5t-65.5 14q-69 0 -127 -62zM303 303q0 -72 41.5 -118t106.5 -46q72 0 132 59.5t60 147.5v146q-340 5 -340 -189z" />
<glyph unicode="&#xe4;" horiz-adv-x="1060" d="M72 262q0 139 157.5 241.5t413.5 102.5v109q0 98 -48 153.5t-142 55.5q-37 0 -72 -10t-51 -20l-17 -9q-12 -47 -29.5 -91.5t-29.5 -65.5l-12 -21h-95v276q168 61 355 61q368 0 368 -296v-439q0 -37 4 -68.5t8 -44.5l3 -12q49 7 108 21l31 -82q-14 -11 -40 -29t-103 -57.5 t-150 -61.5q-24 37 -38.5 84.5t-17.5 76.5l-3 28h-2q-43 -79 -130.5 -131.5t-181.5 -52.5q-129 0 -207.5 79.5t-78.5 202.5zM172 1343q0 53 35.5 88t89.5 35q53 0 89 -35.5t36 -87.5q0 -54 -36 -89t-89 -35q-54 0 -89.5 35t-35.5 89zM303 303q0 -72 41.5 -118t106.5 -46 q72 0 132 59.5t60 147.5v146q-340 5 -340 -189zM578 1343q0 53 35 88t89 35q53 0 89 -35.5t36 -87.5q0 -54 -36 -89t-89 -35q-54 0 -89 35t-35 89z" />
<glyph unicode="&#xe5;" horiz-adv-x="1060" d="M72 262q0 139 157.5 241.5t413.5 102.5v109q0 98 -48 153.5t-142 55.5q-37 0 -72 -10t-51 -20l-17 -9q-12 -47 -29.5 -91.5t-29.5 -65.5l-12 -21h-95v276q168 61 355 61q368 0 368 -296v-439q0 -37 4 -68.5t8 -44.5l3 -12q49 7 108 21l31 -82q-14 -11 -40 -29t-103 -57.5 t-150 -61.5q-24 37 -38.5 84.5t-17.5 76.5l-3 28h-2q-43 -79 -130.5 -131.5t-181.5 -52.5q-129 0 -207.5 79.5t-78.5 202.5zM254 1356q0 105 78.5 168t185.5 63q113 0 177.5 -57t64.5 -160q0 -107 -78 -170t-186 -63q-112 0 -177 57.5t-65 161.5zM303 303q0 -72 41.5 -118 t106.5 -46q72 0 132 59.5t60 147.5v146q-340 5 -340 -189zM391 1370q0 -63 32 -100t91 -37q109 0 109 123q0 61 -32 98t-91 37q-109 0 -109 -121z" />
<glyph unicode="&#xe6;" horiz-adv-x="1601" d="M72 262q0 139 157.5 241.5t413.5 102.5v119q0 91 -48.5 145t-141.5 54q-77 0 -140 -39q-30 -116 -71 -178h-95v276q168 61 355 61q226 0 301 -122q49 56 127 88t176 32q206 0 310 -116.5t104 -323.5q0 -57 -2 -84h-648v-24q0 -178 80.5 -266.5t233.5 -88.5q74 0 155 22.5 t138 59.5l39 -104q-186 -135 -414 -135q-285 0 -397 213q-57 -100 -149.5 -157.5t-197.5 -57.5q-129 0 -207.5 79.5t-78.5 202.5zM303 303q0 -72 41.5 -118t106.5 -46q72 0 132 59.5t60 147.5v146q-340 5 -340 -189zM872 631h412q0 129 -51.5 210t-147.5 81q-95 0 -149 -81 t-64 -210z" />
<glyph unicode="&#xe7;" horiz-adv-x="952" d="M82 483q0 262 131 409.5t383 147.5q149 0 264 -32v-312h-96q-50 95 -66 185q-55 32 -149 32q-107 0 -167 -109t-60 -282q0 -191 85.5 -286t231.5 -95q54 0 109.5 14.5t84.5 28.5l29 15l35 -103q-118 -90 -281 -108l-67 -94q115 -60 115 -148q0 -67 -63.5 -135 t-178.5 -127l-86 53q123 84 123 154q0 56 -109 106l142 191q-88 7 -160.5 39t-129.5 90t-88.5 151.5t-31.5 214.5z" />
<glyph unicode="&#xe8;" horiz-adv-x="1054" d="M82 496q0 247 126.5 396.5t348.5 149.5q206 0 311 -116.5t105 -323.5q0 -14 -1 -42t-1 -42h-649v-24q0 -178 81 -266.5t234 -88.5q74 0 155 22.5t138 59.5l37 -104q-183 -135 -414 -135q-224 0 -347.5 131.5t-123.5 382.5zM223 1401l127 168l305 -320l-55 -80zM324 631 h411q2 129 -49 210t-147 81q-97 0 -151 -81t-64 -210z" />
<glyph unicode="&#xe9;" horiz-adv-x="1054" d="M82 496q0 247 126.5 396.5t348.5 149.5q206 0 311 -116.5t105 -323.5q0 -14 -1 -42t-1 -42h-649v-24q0 -178 81 -266.5t234 -88.5q74 0 155 22.5t138 59.5l37 -104q-183 -135 -414 -135q-224 0 -347.5 131.5t-123.5 382.5zM324 631h411q2 129 -49 210t-147 81 q-97 0 -151 -81t-64 -210zM418 1249l305 320l127 -168l-377 -232z" />
<glyph unicode="&#xea;" horiz-adv-x="1054" d="M82 496q0 247 126.5 396.5t348.5 149.5q206 0 311 -116.5t105 -323.5q0 -14 -1 -42t-1 -42h-649v-24q0 -178 81 -266.5t234 -88.5q74 0 155 22.5t138 59.5l37 -104q-183 -135 -414 -135q-224 0 -347.5 131.5t-123.5 382.5zM244 1243l295 330l295 -330l-64 -76l-240 179 l-225 -179zM324 631h411q2 129 -49 210t-147 81q-97 0 -151 -81t-64 -210z" />
<glyph unicode="&#xeb;" horiz-adv-x="1054" d="M82 496q0 247 126.5 396.5t348.5 149.5q206 0 311 -116.5t105 -323.5q0 -14 -1 -42t-1 -42h-649v-24q0 -178 81 -266.5t234 -88.5q74 0 155 22.5t138 59.5l37 -104q-183 -135 -414 -135q-224 0 -347.5 131.5t-123.5 382.5zM217 1343q0 53 35.5 88t89.5 35q53 0 89 -35.5 t36 -87.5q0 -54 -36 -89t-89 -35q-54 0 -89.5 35t-35.5 89zM324 631h411q2 129 -49 210t-147 81q-97 0 -151 -81t-64 -210zM623 1343q0 53 35.5 88t89.5 35q53 0 88.5 -35.5t35.5 -87.5q0 -54 -35.5 -89t-88.5 -35q-54 0 -89.5 35t-35.5 89z" />
<glyph unicode="&#xec;" horiz-adv-x="649" d="M29 1401l127 168l305 -320l-55 -80zM72 0v80q73 42 155 65v732q-65 27 -155 41v81q17 4 49 10t132 15t202 6v-885q35 -11 70.5 -27.5t54.5 -27.5l18 -10v-80h-526z" />
<glyph unicode="&#xed;" horiz-adv-x="649" d="M72 0v80q73 42 155 65v732q-65 27 -155 41v81q17 4 49 10t132 15t202 6v-885q35 -11 70.5 -27.5t54.5 -27.5l18 -10v-80h-526zM180 1249l305 320l127 -168l-376 -232z" />
<glyph unicode="&#xee;" horiz-adv-x="649" d="M39 1243l295 330l295 -330l-64 -76l-239 179l-226 -179zM72 0v80q73 42 155 65v732q-65 27 -155 41v81q17 4 49 10t132 15t202 6v-885q35 -11 70.5 -27.5t54.5 -27.5l18 -10v-80h-526z" />
<glyph unicode="&#xef;" horiz-adv-x="649" d="M29 1343q0 53 34.5 88t88.5 35q52 0 87 -35t35 -88q0 -54 -34.5 -89t-87.5 -35q-54 0 -88.5 35t-34.5 89zM72 0v80q73 42 155 65v732q-65 27 -155 41v81q17 4 49 10t132 15t202 6v-885q35 -11 70.5 -27.5t54.5 -27.5l18 -10v-80h-526zM397 1343q0 53 34.5 88t88.5 35 q52 0 87.5 -35t35.5 -88q0 -54 -35 -89t-88 -35q-54 0 -88.5 35t-34.5 89z" />
<glyph unicode="&#xf0;" horiz-adv-x="1114" d="M70 473q0 270 147 415.5t393 145.5q47 0 72 -2q-59 100 -152 187l-264 -127l-57 96l213 106q-107 72 -127 84q-78 20 -158 29v82q127 29 307 29q110 -58 195 -125l238 116l59 -98l-201 -98q299 -293 299 -719q0 -284 -138.5 -449t-377.5 -165q-218 0 -333 132.5 t-115 360.5zM309 512q0 -185 66 -292t190 -107q109 0 170.5 107.5t61.5 320.5q0 191 -58 338q-67 28 -155 28q-134 0 -204.5 -100t-70.5 -295z" />
<glyph unicode="&#xf1;" horiz-adv-x="1304" d="M72 0v80q69 40 155 65v732q-63 25 -155 41v81q18 4 50 10t131.5 15t197.5 6q0 -53 -3.5 -103.5t-7.5 -74.5l-4 -25h4q38 94 130.5 155.5t222.5 61.5q168 0 249.5 -111.5t81.5 -340.5q0 -111 -2.5 -223t-5.5 -168l-2 -56q35 -11 69.5 -27.5t52.5 -27.5l17 -10v-80h-495v76 q59 38 129 67q8 177 8 394q0 176 -42.5 264t-147.5 88q-76 0 -134 -47t-87 -119t-29 -154v-426q32 -13 64.5 -29.5t48.5 -27.5l16 -10v-76h-512zM342 1315q42 63 101 100t124 37q43 0 83.5 -14t66.5 -30t59.5 -30t65.5 -14q67 0 125 61l55 -71q-43 -63 -103 -101.5 t-124 -38.5q-54 0 -102 23t-90 45.5t-81 22.5q-69 0 -127 -62z" />
<glyph unicode="&#xf2;" horiz-adv-x="1206" d="M82 487q0 172 75.5 299.5t201 191.5t282.5 64q226 0 354.5 -132t128.5 -373q0 -172 -75.5 -300t-201 -192.5t-282.5 -64.5q-226 0 -354.5 132.5t-128.5 374.5zM293 1401l127 168l305 -320l-55 -80zM324 524q0 -186 79.5 -297.5t219.5 -111.5q124 0 192 97.5t68 287.5 q0 186 -79.5 297.5t-219.5 111.5q-124 0 -192 -98t-68 -287z" />
<glyph unicode="&#xf3;" horiz-adv-x="1206" d="M82 487q0 172 75.5 299.5t201 191.5t282.5 64q226 0 354.5 -132t128.5 -373q0 -172 -75.5 -300t-201 -192.5t-282.5 -64.5q-226 0 -354.5 132.5t-128.5 374.5zM324 524q0 -186 79.5 -297.5t219.5 -111.5q124 0 192 97.5t68 287.5q0 186 -79.5 297.5t-219.5 111.5 q-124 0 -192 -98t-68 -287zM479 1249l305 320l127 -168l-376 -232z" />
<glyph unicode="&#xf4;" horiz-adv-x="1206" d="M82 487q0 172 75.5 299.5t201 191.5t282.5 64q226 0 354.5 -132t128.5 -373q0 -172 -75.5 -300t-201 -192.5t-282.5 -64.5q-226 0 -354.5 132.5t-128.5 374.5zM305 1243l295 330l295 -330l-64 -76l-239 179l-225 -179zM324 524q0 -186 79.5 -297.5t219.5 -111.5 q124 0 192 97.5t68 287.5q0 186 -79.5 297.5t-219.5 111.5q-124 0 -192 -98t-68 -287z" />
<glyph unicode="&#xf5;" horiz-adv-x="1206" d="M82 487q0 172 75.5 299.5t201 191.5t282.5 64q226 0 354.5 -132t128.5 -373q0 -172 -75.5 -300t-201 -192.5t-282.5 -64.5q-226 0 -354.5 132.5t-128.5 374.5zM270 1315q42 63 101.5 100t124.5 37q55 0 103 -22t90 -44t81 -22q67 0 125 61l55 -71q-43 -63 -103 -101.5 t-124 -38.5q-43 0 -82.5 14t-65 31.5t-59 31.5t-65.5 14q-69 0 -127 -62zM324 524q0 -186 79.5 -297.5t219.5 -111.5q124 0 192 97.5t68 287.5q0 186 -79.5 297.5t-219.5 111.5q-124 0 -192 -98t-68 -287z" />
<glyph unicode="&#xf6;" horiz-adv-x="1206" d="M82 487q0 172 75.5 299.5t201 191.5t282.5 64q226 0 354.5 -132t128.5 -373q0 -172 -75.5 -300t-201 -192.5t-282.5 -64.5q-226 0 -354.5 132.5t-128.5 374.5zM274 1343q0 53 35.5 88t89.5 35q53 0 89 -35.5t36 -87.5q0 -54 -36 -89t-89 -35q-54 0 -89.5 35t-35.5 89z M324 524q0 -186 79.5 -297.5t219.5 -111.5q124 0 192 97.5t68 287.5q0 186 -79.5 297.5t-219.5 111.5q-124 0 -192 -98t-68 -287zM680 1343q0 53 35.5 88t89.5 35q53 0 89 -35.5t36 -87.5q0 -54 -36 -89t-89 -35q-54 0 -89.5 35t-35.5 89z" />
<glyph unicode="&#xf7;" d="M68 481v154h991v-154h-991zM434 143q0 54 37.5 91.5t91.5 37.5t91.5 -37.5t37.5 -91.5q0 -53 -37.5 -90t-91.5 -37t-91.5 37t-37.5 90zM434 971q0 54 37.5 91.5t91.5 37.5t91.5 -37.5t37.5 -91.5q0 -53 -37.5 -90t-91.5 -37t-91.5 37t-37.5 90z" />
<glyph unicode="&#xf8;" horiz-adv-x="1206" d="M82 487q0 173 74.5 300.5t200 191t284.5 63.5q94 0 162 -24l117 217l120 -64l-112 -204q196 -132 196 -430q0 -173 -74 -301t-199.5 -192t-285.5 -64q-92 0 -157 24l-121 -223l-121 61l115 211q-199 131 -199 434zM317 526q0 -175 70 -276l340 624q-59 41 -143 41 q-127 0 -197 -100.5t-70 -288.5zM485 147q56 -38 138 -38q125 0 195.5 100t70.5 293q0 164 -66 268z" />
<glyph unicode="&#xf9;" horiz-adv-x="1271" d="M51 918v81q16 4 46.5 10t127 15t197.5 6q-12 -263 -12 -543q0 -176 42.5 -264t147.5 -88q114 0 182 96t68 224v424q-57 23 -145 39v81q16 4 46.5 10t127.5 15t198 6v-885q56 -23 144 -41v-81q-17 -4 -48 -10t-126.5 -15t-190.5 -6q0 54 3 105t6 75l3 25h-4 q-40 -96 -132.5 -156.5t-217.5 -60.5q-170 0 -252 111.5t-82 340.5q0 113 2.5 224.5t5.5 167.5l2 55q-53 23 -139 39zM258 1401l127 168l305 -320l-55 -80z" />
<glyph unicode="&#xfa;" horiz-adv-x="1271" d="M51 918v81q16 4 46.5 10t127 15t197.5 6q-12 -263 -12 -543q0 -176 42.5 -264t147.5 -88q114 0 182 96t68 224v424q-57 23 -145 39v81q16 4 46.5 10t127.5 15t198 6v-885q56 -23 144 -41v-81q-17 -4 -48 -10t-126.5 -15t-190.5 -6q0 54 3 105t6 75l3 25h-4 q-40 -96 -132.5 -156.5t-217.5 -60.5q-170 0 -252 111.5t-82 340.5q0 113 2.5 224.5t5.5 167.5l2 55q-53 23 -139 39zM530 1249l306 320l127 -168l-377 -232z" />
<glyph unicode="&#xfb;" horiz-adv-x="1271" d="M51 918v81q16 4 46.5 10t127 15t197.5 6q-12 -263 -12 -543q0 -176 42.5 -264t147.5 -88q114 0 182 96t68 224v424q-57 23 -145 39v81q16 4 46.5 10t127.5 15t198 6v-885q56 -23 144 -41v-81q-17 -4 -48 -10t-126.5 -15t-190.5 -6q0 54 3 105t6 75l3 25h-4 q-40 -96 -132.5 -156.5t-217.5 -60.5q-170 0 -252 111.5t-82 340.5q0 113 2.5 224.5t5.5 167.5l2 55q-53 23 -139 39zM332 1243l295 330l295 -330l-64 -76l-240 179l-225 -179z" />
<glyph unicode="&#xfc;" horiz-adv-x="1271" d="M51 918v81q16 4 46.5 10t127 15t197.5 6q-12 -263 -12 -543q0 -176 42.5 -264t147.5 -88q114 0 182 96t68 224v424q-57 23 -145 39v81q16 4 46.5 10t127.5 15t198 6v-885q56 -23 144 -41v-81q-17 -4 -48 -10t-126.5 -15t-190.5 -6q0 54 3 105t6 75l3 25h-4 q-40 -96 -132.5 -156.5t-217.5 -60.5q-170 0 -252 111.5t-82 340.5q0 113 2.5 224.5t5.5 167.5l2 55q-53 23 -139 39zM299 1343q0 53 35.5 88t89.5 35q53 0 89 -35.5t36 -87.5q0 -54 -36 -89t-89 -35q-54 0 -89.5 35t-35.5 89zM705 1343q0 53 35 88t89 35q53 0 89 -35.5 t36 -87.5q0 -54 -36 -89t-89 -35q-54 0 -89 35t-35 89z" />
<glyph unicode="&#xfd;" horiz-adv-x="1142" d="M20 944v80h496v-80q-65 -39 -137 -59l170 -459q58 -153 78 -233h4q14 70 65 260l123 432q-58 15 -129 59v80h430v-80q-70 -46 -110 -59l-271 -750q-89 -246 -183.5 -390t-202 -204.5t-251.5 -60.5q-31 0 -59 4l29 199q63 -13 118 -13q48 0 82 10.5t69.5 41.5t69.5 87 t76 148l-356 930q-56 17 -111 57zM510 1249l305 320l127 -168l-377 -232z" />
<glyph unicode="&#xfe;" horiz-adv-x="1179" d="M6 -422q82 47 156 68v1706q-89 32 -156 41v84q153 35 383 28v-504q0 -79 -12 -165l4 -2q36 90 123.5 150t202.5 60q183 0 286 -132.5t103 -352.5q0 -275 -152 -423t-397 -148q-94 0 -158 12v-354q73 -19 158 -68v-80h-541v80zM389 160q76 -51 193 -51q131 0 204.5 105.5 t73.5 305.5q0 165 -63 266t-176 101q-95 0 -163.5 -94.5t-68.5 -227.5v-405z" />
<glyph unicode="&#xff;" horiz-adv-x="1142" d="M20 944v80h496v-80q-65 -39 -137 -59l170 -459q58 -153 78 -233h4q14 70 65 260l123 432q-58 15 -129 59v80h430v-80q-70 -46 -110 -59l-271 -750q-89 -246 -183.5 -390t-202 -204.5t-251.5 -60.5q-31 0 -59 4l29 199q63 -13 118 -13q48 0 82 10.5t69.5 41.5t69.5 87 t76 148l-356 930q-56 17 -111 57zM283 1343q0 53 35.5 88t89.5 35q53 0 88.5 -35.5t35.5 -87.5q0 -54 -35.5 -89t-88.5 -35q-54 0 -89.5 35t-35.5 89zM688 1343q0 53 35.5 88t89.5 35q53 0 89 -35.5t36 -87.5q0 -54 -36 -89t-89 -35q-54 0 -89.5 35t-35.5 89z" />
<glyph unicode="&#x152;" horiz-adv-x="1816" d="M76 666q0 171 56 311.5t153.5 233t227 142.5t278.5 50q89 0 208 -21h687v-317h-105q-54 115 -70 192h-346v-487h279q14 56 61 131h90v-377h-90q-50 80 -61 129h-279v-524h348q16 76 70 203h107v-332h-779q-95 -20 -188 -20q-306 0 -476.5 180.5t-170.5 505.5zM330 707 q0 -260 122.5 -420t333.5 -160q75 0 148 27v1063q-98 40 -207 40q-187 0 -292 -144t-105 -406z" />
<glyph unicode="&#x153;" horiz-adv-x="1849" d="M82 487q0 172 75.5 299.5t201 191.5t282.5 64q251 0 365 -168q125 168 348 168q206 0 309.5 -115.5t103.5 -322.5q0 -59 -2 -86h-647v-24q0 -178 80.5 -266.5t233.5 -88.5q74 0 154.5 22.5t137.5 59.5l39 -104q-186 -135 -413 -135q-259 0 -371 186q-71 -92 -178.5 -140 t-235.5 -48q-226 0 -354.5 132.5t-128.5 374.5zM324 524q0 -186 79.5 -297.5t219.5 -111.5q124 0 192 97.5t68 287.5q0 186 -79.5 297.5t-219.5 111.5q-124 0 -192 -98t-68 -287zM1120 631h412q0 129 -51.5 210t-147.5 81q-95 0 -149 -81t-64 -210z" />
<glyph unicode="&#x178;" horiz-adv-x="1220" d="M18 1305v77h494v-77q-10 -13 -45.5 -34t-83.5 -34l289 -514h2l235 510q-43 14 -82.5 37.5t-46.5 34.5v77h422v-77q-8 -13 -34.5 -33.5t-65.5 -38.5l-369 -664v-419q54 -12 106.5 -34.5t69.5 -35.5v-80h-585v80q17 13 69.5 35.5t106.5 34.5v419l-383 668q-34 12 -62 33.5 t-37 34.5zM297 1618q0 52 35 86.5t86 34.5q52 0 86.5 -34.5t34.5 -86.5q0 -51 -34.5 -86t-86.5 -35q-51 0 -86 35t-35 86zM719 1618q0 52 34.5 86.5t86.5 34.5q51 0 86 -34.5t35 -86.5q0 -51 -35 -86t-86 -35q-52 0 -86.5 35t-34.5 86z" />
<glyph unicode="&#x2c6;" horiz-adv-x="862" d="M135 1243l295 330l295 -330l-63 -76l-240 179l-225 -179z" />
<glyph unicode="&#x2dc;" horiz-adv-x="997" d="M160 1315q42 63 101 100t124 37q55 0 103 -22t90 -44t81 -22q67 0 125 61l56 -71q-42 -63 -103 -101.5t-125 -38.5q-43 0 -82.5 14t-65 31.5t-59 31.5t-65.5 14q-69 0 -127 -62z" />
<glyph unicode="&#x2000;" horiz-adv-x="930" />
<glyph unicode="&#x2001;" horiz-adv-x="1860" />
<glyph unicode="&#x2002;" horiz-adv-x="930" />
<glyph unicode="&#x2003;" horiz-adv-x="1860" />
<glyph unicode="&#x2004;" horiz-adv-x="620" />
<glyph unicode="&#x2005;" horiz-adv-x="465" />
<glyph unicode="&#x2006;" horiz-adv-x="310" />
<glyph unicode="&#x2007;" horiz-adv-x="310" />
<glyph unicode="&#x2008;" horiz-adv-x="232" />
<glyph unicode="&#x2009;" horiz-adv-x="372" />
<glyph unicode="&#x200a;" horiz-adv-x="103" />
<glyph unicode="&#x2010;" horiz-adv-x="649" d="M84 506v162h479v-162h-479z" />
<glyph unicode="&#x2011;" horiz-adv-x="649" d="M84 506v162h479v-162h-479z" />
<glyph unicode="&#x2012;" horiz-adv-x="649" d="M84 506v162h479v-162h-479z" />
<glyph unicode="&#x2013;" horiz-adv-x="1024" d="M0 500v168h1024v-168h-1024z" />
<glyph unicode="&#x2014;" horiz-adv-x="2048" d="M193 500v168h1662v-168h-1662z" />
<glyph unicode="&#x2018;" horiz-adv-x="524" d="M131 1252q55 154 240 292l69 -69q-69 -69 -95 -125.5t-19.5 -92t34.5 -69.5q25 -31 29 -68.5t-10.5 -69.5t-47 -53.5t-75.5 -21.5q-79 0 -120 69q-49 85 -5 208z" />
<glyph unicode="&#x2019;" horiz-adv-x="524" d="M80 1032q69 69 95 125.5t19.5 92t-34.5 69.5q-25 31 -29 68.5t10.5 68.5t47 52.5t75.5 21.5q79 0 120 -69q49 -84 6 -206q-54 -155 -240 -292z" />
<glyph unicode="&#x201a;" horiz-adv-x="503" d="M47 -242q186 156 84 287q-27 33 -31 72.5t12 72t50 54.5t78 22q81 0 123 -71q51 -84 10 -205q-55 -163 -254 -303z" />
<glyph unicode="&#x201c;" horiz-adv-x="946" d="M131 1252q55 154 240 292l69 -69q-69 -69 -95 -125.5t-19.5 -92t34.5 -69.5q25 -31 29 -68.5t-10.5 -69.5t-47 -53.5t-75.5 -21.5q-79 0 -120 69q-49 85 -5 208zM553 1251q54 155 240 293l71 -69q-70 -69 -96.5 -125.5t-20 -92t34.5 -69.5q25 -31 29 -69t-10 -69.5 t-46.5 -53t-74.5 -21.5q-80 0 -121 69q-50 84 -6 207z" />
<glyph unicode="&#x201d;" horiz-adv-x="946" d="M80 1024q69 69 95 125.5t19.5 92t-34.5 69.5q-25 31 -29 68.5t10.5 68.5t47 52.5t75.5 21.5q79 0 120 -70q49 -84 6 -206q-55 -155 -240 -292zM502 1024q70 69 96 126t19 91.5t-35 69.5q-24 31 -28 68.5t10 68.5t46.5 52.5t75.5 21.5q79 0 120 -70q49 -84 5 -206 q-55 -155 -240 -292z" />
<glyph unicode="&#x201e;" horiz-adv-x="917" d="M51 -258q53 52 81.5 96.5t32.5 79.5t-4 60t-28 51q-25 31 -29 68.5t10 69.5t46.5 53.5t75.5 21.5q80 0 121 -70q49 -85 4 -208q-55 -154 -240 -292zM473 -258q70 69 96.5 125.5t20 92t-34.5 69.5q-25 31 -29 68.5t9.5 69.5t46 53.5t75.5 21.5q80 0 121 -70q50 -85 7 -208 q-56 -155 -240 -292z" />
<glyph unicode="&#x2022;" horiz-adv-x="880" d="M176 602q0 105 74.5 179.5t179.5 74.5q104 0 179 -75t75 -179t-75 -179t-179 -75q-105 0 -179.5 74.5t-74.5 179.5z" />
<glyph unicode="&#x202f;" horiz-adv-x="372" />
<glyph unicode="&#x2039;" horiz-adv-x="714" d="M119 547l323 438l115 -59l-205 -377l205 -373l-119 -61z" />
<glyph unicode="&#x203a;" horiz-adv-x="714" d="M158 174l204 377l-204 373l118 61l320 -432l-324 -438z" />
<glyph unicode="&#x205f;" horiz-adv-x="465" />
<glyph unicode="&#x20ac;" horiz-adv-x="1245" d="M51 489v107h164q-2 23 -2 72q0 46 4 112h-166v105h178q43 260 186.5 387t405.5 127q151 0 301 -35v-336h-98q-43 87 -61 180q-88 45 -199 45q-134 0 -204 -92t-89 -276h363v-105h-373v-73q0 -74 4 -111h369v-107h-355q22 -164 116.5 -246.5t276.5 -82.5q146 0 265 61 l28 -119q-185 -122 -383 -122q-258 0 -393.5 127t-165.5 382h-172z" />
<glyph unicode="&#x2122;" horiz-adv-x="1802" d="M86 1141v241h627v-241h-74q-31 55 -47 143h-111v-455q45 -8 113 -47v-67h-391v67q64 39 112 47v455h-112q-7 -72 -43 -143h-74zM721 715v69q50 27 88 39l100 449q-34 3 -108 37v73h323l127 -403l119 403h309v-73q-66 -32 -106 -37l96 -449q54 -12 88 -39v-69h-346v67 q46 33 84 41l-70 396l-149 -504h-109l-159 504l-50 -396q38 -13 78 -41v-67h-315z" />
<glyph unicode="&#x25fc;" horiz-adv-x="1024" d="M0 0v1024h1024v-1024h-1024z" />
<glyph unicode="&#xfb01;" horiz-adv-x="1312" d="M45 901v123h191v55q0 225 131.5 341t369.5 116q184 0 298 -55.5t114 -147.5q0 -58 -39 -96.5t-102 -38.5t-102.5 37t-39.5 96q0 26 11 41q-77 49 -185 49q-115 0 -172 -69t-57 -224v-104h655v-879q35 -11 71 -27.5t55 -27.5l18 -10v-80h-498v80q57 36 127 65v756h-428 v-758q36 -13 70 -28.5t51 -24.5l16 -10v-80h-530v80q68 38 166 65v756h-191z" />
<glyph unicode="&#xfb02;" horiz-adv-x="1312" d="M45 901v123h191v80q0 214 118 318t365 104q88 0 187.5 -9t155.5 -19l56 -9v-1344q35 -11 71 -27.5t55 -27.5l18 -10v-80h-502v76q57 40 131 67v1229q-98 35 -207 35q-113 0 -167 -65t-54 -214v-104h225v-123h-225v-758q36 -14 70.5 -30.5t50.5 -26.5l16 -10v-76h-530v80 q68 38 166 65v756h-191z" />
</font>
</defs>
</svg>
